<svg xmlns="http://www.w3.org/2000/svg" width="1877.666" height="473.42" viewBox="0 0 1877.666 473.42">
  <g id="Group_240" data-name="Group 240" transform="translate(265 -1498.353)">
    <g id="Group_230" data-name="Group 230" transform="translate(-35.285 1498.353)">
      <g id="Group_202" data-name="Group 202" transform="translate(52.993 149.186)">
        <path id="Path_438" data-name="Path 438" d="M150.085,528.3a5.1,5.1,0,0,1-5.123,0,5.41,5.41,0,0,0-5.386,5.386v73.694a2.635,2.635,0,0,0,2.627,2.627h10.64a2.635,2.635,0,0,0,2.627-2.627V533.559a5.3,5.3,0,0,0-5.343-5.255Z" transform="translate(-139.576 -504.922)" fill="#e1e2c3"/>
        <path id="Path_439" data-name="Path 439" d="M148.033,502.72c3.284,0,11.56-3.941,5.78-11.034-3.808-4.6-2.63-11.035-5.78-11.035-3.284,0-5.78,4.992-5.78,11.034S144.749,502.72,148.033,502.72Z" transform="translate(-140.939 -480.651)" fill="#FFC31A"/> 
      </g>
      <g id="Group_230-2" data-name="Group 230" transform="translate(0 186.477)">
        <path id="Path_438-2" data-name="Path 438-2" d="M42.085,604.3a5.1,5.1,0,0,1-5.123,0,5.409,5.409,0,0,0-5.386,5.386v73.694a2.635,2.635,0,0,0,2.627,2.627h10.64a2.635,2.635,0,0,0,2.627-2.627V609.559a5.3,5.3,0,0,0-5.343-5.255Z" transform="translate(-31.576 -580.922)" fill="#e1e2c3"/>
        <path id="Path_439-2" data-name="Path 439-2" d="M40.033,578.72c3.284,0,11.56-3.941,5.78-11.034-3.808-4.6-2.63-11.035-5.78-11.035-3.284,0-5.78,4.992-5.78,11.034S36.749,578.72,40.033,578.72Z" transform="translate(-32.939 -556.651)" fill="#FFC31A"/>
      </g>
      <g id="Group_203" data-name="Group 203" transform="translate(79.98 61.334)">
        <path id="Path_438-3" data-name="Path 438-3" d="M199.494,323.9a2.388,2.388,0,0,1-2.4,0,2.532,2.532,0,0,0-2.52,2.52v34.483a1.233,1.233,0,0,0,1.229,1.229h4.979a1.233,1.233,0,0,0,1.229-1.229V326.365a2.48,2.48,0,0,0-2.5-2.46Z" transform="translate(-194.576 -312.964)" fill="#e1e2c3"/>
        <path id="Path_439-3" data-name="Path 439-3" d="M198.534,311.934c1.537,0,5.409-1.844,2.7-5.163-1.783-2.152-1.229-5.163-2.7-5.163-1.537,0-2.7,2.336-2.7,5.163S197,311.934,198.534,311.934Z" transform="translate(-195.214 -301.607)" fill="#FFC31A"/>
      </g>
      <g id="Group_229" data-name="Group 229" transform="translate(15.702 80.47)">
        <path id="Path_438-4" data-name="Path 438-4" d="M68.494,362.9a2.387,2.387,0,0,1-2.4,0,2.532,2.532,0,0,0-2.52,2.52v34.483a1.233,1.233,0,0,0,1.229,1.229h4.979a1.233,1.233,0,0,0,1.229-1.229V365.365a2.48,2.48,0,0,0-2.5-2.46Z" transform="translate(-63.576 -351.964)" fill="#e1e2c3"/>
        <path id="Path_439-4" data-name="Path 439-4" d="M67.534,350.934c1.537,0,5.409-1.844,2.7-5.163-1.783-2.152-1.229-5.163-2.7-5.163-1.537,0-2.7,2.336-2.7,5.163S66,350.934,67.534,350.934Z" transform="translate(-64.214 -340.607)" fill="#FFC31A"/>
      </g>
      <g id="Group_214" data-name="Group 214" transform="translate(194.797 49.067)">
        <path id="Path_438-5" data-name="Path 438-5" d="M433.493,298.9a2.387,2.387,0,0,1-2.4,0,2.532,2.532,0,0,0-2.52,2.52v34.483a1.233,1.233,0,0,0,1.229,1.229h4.979a1.233,1.233,0,0,0,1.229-1.229V301.365a2.48,2.48,0,0,0-2.5-2.46Z" transform="translate(-428.576 -287.964)" fill="#e1e2c3"/>
        <path id="Path_439-5" data-name="Path 439-5" d="M432.534,286.934c1.537,0,5.409-1.844,2.7-5.163-1.783-2.152-1.229-5.163-2.7-5.163-1.537,0-2.7,2.336-2.7,5.163S431,286.934,432.534,286.934Z" transform="translate(-429.214 -276.607)" fill="#FFC31A"/>
      </g>
      <g id="Group_226" data-name="Group 226" transform="translate(799.306 46.614)">
        <path id="Path_438-6" data-name="Path 438-6" d="M1665.494,293.9a2.387,2.387,0,0,1-2.4,0,2.531,2.531,0,0,0-2.52,2.52v34.483a1.232,1.232,0,0,0,1.229,1.229h4.979a1.232,1.232,0,0,0,1.229-1.229V296.365a2.48,2.48,0,0,0-2.5-2.46Z" transform="translate(-1660.576 -282.964)" fill="#e1e2c3"/>
        <path id="Path_439-6" data-name="Path 439-6" d="M1664.533,281.934c1.537,0,5.409-1.844,2.7-5.163-1.783-2.152-1.229-5.163-2.7-5.163-1.537,0-2.7,2.336-2.7,5.163S1663,281.934,1664.533,281.934Z" transform="translate(-1661.214 -271.607)" fill="#FFC31A"/>
      </g>
      <g id="Group_227" data-name="Group 227" transform="translate(861.621 0)">
        <path id="Path_438-7" data-name="Path 438-7" d="M1792.494,198.9a2.388,2.388,0,0,1-2.4,0,2.532,2.532,0,0,0-2.52,2.52v34.483a1.232,1.232,0,0,0,1.229,1.229h4.979a1.233,1.233,0,0,0,1.229-1.229V201.365a2.48,2.48,0,0,0-2.5-2.46Z" transform="translate(-1787.576 -187.964)" fill="#e1e2c3"/>
        <path id="Path_439-7" data-name="Path 439-7" d="M1791.533,186.934c1.537,0,5.409-1.844,2.7-5.163-1.783-2.152-1.229-5.163-2.7-5.163-1.537,0-2.7,2.336-2.7,5.163S1790,186.934,1791.533,186.934Z" transform="translate(-1788.214 -176.607)" fill="#FFC31A"/>
      </g>
      <g id="Group_225" data-name="Group 225" transform="translate(183.512 100.097)">
        <path id="Path_438-8" data-name="Path 438-8" d="M410.493,402.9a2.387,2.387,0,0,1-2.4,0,2.532,2.532,0,0,0-2.52,2.52v34.483a1.233,1.233,0,0,0,1.229,1.229h4.979a1.233,1.233,0,0,0,1.229-1.229V405.365a2.48,2.48,0,0,0-2.5-2.46Z" transform="translate(-405.576 -391.964)" fill="#e1e2c3"/>
        <path id="Path_439-8" data-name="Path 439-8" d="M409.534,390.934c1.537,0,5.409-1.844,2.7-5.163-1.783-2.152-1.229-5.163-2.7-5.163-1.537,0-2.7,2.336-2.7,5.163S408,390.934,409.534,390.934Z" transform="translate(-406.214 -380.607)" fill="#FFC31A"/>
      </g>
      <g id="Group_215" data-name="Group 215" transform="translate(242.883 120.215)">
        <path id="Path_438-9" data-name="Path 438-9" d="M531.494,443.9a2.387,2.387,0,0,1-2.4,0,2.532,2.532,0,0,0-2.52,2.52v34.484a1.232,1.232,0,0,0,1.229,1.229h4.979a1.232,1.232,0,0,0,1.229-1.229V446.365a2.48,2.48,0,0,0-2.5-2.46Z" transform="translate(-526.576 -432.964)" fill="#e1e2c3"/>
        <path id="Path_439-9" data-name="Path 439-9" d="M530.534,431.934c1.537,0,5.409-1.844,2.7-5.163-1.783-2.152-1.229-5.163-2.7-5.163-1.537,0-2.7,2.336-2.7,5.163S529,431.934,530.534,431.934Z" transform="translate(-527.214 -421.607)" fill="#FFC31A"/>
      </g>
      <g id="Group_216" data-name="Group 216" transform="translate(563.292 71.148)">
        <path id="Path_438-10" data-name="Path 438-10" d="M1184.494,343.9a2.387,2.387,0,0,1-2.4,0,2.532,2.532,0,0,0-2.52,2.52v34.483a1.232,1.232,0,0,0,1.229,1.229h4.979a1.233,1.233,0,0,0,1.229-1.229V346.365a2.48,2.48,0,0,0-2.5-2.46Z" transform="translate(-1179.576 -332.964)" fill="#e1e2c3"/>
        <path id="Path_439-10" data-name="Path 439-10" d="M1183.533,331.934c1.537,0,5.409-1.844,2.7-5.163-1.783-2.152-1.229-5.163-2.7-5.163-1.537,0-2.7,2.336-2.7,5.163S1182,331.934,1183.533,331.934Z" transform="translate(-1180.214 -321.607)" fill="#FFC31A"/>
      </g>
      <g id="Group_219" data-name="Group 219" transform="translate(651.613 71.148)">
        <path id="Path_438-11" data-name="Path 438-11" d="M1364.494,343.9a2.388,2.388,0,0,1-2.4,0,2.531,2.531,0,0,0-2.52,2.52v34.483a1.232,1.232,0,0,0,1.229,1.229h4.979a1.233,1.233,0,0,0,1.229-1.229V346.365a2.479,2.479,0,0,0-2.5-2.46Z" transform="translate(-1359.576 -332.964)" fill="#e1e2c3"/>
        <path id="Path_439-11" data-name="Path 439-11" d="M1363.533,331.934c1.537,0,5.409-1.844,2.7-5.163-1.783-2.152-1.229-5.163-2.7-5.163-1.537,0-2.7,2.336-2.7,5.163S1362,331.934,1363.533,331.934Z" transform="translate(-1360.214 -321.607)" fill="#FFC31A"/>
      </g>
      <g id="Group_220" data-name="Group 220" transform="translate(628.552 41.707)">
        <path id="Path_438-12" data-name="Path 438-12" d="M1317.494,283.9a2.387,2.387,0,0,1-2.4,0,2.532,2.532,0,0,0-2.52,2.52v34.483a1.233,1.233,0,0,0,1.229,1.229h4.979a1.232,1.232,0,0,0,1.229-1.229V286.365a2.479,2.479,0,0,0-2.5-2.46Z" transform="translate(-1312.576 -272.964)" fill="#e1e2c3"/>
        <path id="Path_439-12" data-name="Path 439-12" d="M1316.533,271.934c1.537,0,5.409-1.844,2.7-5.163-1.783-2.152-1.229-5.163-2.7-5.163-1.537,0-2.7,2.336-2.7,5.163S1315,271.934,1316.533,271.934Z" transform="translate(-1313.214 -261.607)" fill="#FFC31A"/>
      </g>
      <g id="Group_204" data-name="Group 204" transform="translate(130.028 98.3)">
        <path id="Path_438-13" data-name="Path 438-13" d="M303.39,407.845a3.308,3.308,0,0,1-3.322,0,3.508,3.508,0,0,0-3.493,3.493v47.787a1.709,1.709,0,0,0,1.7,1.7h6.9a1.708,1.708,0,0,0,1.7-1.7V411.253a3.435,3.435,0,0,0-3.462-3.408Z" transform="translate(-296.576 -392.683)" fill="#e1e2c3"/>
        <path id="Path_439-13" data-name="Path 439-13" d="M302.06,391.255c2.13,0,7.5-2.555,3.748-7.155-2.47-2.982-1.706-7.156-3.748-7.156-2.129,0-3.748,3.238-3.748,7.155S299.931,391.255,302.06,391.255Z" transform="translate(-297.46 -376.945)" fill="#FFC31A"/>
      </g>
      <g id="Group_210" data-name="Group 210" transform="translate(328.26 98.3)">
        <path id="Path_438-14" data-name="Path 438-14" d="M707.391,407.845a3.309,3.309,0,0,1-3.322,0,3.508,3.508,0,0,0-3.493,3.493v47.787a1.709,1.709,0,0,0,1.7,1.7h6.9a1.708,1.708,0,0,0,1.7-1.7V411.253a3.435,3.435,0,0,0-3.462-3.408Z" transform="translate(-700.576 -392.683)" fill="#e1e2c3"/>
        <path id="Path_439-14" data-name="Path 439-14" d="M706.06,391.255c2.129,0,7.5-2.555,3.748-7.155-2.47-2.982-1.706-7.156-3.748-7.156-2.129,0-3.748,3.238-3.748,7.155S703.931,391.255,706.06,391.255Z" transform="translate(-701.46 -376.945)" fill="#FFC31A"/>
      </g>
      <g id="Group_211" data-name="Group 211" transform="translate(345.924 132.157)">
        <path id="Path_438-15" data-name="Path 438-15" d="M743.391,476.845a3.309,3.309,0,0,1-3.322,0,3.508,3.508,0,0,0-3.492,3.493v47.787a1.709,1.709,0,0,0,1.7,1.7h6.9a1.708,1.708,0,0,0,1.7-1.7V480.253a3.435,3.435,0,0,0-3.462-3.408Z" transform="translate(-736.576 -461.683)" fill="#e1e2c3"/>
        <path id="Path_439-15" data-name="Path 439-15" d="M742.06,460.255c2.13,0,7.5-2.555,3.748-7.155-2.47-2.982-1.706-7.155-3.748-7.155-2.129,0-3.748,3.238-3.748,7.155S739.931,460.255,742.06,460.255Z" transform="translate(-737.46 -445.945)" fill="#FFC31A"/>
      </g>
      <g id="Group_212" data-name="Group 212" transform="translate(412.165 126.759)">
        <path id="Path_438-16" data-name="Path 438-16" d="M878.39,465.845a3.308,3.308,0,0,1-3.322,0,3.508,3.508,0,0,0-3.493,3.493v47.787a1.708,1.708,0,0,0,1.7,1.7h6.9a1.708,1.708,0,0,0,1.7-1.7V469.253a3.435,3.435,0,0,0-3.462-3.408Z" transform="translate(-871.576 -450.683)" fill="#e1e2c3"/>
        <path id="Path_439-16" data-name="Path 439-16" d="M877.06,449.255c2.129,0,7.5-2.555,3.748-7.155-2.47-2.982-1.706-7.155-3.748-7.155-2.128,0-3.748,3.238-3.748,7.155S874.931,449.255,877.06,449.255Z" transform="translate(-872.46 -434.945)" fill="#FFC31A"/>
      </g>
      <g id="Group_213" data-name="Group 213" transform="translate(616.285 114.983)">
        <path id="Path_438-17" data-name="Path 438-17" d="M1294.391,441.845a3.309,3.309,0,0,1-3.322,0,3.508,3.508,0,0,0-3.492,3.493v47.787a1.708,1.708,0,0,0,1.7,1.7h6.9a1.708,1.708,0,0,0,1.7-1.7V445.253a3.435,3.435,0,0,0-3.462-3.408Z" transform="translate(-1287.576 -426.683)" fill="#e1e2c3"/>
        <path id="Path_439-17" data-name="Path 439-17" d="M1293.06,425.255c2.13,0,7.5-2.555,3.748-7.155-2.47-2.982-1.705-7.155-3.748-7.155-2.129,0-3.748,3.238-3.748,7.155S1290.931,425.255,1293.06,425.255Z" transform="translate(-1288.46 -410.945)" fill="#FFC31A"/>
      </g>
      <g id="Group_221" data-name="Group 221" transform="translate(701.662 61.5)">
        <path id="Path_438-18" data-name="Path 438-18" d="M1468.391,332.845a3.308,3.308,0,0,1-3.322,0,3.508,3.508,0,0,0-3.493,3.493v47.787a1.709,1.709,0,0,0,1.7,1.7h6.9a1.708,1.708,0,0,0,1.7-1.7V336.253a3.435,3.435,0,0,0-3.462-3.408Z" transform="translate(-1461.576 -317.683)" fill="#e1e2c3"/>
        <path id="Path_439-18" data-name="Path 439-18" d="M1467.06,316.255c2.13,0,7.5-2.555,3.748-7.155-2.47-2.982-1.706-7.155-3.748-7.155-2.129,0-3.748,3.238-3.748,7.155S1464.931,316.255,1467.06,316.255Z" transform="translate(-1462.46 -301.945)" fill="#FFC31A"/>
      </g>
      <g id="Group_228" data-name="Group 228" transform="translate(895.477 84.562)">
        <path id="Path_438-19" data-name="Path 438-19" d="M1865.184,387.979a4.18,4.18,0,0,1-4.2,0,4.432,4.432,0,0,0-4.412,4.412v60.366a2.159,2.159,0,0,0,2.152,2.152h8.716a2.159,2.159,0,0,0,2.152-2.152V392.284a4.341,4.341,0,0,0-4.377-4.3Z" transform="translate(-1856.576 -368.826)" fill="#e1e2c3"/>
        <path id="Path_439-19" data-name="Path 439-19" d="M1863.5,367.022c2.69,0,9.47-3.228,4.735-9.039-3.12-3.766-2.152-9.039-4.735-9.039-2.69,0-4.734,4.089-4.734,9.039S1860.814,367.022,1863.5,367.022Z" transform="translate(-1857.693 -348.945)" fill="#FFC31A"/>
      </g>
      <g id="Group_217" data-name="Group 217" transform="translate(500.977 136.082)">
        <path id="Path_438-20" data-name="Path 438-20" d="M1059.39,484.845a3.309,3.309,0,0,1-3.322,0,3.508,3.508,0,0,0-3.493,3.493v47.787a1.709,1.709,0,0,0,1.7,1.7h6.9a1.708,1.708,0,0,0,1.7-1.7V488.253a3.435,3.435,0,0,0-3.462-3.408Z" transform="translate(-1052.576 -469.683)" fill="#e1e2c3"/>
        <path id="Path_439-20" data-name="Path 439-20" d="M1058.06,468.255c2.13,0,7.5-2.555,3.748-7.155-2.47-2.982-1.706-7.155-3.748-7.155-2.129,0-3.748,3.238-3.748,7.155S1055.931,468.255,1058.06,468.255Z" transform="translate(-1053.46 -453.945)" fill="#FFC31A"/>
      </g>
      <g id="Group_205" data-name="Group 205" transform="translate(98.625 149.186)">
        <path id="Path_438-21" data-name="Path 438-21" d="M244.41,534.311a5.745,5.745,0,0,1-5.769,0,6.092,6.092,0,0,0-6.065,6.065v82.985a2.967,2.967,0,0,0,2.958,2.958h11.982a2.967,2.967,0,0,0,2.958-2.958V540.228a5.967,5.967,0,0,0-6.017-5.918Z" transform="translate(-232.576 -507.981)" fill="#e1e2c3"/>
        <path id="Path_439-21" data-name="Path 439-21" d="M242.1,505.5c3.7,0,13.017-4.438,6.509-12.425-4.29-5.178-2.959-12.426-6.509-12.426-3.7,0-6.509,5.621-6.509,12.425S238.4,505.5,242.1,505.5Z" transform="translate(-234.112 -480.651)" fill="#FFC31A"/>
      </g>
      <g id="Group_206" data-name="Group 206" transform="translate(277.23 135.938)">
        <path id="Path_438-22" data-name="Path 438-22" d="M608.409,507.311a5.746,5.746,0,0,1-5.769,0,6.091,6.091,0,0,0-6.065,6.065v82.984a2.967,2.967,0,0,0,2.958,2.958h11.982a2.967,2.967,0,0,0,2.958-2.958V513.228a5.967,5.967,0,0,0-6.017-5.918Z" transform="translate(-596.576 -480.981)" fill="#e1e2c3"/>
        <path id="Path_439-22" data-name="Path 439-22" d="M606.1,478.5c3.7,0,13.017-4.438,6.509-12.425-4.29-5.178-2.959-12.426-6.509-12.426-3.7,0-6.509,5.621-6.509,12.425S602.4,478.5,606.1,478.5Z" transform="translate(-598.112 -453.651)" fill="#FFC31A"/>
      </g>
      <g id="Group_207" data-name="Group 207" transform="translate(210.008 173.229)">
        <path id="Path_438-23" data-name="Path 438-23" d="M471.41,583.311a5.745,5.745,0,0,1-5.769,0,6.092,6.092,0,0,0-6.065,6.065V672.36a2.967,2.967,0,0,0,2.958,2.958h11.982a2.967,2.967,0,0,0,2.958-2.958V589.228a5.967,5.967,0,0,0-6.017-5.917Z" transform="translate(-459.576 -556.981)" fill="#e1e2c3"/>
        <path id="Path_439-23" data-name="Path 439-23" d="M469.1,554.5c3.7,0,13.017-4.438,6.509-12.425-4.29-5.177-2.959-12.426-6.509-12.426-3.7,0-6.509,5.621-6.509,12.425S465.4,554.5,469.1,554.5Z" transform="translate(-461.112 -529.651)" fill="#FFC31A"/>
      </g>
      <g id="Group_208" data-name="Group 208" transform="translate(364.57 132.373)">
        <path id="Path_438-24" data-name="Path 438-24" d="M788.091,507.669a6.562,6.562,0,0,1-6.589,0,6.958,6.958,0,0,0-6.926,6.926v94.775a3.389,3.389,0,0,0,3.379,3.379h13.684a3.388,3.388,0,0,0,3.379-3.379V514.427a6.815,6.815,0,0,0-6.872-6.758Z" transform="translate(-774.576 -477.598)" fill="#e1e2c3"/>
        <path id="Path_439-24" data-name="Path 439-24" d="M785.452,474.766c4.224,0,14.867-5.068,7.433-14.191-4.9-5.913-3.379-14.191-7.433-14.191-4.223,0-7.433,6.419-7.433,14.191S781.229,474.766,785.452,474.766Z" transform="translate(-776.33 -446.385)" fill="#FFC31A"/>
      </g>
      <g id="Group_209" data-name="Group 209" transform="translate(444.549 152.49)">
        <path id="Path_438-25" data-name="Path 438-25" d="M957.971,579.868a9.9,9.9,0,0,1-9.943,0,10.5,10.5,0,0,0-10.453,10.451V733.34a5.114,5.114,0,0,0,5.1,5.1h20.651a5.114,5.114,0,0,0,5.1-5.1V590.064a10.285,10.285,0,0,0-10.371-10.2Z" transform="translate(-937.576 -534.488)" fill="#e1e2c3"/>
        <path id="Path_439-25" data-name="Path 439-25" d="M953.989,530.215c6.373,0,22.434-7.648,11.217-21.415-7.393-8.923-5.1-21.415-11.217-21.415-6.373,0-11.217,9.688-11.217,21.415S947.616,530.215,953.989,530.215Z" transform="translate(-940.222 -487.385)" fill="#FFC31A"/>
      </g>
      <g id="Group_218" data-name="Group 218" transform="translate(563.292 149.056)">
        <path id="Path_438-26" data-name="Path 438-26" d="M1193.091,541.669a6.562,6.562,0,0,1-6.589,0,6.957,6.957,0,0,0-6.926,6.926V643.37a3.388,3.388,0,0,0,3.379,3.379h13.684a3.388,3.388,0,0,0,3.379-3.379V548.427a6.815,6.815,0,0,0-6.872-6.758Z" transform="translate(-1179.576 -511.598)" fill="#e1e2c3"/>
        <path id="Path_439-26" data-name="Path 439-26" d="M1190.452,508.766c4.224,0,14.867-5.068,7.433-14.191-4.9-5.913-3.379-14.191-7.433-14.191-4.223,0-7.433,6.419-7.433,14.191S1186.229,508.766,1190.452,508.766Z" transform="translate(-1181.33 -480.385)" fill="#FFC31A"/>
      </g>
      <g id="Group_222" data-name="Group 222" transform="translate(669.768 177.024)">
        <path id="Path_438-27" data-name="Path 438-27" d="M1410.091,598.669a6.562,6.562,0,0,1-6.589,0,6.957,6.957,0,0,0-6.926,6.926V700.37a3.388,3.388,0,0,0,3.379,3.379h13.684a3.388,3.388,0,0,0,3.379-3.379V605.427a6.815,6.815,0,0,0-6.872-6.758Z" transform="translate(-1396.576 -568.598)" fill="#e1e2c3"/>
        <path id="Path_439-27" data-name="Path 439-27" d="M1407.452,565.767c4.224,0,14.867-5.068,7.433-14.191-4.9-5.913-3.379-14.191-7.433-14.191-4.223,0-7.433,6.419-7.433,14.191S1403.229,565.767,1407.452,565.767Z" transform="translate(-1398.33 -537.385)" fill="#FFC31A"/>
      </g>
      <g id="Group_223" data-name="Group 223" transform="translate(751.71 127.466)">
        <path id="Path_438-28" data-name="Path 438-28" d="M1577.091,497.669a6.562,6.562,0,0,1-6.589,0,6.957,6.957,0,0,0-6.926,6.926V599.37a3.389,3.389,0,0,0,3.379,3.379h13.684a3.389,3.389,0,0,0,3.379-3.379V504.427a6.816,6.816,0,0,0-6.872-6.758Z" transform="translate(-1563.576 -467.598)" fill="#e1e2c3"/>
        <path id="Path_439-28" data-name="Path 439-28" d="M1574.452,464.767c4.224,0,14.867-5.068,7.433-14.191-4.9-5.913-3.379-14.191-7.433-14.191-4.223,0-7.433,6.419-7.433,14.191S1570.229,464.767,1574.452,464.767Z" transform="translate(-1565.33 -436.385)" fill="#FFC31A"/>
      </g>
      <g id="Group_224" data-name="Group 224" transform="translate(829.727 120.322)">
        <path id="Path_438-29" data-name="Path 438-29" d="M1737.738,490.577a7.36,7.36,0,0,1-7.391,0,7.8,7.8,0,0,0-7.77,7.77V604.669a3.8,3.8,0,0,0,3.791,3.79h15.351a3.8,3.8,0,0,0,3.791-3.79V498.158a7.646,7.646,0,0,0-7.709-7.582Z" transform="translate(-1722.576 -456.842)" fill="#e1e2c3"/>
        <path id="Path_439-29" data-name="Path 439-29" d="M1734.778,453.665c4.738,0,16.678-5.686,8.341-15.92-5.5-6.633-3.793-15.92-8.341-15.92-4.738,0-8.339,7.2-8.339,15.92S1730.04,453.665,1734.778,453.665Z" transform="translate(-1724.543 -421.825)" fill="#FFC31A"/>
      </g>
    </g>
    <g id="Group_236" data-name="Group 236" transform="translate(-265 1578.359)">
      <g id="Group_202-2" data-name="Group 202" transform="translate(52.993 149.186)">
        <path id="Path_438-2-2" data-name="Path 438" d="M150.085,528.3a5.1,5.1,0,0,1-5.123,0,5.41,5.41,0,0,0-5.386,5.386v73.694a2.635,2.635,0,0,0,2.627,2.627h10.64a2.635,2.635,0,0,0,2.627-2.627V533.559a5.3,5.3,0,0,0-5.343-5.255Z" transform="translate(-139.576 -504.922)" fill="#e1e2c3"/>
        <path id="Path_439-2-2" data-name="Path 439" d="M148.033,502.72c3.284,0,11.56-3.941,5.78-11.034-3.808-4.6-2.63-11.035-5.78-11.035-3.284,0-5.78,4.992-5.78,11.034S144.749,502.72,148.033,502.72Z" transform="translate(-140.939 -480.651)" fill="#FFC31A"/>
      </g>
      <g id="Group_230-3" data-name="Group 230" transform="translate(0 186.477)">
        <path id="Path_438-2-3" data-name="Path 438-2" d="M42.085,604.3a5.1,5.1,0,0,1-5.123,0,5.409,5.409,0,0,0-5.386,5.386v73.694a2.635,2.635,0,0,0,2.627,2.627h10.64a2.635,2.635,0,0,0,2.627-2.627V609.559a5.3,5.3,0,0,0-5.343-5.255Z" transform="translate(-31.576 -580.922)" fill="#e1e2c3"/>
        <path id="Path_439-2-3" data-name="Path 439-2" d="M40.033,578.72c3.284,0,11.56-3.941,5.78-11.034-3.808-4.6-2.63-11.035-5.78-11.035-3.284,0-5.78,4.992-5.78,11.034S36.749,578.72,40.033,578.72Z" transform="translate(-32.939 -556.651)" fill="#FFC31A"/>
      </g>
      <g id="Group_203-2" data-name="Group 203" transform="translate(79.98 61.334)">
        <path id="Path_438-3-2" data-name="Path 438-3" d="M199.494,323.9a2.388,2.388,0,0,1-2.4,0,2.532,2.532,0,0,0-2.52,2.52v34.483a1.233,1.233,0,0,0,1.229,1.229h4.979a1.233,1.233,0,0,0,1.229-1.229V326.365a2.48,2.48,0,0,0-2.5-2.46Z" transform="translate(-194.576 -312.964)" fill="#e1e2c3"/>
        <path id="Path_439-3-2" data-name="Path 439-3" d="M198.534,311.934c1.537,0,5.409-1.844,2.7-5.163-1.783-2.152-1.229-5.163-2.7-5.163-1.537,0-2.7,2.336-2.7,5.163S197,311.934,198.534,311.934Z" transform="translate(-195.214 -301.607)" fill="#FFC31A"/>
      </g>
      <g id="Group_229-2" data-name="Group 229" transform="translate(15.702 80.47)">
        <path id="Path_438-4-2" data-name="Path 438-4" d="M68.494,362.9a2.387,2.387,0,0,1-2.4,0,2.532,2.532,0,0,0-2.52,2.52v34.483a1.233,1.233,0,0,0,1.229,1.229h4.979a1.233,1.233,0,0,0,1.229-1.229V365.365a2.48,2.48,0,0,0-2.5-2.46Z" transform="translate(-63.576 -351.964)" fill="#e1e2c3"/>
        <path id="Path_439-4-2" data-name="Path 439-4" d="M67.534,350.934c1.537,0,5.409-1.844,2.7-5.163-1.783-2.152-1.229-5.163-2.7-5.163-1.537,0-2.7,2.336-2.7,5.163S66,350.934,67.534,350.934Z" transform="translate(-64.214 -340.607)" fill="#FFC31A"/>
      </g>
      <g id="Group_214-2" data-name="Group 214" transform="translate(194.797 49.067)">
        <path id="Path_438-5-2" data-name="Path 438-5" d="M433.493,298.9a2.387,2.387,0,0,1-2.4,0,2.532,2.532,0,0,0-2.52,2.52v34.483a1.233,1.233,0,0,0,1.229,1.229h4.979a1.233,1.233,0,0,0,1.229-1.229V301.365a2.48,2.48,0,0,0-2.5-2.46Z" transform="translate(-428.576 -287.964)" fill="#e1e2c3"/>
        <path id="Path_439-5-2" data-name="Path 439-5" d="M432.534,286.934c1.537,0,5.409-1.844,2.7-5.163-1.783-2.152-1.229-5.163-2.7-5.163-1.537,0-2.7,2.336-2.7,5.163S431,286.934,432.534,286.934Z" transform="translate(-429.214 -276.607)" fill="#FFC31A"/>
      </g>
      <g id="Group_226-2" data-name="Group 226" transform="translate(799.306 46.614)">
        <path id="Path_438-6-2" data-name="Path 438-6" d="M1665.494,293.9a2.387,2.387,0,0,1-2.4,0,2.531,2.531,0,0,0-2.52,2.52v34.483a1.232,1.232,0,0,0,1.229,1.229h4.979a1.232,1.232,0,0,0,1.229-1.229V296.365a2.48,2.48,0,0,0-2.5-2.46Z" transform="translate(-1660.576 -282.964)" fill="#e1e2c3"/>
        <path id="Path_439-6-2" data-name="Path 439-6" d="M1664.533,281.934c1.537,0,5.409-1.844,2.7-5.163-1.783-2.152-1.229-5.163-2.7-5.163-1.537,0-2.7,2.336-2.7,5.163S1663,281.934,1664.533,281.934Z" transform="translate(-1661.214 -271.607)" fill="#FFC31A"/>
      </g>
      <g id="Group_227-2" data-name="Group 227" transform="translate(861.621 0)">
        <path id="Path_438-7-2" data-name="Path 438-7" d="M1792.494,198.9a2.388,2.388,0,0,1-2.4,0,2.532,2.532,0,0,0-2.52,2.52v34.483a1.232,1.232,0,0,0,1.229,1.229h4.979a1.233,1.233,0,0,0,1.229-1.229V201.365a2.48,2.48,0,0,0-2.5-2.46Z" transform="translate(-1787.576 -187.964)" fill="#e1e2c3"/>
        <path id="Path_439-7-2" data-name="Path 439-7" d="M1791.533,186.934c1.537,0,5.409-1.844,2.7-5.163-1.783-2.152-1.229-5.163-2.7-5.163-1.537,0-2.7,2.336-2.7,5.163S1790,186.934,1791.533,186.934Z" transform="translate(-1788.214 -176.607)" fill="#FFC31A"/>
      </g>
      <g id="Group_225-2" data-name="Group 225" transform="translate(183.512 100.097)">
        <path id="Path_438-8-2" data-name="Path 438-8" d="M410.493,402.9a2.387,2.387,0,0,1-2.4,0,2.532,2.532,0,0,0-2.52,2.52v34.483a1.233,1.233,0,0,0,1.229,1.229h4.979a1.233,1.233,0,0,0,1.229-1.229V405.365a2.48,2.48,0,0,0-2.5-2.46Z" transform="translate(-405.576 -391.964)" fill="#e1e2c3"/>
        <path id="Path_439-8-2" data-name="Path 439-8" d="M409.534,390.934c1.537,0,5.409-1.844,2.7-5.163-1.783-2.152-1.229-5.163-2.7-5.163-1.537,0-2.7,2.336-2.7,5.163S408,390.934,409.534,390.934Z" transform="translate(-406.214 -380.607)" fill="#FFC31A"/>
      </g>
      <g id="Group_215-2" data-name="Group 215" transform="translate(242.883 120.215)">
        <path id="Path_438-9-2" data-name="Path 438-9" d="M531.494,443.9a2.387,2.387,0,0,1-2.4,0,2.532,2.532,0,0,0-2.52,2.52v34.484a1.232,1.232,0,0,0,1.229,1.229h4.979a1.232,1.232,0,0,0,1.229-1.229V446.365a2.48,2.48,0,0,0-2.5-2.46Z" transform="translate(-526.576 -432.964)" fill="#e1e2c3"/>
        <path id="Path_439-9-2" data-name="Path 439-9" d="M530.534,431.934c1.537,0,5.409-1.844,2.7-5.163-1.783-2.152-1.229-5.163-2.7-5.163-1.537,0-2.7,2.336-2.7,5.163S529,431.934,530.534,431.934Z" transform="translate(-527.214 -421.607)" fill="#FFC31A"/>
      </g>
      <g id="Group_216-2" data-name="Group 216" transform="translate(563.292 71.148)">
        <path id="Path_438-10-2" data-name="Path 438-10" d="M1184.494,343.9a2.387,2.387,0,0,1-2.4,0,2.532,2.532,0,0,0-2.52,2.52v34.483a1.232,1.232,0,0,0,1.229,1.229h4.979a1.233,1.233,0,0,0,1.229-1.229V346.365a2.48,2.48,0,0,0-2.5-2.46Z" transform="translate(-1179.576 -332.964)" fill="#e1e2c3"/>
        <path id="Path_439-10-2" data-name="Path 439-10" d="M1183.533,331.934c1.537,0,5.409-1.844,2.7-5.163-1.783-2.152-1.229-5.163-2.7-5.163-1.537,0-2.7,2.336-2.7,5.163S1182,331.934,1183.533,331.934Z" transform="translate(-1180.214 -321.607)" fill="#FFC31A"/>
      </g>
      <g id="Group_219-2" data-name="Group 219" transform="translate(651.613 71.148)">
        <path id="Path_438-11-2" data-name="Path 438-11" d="M1364.494,343.9a2.388,2.388,0,0,1-2.4,0,2.531,2.531,0,0,0-2.52,2.52v34.483a1.232,1.232,0,0,0,1.229,1.229h4.979a1.233,1.233,0,0,0,1.229-1.229V346.365a2.479,2.479,0,0,0-2.5-2.46Z" transform="translate(-1359.576 -332.964)" fill="#e1e2c3"/>
        <path id="Path_439-11-2" data-name="Path 439-11" d="M1363.533,331.934c1.537,0,5.409-1.844,2.7-5.163-1.783-2.152-1.229-5.163-2.7-5.163-1.537,0-2.7,2.336-2.7,5.163S1362,331.934,1363.533,331.934Z" transform="translate(-1360.214 -321.607)" fill="#FFC31A"/>
      </g>
      <g id="Group_220-2" data-name="Group 220" transform="translate(628.552 41.707)">
        <path id="Path_438-12-2" data-name="Path 438-12" d="M1317.494,283.9a2.387,2.387,0,0,1-2.4,0,2.532,2.532,0,0,0-2.52,2.52v34.483a1.233,1.233,0,0,0,1.229,1.229h4.979a1.232,1.232,0,0,0,1.229-1.229V286.365a2.479,2.479,0,0,0-2.5-2.46Z" transform="translate(-1312.576 -272.964)" fill="#e1e2c3"/>
        <path id="Path_439-12-2" data-name="Path 439-12" d="M1316.533,271.934c1.537,0,5.409-1.844,2.7-5.163-1.783-2.152-1.229-5.163-2.7-5.163-1.537,0-2.7,2.336-2.7,5.163S1315,271.934,1316.533,271.934Z" transform="translate(-1313.214 -261.607)" fill="#FFC31A"/>
      </g>
      <g id="Group_204-2" data-name="Group 204" transform="translate(130.028 98.3)">
        <path id="Path_438-13-2" data-name="Path 438-13" d="M303.39,407.845a3.308,3.308,0,0,1-3.322,0,3.508,3.508,0,0,0-3.493,3.493v47.787a1.709,1.709,0,0,0,1.7,1.7h6.9a1.708,1.708,0,0,0,1.7-1.7V411.253a3.435,3.435,0,0,0-3.462-3.408Z" transform="translate(-296.576 -392.683)" fill="#e1e2c3"/>
        <path id="Path_439-13-2" data-name="Path 439-13" d="M302.06,391.255c2.13,0,7.5-2.555,3.748-7.155-2.47-2.982-1.706-7.156-3.748-7.156-2.129,0-3.748,3.238-3.748,7.155S299.931,391.255,302.06,391.255Z" transform="translate(-297.46 -376.945)" fill="#FFC31A"/>
      </g>
      <g id="Group_210-2" data-name="Group 210" transform="translate(328.26 98.3)">
        <path id="Path_438-14-2" data-name="Path 438-14" d="M707.391,407.845a3.309,3.309,0,0,1-3.322,0,3.508,3.508,0,0,0-3.493,3.493v47.787a1.709,1.709,0,0,0,1.7,1.7h6.9a1.708,1.708,0,0,0,1.7-1.7V411.253a3.435,3.435,0,0,0-3.462-3.408Z" transform="translate(-700.576 -392.683)" fill="#e1e2c3"/>
        <path id="Path_439-14-2" data-name="Path 439-14" d="M706.06,391.255c2.129,0,7.5-2.555,3.748-7.155-2.47-2.982-1.706-7.156-3.748-7.156-2.129,0-3.748,3.238-3.748,7.155S703.931,391.255,706.06,391.255Z" transform="translate(-701.46 -376.945)" fill="#FFC31A"/>
      </g>
      <g id="Group_211-2" data-name="Group 211" transform="translate(345.924 132.157)">
        <path id="Path_438-15-2" data-name="Path 438-15" d="M743.391,476.845a3.309,3.309,0,0,1-3.322,0,3.508,3.508,0,0,0-3.492,3.493v47.787a1.709,1.709,0,0,0,1.7,1.7h6.9a1.708,1.708,0,0,0,1.7-1.7V480.253a3.435,3.435,0,0,0-3.462-3.408Z" transform="translate(-736.576 -461.683)" fill="#e1e2c3"/>
        <path id="Path_439-15-2" data-name="Path 439-15" d="M742.06,460.255c2.13,0,7.5-2.555,3.748-7.155-2.47-2.982-1.706-7.155-3.748-7.155-2.129,0-3.748,3.238-3.748,7.155S739.931,460.255,742.06,460.255Z" transform="translate(-737.46 -445.945)" fill="#FFC31A"/>
      </g>
      <g id="Group_212-2" data-name="Group 212" transform="translate(412.165 126.759)">
        <path id="Path_438-16-2" data-name="Path 438-16" d="M878.39,465.845a3.308,3.308,0,0,1-3.322,0,3.508,3.508,0,0,0-3.493,3.493v47.787a1.708,1.708,0,0,0,1.7,1.7h6.9a1.708,1.708,0,0,0,1.7-1.7V469.253a3.435,3.435,0,0,0-3.462-3.408Z" transform="translate(-871.576 -450.683)" fill="#e1e2c3"/>
        <path id="Path_439-16-2" data-name="Path 439-16" d="M877.06,449.255c2.129,0,7.5-2.555,3.748-7.155-2.47-2.982-1.706-7.155-3.748-7.155-2.128,0-3.748,3.238-3.748,7.155S874.931,449.255,877.06,449.255Z" transform="translate(-872.46 -434.945)" fill="#FFC31A"/>
      </g>
      <g id="Group_213-2" data-name="Group 213" transform="translate(616.285 114.983)">
        <path id="Path_438-17-2" data-name="Path 438-17" d="M1294.391,441.845a3.309,3.309,0,0,1-3.322,0,3.508,3.508,0,0,0-3.492,3.493v47.787a1.708,1.708,0,0,0,1.7,1.7h6.9a1.708,1.708,0,0,0,1.7-1.7V445.253a3.435,3.435,0,0,0-3.462-3.408Z" transform="translate(-1287.576 -426.683)" fill="#e1e2c3"/>
        <path id="Path_439-17-2" data-name="Path 439-17" d="M1293.06,425.255c2.13,0,7.5-2.555,3.748-7.155-2.47-2.982-1.705-7.155-3.748-7.155-2.129,0-3.748,3.238-3.748,7.155S1290.931,425.255,1293.06,425.255Z" transform="translate(-1288.46 -410.945)" fill="#FFC31A"/>
      </g>
      <g id="Group_221-2" data-name="Group 221" transform="translate(701.662 61.5)">
        <path id="Path_438-18-2" data-name="Path 438-18" d="M1468.391,332.845a3.308,3.308,0,0,1-3.322,0,3.508,3.508,0,0,0-3.493,3.493v47.787a1.709,1.709,0,0,0,1.7,1.7h6.9a1.708,1.708,0,0,0,1.7-1.7V336.253a3.435,3.435,0,0,0-3.462-3.408Z" transform="translate(-1461.576 -317.683)" fill="#e1e2c3"/>
        <path id="Path_439-18-2" data-name="Path 439-18" d="M1467.06,316.255c2.13,0,7.5-2.555,3.748-7.155-2.47-2.982-1.706-7.155-3.748-7.155-2.129,0-3.748,3.238-3.748,7.155S1464.931,316.255,1467.06,316.255Z" transform="translate(-1462.46 -301.945)" fill="#FFC31A"/>
      </g>
      <g id="Group_228-2" data-name="Group 228" transform="translate(895.477 84.562)">
        <path id="Path_438-19-2" data-name="Path 438-19" d="M1865.184,387.979a4.18,4.18,0,0,1-4.2,0,4.432,4.432,0,0,0-4.412,4.412v60.366a2.159,2.159,0,0,0,2.152,2.152h8.716a2.159,2.159,0,0,0,2.152-2.152V392.284a4.341,4.341,0,0,0-4.377-4.3Z" transform="translate(-1856.576 -368.826)" fill="#e1e2c3"/>
        <path id="Path_439-19-2" data-name="Path 439-19" d="M1863.5,367.022c2.69,0,9.47-3.228,4.735-9.039-3.12-3.766-2.152-9.039-4.735-9.039-2.69,0-4.734,4.089-4.734,9.039S1860.814,367.022,1863.5,367.022Z" transform="translate(-1857.693 -348.945)" fill="#FFC31A"/>
      </g>
      <g id="Group_217-2" data-name="Group 217" transform="translate(500.977 136.082)">
        <path id="Path_438-20-2" data-name="Path 438-20" d="M1059.39,484.845a3.309,3.309,0,0,1-3.322,0,3.508,3.508,0,0,0-3.493,3.493v47.787a1.709,1.709,0,0,0,1.7,1.7h6.9a1.708,1.708,0,0,0,1.7-1.7V488.253a3.435,3.435,0,0,0-3.462-3.408Z" transform="translate(-1052.576 -469.683)" fill="#e1e2c3"/>
        <path id="Path_439-20-2" data-name="Path 439-20" d="M1058.06,468.255c2.13,0,7.5-2.555,3.748-7.155-2.47-2.982-1.706-7.155-3.748-7.155-2.129,0-3.748,3.238-3.748,7.155S1055.931,468.255,1058.06,468.255Z" transform="translate(-1053.46 -453.945)" fill="#FFC31A"/>
      </g>
      <g id="Group_205-2" data-name="Group 205" transform="translate(98.625 149.186)">
        <path id="Path_438-21-2" data-name="Path 438-21" d="M244.41,534.311a5.745,5.745,0,0,1-5.769,0,6.092,6.092,0,0,0-6.065,6.065v82.985a2.967,2.967,0,0,0,2.958,2.958h11.982a2.967,2.967,0,0,0,2.958-2.958V540.228a5.967,5.967,0,0,0-6.017-5.918Z" transform="translate(-232.576 -507.981)" fill="#e1e2c3"/>
        <path id="Path_439-21-2" data-name="Path 439-21" d="M242.1,505.5c3.7,0,13.017-4.438,6.509-12.425-4.29-5.178-2.959-12.426-6.509-12.426-3.7,0-6.509,5.621-6.509,12.425S238.4,505.5,242.1,505.5Z" transform="translate(-234.112 -480.651)" fill="#FFC31A"/>
      </g>
      <g id="Group_206-2" data-name="Group 206" transform="translate(277.23 135.938)">
        <path id="Path_438-22-2" data-name="Path 438-22" d="M608.409,507.311a5.746,5.746,0,0,1-5.769,0,6.091,6.091,0,0,0-6.065,6.065v82.984a2.967,2.967,0,0,0,2.958,2.958h11.982a2.967,2.967,0,0,0,2.958-2.958V513.228a5.967,5.967,0,0,0-6.017-5.918Z" transform="translate(-596.576 -480.981)" fill="#e1e2c3"/>
        <path id="Path_439-22-2" data-name="Path 439-22" d="M606.1,478.5c3.7,0,13.017-4.438,6.509-12.425-4.29-5.178-2.959-12.426-6.509-12.426-3.7,0-6.509,5.621-6.509,12.425S602.4,478.5,606.1,478.5Z" transform="translate(-598.112 -453.651)" fill="#FFC31A"/>
      </g>
      <g id="Group_207-2" data-name="Group 207" transform="translate(210.008 173.229)">
        <path id="Path_438-23-2" data-name="Path 438-23" d="M471.41,583.311a5.745,5.745,0,0,1-5.769,0,6.092,6.092,0,0,0-6.065,6.065V672.36a2.967,2.967,0,0,0,2.958,2.958h11.982a2.967,2.967,0,0,0,2.958-2.958V589.228a5.967,5.967,0,0,0-6.017-5.917Z" transform="translate(-459.576 -556.981)" fill="#e1e2c3"/>
        <path id="Path_439-23-2" data-name="Path 439-23" d="M469.1,554.5c3.7,0,13.017-4.438,6.509-12.425-4.29-5.177-2.959-12.426-6.509-12.426-3.7,0-6.509,5.621-6.509,12.425S465.4,554.5,469.1,554.5Z" transform="translate(-461.112 -529.651)" fill="#FFC31A"/>
      </g>
      <g id="Group_208-2" data-name="Group 208" transform="translate(364.57 132.373)">
        <path id="Path_438-24-2" data-name="Path 438-24" d="M788.091,507.669a6.562,6.562,0,0,1-6.589,0,6.958,6.958,0,0,0-6.926,6.926v94.775a3.389,3.389,0,0,0,3.379,3.379h13.684a3.388,3.388,0,0,0,3.379-3.379V514.427a6.815,6.815,0,0,0-6.872-6.758Z" transform="translate(-774.576 -477.598)" fill="#e1e2c3"/>
        <path id="Path_439-24-2" data-name="Path 439-24" d="M785.452,474.766c4.224,0,14.867-5.068,7.433-14.191-4.9-5.913-3.379-14.191-7.433-14.191-4.223,0-7.433,6.419-7.433,14.191S781.229,474.766,785.452,474.766Z" transform="translate(-776.33 -446.385)" fill="#FFC31A"/>
      </g>
      <g id="Group_209-2" data-name="Group 209" transform="translate(444.549 152.49)">
        <path id="Path_438-25-2" data-name="Path 438-25" d="M957.971,579.868a9.9,9.9,0,0,1-9.943,0,10.5,10.5,0,0,0-10.453,10.451V733.34a5.114,5.114,0,0,0,5.1,5.1h20.651a5.114,5.114,0,0,0,5.1-5.1V590.064a10.285,10.285,0,0,0-10.371-10.2Z" transform="translate(-937.576 -534.488)" fill="#e1e2c3"/>
        <path id="Path_439-25-2" data-name="Path 439-25" d="M953.989,530.215c6.373,0,22.434-7.648,11.217-21.415-7.393-8.923-5.1-21.415-11.217-21.415-6.373,0-11.217,9.688-11.217,21.415S947.616,530.215,953.989,530.215Z" transform="translate(-940.222 -487.385)" fill="#FFC31A"/>
      </g>
      <g id="Group_218-2" data-name="Group 218" transform="translate(563.292 149.056)">
        <path id="Path_438-26-2" data-name="Path 438-26" d="M1193.091,541.669a6.562,6.562,0,0,1-6.589,0,6.957,6.957,0,0,0-6.926,6.926V643.37a3.388,3.388,0,0,0,3.379,3.379h13.684a3.388,3.388,0,0,0,3.379-3.379V548.427a6.815,6.815,0,0,0-6.872-6.758Z" transform="translate(-1179.576 -511.598)" fill="#e1e2c3"/>
        <path id="Path_439-26-2" data-name="Path 439-26" d="M1190.452,508.766c4.224,0,14.867-5.068,7.433-14.191-4.9-5.913-3.379-14.191-7.433-14.191-4.223,0-7.433,6.419-7.433,14.191S1186.229,508.766,1190.452,508.766Z" transform="translate(-1181.33 -480.385)" fill="#FFC31A"/>
      </g>
      <g id="Group_222-2" data-name="Group 222" transform="translate(669.768 177.024)">
        <path id="Path_438-27-2" data-name="Path 438-27" d="M1410.091,598.669a6.562,6.562,0,0,1-6.589,0,6.957,6.957,0,0,0-6.926,6.926V700.37a3.388,3.388,0,0,0,3.379,3.379h13.684a3.388,3.388,0,0,0,3.379-3.379V605.427a6.815,6.815,0,0,0-6.872-6.758Z" transform="translate(-1396.576 -568.598)" fill="#e1e2c3"/>
        <path id="Path_439-27-2" data-name="Path 439-27" d="M1407.452,565.767c4.224,0,14.867-5.068,7.433-14.191-4.9-5.913-3.379-14.191-7.433-14.191-4.223,0-7.433,6.419-7.433,14.191S1403.229,565.767,1407.452,565.767Z" transform="translate(-1398.33 -537.385)" fill="#FFC31A"/>
      </g>
      <g id="Group_223-2" data-name="Group 223" transform="translate(751.71 127.466)">
        <path id="Path_438-28-2" data-name="Path 438-28" d="M1577.091,497.669a6.562,6.562,0,0,1-6.589,0,6.957,6.957,0,0,0-6.926,6.926V599.37a3.389,3.389,0,0,0,3.379,3.379h13.684a3.389,3.389,0,0,0,3.379-3.379V504.427a6.816,6.816,0,0,0-6.872-6.758Z" transform="translate(-1563.576 -467.598)" fill="#e1e2c3"/>
        <path id="Path_439-28-2" data-name="Path 439-28" d="M1574.452,464.767c4.224,0,14.867-5.068,7.433-14.191-4.9-5.913-3.379-14.191-7.433-14.191-4.223,0-7.433,6.419-7.433,14.191S1570.229,464.767,1574.452,464.767Z" transform="translate(-1565.33 -436.385)" fill="#FFC31A"/>
      </g>
      <g id="Group_224-2" data-name="Group 224" transform="translate(829.727 120.322)">
        <path id="Path_438-29-2" data-name="Path 438-29" d="M1737.738,490.577a7.36,7.36,0,0,1-7.391,0,7.8,7.8,0,0,0-7.77,7.77V604.669a3.8,3.8,0,0,0,3.791,3.79h15.351a3.8,3.8,0,0,0,3.791-3.79V498.158a7.646,7.646,0,0,0-7.709-7.582Z" transform="translate(-1722.576 -456.842)" fill="#e1e2c3"/>
        <path id="Path_439-29-2" data-name="Path 439-29" d="M1734.778,453.665c4.738,0,16.678-5.686,8.341-15.92-5.5-6.633-3.793-15.92-8.341-15.92-4.738,0-8.339,7.2-8.339,15.92S1730.04,453.665,1734.778,453.665Z" transform="translate(-1724.543 -421.825)" fill="#FFC31A"/>
      </g>
    </g>
    <g id="Group_234" data-name="Group 234" transform="translate(560.521 1506.233)">
      <g id="Group_202-3" data-name="Group 202" transform="translate(52.993 149.186)">
        <path id="Path_438-3-3" data-name="Path 438" d="M150.085,528.3a5.1,5.1,0,0,1-5.123,0,5.41,5.41,0,0,0-5.386,5.386v73.694a2.635,2.635,0,0,0,2.627,2.627h10.64a2.635,2.635,0,0,0,2.627-2.627V533.559a5.3,5.3,0,0,0-5.343-5.255Z" transform="translate(-139.576 -504.922)" fill="#e1e2c3"/>
        <path id="Path_439-3-3" data-name="Path 439" d="M148.033,502.72c3.284,0,11.56-3.941,5.78-11.034-3.808-4.6-2.63-11.035-5.78-11.035-3.284,0-5.78,4.992-5.78,11.034S144.749,502.72,148.033,502.72Z" transform="translate(-140.939 -480.651)" fill="#FFC31A"/>
      </g>
      <g id="Group_230-4" data-name="Group 230" transform="translate(0 186.477)">
        <path id="Path_438-2-4" data-name="Path 438-2" d="M42.085,604.3a5.1,5.1,0,0,1-5.123,0,5.409,5.409,0,0,0-5.386,5.386v73.694a2.635,2.635,0,0,0,2.627,2.627h10.64a2.635,2.635,0,0,0,2.627-2.627V609.559a5.3,5.3,0,0,0-5.343-5.255Z" transform="translate(-31.576 -580.922)" fill="#e1e2c3"/>
        <path id="Path_439-2-4" data-name="Path 439-2" d="M40.033,578.72c3.284,0,11.56-3.941,5.78-11.034-3.808-4.6-2.63-11.035-5.78-11.035-3.284,0-5.78,4.992-5.78,11.034S36.749,578.72,40.033,578.72Z" transform="translate(-32.939 -556.651)" fill="#FFC31A"/>
      </g>
      <g id="Group_203-3" data-name="Group 203" transform="translate(79.98 61.334)">
        <path id="Path_438-3-4" data-name="Path 438-3" d="M199.494,323.9a2.388,2.388,0,0,1-2.4,0,2.532,2.532,0,0,0-2.52,2.52v34.483a1.233,1.233,0,0,0,1.229,1.229h4.979a1.233,1.233,0,0,0,1.229-1.229V326.365a2.48,2.48,0,0,0-2.5-2.46Z" transform="translate(-194.576 -312.964)" fill="#e1e2c3"/>
        <path id="Path_439-3-4" data-name="Path 439-3" d="M198.534,311.934c1.537,0,5.409-1.844,2.7-5.163-1.783-2.152-1.229-5.163-2.7-5.163-1.537,0-2.7,2.336-2.7,5.163S197,311.934,198.534,311.934Z" transform="translate(-195.214 -301.607)" fill="#FFC31A"/>
      </g>
      <g id="Group_229-3" data-name="Group 229" transform="translate(15.702 80.47)">
        <path id="Path_438-4-3" data-name="Path 438-4" d="M68.494,362.9a2.387,2.387,0,0,1-2.4,0,2.532,2.532,0,0,0-2.52,2.52v34.483a1.233,1.233,0,0,0,1.229,1.229h4.979a1.233,1.233,0,0,0,1.229-1.229V365.365a2.48,2.48,0,0,0-2.5-2.46Z" transform="translate(-63.576 -351.964)" fill="#e1e2c3"/>
        <path id="Path_439-4-3" data-name="Path 439-4" d="M67.534,350.934c1.537,0,5.409-1.844,2.7-5.163-1.783-2.152-1.229-5.163-2.7-5.163-1.537,0-2.7,2.336-2.7,5.163S66,350.934,67.534,350.934Z" transform="translate(-64.214 -340.607)" fill="#FFC31A"/>
      </g>
      <g id="Group_214-3" data-name="Group 214" transform="translate(194.797 49.067)">
        <path id="Path_438-5-3" data-name="Path 438-5" d="M433.493,298.9a2.387,2.387,0,0,1-2.4,0,2.532,2.532,0,0,0-2.52,2.52v34.483a1.233,1.233,0,0,0,1.229,1.229h4.979a1.233,1.233,0,0,0,1.229-1.229V301.365a2.48,2.48,0,0,0-2.5-2.46Z" transform="translate(-428.576 -287.964)" fill="#e1e2c3"/>
        <path id="Path_439-5-3" data-name="Path 439-5" d="M432.534,286.934c1.537,0,5.409-1.844,2.7-5.163-1.783-2.152-1.229-5.163-2.7-5.163-1.537,0-2.7,2.336-2.7,5.163S431,286.934,432.534,286.934Z" transform="translate(-429.214 -276.607)" fill="#FFC31A"/>
      </g>
      <g id="Group_226-3" data-name="Group 226" transform="translate(799.306 46.614)">
        <path id="Path_438-6-3" data-name="Path 438-6" d="M1665.494,293.9a2.387,2.387,0,0,1-2.4,0,2.531,2.531,0,0,0-2.52,2.52v34.483a1.232,1.232,0,0,0,1.229,1.229h4.979a1.232,1.232,0,0,0,1.229-1.229V296.365a2.48,2.48,0,0,0-2.5-2.46Z" transform="translate(-1660.576 -282.964)" fill="#e1e2c3"/>
        <path id="Path_439-6-3" data-name="Path 439-6" d="M1664.533,281.934c1.537,0,5.409-1.844,2.7-5.163-1.783-2.152-1.229-5.163-2.7-5.163-1.537,0-2.7,2.336-2.7,5.163S1663,281.934,1664.533,281.934Z" transform="translate(-1661.214 -271.607)" fill="#FFC31A"/>
      </g>
      <g id="Group_227-3" data-name="Group 227" transform="translate(861.621 0)">
        <path id="Path_438-7-3" data-name="Path 438-7" d="M1792.494,198.9a2.388,2.388,0,0,1-2.4,0,2.532,2.532,0,0,0-2.52,2.52v34.483a1.232,1.232,0,0,0,1.229,1.229h4.979a1.233,1.233,0,0,0,1.229-1.229V201.365a2.48,2.48,0,0,0-2.5-2.46Z" transform="translate(-1787.576 -187.964)" fill="#e1e2c3"/>
        <path id="Path_439-7-3" data-name="Path 439-7" d="M1791.533,186.934c1.537,0,5.409-1.844,2.7-5.163-1.783-2.152-1.229-5.163-2.7-5.163-1.537,0-2.7,2.336-2.7,5.163S1790,186.934,1791.533,186.934Z" transform="translate(-1788.214 -176.607)" fill="#FFC31A"/>
      </g>
      <g id="Group_225-3" data-name="Group 225" transform="translate(183.512 100.097)">
        <path id="Path_438-8-3" data-name="Path 438-8" d="M410.493,402.9a2.387,2.387,0,0,1-2.4,0,2.532,2.532,0,0,0-2.52,2.52v34.483a1.233,1.233,0,0,0,1.229,1.229h4.979a1.233,1.233,0,0,0,1.229-1.229V405.365a2.48,2.48,0,0,0-2.5-2.46Z" transform="translate(-405.576 -391.964)" fill="#e1e2c3"/>
        <path id="Path_439-8-3" data-name="Path 439-8" d="M409.534,390.934c1.537,0,5.409-1.844,2.7-5.163-1.783-2.152-1.229-5.163-2.7-5.163-1.537,0-2.7,2.336-2.7,5.163S408,390.934,409.534,390.934Z" transform="translate(-406.214 -380.607)" fill="#FFC31A"/>
      </g>
      <g id="Group_215-3" data-name="Group 215" transform="translate(242.883 120.215)">
        <path id="Path_438-9-3" data-name="Path 438-9" d="M531.494,443.9a2.387,2.387,0,0,1-2.4,0,2.532,2.532,0,0,0-2.52,2.52v34.484a1.232,1.232,0,0,0,1.229,1.229h4.979a1.232,1.232,0,0,0,1.229-1.229V446.365a2.48,2.48,0,0,0-2.5-2.46Z" transform="translate(-526.576 -432.964)" fill="#e1e2c3"/>
        <path id="Path_439-9-3" data-name="Path 439-9" d="M530.534,431.934c1.537,0,5.409-1.844,2.7-5.163-1.783-2.152-1.229-5.163-2.7-5.163-1.537,0-2.7,2.336-2.7,5.163S529,431.934,530.534,431.934Z" transform="translate(-527.214 -421.607)" fill="#FFC31A"/>
      </g>
      <g id="Group_216-3" data-name="Group 216" transform="translate(563.292 71.148)">
        <path id="Path_438-10-3" data-name="Path 438-10" d="M1184.494,343.9a2.387,2.387,0,0,1-2.4,0,2.532,2.532,0,0,0-2.52,2.52v34.483a1.232,1.232,0,0,0,1.229,1.229h4.979a1.233,1.233,0,0,0,1.229-1.229V346.365a2.48,2.48,0,0,0-2.5-2.46Z" transform="translate(-1179.576 -332.964)" fill="#e1e2c3"/>
        <path id="Path_439-10-3" data-name="Path 439-10" d="M1183.533,331.934c1.537,0,5.409-1.844,2.7-5.163-1.783-2.152-1.229-5.163-2.7-5.163-1.537,0-2.7,2.336-2.7,5.163S1182,331.934,1183.533,331.934Z" transform="translate(-1180.214 -321.607)" fill="#FFC31A"/>
      </g>
      <g id="Group_219-3" data-name="Group 219" transform="translate(651.613 71.148)">
        <path id="Path_438-11-3" data-name="Path 438-11" d="M1364.494,343.9a2.388,2.388,0,0,1-2.4,0,2.531,2.531,0,0,0-2.52,2.52v34.483a1.232,1.232,0,0,0,1.229,1.229h4.979a1.233,1.233,0,0,0,1.229-1.229V346.365a2.479,2.479,0,0,0-2.5-2.46Z" transform="translate(-1359.576 -332.964)" fill="#e1e2c3"/>
        <path id="Path_439-11-3" data-name="Path 439-11" d="M1363.533,331.934c1.537,0,5.409-1.844,2.7-5.163-1.783-2.152-1.229-5.163-2.7-5.163-1.537,0-2.7,2.336-2.7,5.163S1362,331.934,1363.533,331.934Z" transform="translate(-1360.214 -321.607)" fill="#FFC31A"/>
      </g>
      <g id="Group_220-3" data-name="Group 220" transform="translate(628.552 41.707)">
        <path id="Path_438-12-3" data-name="Path 438-12" d="M1317.494,283.9a2.387,2.387,0,0,1-2.4,0,2.532,2.532,0,0,0-2.52,2.52v34.483a1.233,1.233,0,0,0,1.229,1.229h4.979a1.232,1.232,0,0,0,1.229-1.229V286.365a2.479,2.479,0,0,0-2.5-2.46Z" transform="translate(-1312.576 -272.964)" fill="#e1e2c3"/>
        <path id="Path_439-12-3" data-name="Path 439-12" d="M1316.533,271.934c1.537,0,5.409-1.844,2.7-5.163-1.783-2.152-1.229-5.163-2.7-5.163-1.537,0-2.7,2.336-2.7,5.163S1315,271.934,1316.533,271.934Z" transform="translate(-1313.214 -261.607)" fill="#FFC31A"/>
      </g>
      <g id="Group_204-3" data-name="Group 204" transform="translate(130.028 98.3)">
        <path id="Path_438-13-3" data-name="Path 438-13" d="M303.39,407.845a3.308,3.308,0,0,1-3.322,0,3.508,3.508,0,0,0-3.493,3.493v47.787a1.709,1.709,0,0,0,1.7,1.7h6.9a1.708,1.708,0,0,0,1.7-1.7V411.253a3.435,3.435,0,0,0-3.462-3.408Z" transform="translate(-296.576 -392.683)" fill="#e1e2c3"/>
        <path id="Path_439-13-3" data-name="Path 439-13" d="M302.06,391.255c2.13,0,7.5-2.555,3.748-7.155-2.47-2.982-1.706-7.156-3.748-7.156-2.129,0-3.748,3.238-3.748,7.155S299.931,391.255,302.06,391.255Z" transform="translate(-297.46 -376.945)" fill="#FFC31A"/>
      </g>
      <g id="Group_210-3" data-name="Group 210" transform="translate(328.26 98.3)">
        <path id="Path_438-14-3" data-name="Path 438-14" d="M707.391,407.845a3.309,3.309,0,0,1-3.322,0,3.508,3.508,0,0,0-3.493,3.493v47.787a1.709,1.709,0,0,0,1.7,1.7h6.9a1.708,1.708,0,0,0,1.7-1.7V411.253a3.435,3.435,0,0,0-3.462-3.408Z" transform="translate(-700.576 -392.683)" fill="#e1e2c3"/>
        <path id="Path_439-14-3" data-name="Path 439-14" d="M706.06,391.255c2.129,0,7.5-2.555,3.748-7.155-2.47-2.982-1.706-7.156-3.748-7.156-2.129,0-3.748,3.238-3.748,7.155S703.931,391.255,706.06,391.255Z" transform="translate(-701.46 -376.945)" fill="#FFC31A"/>
      </g>
      <g id="Group_211-3" data-name="Group 211" transform="translate(345.924 132.157)">
        <path id="Path_438-15-3" data-name="Path 438-15" d="M743.391,476.845a3.309,3.309,0,0,1-3.322,0,3.508,3.508,0,0,0-3.492,3.493v47.787a1.709,1.709,0,0,0,1.7,1.7h6.9a1.708,1.708,0,0,0,1.7-1.7V480.253a3.435,3.435,0,0,0-3.462-3.408Z" transform="translate(-736.576 -461.683)" fill="#e1e2c3"/>
        <path id="Path_439-15-3" data-name="Path 439-15" d="M742.06,460.255c2.13,0,7.5-2.555,3.748-7.155-2.47-2.982-1.706-7.155-3.748-7.155-2.129,0-3.748,3.238-3.748,7.155S739.931,460.255,742.06,460.255Z" transform="translate(-737.46 -445.945)" fill="#FFC31A"/>
      </g>
      <g id="Group_212-3" data-name="Group 212" transform="translate(412.165 126.759)">
        <path id="Path_438-16-3" data-name="Path 438-16" d="M878.39,465.845a3.308,3.308,0,0,1-3.322,0,3.508,3.508,0,0,0-3.493,3.493v47.787a1.708,1.708,0,0,0,1.7,1.7h6.9a1.708,1.708,0,0,0,1.7-1.7V469.253a3.435,3.435,0,0,0-3.462-3.408Z" transform="translate(-871.576 -450.683)" fill="#e1e2c3"/>
        <path id="Path_439-16-3" data-name="Path 439-16" d="M877.06,449.255c2.129,0,7.5-2.555,3.748-7.155-2.47-2.982-1.706-7.155-3.748-7.155-2.128,0-3.748,3.238-3.748,7.155S874.931,449.255,877.06,449.255Z" transform="translate(-872.46 -434.945)" fill="#FFC31A"/>
      </g>
      <g id="Group_213-3" data-name="Group 213" transform="translate(616.285 114.983)">
        <path id="Path_438-17-3" data-name="Path 438-17" d="M1294.391,441.845a3.309,3.309,0,0,1-3.322,0,3.508,3.508,0,0,0-3.492,3.493v47.787a1.708,1.708,0,0,0,1.7,1.7h6.9a1.708,1.708,0,0,0,1.7-1.7V445.253a3.435,3.435,0,0,0-3.462-3.408Z" transform="translate(-1287.576 -426.683)" fill="#e1e2c3"/>
        <path id="Path_439-17-3" data-name="Path 439-17" d="M1293.06,425.255c2.13,0,7.5-2.555,3.748-7.155-2.47-2.982-1.705-7.155-3.748-7.155-2.129,0-3.748,3.238-3.748,7.155S1290.931,425.255,1293.06,425.255Z" transform="translate(-1288.46 -410.945)" fill="#FFC31A"/>
      </g>
      <g id="Group_221-3" data-name="Group 221" transform="translate(701.662 61.5)">
        <path id="Path_438-18-3" data-name="Path 438-18" d="M1468.391,332.845a3.308,3.308,0,0,1-3.322,0,3.508,3.508,0,0,0-3.493,3.493v47.787a1.709,1.709,0,0,0,1.7,1.7h6.9a1.708,1.708,0,0,0,1.7-1.7V336.253a3.435,3.435,0,0,0-3.462-3.408Z" transform="translate(-1461.576 -317.683)" fill="#e1e2c3"/>
        <path id="Path_439-18-3" data-name="Path 439-18" d="M1467.06,316.255c2.13,0,7.5-2.555,3.748-7.155-2.47-2.982-1.706-7.155-3.748-7.155-2.129,0-3.748,3.238-3.748,7.155S1464.931,316.255,1467.06,316.255Z" transform="translate(-1462.46 -301.945)" fill="#FFC31A"/>
      </g>
      <g id="Group_228-3" data-name="Group 228" transform="translate(895.477 84.562)">
        <path id="Path_438-19-3" data-name="Path 438-19" d="M1865.184,387.979a4.18,4.18,0,0,1-4.2,0,4.432,4.432,0,0,0-4.412,4.412v60.366a2.159,2.159,0,0,0,2.152,2.152h8.716a2.159,2.159,0,0,0,2.152-2.152V392.284a4.341,4.341,0,0,0-4.377-4.3Z" transform="translate(-1856.576 -368.826)" fill="#e1e2c3"/>
        <path id="Path_439-19-3" data-name="Path 439-19" d="M1863.5,367.022c2.69,0,9.47-3.228,4.735-9.039-3.12-3.766-2.152-9.039-4.735-9.039-2.69,0-4.734,4.089-4.734,9.039S1860.814,367.022,1863.5,367.022Z" transform="translate(-1857.693 -348.945)" fill="#FFC31A"/>
      </g>
      <g id="Group_217-3" data-name="Group 217" transform="translate(500.977 136.082)">
        <path id="Path_438-20-3" data-name="Path 438-20" d="M1059.39,484.845a3.309,3.309,0,0,1-3.322,0,3.508,3.508,0,0,0-3.493,3.493v47.787a1.709,1.709,0,0,0,1.7,1.7h6.9a1.708,1.708,0,0,0,1.7-1.7V488.253a3.435,3.435,0,0,0-3.462-3.408Z" transform="translate(-1052.576 -469.683)" fill="#e1e2c3"/>
        <path id="Path_439-20-3" data-name="Path 439-20" d="M1058.06,468.255c2.13,0,7.5-2.555,3.748-7.155-2.47-2.982-1.706-7.155-3.748-7.155-2.129,0-3.748,3.238-3.748,7.155S1055.931,468.255,1058.06,468.255Z" transform="translate(-1053.46 -453.945)" fill="#FFC31A"/>
      </g>
      <g id="Group_205-3" data-name="Group 205" transform="translate(98.625 149.186)">
        <path id="Path_438-21-3" data-name="Path 438-21" d="M244.41,534.311a5.745,5.745,0,0,1-5.769,0,6.092,6.092,0,0,0-6.065,6.065v82.985a2.967,2.967,0,0,0,2.958,2.958h11.982a2.967,2.967,0,0,0,2.958-2.958V540.228a5.967,5.967,0,0,0-6.017-5.918Z" transform="translate(-232.576 -507.981)" fill="#e1e2c3"/>
        <path id="Path_439-21-3" data-name="Path 439-21" d="M242.1,505.5c3.7,0,13.017-4.438,6.509-12.425-4.29-5.178-2.959-12.426-6.509-12.426-3.7,0-6.509,5.621-6.509,12.425S238.4,505.5,242.1,505.5Z" transform="translate(-234.112 -480.651)" fill="#FFC31A"/>
      </g>
      <g id="Group_206-3" data-name="Group 206" transform="translate(277.23 135.938)">
        <path id="Path_438-22-3" data-name="Path 438-22" d="M608.409,507.311a5.746,5.746,0,0,1-5.769,0,6.091,6.091,0,0,0-6.065,6.065v82.984a2.967,2.967,0,0,0,2.958,2.958h11.982a2.967,2.967,0,0,0,2.958-2.958V513.228a5.967,5.967,0,0,0-6.017-5.918Z" transform="translate(-596.576 -480.981)" fill="#e1e2c3"/>
        <path id="Path_439-22-3" data-name="Path 439-22" d="M606.1,478.5c3.7,0,13.017-4.438,6.509-12.425-4.29-5.178-2.959-12.426-6.509-12.426-3.7,0-6.509,5.621-6.509,12.425S602.4,478.5,606.1,478.5Z" transform="translate(-598.112 -453.651)" fill="#FFC31A"/>
      </g>
      <g id="Group_207-3" data-name="Group 207" transform="translate(210.008 173.229)">
        <path id="Path_438-23-3" data-name="Path 438-23" d="M471.41,583.311a5.745,5.745,0,0,1-5.769,0,6.092,6.092,0,0,0-6.065,6.065V672.36a2.967,2.967,0,0,0,2.958,2.958h11.982a2.967,2.967,0,0,0,2.958-2.958V589.228a5.967,5.967,0,0,0-6.017-5.917Z" transform="translate(-459.576 -556.981)" fill="#e1e2c3"/>
        <path id="Path_439-23-3" data-name="Path 439-23" d="M469.1,554.5c3.7,0,13.017-4.438,6.509-12.425-4.29-5.177-2.959-12.426-6.509-12.426-3.7,0-6.509,5.621-6.509,12.425S465.4,554.5,469.1,554.5Z" transform="translate(-461.112 -529.651)" fill="#FFC31A"/>
      </g>
      <g id="Group_208-3" data-name="Group 208" transform="translate(364.57 132.373)">
        <path id="Path_438-24-3" data-name="Path 438-24" d="M788.091,507.669a6.562,6.562,0,0,1-6.589,0,6.958,6.958,0,0,0-6.926,6.926v94.775a3.389,3.389,0,0,0,3.379,3.379h13.684a3.388,3.388,0,0,0,3.379-3.379V514.427a6.815,6.815,0,0,0-6.872-6.758Z" transform="translate(-774.576 -477.598)" fill="#e1e2c3"/>
        <path id="Path_439-24-3" data-name="Path 439-24" d="M785.452,474.766c4.224,0,14.867-5.068,7.433-14.191-4.9-5.913-3.379-14.191-7.433-14.191-4.223,0-7.433,6.419-7.433,14.191S781.229,474.766,785.452,474.766Z" transform="translate(-776.33 -446.385)" fill="#FFC31A"/>
      </g>
      <g id="Group_209-3" data-name="Group 209" transform="translate(444.549 152.49)">
        <path id="Path_438-25-3" data-name="Path 438-25" d="M957.971,579.868a9.9,9.9,0,0,1-9.943,0,10.5,10.5,0,0,0-10.453,10.451V733.34a5.114,5.114,0,0,0,5.1,5.1h20.651a5.114,5.114,0,0,0,5.1-5.1V590.064a10.285,10.285,0,0,0-10.371-10.2Z" transform="translate(-937.576 -534.488)" fill="#e1e2c3"/>
        <path id="Path_439-25-3" data-name="Path 439-25" d="M953.989,530.215c6.373,0,22.434-7.648,11.217-21.415-7.393-8.923-5.1-21.415-11.217-21.415-6.373,0-11.217,9.688-11.217,21.415S947.616,530.215,953.989,530.215Z" transform="translate(-940.222 -487.385)" fill="#FFC31A"/>
      </g>
      <g id="Group_218-3" data-name="Group 218" transform="translate(563.292 149.056)">
        <path id="Path_438-26-3" data-name="Path 438-26" d="M1193.091,541.669a6.562,6.562,0,0,1-6.589,0,6.957,6.957,0,0,0-6.926,6.926V643.37a3.388,3.388,0,0,0,3.379,3.379h13.684a3.388,3.388,0,0,0,3.379-3.379V548.427a6.815,6.815,0,0,0-6.872-6.758Z" transform="translate(-1179.576 -511.598)" fill="#e1e2c3"/>
        <path id="Path_439-26-3" data-name="Path 439-26" d="M1190.452,508.766c4.224,0,14.867-5.068,7.433-14.191-4.9-5.913-3.379-14.191-7.433-14.191-4.223,0-7.433,6.419-7.433,14.191S1186.229,508.766,1190.452,508.766Z" transform="translate(-1181.33 -480.385)" fill="#FFC31A"/>
      </g>
      <g id="Group_222-3" data-name="Group 222" transform="translate(669.768 177.024)">
        <path id="Path_438-27-3" data-name="Path 438-27" d="M1410.091,598.669a6.562,6.562,0,0,1-6.589,0,6.957,6.957,0,0,0-6.926,6.926V700.37a3.388,3.388,0,0,0,3.379,3.379h13.684a3.388,3.388,0,0,0,3.379-3.379V605.427a6.815,6.815,0,0,0-6.872-6.758Z" transform="translate(-1396.576 -568.598)" fill="#e1e2c3"/>
        <path id="Path_439-27-3" data-name="Path 439-27" d="M1407.452,565.767c4.224,0,14.867-5.068,7.433-14.191-4.9-5.913-3.379-14.191-7.433-14.191-4.223,0-7.433,6.419-7.433,14.191S1403.229,565.767,1407.452,565.767Z" transform="translate(-1398.33 -537.385)" fill="#FFC31A"/>
      </g>
      <g id="Group_223-3" data-name="Group 223" transform="translate(751.71 127.466)">
        <path id="Path_438-28-3" data-name="Path 438-28" d="M1577.091,497.669a6.562,6.562,0,0,1-6.589,0,6.957,6.957,0,0,0-6.926,6.926V599.37a3.389,3.389,0,0,0,3.379,3.379h13.684a3.389,3.389,0,0,0,3.379-3.379V504.427a6.816,6.816,0,0,0-6.872-6.758Z" transform="translate(-1563.576 -467.598)" fill="#e1e2c3"/>
        <path id="Path_439-28-3" data-name="Path 439-28" d="M1574.452,464.767c4.224,0,14.867-5.068,7.433-14.191-4.9-5.913-3.379-14.191-7.433-14.191-4.223,0-7.433,6.419-7.433,14.191S1570.229,464.767,1574.452,464.767Z" transform="translate(-1565.33 -436.385)" fill="#FFC31A"/>
      </g>
      <g id="Group_224-3" data-name="Group 224" transform="translate(829.727 120.322)">
        <path id="Path_438-29-3" data-name="Path 438-29" d="M1737.738,490.577a7.36,7.36,0,0,1-7.391,0,7.8,7.8,0,0,0-7.77,7.77V604.669a3.8,3.8,0,0,0,3.791,3.79h15.351a3.8,3.8,0,0,0,3.791-3.79V498.158a7.646,7.646,0,0,0-7.709-7.582Z" transform="translate(-1722.576 -456.842)" fill="#e1e2c3"/>
        <path id="Path_439-29-3" data-name="Path 439-29" d="M1734.778,453.665c4.738,0,16.678-5.686,8.341-15.92-5.5-6.633-3.793-15.92-8.341-15.92-4.738,0-8.339,7.2-8.339,15.92S1730.04,453.665,1734.778,453.665Z" transform="translate(-1724.543 -421.825)" fill="#FFC31A"/>
      </g>
    </g>
    <g id="Group_235" data-name="Group 235" transform="translate(704.169 1615.332)">
      <g id="Group_202-4" data-name="Group 202" transform="translate(52.993 149.186)">
        <path id="Path_438-4-4" data-name="Path 438" d="M150.085,528.3a5.1,5.1,0,0,1-5.123,0,5.41,5.41,0,0,0-5.386,5.386v73.694a2.635,2.635,0,0,0,2.627,2.627h10.64a2.635,2.635,0,0,0,2.627-2.627V533.559a5.3,5.3,0,0,0-5.343-5.255Z" transform="translate(-139.576 -504.922)" fill="#e1e2c3"/>
        <path id="Path_439-4-4" data-name="Path 439" d="M148.033,502.72c3.284,0,11.56-3.941,5.78-11.034-3.808-4.6-2.63-11.035-5.78-11.035-3.284,0-5.78,4.992-5.78,11.034S144.749,502.72,148.033,502.72Z" transform="translate(-140.939 -480.651)" fill="#FFC31A"/>
      </g>
      <g id="Group_230-5" data-name="Group 230" transform="translate(0 186.477)">
        <path id="Path_438-2-5" data-name="Path 438-2" d="M42.085,604.3a5.1,5.1,0,0,1-5.123,0,5.409,5.409,0,0,0-5.386,5.386v73.694a2.635,2.635,0,0,0,2.627,2.627h10.64a2.635,2.635,0,0,0,2.627-2.627V609.559a5.3,5.3,0,0,0-5.343-5.255Z" transform="translate(-31.576 -580.922)" fill="#e1e2c3"/>
        <path id="Path_439-2-5" data-name="Path 439-2" d="M40.033,578.72c3.284,0,11.56-3.941,5.78-11.034-3.808-4.6-2.63-11.035-5.78-11.035-3.284,0-5.78,4.992-5.78,11.034S36.749,578.72,40.033,578.72Z" transform="translate(-32.939 -556.651)" fill="#FFC31A"/>
      </g>
      <g id="Group_203-4" data-name="Group 203" transform="translate(79.98 61.334)">
        <path id="Path_438-3-5" data-name="Path 438-3" d="M199.494,323.9a2.388,2.388,0,0,1-2.4,0,2.532,2.532,0,0,0-2.52,2.52v34.483a1.233,1.233,0,0,0,1.229,1.229h4.979a1.233,1.233,0,0,0,1.229-1.229V326.365a2.48,2.48,0,0,0-2.5-2.46Z" transform="translate(-194.576 -312.964)" fill="#e1e2c3"/>
        <path id="Path_439-3-5" data-name="Path 439-3" d="M198.534,311.934c1.537,0,5.409-1.844,2.7-5.163-1.783-2.152-1.229-5.163-2.7-5.163-1.537,0-2.7,2.336-2.7,5.163S197,311.934,198.534,311.934Z" transform="translate(-195.214 -301.607)" fill="#FFC31A"/>
      </g>
      <g id="Group_229-4" data-name="Group 229" transform="translate(15.702 80.47)">
        <path id="Path_438-4-5" data-name="Path 438-4" d="M68.494,362.9a2.387,2.387,0,0,1-2.4,0,2.532,2.532,0,0,0-2.52,2.52v34.483a1.233,1.233,0,0,0,1.229,1.229h4.979a1.233,1.233,0,0,0,1.229-1.229V365.365a2.48,2.48,0,0,0-2.5-2.46Z" transform="translate(-63.576 -351.964)" fill="#e1e2c3"/>
        <path id="Path_439-4-5" data-name="Path 439-4" d="M67.534,350.934c1.537,0,5.409-1.844,2.7-5.163-1.783-2.152-1.229-5.163-2.7-5.163-1.537,0-2.7,2.336-2.7,5.163S66,350.934,67.534,350.934Z" transform="translate(-64.214 -340.607)" fill="#FFC31A"/>
      </g>
      <g id="Group_214-4" data-name="Group 214" transform="translate(194.797 49.067)">
        <path id="Path_438-5-4" data-name="Path 438-5" d="M433.493,298.9a2.387,2.387,0,0,1-2.4,0,2.532,2.532,0,0,0-2.52,2.52v34.483a1.233,1.233,0,0,0,1.229,1.229h4.979a1.233,1.233,0,0,0,1.229-1.229V301.365a2.48,2.48,0,0,0-2.5-2.46Z" transform="translate(-428.576 -287.964)" fill="#e1e2c3"/>
        <path id="Path_439-5-4" data-name="Path 439-5" d="M432.534,286.934c1.537,0,5.409-1.844,2.7-5.163-1.783-2.152-1.229-5.163-2.7-5.163-1.537,0-2.7,2.336-2.7,5.163S431,286.934,432.534,286.934Z" transform="translate(-429.214 -276.607)" fill="#FFC31A"/>
      </g>
      <g id="Group_226-4" data-name="Group 226" transform="translate(799.306 46.614)">
        <path id="Path_438-6-4" data-name="Path 438-6" d="M1665.494,293.9a2.387,2.387,0,0,1-2.4,0,2.531,2.531,0,0,0-2.52,2.52v34.483a1.232,1.232,0,0,0,1.229,1.229h4.979a1.232,1.232,0,0,0,1.229-1.229V296.365a2.48,2.48,0,0,0-2.5-2.46Z" transform="translate(-1660.576 -282.964)" fill="#e1e2c3"/>
        <path id="Path_439-6-4" data-name="Path 439-6" d="M1664.533,281.934c1.537,0,5.409-1.844,2.7-5.163-1.783-2.152-1.229-5.163-2.7-5.163-1.537,0-2.7,2.336-2.7,5.163S1663,281.934,1664.533,281.934Z" transform="translate(-1661.214 -271.607)" fill="#FFC31A"/>
      </g>
      <g id="Group_227-4" data-name="Group 227" transform="translate(861.621 0)">
        <path id="Path_438-7-4" data-name="Path 438-7" d="M1792.494,198.9a2.388,2.388,0,0,1-2.4,0,2.532,2.532,0,0,0-2.52,2.52v34.483a1.232,1.232,0,0,0,1.229,1.229h4.979a1.233,1.233,0,0,0,1.229-1.229V201.365a2.48,2.48,0,0,0-2.5-2.46Z" transform="translate(-1787.576 -187.964)" fill="#e1e2c3"/>
        <path id="Path_439-7-4" data-name="Path 439-7" d="M1791.533,186.934c1.537,0,5.409-1.844,2.7-5.163-1.783-2.152-1.229-5.163-2.7-5.163-1.537,0-2.7,2.336-2.7,5.163S1790,186.934,1791.533,186.934Z" transform="translate(-1788.214 -176.607)" fill="#FFC31A"/>
      </g>
      <g id="Group_225-4" data-name="Group 225" transform="translate(183.512 100.097)">
        <path id="Path_438-8-4" data-name="Path 438-8" d="M410.493,402.9a2.387,2.387,0,0,1-2.4,0,2.532,2.532,0,0,0-2.52,2.52v34.483a1.233,1.233,0,0,0,1.229,1.229h4.979a1.233,1.233,0,0,0,1.229-1.229V405.365a2.48,2.48,0,0,0-2.5-2.46Z" transform="translate(-405.576 -391.964)" fill="#e1e2c3"/>
        <path id="Path_439-8-4" data-name="Path 439-8" d="M409.534,390.934c1.537,0,5.409-1.844,2.7-5.163-1.783-2.152-1.229-5.163-2.7-5.163-1.537,0-2.7,2.336-2.7,5.163S408,390.934,409.534,390.934Z" transform="translate(-406.214 -380.607)" fill="#FFC31A"/>
      </g>
      <g id="Group_215-4" data-name="Group 215" transform="translate(242.883 120.215)">
        <path id="Path_438-9-4" data-name="Path 438-9" d="M531.494,443.9a2.387,2.387,0,0,1-2.4,0,2.532,2.532,0,0,0-2.52,2.52v34.484a1.232,1.232,0,0,0,1.229,1.229h4.979a1.232,1.232,0,0,0,1.229-1.229V446.365a2.48,2.48,0,0,0-2.5-2.46Z" transform="translate(-526.576 -432.964)" fill="#e1e2c3"/>
        <path id="Path_439-9-4" data-name="Path 439-9" d="M530.534,431.934c1.537,0,5.409-1.844,2.7-5.163-1.783-2.152-1.229-5.163-2.7-5.163-1.537,0-2.7,2.336-2.7,5.163S529,431.934,530.534,431.934Z" transform="translate(-527.214 -421.607)" fill="#FFC31A"/>
      </g>
      <g id="Group_216-4" data-name="Group 216" transform="translate(563.292 71.148)">
        <path id="Path_438-10-4" data-name="Path 438-10" d="M1184.494,343.9a2.387,2.387,0,0,1-2.4,0,2.532,2.532,0,0,0-2.52,2.52v34.483a1.232,1.232,0,0,0,1.229,1.229h4.979a1.233,1.233,0,0,0,1.229-1.229V346.365a2.48,2.48,0,0,0-2.5-2.46Z" transform="translate(-1179.576 -332.964)" fill="#e1e2c3"/>
        <path id="Path_439-10-4" data-name="Path 439-10" d="M1183.533,331.934c1.537,0,5.409-1.844,2.7-5.163-1.783-2.152-1.229-5.163-2.7-5.163-1.537,0-2.7,2.336-2.7,5.163S1182,331.934,1183.533,331.934Z" transform="translate(-1180.214 -321.607)" fill="#FFC31A"/>
      </g>
      <g id="Group_219-4" data-name="Group 219" transform="translate(651.613 71.148)">
        <path id="Path_438-11-4" data-name="Path 438-11" d="M1364.494,343.9a2.388,2.388,0,0,1-2.4,0,2.531,2.531,0,0,0-2.52,2.52v34.483a1.232,1.232,0,0,0,1.229,1.229h4.979a1.233,1.233,0,0,0,1.229-1.229V346.365a2.479,2.479,0,0,0-2.5-2.46Z" transform="translate(-1359.576 -332.964)" fill="#e1e2c3"/>
        <path id="Path_439-11-4" data-name="Path 439-11" d="M1363.533,331.934c1.537,0,5.409-1.844,2.7-5.163-1.783-2.152-1.229-5.163-2.7-5.163-1.537,0-2.7,2.336-2.7,5.163S1362,331.934,1363.533,331.934Z" transform="translate(-1360.214 -321.607)" fill="#FFC31A"/>
      </g>
      <g id="Group_220-4" data-name="Group 220" transform="translate(628.552 41.707)">
        <path id="Path_438-12-4" data-name="Path 438-12" d="M1317.494,283.9a2.387,2.387,0,0,1-2.4,0,2.532,2.532,0,0,0-2.52,2.52v34.483a1.233,1.233,0,0,0,1.229,1.229h4.979a1.232,1.232,0,0,0,1.229-1.229V286.365a2.479,2.479,0,0,0-2.5-2.46Z" transform="translate(-1312.576 -272.964)" fill="#e1e2c3"/>
        <path id="Path_439-12-4" data-name="Path 439-12" d="M1316.533,271.934c1.537,0,5.409-1.844,2.7-5.163-1.783-2.152-1.229-5.163-2.7-5.163-1.537,0-2.7,2.336-2.7,5.163S1315,271.934,1316.533,271.934Z" transform="translate(-1313.214 -261.607)" fill="#FFC31A"/>
      </g>
      <g id="Group_204-4" data-name="Group 204" transform="translate(130.028 98.3)">
        <path id="Path_438-13-4" data-name="Path 438-13" d="M303.39,407.845a3.308,3.308,0,0,1-3.322,0,3.508,3.508,0,0,0-3.493,3.493v47.787a1.709,1.709,0,0,0,1.7,1.7h6.9a1.708,1.708,0,0,0,1.7-1.7V411.253a3.435,3.435,0,0,0-3.462-3.408Z" transform="translate(-296.576 -392.683)" fill="#e1e2c3"/>
        <path id="Path_439-13-4" data-name="Path 439-13" d="M302.06,391.255c2.13,0,7.5-2.555,3.748-7.155-2.47-2.982-1.706-7.156-3.748-7.156-2.129,0-3.748,3.238-3.748,7.155S299.931,391.255,302.06,391.255Z" transform="translate(-297.46 -376.945)" fill="#FFC31A"/>
      </g>
      <g id="Group_210-4" data-name="Group 210" transform="translate(328.26 98.3)">
        <path id="Path_438-14-4" data-name="Path 438-14" d="M707.391,407.845a3.309,3.309,0,0,1-3.322,0,3.508,3.508,0,0,0-3.493,3.493v47.787a1.709,1.709,0,0,0,1.7,1.7h6.9a1.708,1.708,0,0,0,1.7-1.7V411.253a3.435,3.435,0,0,0-3.462-3.408Z" transform="translate(-700.576 -392.683)" fill="#e1e2c3"/>
        <path id="Path_439-14-4" data-name="Path 439-14" d="M706.06,391.255c2.129,0,7.5-2.555,3.748-7.155-2.47-2.982-1.706-7.156-3.748-7.156-2.129,0-3.748,3.238-3.748,7.155S703.931,391.255,706.06,391.255Z" transform="translate(-701.46 -376.945)" fill="#FFC31A"/>
      </g>
      <g id="Group_211-4" data-name="Group 211" transform="translate(345.924 132.157)">
        <path id="Path_438-15-4" data-name="Path 438-15" d="M743.391,476.845a3.309,3.309,0,0,1-3.322,0,3.508,3.508,0,0,0-3.492,3.493v47.787a1.709,1.709,0,0,0,1.7,1.7h6.9a1.708,1.708,0,0,0,1.7-1.7V480.253a3.435,3.435,0,0,0-3.462-3.408Z" transform="translate(-736.576 -461.683)" fill="#e1e2c3"/>
        <path id="Path_439-15-4" data-name="Path 439-15" d="M742.06,460.255c2.13,0,7.5-2.555,3.748-7.155-2.47-2.982-1.706-7.155-3.748-7.155-2.129,0-3.748,3.238-3.748,7.155S739.931,460.255,742.06,460.255Z" transform="translate(-737.46 -445.945)" fill="#FFC31A"/>
      </g>
      <g id="Group_212-4" data-name="Group 212" transform="translate(412.165 126.759)">
        <path id="Path_438-16-4" data-name="Path 438-16" d="M878.39,465.845a3.308,3.308,0,0,1-3.322,0,3.508,3.508,0,0,0-3.493,3.493v47.787a1.708,1.708,0,0,0,1.7,1.7h6.9a1.708,1.708,0,0,0,1.7-1.7V469.253a3.435,3.435,0,0,0-3.462-3.408Z" transform="translate(-871.576 -450.683)" fill="#e1e2c3"/>
        <path id="Path_439-16-4" data-name="Path 439-16" d="M877.06,449.255c2.129,0,7.5-2.555,3.748-7.155-2.47-2.982-1.706-7.155-3.748-7.155-2.128,0-3.748,3.238-3.748,7.155S874.931,449.255,877.06,449.255Z" transform="translate(-872.46 -434.945)" fill="#FFC31A"/>
      </g>
      <g id="Group_213-4" data-name="Group 213" transform="translate(616.285 114.983)">
        <path id="Path_438-17-4" data-name="Path 438-17" d="M1294.391,441.845a3.309,3.309,0,0,1-3.322,0,3.508,3.508,0,0,0-3.492,3.493v47.787a1.708,1.708,0,0,0,1.7,1.7h6.9a1.708,1.708,0,0,0,1.7-1.7V445.253a3.435,3.435,0,0,0-3.462-3.408Z" transform="translate(-1287.576 -426.683)" fill="#e1e2c3"/>
        <path id="Path_439-17-4" data-name="Path 439-17" d="M1293.06,425.255c2.13,0,7.5-2.555,3.748-7.155-2.47-2.982-1.705-7.155-3.748-7.155-2.129,0-3.748,3.238-3.748,7.155S1290.931,425.255,1293.06,425.255Z" transform="translate(-1288.46 -410.945)" fill="#FFC31A"/>
      </g>
      <g id="Group_221-4" data-name="Group 221" transform="translate(701.662 61.5)">
        <path id="Path_438-18-4" data-name="Path 438-18" d="M1468.391,332.845a3.308,3.308,0,0,1-3.322,0,3.508,3.508,0,0,0-3.493,3.493v47.787a1.709,1.709,0,0,0,1.7,1.7h6.9a1.708,1.708,0,0,0,1.7-1.7V336.253a3.435,3.435,0,0,0-3.462-3.408Z" transform="translate(-1461.576 -317.683)" fill="#e1e2c3"/>
        <path id="Path_439-18-4" data-name="Path 439-18" d="M1467.06,316.255c2.13,0,7.5-2.555,3.748-7.155-2.47-2.982-1.706-7.155-3.748-7.155-2.129,0-3.748,3.238-3.748,7.155S1464.931,316.255,1467.06,316.255Z" transform="translate(-1462.46 -301.945)" fill="#FFC31A"/>
      </g>
      <g id="Group_228-4" data-name="Group 228" transform="translate(895.477 84.562)">
        <path id="Path_438-19-4" data-name="Path 438-19" d="M1865.184,387.979a4.18,4.18,0,0,1-4.2,0,4.432,4.432,0,0,0-4.412,4.412v60.366a2.159,2.159,0,0,0,2.152,2.152h8.716a2.159,2.159,0,0,0,2.152-2.152V392.284a4.341,4.341,0,0,0-4.377-4.3Z" transform="translate(-1856.576 -368.826)" fill="#e1e2c3"/>
        <path id="Path_439-19-4" data-name="Path 439-19" d="M1863.5,367.022c2.69,0,9.47-3.228,4.735-9.039-3.12-3.766-2.152-9.039-4.735-9.039-2.69,0-4.734,4.089-4.734,9.039S1860.814,367.022,1863.5,367.022Z" transform="translate(-1857.693 -348.945)" fill="#FFC31A"/>
      </g>
      <g id="Group_217-4" data-name="Group 217" transform="translate(500.977 136.082)">
        <path id="Path_438-20-4" data-name="Path 438-20" d="M1059.39,484.845a3.309,3.309,0,0,1-3.322,0,3.508,3.508,0,0,0-3.493,3.493v47.787a1.709,1.709,0,0,0,1.7,1.7h6.9a1.708,1.708,0,0,0,1.7-1.7V488.253a3.435,3.435,0,0,0-3.462-3.408Z" transform="translate(-1052.576 -469.683)" fill="#e1e2c3"/>
        <path id="Path_439-20-4" data-name="Path 439-20" d="M1058.06,468.255c2.13,0,7.5-2.555,3.748-7.155-2.47-2.982-1.706-7.155-3.748-7.155-2.129,0-3.748,3.238-3.748,7.155S1055.931,468.255,1058.06,468.255Z" transform="translate(-1053.46 -453.945)" fill="#FFC31A"/>
      </g>
      <g id="Group_205-4" data-name="Group 205" transform="translate(98.625 149.186)">
        <path id="Path_438-21-4" data-name="Path 438-21" d="M244.41,534.311a5.745,5.745,0,0,1-5.769,0,6.092,6.092,0,0,0-6.065,6.065v82.985a2.967,2.967,0,0,0,2.958,2.958h11.982a2.967,2.967,0,0,0,2.958-2.958V540.228a5.967,5.967,0,0,0-6.017-5.918Z" transform="translate(-232.576 -507.981)" fill="#e1e2c3"/>
        <path id="Path_439-21-4" data-name="Path 439-21" d="M242.1,505.5c3.7,0,13.017-4.438,6.509-12.425-4.29-5.178-2.959-12.426-6.509-12.426-3.7,0-6.509,5.621-6.509,12.425S238.4,505.5,242.1,505.5Z" transform="translate(-234.112 -480.651)" fill="#FFC31A"/>
      </g>
      <g id="Group_206-4" data-name="Group 206" transform="translate(277.23 135.938)">
        <path id="Path_438-22-4" data-name="Path 438-22" d="M608.409,507.311a5.746,5.746,0,0,1-5.769,0,6.091,6.091,0,0,0-6.065,6.065v82.984a2.967,2.967,0,0,0,2.958,2.958h11.982a2.967,2.967,0,0,0,2.958-2.958V513.228a5.967,5.967,0,0,0-6.017-5.918Z" transform="translate(-596.576 -480.981)" fill="#e1e2c3"/>
        <path id="Path_439-22-4" data-name="Path 439-22" d="M606.1,478.5c3.7,0,13.017-4.438,6.509-12.425-4.29-5.178-2.959-12.426-6.509-12.426-3.7,0-6.509,5.621-6.509,12.425S602.4,478.5,606.1,478.5Z" transform="translate(-598.112 -453.651)" fill="#FFC31A"/>
      </g>
      <g id="Group_207-4" data-name="Group 207" transform="translate(210.008 173.229)">
        <path id="Path_438-23-4" data-name="Path 438-23" d="M471.41,583.311a5.745,5.745,0,0,1-5.769,0,6.092,6.092,0,0,0-6.065,6.065V672.36a2.967,2.967,0,0,0,2.958,2.958h11.982a2.967,2.967,0,0,0,2.958-2.958V589.228a5.967,5.967,0,0,0-6.017-5.917Z" transform="translate(-459.576 -556.981)" fill="#e1e2c3"/>
        <path id="Path_439-23-4" data-name="Path 439-23" d="M469.1,554.5c3.7,0,13.017-4.438,6.509-12.425-4.29-5.177-2.959-12.426-6.509-12.426-3.7,0-6.509,5.621-6.509,12.425S465.4,554.5,469.1,554.5Z" transform="translate(-461.112 -529.651)" fill="#FFC31A"/>
      </g>
      <g id="Group_208-4" data-name="Group 208" transform="translate(364.57 132.373)">
        <path id="Path_438-24-4" data-name="Path 438-24" d="M788.091,507.669a6.562,6.562,0,0,1-6.589,0,6.958,6.958,0,0,0-6.926,6.926v94.775a3.389,3.389,0,0,0,3.379,3.379h13.684a3.388,3.388,0,0,0,3.379-3.379V514.427a6.815,6.815,0,0,0-6.872-6.758Z" transform="translate(-774.576 -477.598)" fill="#e1e2c3"/>
        <path id="Path_439-24-4" data-name="Path 439-24" d="M785.452,474.766c4.224,0,14.867-5.068,7.433-14.191-4.9-5.913-3.379-14.191-7.433-14.191-4.223,0-7.433,6.419-7.433,14.191S781.229,474.766,785.452,474.766Z" transform="translate(-776.33 -446.385)" fill="#FFC31A"/>
      </g>
      <g id="Group_209-4" data-name="Group 209" transform="translate(444.549 152.49)">
        <path id="Path_438-25-4" data-name="Path 438-25" d="M957.971,579.868a9.9,9.9,0,0,1-9.943,0,10.5,10.5,0,0,0-10.453,10.451V733.34a5.114,5.114,0,0,0,5.1,5.1h20.651a5.114,5.114,0,0,0,5.1-5.1V590.064a10.285,10.285,0,0,0-10.371-10.2Z" transform="translate(-937.576 -534.488)" fill="#e1e2c3"/>
        <path id="Path_439-25-4" data-name="Path 439-25" d="M953.989,530.215c6.373,0,22.434-7.648,11.217-21.415-7.393-8.923-5.1-21.415-11.217-21.415-6.373,0-11.217,9.688-11.217,21.415S947.616,530.215,953.989,530.215Z" transform="translate(-940.222 -487.385)" fill="#FFC31A"/>
      </g>
      <g id="Group_218-4" data-name="Group 218" transform="translate(563.292 149.056)">
        <path id="Path_438-26-4" data-name="Path 438-26" d="M1193.091,541.669a6.562,6.562,0,0,1-6.589,0,6.957,6.957,0,0,0-6.926,6.926V643.37a3.388,3.388,0,0,0,3.379,3.379h13.684a3.388,3.388,0,0,0,3.379-3.379V548.427a6.815,6.815,0,0,0-6.872-6.758Z" transform="translate(-1179.576 -511.598)" fill="#e1e2c3"/>
        <path id="Path_439-26-4" data-name="Path 439-26" d="M1190.452,508.766c4.224,0,14.867-5.068,7.433-14.191-4.9-5.913-3.379-14.191-7.433-14.191-4.223,0-7.433,6.419-7.433,14.191S1186.229,508.766,1190.452,508.766Z" transform="translate(-1181.33 -480.385)" fill="#FFC31A"/>
      </g>
      <g id="Group_222-4" data-name="Group 222" transform="translate(669.768 177.024)">
        <path id="Path_438-27-4" data-name="Path 438-27" d="M1410.091,598.669a6.562,6.562,0,0,1-6.589,0,6.957,6.957,0,0,0-6.926,6.926V700.37a3.388,3.388,0,0,0,3.379,3.379h13.684a3.388,3.388,0,0,0,3.379-3.379V605.427a6.815,6.815,0,0,0-6.872-6.758Z" transform="translate(-1396.576 -568.598)" fill="#e1e2c3"/>
        <path id="Path_439-27-4" data-name="Path 439-27" d="M1407.452,565.767c4.224,0,14.867-5.068,7.433-14.191-4.9-5.913-3.379-14.191-7.433-14.191-4.223,0-7.433,6.419-7.433,14.191S1403.229,565.767,1407.452,565.767Z" transform="translate(-1398.33 -537.385)" fill="#FFC31A"/>
      </g>
      <g id="Group_223-4" data-name="Group 223" transform="translate(751.71 127.466)">
        <path id="Path_438-28-4" data-name="Path 438-28" d="M1577.091,497.669a6.562,6.562,0,0,1-6.589,0,6.957,6.957,0,0,0-6.926,6.926V599.37a3.389,3.389,0,0,0,3.379,3.379h13.684a3.389,3.389,0,0,0,3.379-3.379V504.427a6.816,6.816,0,0,0-6.872-6.758Z" transform="translate(-1563.576 -467.598)" fill="#e1e2c3"/>
        <path id="Path_439-28-4" data-name="Path 439-28" d="M1574.452,464.767c4.224,0,14.867-5.068,7.433-14.191-4.9-5.913-3.379-14.191-7.433-14.191-4.223,0-7.433,6.419-7.433,14.191S1570.229,464.767,1574.452,464.767Z" transform="translate(-1565.33 -436.385)" fill="#FFC31A"/>
      </g>
      <g id="Group_224-4" data-name="Group 224" transform="translate(829.727 120.322)">
        <path id="Path_438-29-4" data-name="Path 438-29" d="M1737.738,490.577a7.36,7.36,0,0,1-7.391,0,7.8,7.8,0,0,0-7.77,7.77V604.669a3.8,3.8,0,0,0,3.791,3.79h15.351a3.8,3.8,0,0,0,3.791-3.79V498.158a7.646,7.646,0,0,0-7.709-7.582Z" transform="translate(-1722.576 -456.842)" fill="#e1e2c3"/>
        <path id="Path_439-29-4" data-name="Path 439-29" d="M1734.778,453.665c4.738,0,16.678-5.686,8.341-15.92-5.5-6.633-3.793-15.92-8.341-15.92-4.738,0-8.339,7.2-8.339,15.92S1730.04,453.665,1734.778,453.665Z" transform="translate(-1724.543 -421.825)" fill="#FFC31A"/>
      </g>
    </g>
  </g>
</svg>
