<svg xmlns="http://www.w3.org/2000/svg" width="1158" height="476" viewBox="0 0 1158 476">
  <g id="Group_830" data-name="Group 830" transform="translate(-438 -32789)">
    <g id="Group_772" data-name="Group 772" transform="translate(39 26249)">
      <path id="Path_9197" data-name="Path 9197" d="M-438.431-7686.437-283.9-7809.643l155.838,186,247.246-124.877L88.291-7873.58l94.838,63.937H493.06l-63.026,247.635" transform="translate(907 14479)" fill="none" stroke="#707070" stroke-width="1"/>
      <path id="Path_9198" data-name="Path 9198" d="M-284.391-7810.056l405.771,61.609,58.276-61.609,248.535,247.633-557.234-59.927-310.05-65.357,555.111-60.74,373.993-58.51" transform="translate(907 14479)" fill="none" stroke="#707070" stroke-width="1"/>
      <path id="Path_9199" data-name="Path 9199" d="M121.626-7746.073,428.6-7563.3l-712.5-244.154" transform="translate(907 14479)" fill="none" stroke="#707070" stroke-width="1"/>
      <path id="Path_9200" data-name="Path 9200" d="M85-7873.58l-369.518,61.247" transform="translate(907 14479)" fill="none" stroke="#707070" stroke-width="1"/>
    </g>
    <g id="Group_769" data-name="Group 769" transform="translate(25 26854)">
      <circle id="Ellipse_12065" data-name="Ellipse 12065" cx="5.5" cy="5.5" r="5.5" transform="translate(1002 5997)" fill="#fd906c"/>
      <circle id="Ellipse_11971" data-name="Ellipse 11971" cx="5.5" cy="5.5" r="5.5" transform="translate(630 6059)" fill="#fd906c"/>
      <circle id="Ellipse_11986" data-name="Ellipse 11986" cx="5.5" cy="5.5" r="5.5" transform="translate(1095 6059)" fill="#fd906c"/>
      <circle id="Ellipse_11996" data-name="Ellipse 11996" cx="5.5" cy="5.5" r="5.5" transform="translate(1405 6059)" fill="#fd906c"/>
      <circle id="Ellipse_11886" data-name="Ellipse 11886" cx="5.5" cy="5.5" r="5.5" transform="translate(1033 6121)" fill="#fd906c"/>
      <circle id="Ellipse_12132" data-name="Ellipse 12132" cx="5.5" cy="5.5" r="5.5" transform="translate(475 6183)" fill="#fd906c"/>
      <circle id="Ellipse_11911" data-name="Ellipse 11911" cx="5.5" cy="5.5" r="5.5" transform="translate(785 6245)" fill="#fd906c"/>
      <circle id="Ellipse_11822" data-name="Ellipse 11822" cx="5.5" cy="5.5" r="5.5" transform="translate(1343 6307)" fill="#fd906c"/>
    </g>
    <g id="Rectangle_225" data-name="Rectangle 225" transform="translate(438 32789)" fill="none" stroke="rgba(112,112,112,0)" stroke-width="1">
      <rect width="1158" height="476" stroke="none"/>
      <rect x="0.5" y="0.5" width="1157" height="475" fill="none"/>
    </g>
  </g>
</svg>
