<svg xmlns="http://www.w3.org/2000/svg" width="190.967" height="220.126" viewBox="0 0 190.967 220.126">
  <g id="Group_571" data-name="Group 571" transform="translate(0.609 0.608)">
    <g id="Group_426" data-name="Group 426" transform="translate(0 0)">
      <g id="Group_418" data-name="Group 418">
        <rect id="Rectangle_98" data-name="Rectangle 98" width="131.518" height="148.19" transform="translate(3.981 46.507) rotate(-18.608)" fill="#fff" stroke="#000" stroke-width="1"/>
        <path id="Path_1578" data-name="Path 1578" d="M761.153,849.783,635.891,891.957a3.677,3.677,0,0,0-2.341,4.717l57.024,169.369a3.672,3.672,0,0,0,4.714,2.339l125.262-42.171a3.677,3.677,0,0,0,2.341-4.717L765.869,852.124A3.677,3.677,0,0,0,761.153,849.783Zm42.062,137.332a3.674,3.674,0,0,1-2.341,4.714L690.167,1029.1a3.674,3.674,0,0,1-4.717-2.338L643.277,901.5a3.676,3.676,0,0,1,2.341-4.717l110.485-37.2a3.676,3.676,0,0,1,4.717,2.341l42.174,125.26Z" transform="translate(-633.346 -849.579)" fill="#fff" stroke="#000" stroke-width="1"/>
      </g>
    </g>
    <g id="Group_520" data-name="Group 520" transform="translate(41.236 68.77) rotate(-17)">
      <g id="Group_438" data-name="Group 438" transform="translate(0 23.332) rotate(-22)">
        <path id="Path_1796" data-name="Path 1796" d="M30.526,0A30.526,30.526,0,1,1,0,30.526,30.526,30.526,0,0,1,30.526,0Z" transform="translate(0.446 0.793)" fill="#7c7c7c"/>
        <g id="Group_437" data-name="Group 437" transform="translate(0 0)">
          <g id="Group_436" data-name="Group 436" transform="translate(0 0)">
            <path id="Path_1582" data-name="Path 1582" d="M62.283,31.142A31.142,31.142,0,1,1,31.142,0,31.142,31.142,0,0,1,62.283,31.142ZM22.665,60.534l.745-.053c.332-.019.64-.009.65-.009a.61.61,0,0,0,.651-.606.628.628,0,0,0-.606-.651s-.369-.013-.778.011l-.752.054a.629.629,0,0,0,.044,1.257Zm-3.154-2.153.869-.12c.409-.058.789-.094.794-.095a.629.629,0,1,0-.118-1.253s-.411.039-.852.1l-.867.12a.629.629,0,0,0,.086,1.252A.5.5,0,0,0,19.511,58.381Zm-2.325-.471a.374.374,0,0,0-.006-.071,6.869,6.869,0,0,1-.06-.719c-.017-.394-.008-.748-.008-.753.006-.292-.225-.439-.516-.439h-.012c-.287,0-.522.128-.528.416,0,0-.01.34.008.763.022.794.036,1.319.595,1.319A.517.517,0,0,0,17.186,57.91Zm-.332-2.189,1.737-.259a.565.565,0,0,0-.167-1.117l-1.736.259a.565.565,0,0,0,.082,1.124A.638.638,0,0,0,16.854,55.721Zm-2.1.151c0-.006.057-.479.143-.95s.222-.969.224-.976a.578.578,0,0,0-.462-.7.633.633,0,0,0-.761.424s-.14.526-.241,1.053-.154,1.023-.154,1.023a.592.592,0,0,0,.558.637.618.618,0,0,0,.068,0A.612.612,0,0,0,14.75,55.871Zm-.759-2.814,2.181-.252a.629.629,0,1,0-.144-1.25l-2.181.252a.629.629,0,0,0,.071,1.255A.572.572,0,0,0,13.992,53.057Zm-2.208-2.849,1.232-.17a4.962,4.962,0,0,0,1.2-.2.622.622,0,1,0-.089-1.241s-.566.058-1.141.072l-1.229.06a.7.7,0,0,0-.617.715c.007.344.288.765.629.765Zm-3.246-.678c0-.005.31-.52.644-1s.7-.953.7-.957a.575.575,0,0,0-.1-.812.587.587,0,0,0-.819.1c-.016.02-.393.5-.744,1.018s-.671,1.046-.684,1.068a.58.58,0,0,0,.5.872A.587.587,0,0,0,8.537,49.531Zm3.274,4.148c0-.006.09-.594.215-1.162s.281-1.133.283-1.138a.588.588,0,0,0-.388-.72.556.556,0,0,0-.7.384c-.008.024-.172.606-.3,1.209s-.225,1.211-.228,1.236a.585.585,0,0,0,.474.664.546.546,0,0,0,.3-.029A.562.562,0,0,0,11.811,53.678Zm1.588-7.4c.016-.347-.252-.794-.6-.81-.005,0-.614-.023-1.247-.08-.615-.061-1.263-.146-1.268-.147a.647.647,0,0,0-.714.551.668.668,0,0,0,.531.752,10.013,10.013,0,0,0,1.331.243,7.87,7.87,0,0,1,1.308.245h.029C13.106,47.03,13.385,46.614,13.4,46.276Zm-6.62-.758.3-.311c.176-.18.409-.412.674-.648.509-.461,1.053-.885,1.059-.888a.629.629,0,0,0-.772-.993c-.024.018-.585.456-1.126.944-.285.253-.541.508-.738.709l-.3.317a.629.629,0,0,0,.907.872Zm5.825-2.47a.629.629,0,0,0-.484-.746s-.625-.133-1.278-.314c-.325-.089-.657-.187-.89-.261l-.412-.141a.629.629,0,0,0-.4,1.192l.424.144c.261.083.61.187.951.28.688.19,1.349.331,1.349.331a.588.588,0,0,0,.132.014A.628.628,0,0,0,12.6,43.048ZM5.85,41.106c.006,0,.627-.393,1.253-.722.317-.167.623-.323.869-.433l.435-.189a.629.629,0,1,0-.5-1.154l-.437.191c-.272.12-.606.29-.949.471-.67.351-1.31.753-1.337.77A.629.629,0,0,0,5.515,41.2.621.621,0,0,0,5.85,41.106Zm6.622-1.084a.629.629,0,0,0-.321-.83l-.393-.174c-.229-.108-.536-.258-.847-.421-.608-.315-1.235-.693-1.242-.7a.629.629,0,1,0-.65,1.077c.027.016.667.4,1.31.735.326.171.65.33.906.45l.407.18a.622.622,0,0,0,.254.054A.629.629,0,0,0,12.472,40.022ZM5.994,36.557l.454-.142c.264-.08.639-.172,1-.257.732-.172,1.471-.294,1.479-.295a.629.629,0,1,0-.2-1.241c-.032.005-.789.129-1.563.311-.393.092-.8.193-1.086.28l-.459.143a.629.629,0,0,0,.187,1.23A.6.6,0,0,0,5.994,36.557Zm7.025.508a.629.629,0,0,0-.142-.878c-.006,0-.58-.419-1.147-.885-.285-.233-.571-.477-.772-.655l-.346-.32a.629.629,0,1,0-.856.922l.356.33c.221.2.522.454.82.7.594.489,1.183.914,1.207.932a.625.625,0,0,0,.368.119A.631.631,0,0,0,13.019,37.066ZM7.165,32.209c.008,0,.8-.054,1.569-.062s1.534.017,1.541.018a.629.629,0,1,0,.052-1.257c-.032,0-.81-.035-1.611-.02s-1.6.063-1.637.065a.629.629,0,0,0,.043,1.257ZM14.177,34.2a.628.628,0,0,0,.029-.889s-.511-.545-1.006-1.134C12.717,31.61,12.268,31,12.263,31a.63.63,0,0,0-.934-.09c-.484.447-.188.794.91,2.084.511.607,1.027,1.158,1.049,1.181a.629.629,0,0,0,.889.028ZM13.11,28.35a.628.628,0,0,0-.442-.772l-.5-.135c-.3-.076-.7-.17-1.113-.251s-.829-.153-1.154-.2l-.512-.07a.629.629,0,0,0-.17,1.247l.5.069c.3.044.695.111,1.085.19s.769.166,1.041.235l.487.132a.624.624,0,0,0,.166.022A.63.63,0,0,0,13.11,28.35Zm2.669,3.325a.629.629,0,0,0,.187-.87c0-.006-.412-.64-.752-1.295s-.658-1.372-.661-1.378a.629.629,0,0,0-1.156.5c.013.031.334.775.7,1.468s.791,1.363.808,1.391a.628.628,0,0,0,.529.288A.622.622,0,0,0,15.779,31.676Zm.289-5.828a.63.63,0,0,0-.193-.869c-.029-.018-.711-.451-1.466-.84-.46-.242-.873-.426-1.083-.517l-.481-.2a.629.629,0,1,0-.489,1.159l.477.2c.32.138.681.31.994.475.707.365,1.366.782,1.372.786a.63.63,0,0,0,.869-.193Zm1.669,3.962a.629.629,0,0,0,.409-.79c0-.007-.227-.718-.38-1.455-.152-.72-.243-1.5-.243-1.506a.629.629,0,0,0-1.25.144c0,.034.1.842.262,1.62.166.8.4,1.547.412,1.578a.628.628,0,0,0,.79.409ZM19.623,24.3a.629.629,0,0,0,.058-.888c-.022-.025-.555-.632-1.161-1.222s-1.266-1.131-1.293-1.154a.629.629,0,0,0-.788.981c.006.005.637.513,1.2,1.07s1.091,1.148,1.1,1.154a.63.63,0,0,0,.888.058Zm.477,4.3a.639.639,0,0,0,.625-.647c0-.008,0-.777.056-1.535.062-.742.186-1.516.187-1.524a.628.628,0,0,0-.595-.728c-.668-.032-.7.437-.847,2.158-.065.816-.06,1.605-.06,1.638a.641.641,0,0,0,.629.638Zm3.354-4.922a.629.629,0,0,0,.252-.854c-.016-.029-.4-.728-.835-1.438s-.919-1.375-.939-1.4a.629.629,0,0,0-1.023.733c0,.007.479.669.892,1.333s.8,1.37.8,1.377a.63.63,0,0,0,.554.329A.638.638,0,0,0,23.455,23.677Zm.244,3.778c0-.008.193-.747.43-1.478s.517-1.443.52-1.45a.629.629,0,0,0-1.169-.465c-.012.031-.3.765-.548,1.529s-.442,1.518-.451,1.55a.629.629,0,0,0,.452.766.642.642,0,0,0,.158.02A.631.631,0,0,0,23.7,27.455Zm3.531-3.668a.629.629,0,0,0,.523-.62,12.48,12.48,0,0,0-.622-1.726c-.307-.752-.651-1.51-.651-1.51a.629.629,0,1,0-1.146.521s.335.737.634,1.469c.3.717.559,1.448.561,1.455a.63.63,0,0,0,.594.42A.678.678,0,0,0,27.23,23.787Zm-.25,3.668c.044-.093.347-.73.679-1.362s.678-1.24.734-1.337a.654.654,0,0,0,.007-.642l-.545.315h0l-.551-.3c-.058.1-.423.735-.759,1.381-.768,1.462-.768,1.558-.768,1.689a.63.63,0,0,0,1.2.255Zm4.213-3.136a.63.63,0,0,0,.441-.773l-.411-1.5c-.215-.768-.46-1.534-.46-1.534a.629.629,0,0,0-1.2.383s.238.745.445,1.486l.41,1.5a.63.63,0,0,0,.607.463A.624.624,0,0,0,31.193,24.319Zm-.765,3.551s.411-.641.839-1.263c.386-.559.787-1.107.863-1.212a.665.665,0,0,0,.066-.674l-.562.286-.519-.354c-.078.107-.488.667-.883,1.239-.442.641-.863,1.3-.863,1.3a.629.629,0,0,0,1.059.678Zm4.547-2.662a.629.629,0,0,0,.487-.745L34.822,21.5a.63.63,0,0,0-1.229.273l.638,2.952a.629.629,0,0,0,.615.5A.692.692,0,0,0,34.975,25.209Zm-1,3.34s.46-.583.925-1.141l.958-1.128a.629.629,0,0,0-.96-.814L33.941,26.6c-.48.576-.95,1.172-.95,1.172a.629.629,0,1,0,.988.779Zm4.728-2.239a.629.629,0,0,0,.506-.732l-.519-2.849a.629.629,0,1,0-1.237.226l.519,2.849a.629.629,0,0,0,.618.516A.576.576,0,0,0,38.707,26.31Zm-1.122,3.11,1.959-2.048a.629.629,0,0,0-.9-.879l-1.975,2.066a.629.629,0,0,0,.917.861ZM42.4,27.542a.63.63,0,0,0,.509-.73l-.481-2.7a.629.629,0,0,0-1.239.221l.481,2.7a.63.63,0,0,0,.619.519A.55.55,0,0,0,42.4,27.542Zm3.729,1a.586.586,0,0,0,.474-.68l-.448-2.511A.586.586,0,1,0,45,25.558l.448,2.511a.587.587,0,0,0,.576.483A.52.52,0,0,0,46.129,28.543Zm-4.882,1.848,1.962-1.826a.629.629,0,1,0-.849-.928l-1.978,1.841a.629.629,0,1,0,.865.913Zm3.813,1.271,1.962-1.826a.629.629,0,0,0-.849-.928L44.2,30.749a.629.629,0,1,0,.865.913ZM49.8,30.085a.629.629,0,0,0,.414-.787s-.165-.529-.312-1.077l-.3-1.145a.629.629,0,1,0-1.218.316l.3,1.152c.156.578.327,1.128.327,1.128a.629.629,0,0,0,.6.442A.637.637,0,0,0,49.8,30.085ZM48.765,33l1.811-1.408a.629.629,0,0,0-.765-1l-1.825,1.419a.63.63,0,0,0,.39,1.124A.621.621,0,0,0,48.765,33Zm3.937.152,1.664-1.25A.629.629,0,1,0,53.61,30.9l-1.664,1.249a.63.63,0,1,0,.756,1.007Zm4.991-2.533,0-.264-.184-.184a6.141,6.141,0,0,1-.528-.609,7.455,7.455,0,0,1-.471-.689.636.636,0,0,0-.709-.283.631.631,0,0,0-.366.936,9.109,9.109,0,0,0,.548.8,7.183,7.183,0,0,0,.637.733.63.63,0,0,0,1.077-.442Zm-3.813-.636,0-.264-.184-.184a6.139,6.139,0,0,1-.528-.609,7.454,7.454,0,0,1-.471-.689.636.636,0,0,0-.709-.283.631.631,0,0,0-.366.936,9.116,9.116,0,0,0,.548.8,7.185,7.185,0,0,0,.637.733.63.63,0,0,0,1.077-.442Zm3.035,3.459.744-.636c.185-.156.365-.327.494-.449l.2-.191a.629.629,0,0,0-.868-.911l-.2.189c-.115.109-.276.262-.446.407l-.728.622a.629.629,0,1,0,.8.969Zm4.6-1.134.127-.339c.051-.186.109-.423.164-.672.028-.168.043-.334.055-.473l.011-.12a1.773,1.773,0,0,0,.009-.387.621.621,0,0,0-.68-.554.634.634,0,0,0-.572.676.607.607,0,0,1-.006.118l-.015.159c-.01.109-.02.24-.036.34-.041.186-.091.387-.135.551l-.1.249a.629.629,0,1,0,1.173.451Zm-3.061-2.89a5.447,5.447,0,0,0,.676.46,5.893,5.893,0,0,0,.7.287.629.629,0,0,0,.386-1.2,4.559,4.559,0,0,1-.5-.2,4.206,4.206,0,0,1-.475-.326.629.629,0,1,0-.793.976Z" fill="#e2e2e2"/>
          </g>
        </g>
      </g>
    </g>
  </g>
</svg>
