<svg xmlns="http://www.w3.org/2000/svg" xmlns:xlink="http://www.w3.org/1999/xlink" width="414" height="4131" viewBox="0 0 414 4131">
  <defs>
    <clipPath id="clip-Section_3">
      <rect width="414" height="4131"/>
    </clipPath>
  </defs>
  <g id="Section_3" data-name="Section 3" clip-path="url(#clip-Section_3)">
    <rect width="414" height="4131" fill="#fff"/>
    <g id="Group_91" data-name="Group 91">
      <rect id="Rectangle_45" data-name="Rectangle 45" width="346" height="494" rx="16" transform="translate(34 1886)" fill="#f5f5f5"/>
      <g id="Group_90" data-name="Group 90" transform="translate(-2 1719)">
        <rect id="Rectangle_46" data-name="Rectangle 46" width="346" height="41" transform="translate(36 167)" fill="#cecece"/>
        <text id="Component_4" data-name="Component 4" transform="translate(36 174)" fill="rgba(255,255,255,0.99)" font-size="20" font-family="HKGrotesk-Bold, HK Grotesk" font-weight="700"><tspan x="112.35" y="20">Component 4</tspan></text>
      </g>
    </g>
    <g id="Group_93" data-name="Group 93" transform="translate(0 573)">
      <rect id="Rectangle_45-2" data-name="Rectangle 45" width="346" height="494" rx="16" transform="translate(34 1886)" fill="#f5f5f5"/>
      <g id="Group_90-2" data-name="Group 90" transform="translate(-2 1719)">
        <rect id="Rectangle_46-2" data-name="Rectangle 46" width="346" height="41" transform="translate(36 167)" fill="#cecece"/>
        <text id="Component_5" data-name="Component 5" transform="translate(36 174)" fill="rgba(255,255,255,0.99)" font-size="20" font-family="HKGrotesk-Bold, HK Grotesk" font-weight="700"><tspan x="112.35" y="20">Component 5</tspan></text>
      </g>
    </g>
    <g id="Group_94" data-name="Group 94" transform="translate(0 1146)">
      <rect id="Rectangle_45-3" data-name="Rectangle 45" width="346" height="494" rx="16" transform="translate(34 1886)" fill="#f5f5f5"/>
      <g id="Group_90-3" data-name="Group 90" transform="translate(-2 1719)">
        <rect id="Rectangle_46-3" data-name="Rectangle 46" width="346" height="41" transform="translate(36 167)" fill="#cecece"/>
        <text id="Component_6" data-name="Component 6" transform="translate(36 174)" fill="rgba(255,255,255,0.99)" font-size="20" font-family="HKGrotesk-Bold, HK Grotesk" font-weight="700"><tspan x="112.35" y="20">Component 6</tspan></text>
      </g>
    </g>
    <g id="Group_126" data-name="Group 126" transform="translate(0 1715)">
      <rect id="Rectangle_45-4" data-name="Rectangle 45" width="346" height="494" rx="16" transform="translate(34 1886)" fill="#f5f5f5"/>
      <g id="Group_90-4" data-name="Group 90" transform="translate(-2 1719)">
        <rect id="Rectangle_46-4" data-name="Rectangle 46" width="346" height="41" transform="translate(36 167)" fill="#cecece"/>
        <text id="Component_6-2" data-name="Component 6" transform="translate(36 174)" fill="rgba(255,255,255,0.99)" font-size="20" font-family="HKGrotesk-Bold, HK Grotesk" font-weight="700"><tspan x="112.35" y="20">Component 6</tspan></text>
      </g>
    </g>
    <g id="Group_92" data-name="Group 92">
      <rect id="Rectangle_44" data-name="Rectangle 44" width="346" height="494" rx="16" transform="translate(34 1313)" fill="#f5f5f5"/>
      <g id="Group_89" data-name="Group 89" transform="translate(-2 1146)">
        <rect id="Rectangle_46-5" data-name="Rectangle 46" width="346" height="41" transform="translate(36 167)" fill="#cecece"/>
        <text id="Component_3" data-name="Component 3" transform="translate(36 174)" fill="rgba(255,255,255,0.99)" font-size="20" font-family="HKGrotesk-Bold, HK Grotesk" font-weight="700"><tspan x="112.35" y="20">Component 3</tspan></text>
      </g>
    </g>
    <g id="Group_86" data-name="Group 86">
      <rect id="Rectangle_42" data-name="Rectangle 42" width="346" height="494" rx="16" transform="translate(36 167)" fill="#f5f5f5"/>
      <g id="Group_85" data-name="Group 85">
        <rect id="Rectangle_46-6" data-name="Rectangle 46" width="346" height="41" transform="translate(36 167)" fill="#cecece"/>
        <text id="Component_1" data-name="Component 1" transform="translate(36 174)" fill="rgba(255,255,255,0.99)" font-size="20" font-family="HKGrotesk-Bold, HK Grotesk" font-weight="700"><tspan x="112.35" y="20">Component 1</tspan></text>
      </g>
    </g>
    <rect id="Rectangle_43" data-name="Rectangle 43" width="346" height="494" rx="16" transform="translate(36 740)" fill="#f5f5f5"/>
    <text id="Two_California_Cities_Sacramento_and_Stockton_have_recently_adopted_a_hybrid_strategy_based_of_of_the_Richmond_model" data-name="Two California Cities, Sacramento and Stockton, have recently adopted a hybrid strategy based of of the Richmond model" transform="translate(83 248)" fill="#464242" font-size="20" font-family="HKGrotesk-SemiBold, HK Grotesk" font-weight="600"><tspan x="0" y="20">Two California Cities, </tspan><tspan x="0" y="45">Sacramento and Stockton, </tspan><tspan x="0" y="70">have recently adopted a </tspan><tspan x="0" y="95">hybrid strategy based of of </tspan><tspan x="0" y="120">the Richmond model</tspan></text>
    <text id="Sacramento_Stockton_CA" data-name="Sacramento &amp; Stockton, CA" transform="translate(36 86)" fill="#464242" font-size="25" font-family="HKGrotesk-Bold, HK Grotesk" font-weight="700"><tspan x="16.813" y="25">Sacramento &amp; Stockton, CA</tspan></text>
    <text id="Since_the_programs_launched_on_x_and_y_dates_respectively_the_cities_have_seen_x_change_in_homicides_from_the_previous_year" data-name="Since the programs launched on x and y dates respectively, the cities have seen x change in homicides from the previous year" transform="translate(80 823)" fill="#464242" font-size="20" font-family="HKGrotesk-SemiBold, HK Grotesk" font-weight="600"><tspan x="0" y="20">Since the programs launched </tspan><tspan x="0" y="45">on x and y dates respectively, </tspan><tspan x="0" y="70">the cities have seen x change </tspan><tspan x="0" y="95">in homicides from the </tspan><tspan x="0" y="120">previous year</tspan></text>
    <text id="What_has_changed_at_the_neighborhood_level_" data-name="What has changed at the neighborhood level? " transform="translate(80 1397)" fill="#464242" font-size="20" font-family="HKGrotesk-SemiBold, HK Grotesk" font-weight="600"><tspan x="0" y="20">What has changed at the </tspan><tspan x="0" y="45">neighborhood level? </tspan></text>
    <text id="Let_s_look_at_all_of_the_neighborhoods_in_Sac_and_Stockton." data-name="Let’s look at all of the neighborhoods in Sac and Stockton." transform="translate(86 1972)" fill="#464242" font-size="20" font-family="HKGrotesk-SemiBold, HK Grotesk" font-weight="600"><tspan x="0" y="20">Let’s look at all of the </tspan><tspan x="0" y="45">neighborhoods in Sac and </tspan><tspan x="0" y="70">Stockton.</tspan></text>
    <text id="Let_s_take_a_look_at_the_neighborhood_that_John_grew_up_in._Since_AP_started_homicides_here_have_changed_x_amount._Gun_assaults_x_amount." data-name="Let’s take a look at the neighborhood that John grew up in. Since AP started, homicides here have changed x amount. Gun assaults x amount." transform="translate(80 1482)" fill="#464242" font-size="15" font-family="HKGrotesk-Regular, HK Grotesk"><tspan x="0" y="15">Let’s take a look at the neighborhood </tspan><tspan x="0" y="34">that John grew up in. Since AP started, </tspan><tspan x="0" y="53">homicides here have changed x </tspan><tspan x="0" y="72">amount. Gun assaults x amount.</tspan></text>
    <g id="Group_87" data-name="Group 87" transform="translate(0 573)">
      <rect id="Rectangle_46-7" data-name="Rectangle 46" width="346" height="41" transform="translate(36 167)" fill="#cecece"/>
      <text id="Component_2" data-name="Component 2" transform="translate(36 174)" fill="rgba(255,255,255,0.99)" font-size="20" font-family="HKGrotesk-Bold, HK Grotesk" font-weight="700"><tspan x="112.35" y="20">Component 2</tspan></text>
    </g>
    <g id="Group_95" data-name="Group 95">
      <text id="City_" data-name="City " transform="translate(252 618)" fill="#464242" font-size="15" font-family="HKGrotesk-Bold, HK Grotesk" font-weight="700"><tspan x="0" y="15">CITY </tspan></text>
      <text id="Point_Choro_MAPs" data-name="Point | Choro MAPs" transform="translate(74 618)" fill="#464242" font-size="15" font-family="HKGrotesk-Bold, HK Grotesk" font-weight="700"><tspan x="0" y="15">POINT | CHORO MAPS</tspan></text>
      <text id="Viz_Type" data-name="Viz Type" transform="translate(74 596)" fill="#464242" font-size="15" font-family="HKGrotesk-Regular, HK Grotesk"><tspan x="0" y="15">Viz Type</tspan></text>
      <text id="Viz_scale" data-name="Viz scale" transform="translate(252 596)" fill="#464242" font-size="15" font-family="HKGrotesk-Regular, HK Grotesk"><tspan x="0" y="15">Viz scale</tspan></text>
    </g>
    <g id="Group_96" data-name="Group 96" transform="translate(12 562)">
      <text id="Line_graphs" data-name="Line graphs" transform="translate(74 618)" fill="#464242" font-size="15" font-family="HKGrotesk-Bold, HK Grotesk" font-weight="700"><tspan x="0" y="15">LINE GRAPHS</tspan></text>
      <text id="Viz_Type-2" data-name="Viz Type" transform="translate(74 596)" fill="#464242" font-size="15" font-family="HKGrotesk-Regular, HK Grotesk"><tspan x="0" y="15">Viz Type</tspan></text>
    </g>
    <g id="Group_97" data-name="Group 97" transform="translate(1 1142)">
      <text id="Map_Illustration" data-name="Map | Illustration" transform="translate(74 618)" fill="#464242" font-size="15" font-family="HKGrotesk-Bold, HK Grotesk" font-weight="700"><tspan x="0" y="15">MAP | ILLUSTRATION</tspan></text>
      <text id="Viz_Type-3" data-name="Viz Type" transform="translate(74 596)" fill="#464242" font-size="15" font-family="HKGrotesk-Regular, HK Grotesk"><tspan x="0" y="15">Viz Type</tspan></text>
    </g>
    <path id="Path_1" data-name="Path 1" d="M0,222Z" fill="#fff" stroke="#707070" stroke-width="1"/>
    <text id="Gun_homicides_in_the_two_cities_" data-name="Gun homicides in the two cities " transform="translate(252 434)" fill="#464242" font-size="15" font-family="HKGrotesk-Regular, HK Grotesk"><tspan x="0" y="15">Gun </tspan><tspan x="0" y="34">homicides in </tspan><tspan x="0" y="53">the two cities </tspan></text>
    <g id="Group_108" data-name="Group 108" transform="translate(7282 9671)">
      <text id="Add" transform="translate(-7023 -8984)" font-size="15" font-family="HKGrotesk-BoldItalic, HK Grotesk" font-weight="700" font-style="italic"><tspan x="0" y="15">Add</tspan></text>
    </g>
    <g id="Group_119" data-name="Group 119" transform="translate(7275 10247)">
      <text id="Remove" transform="translate(-7023 -8984)" font-size="15" font-family="HKGrotesk-BoldItalic, HK Grotesk" font-weight="700" font-style="italic"><tspan x="0" y="15">Remove</tspan></text>
    </g>
    <text id="Incarceration_rates_-_comparison_of_us_an_other_countries_" data-name="Incarceration rates - comparison of us an other countries " transform="translate(86 1100)" fill="#464242" font-size="15" font-family="HKGrotesk-Regular, HK Grotesk"><tspan x="0" y="15">Incarceration rates - comparison </tspan><tspan x="0" y="34">of us an other countries </tspan></text>
    <g id="Group_112" data-name="Group 112" transform="translate(7278 11394)">
      <text id="Switch" transform="translate(-7010 -8984)" font-size="15" font-family="HKGrotesk-BoldItalic, HK Grotesk" font-weight="700" font-style="italic"><tspan x="0" y="15">Switch</tspan></text>
      <path id="Icon_awesome-exchange-alt" data-name="Icon awesome-exchange-alt" d="M0,15.294V13.672a2.433,2.433,0,0,1,2.433-2.433h36.5V6.372A2.435,2.435,0,0,1,43.09,4.651L51.2,12.763a2.434,2.434,0,0,1,0,3.441L43.09,24.316a2.435,2.435,0,0,1-4.154-1.721V17.728H2.433A2.433,2.433,0,0,1,0,15.294ZM49.481,30.706h-36.5V25.839a2.435,2.435,0,0,0-4.154-1.721L.713,32.23a2.434,2.434,0,0,0,0,3.441l8.112,8.112a2.435,2.435,0,0,0,4.154-1.721V37.2h36.5a2.433,2.433,0,0,0,2.433-2.433V33.14A2.433,2.433,0,0,0,49.481,30.706Z" transform="translate(-7091.757 -8997.217)" fill="#e6e6e6"/>
    </g>
    <text id="Data_source:_TBC_City_police_GVA_UCR_" data-name="Data source: TBC
City police, GVA, UCR
" transform="translate(252 507)" fill="#464242" font-size="10" font-family="HKGrotesk-LightLegacyItalic, HK Grotesk" font-weight="300" font-style="italic"><tspan x="0" y="9">Data source: TBC</tspan><tspan x="0" y="21">City police, GVA, UCR</tspan></text>
    <text id="Data_source:_City_police_departments_GVI_UCR_" data-name="Data source: City police departments, GVI, UCR

" transform="translate(91 1068)" fill="#464242" font-size="10" font-family="HKGrotesk-LightLegacyItalic, HK Grotesk" font-weight="300" font-style="italic"><tspan x="0" y="9">Data source: City police departments, GVI, UCR</tspan></text>
    <path id="Icon_ionic-md-person" data-name="Icon ionic-md-person" d="M32,32A13.75,13.75,0,1,0,18.25,18.25,13.79,13.79,0,0,0,32,32Zm0,6.875c-9.109,0-27.5,4.641-27.5,13.75V59.5h55V52.625C59.5,43.516,41.109,38.875,32,38.875Z" transform="translate(276.5 1711.5)" fill="#d1d1d1"/>
    <g id="Group_42" data-name="Group 42" transform="translate(162.41 433.626)" opacity="0.5">
      <path id="Path_30" data-name="Path 30" d="M962.038,769.273l-1.383-.613-.709-3.891,1.39-1.744,1.827-2.849-.437-5.812-.252-2.086-.266-1.635-2.263-3.9-3.469-2.515-3.462-4.511H949.91l-4.075.695-5.806-.695-2.16-1.3-.607.436-.177,2-2.692.689-1.99-1.391-2.337.511-2.515,3.3-6.753-.776-4.082,1.124-1.642,3.373-3.3-.511-1.833,3.809-.17,3.55v1.656l2.515,3.38.518,1.894-.681,1.4-1.833.171-.518,5.295-3.557,1.99-1.642,2.685,4.1,2.174-.368.361.783,3.121.948.368,2.433-1.99h3.986l1.908,2.678h1.561l.947.7-.081,1.295V783l2.426.954,2.167,3.373-1.65,5.206v1.39l1.561,1.554.089,1.213.341.361,3.04.266V798.7l2.337,3.911,4.764-.613,4.156,3.639,8.675-2.344,2.508-1.125.348-3.032,1.833-2.93,1.383-4.851,3.557-4.689-.266-2.678.518-.266,1.649,1.132.954-.259.688-1.745.348-2.766.266-2.167-1.3-4.068,1.553-1.65Z" transform="translate(-904.573 -738.411)" fill="#919191" stroke="#fff" stroke-width="1"/>
    </g>
    <g id="Group_44" data-name="Group 44" transform="translate(114.749 423.672)">
      <path id="Path_32" data-name="Path 32" d="M964.941,761.061l-3.212-3.654-4.525-2.77.149-4.967-4.668-5.242-2.191-3.5-1.313-.866-.872.579-.223.654-5.036,1.313h-.579l-1.1-4.313-5.036-2.626-1.382-1.606-1.388.218-1.026,2.151-1.675,1.165-7.8-.144-2.122,1.1-1.383,2.116-5.615.585-3.929-.895,7.3,7.955-.31.286-1.675,1.388,1.233,1.313,2.547,5.036-1.164,1.09.441,3.94-1.543,4.955-1.382.224-4.869-.212.068-1.314-2.994-.429-2.4,1.743.729,2.632-1.313.579-1.089,1.75v1.743h.653l2.26,2.633.149,6.859-.947,1.3-.585-.516-.579.516.138,1.388-.8.946-1.1,1.675.361,3.5,1.973-1.015,7.88,5.466,3.281,5.237.51,2.047h1.9l4.525,1.543.8,2.254,1.536,2.334,5.621,2.042,2.4-.878,1.9-2.254,1.606-1.233,2.77-.144,1.973-2.191.654-5.545,2.7-2.047,2.92-3.5,3.5-5.322,1.382-2.26,2.994-1.68.436-4.456,1.543-.143.579-1.17-.43-1.594-2.122-2.851v-1.383l.149-2.993,1.537-3.207,2.776.431,1.388-2.845,3.429-.946Zm-61.275,22.981.5-1.686-1.382-1.967-4.525-4.313v1.606l4.886,6.928Zm-1.749-11.889-.293-.31-1.457-.653-2.328-1.376-1.686.522-.149-.511.309-.51-.441-.367-.648-.155-.579,1.382,1.542,1.233,1.233-.144,3.5,1.543Z" transform="translate(-926.645 -734.06)" fill="#919191" stroke="#fff" stroke-width="1"/>
    </g>
    <g id="Group_107" data-name="Group 107" transform="translate(88.385 981.001)">
      <g id="line" transform="translate(12.534 10.797)">
        <path id="Path_10" data-name="Path 10" d="M524.944,743.081l10.1-20.1,9.42,16.364,9.413-16.818,6.945,9.069,12.289-28.132,9.817,18.372" transform="translate(-524.944 -703.467)" fill="none" stroke="#bcbcbc" stroke-linecap="round" stroke-linejoin="round" stroke-width="2"/>
      </g>
      <path id="Path_22" data-name="Path 22" d="M425.791,673.363V737.5h75.074" transform="translate(-425.791 -673.363)" fill="none" stroke="#747474" stroke-linecap="round" stroke-width="3"/>
      <line id="Line_24" data-name="Line 24" y1="40.045" x2="56.865" transform="translate(12.907 14.816)" fill="none" stroke="#707070" stroke-linecap="round" stroke-width="2"/>
    </g>
    <g id="Group_117" data-name="Group 117" transform="translate(190.901 981.001)">
      <g id="line-2" data-name="line" transform="translate(12.534 10.797)">
        <path id="Path_10-2" data-name="Path 10" d="M524.944,743.081l10.1-20.1,9.42,16.364,9.413-16.818,6.945,9.069,12.289-28.132,9.817,18.372" transform="translate(-524.944 -703.467)" fill="none" stroke="#bcbcbc" stroke-linecap="round" stroke-linejoin="round" stroke-width="2"/>
      </g>
      <path id="Path_22-2" data-name="Path 22" d="M425.791,673.363V737.5h75.074" transform="translate(-425.791 -673.363)" fill="none" stroke="#747474" stroke-linecap="round" stroke-width="3"/>
      <line id="Line_24-2" data-name="Line 24" y1="40.045" x2="56.865" transform="translate(12.907 14.816)" fill="none" stroke="#707070" stroke-linecap="round" stroke-width="2"/>
    </g>
    <g id="Group_44-2" data-name="Group 44" transform="translate(186.749 1583.672)">
      <path id="Path_32-2" data-name="Path 32" d="M999.553,774.356l-4.794-5.452-6.753-4.133.223-7.412-6.967-7.823-3.27-5.23-1.96-1.292-1.3.864-.333.976-7.515,1.96h-.865l-1.635-6.437-7.515-3.919-2.062-2.4-2.071.325-1.532,3.21-2.5,1.738-11.64-.215-3.166,1.635-2.063,3.158-8.379.873-5.863-1.336,10.888,11.872-.463.427-2.5,2.072,1.84,1.96,3.8,7.515-1.737,1.626.659,5.88-2.3,7.4-2.063.333-7.266-.317.1-1.961-4.468-.641-3.586,2.6,1.087,3.928-1.96.865L908,789.617v2.6h.975l3.372,3.929.223,10.236-1.413,1.943-.873-.77-.864.77.206,2.072-1.189,1.411-1.635,2.5.539,5.23,2.944-1.515,11.76,8.157,4.9,7.815.762,3.055h2.833l6.753,2.3,1.2,3.364,2.293,3.483,8.388,3.048,3.586-1.31,2.833-3.364,2.4-1.84,4.134-.215,2.945-3.27.975-8.275,4.022-3.056,4.357-5.221,5.221-7.943,2.062-3.372,4.468-2.508.65-6.65,2.3-.214.864-1.746-.642-2.379-3.167-4.254v-2.063l.222-4.467,2.294-4.785,4.143.643,2.071-4.246,5.118-1.412Zm-91.445,34.3.744-2.516L906.79,803.2l-6.753-6.436v2.4L907.33,809.5ZM905.5,790.909l-.437-.462-2.174-.975-3.475-2.054-2.516.779-.223-.762.462-.762-.659-.548-.968-.231-.864,2.062,2.3,1.841,1.84-.214,5.221,2.3Z" transform="translate(-926.645 -734.06)" fill="#919191" stroke="#fff" stroke-width="1"/>
    </g>
    <path id="Icon_ionic-md-add-circle" data-name="Icon ionic-md-add-circle" d="M18,3.375A14.625,14.625,0,1,0,32.625,18,14.625,14.625,0,0,0,18,3.375Zm7.523,16.1H19.477v6.047H16.523V19.477H10.477V16.523h6.047V10.477h2.953v6.047h6.047Z" transform="translate(203.15 679.5)" fill="#e6e6e6"/>
    <path id="Icon_ionic-md-remove-circle" data-name="Icon ionic-md-remove-circle" d="M18,3.375A14.625,14.625,0,1,0,32.625,18,14.625,14.625,0,0,0,18,3.375Zm7.523,16.1H10.477V16.523H25.523Z" transform="translate(188.65 1255.5)" fill="#e6e6e6"/>
    <g id="choropleth" transform="translate(109.984 2143)">
      <g id="Group_50" data-name="Group 50" transform="translate(-37.235 -58.128)">
        <g id="Group_35" data-name="Group 35" transform="translate(51.794 45.39)">
          <path id="Path_23" data-name="Path 23" d="M926.307,729.145l.419-.7-.083-.335-.224-.026-.419.14-.333-.364.39-.589.25-.221-.695-.589.167-.754.335-.528-.057-.53-1.505-.471-1.449-1.867-.921-.447-.419.278-2.507-.278-.7.59-.642-.642-.11.118-.337.276-.723-.164L915.13,720.9l-.78.5-.335-.281-1.337-.471-.752.447-1.589.416-1.144-1.03-.416,2.091-.8.416-.307.5.419,1.758.942,3.092,1.648,2.733,1.422,1.03.364,1.563.055.471.39-.118,2.121-.809,1.394-.081,1.328,1.784-.589.7-.055.109.642.167h1.282l.221-.64.471-.167.528.445.809-.39h.392l.3-.589.5-.471v-1.225l1.7-.975,1.7-.2-.419-1.225,1.144-.725Z" transform="translate(-907.668 -720.482)" fill="#919191" stroke="#fff" stroke-width="1"/>
        </g>
        <g id="Group_36" data-name="Group 36" transform="translate(124.456 37.007)">
          <path id="Path_24" data-name="Path 24" d="M941.729,719.784l-1.256-.335-2.98.281-.644.863-.528.64-.863-.057-.809.226-2.788-.864-.14,1H931.3l-.224.335h-.39l-.2.221.031.471.806.307.5,1.087,1.006-.752.359.167.782-.167.083.167-.2.419.67.39v.25l-.252.335-.057,1.477-1.282,1.839.118.726.193,1.451h.752l.169.64-.392.78-.806,2.676-.561,1.229-.447,2.4.865.64.75,1.172.169.587,1.006.589.107,1.032.7.809.2-.279,1.2-.14,1.17-.445.055-.642.92-1.254-.811-1-.222-1,.471-2.676-.169-2.336-.053-.561.611-2.2.388-2.816.142-1.784,1.615-2.119,1.479-3.123Z" transform="translate(-930.493 -719.449)" fill="#919191" stroke="#fff" stroke-width="1"/>
        </g>
        <g id="Group_37" data-name="Group 37" transform="translate(91.129 0.205)" opacity="0.5">
          <path id="Path_25" data-name="Path 25" d="M945.87,721.652l-.866-.221-1.087.64H943.2l-1.617.223-.7-.8-1.394-.14-.417.557-1.032-.471-2.619-3.259H935l-1.674-.7-1.059.973-.53.14-2.091-.942h-1.5l-.364.53-1.058.307-.809-1.367-1.032-.224-.942.169-1.032.278.112,1.757-.281,1.17.281.362-.392.611.169.725-.528.392.055.668-.335.668,1.032,1.282.224.7-.447.835v.631l-.528.612v1.339l.89.7.086.528.083.7.723.138.53.892,1.65.835,1.5.7.335.333-.557.364.362.64.864.118,1.087,1.282.725.2.112.333-.589.364-.118.752-.116.556h.671l.554.559.921.279.224.863.589.2.809-.083.53-1.394.167-.167,1.337.864h1.451l.221-.167.947.809.307-.118.195-1,.25-.083,1.65,1.451,1.03.557.416-.057.447-2.4.557-1.227.806-2.676.392-.78-.167-.64h-.752l-.193-1.448-.118-.728,1.282-1.837.057-1.477.25-.335v-.252l-.668-.39.2-.416-.083-.169-.782.169-.36-.169-1.006.754-.5-1.087-.806-.307-.031-.471.195-.223h.392l.224-.333h.416l.14-1,2.788.863.809-.224.864.057.528-.642.642-.863Z" transform="translate(-921.987 -716.897)" fill="#919191" stroke="#fff" stroke-width="1"/>
        </g>
        <g id="Group_38" data-name="Group 38" transform="translate(0.144 76.356)" opacity="0.5">
          <path id="Path_26" data-name="Path 26" d="M892.022,751.828l.528.167.2-.226-.78-.416Zm2.174-3.263-.471-.59-.281-.583-.613-.335-.224.335.754.837.809.554Zm28.2-15.691v-1.058l.335-.754-.559-1-.666-.057-.5-.64v-.226l-.169-.167-.835.417-1.56-.892-.311-2.45-.169-.167-.752.417-1.032.278-1.058.942-1.17.169-.057-.892-.863.026-.25-1.337-.7-.364-.53.866-1.841.167-2.284.532-.642-.169-.167-.25-1.758.138-.083.307.112,1.672-.471,1.225.589,1.617.333,1.867-.167.471-.222-.053-1.282.554-.782,2.343-2.034-.863-1.335.758-2.426,1.337-1.5.39-.7.53-.362,1.337-3.235,1.341-.2.471-.471.169-.39.362.53.416.109.445-.25.364.112.112.669.39.78-.307.892.528,1.087-.916,1.058-.224,3.791,1.727-.471.118-2.424-1.146-1.812-.081-.471.419.112,1.168-.587.281.081.081.923.171,1.168.59.5.916-.754-.055-.307,1.17-.725.942-.195.559,2.871,3.208.53,1.587,1.617,1.087.806.362,1.979,1.144.335-.333.362.392.471.221v-.342l.918-.195.918-.666,1.144.167-.026.5,1.867.083.528-.083.59-1.894-.169-1.508.445-.416-.973-1.922-.471-.5.64-.528.118-.109-2.788-3.042,1.505.335,2.146-.224.528-.807.811-.419,2.98.055.64-.447.392-.807.53-.085L916,742.63l.418-.918.307-1.758v-1.2l.447-.112,1.113.39L920.727,737v-.419l.614-.276.725-1.23.11-.587.7-.471.083-.392Z" transform="translate(-890.243 -725.118)" fill="#919191" stroke="#fff" stroke-width="1"/>
        </g>
        <g id="Group_39" data-name="Group 39" transform="translate(8.309)" opacity="0.75">
          <path id="Path_27" data-name="Path 27" d="M917.008,724.878l-.471-.471.471-.7.167-.471-.809-.808-.138-1.113.64-.754v-.224l-.614-.11.138-.725.085-.445-.863-1.758-.725-.445-1.142-1.282-.559-.447-1.532,1.532-3.011,1.221-1.672.252-2.119,1.03L903.4,720.5l-.78.364-1.116,2.509.252.5,1.812.109.611.307-.445.169.167,1.56.471.835-.59.419.055.39.642.224.221,2.341.029.754.118,1.03h1.729l.947,1.591.806.807.309,1,1.308-1.061,1.032-.3.668-.557,1,.164,1.087-.39.809-1.115.863-.526L915,729.866l.3-.5.809-.419.418-2.091.809-.587Z" transform="translate(-901.508 -715.128)" fill="#919191" stroke="#fff" stroke-width="1"/>
        </g>
        <g id="Group_40" data-name="Group 40" transform="translate(124.406 80.208)" opacity="0.75">
          <path id="Path_28" data-name="Path 28" d="M939.99,735.184l-.083-.224.528-1.282.7-.419.749-.112-.107-1.032-1.006-.587-.169-.59-.75-1.17-.865-.642-.417.057-1.032-.559-1.648-1.449-.25.083-.2,1-.307.116-.949-.807-.222.167h-1.446l-1.339-.863-.167.167-.53,1.394-.809.083-.193.5-.392.057-.419.642-.53.055-.331,1.17-.309,1.337-.668.335-.892-.278-.918.471-.086.614,1.142.307-.3,1.282-.59.112-.109.167.471.418v.752l.754.2.5,1.339-.39.388.116.642-.333.39.081.589-.445.471-.109.64-.7.169-.28.471.28.25-.421.5.14.53.64.307.392.219.5.337.14-.057.118.307-1.03.614v.3l.388.392-.167.362.471.364.224.109.119,1.617-.449.337.088.555.443.167.112.335-.835.419-.057.416,1.118,1.394h.333l.471.725.588-.2.64-.725.756.118.276.364,1.179-.335,2.031-1.979-.055-.53.169-.447.2-.556-.029-.39,1.144-2,1.251-.809.307-.866-.239-1.446.221-.7,2.259-1.282.3-1.177,1.227-1.034.118-.64,1.085-1.615.057-.471-.335-.528Z" transform="translate(-924.606 -726.876)" fill="#919191" stroke="#fff" stroke-width="1"/>
        </g>
        <g id="Group_41" data-name="Group 41" transform="translate(85.86 79.84)" opacity="0.5">
          <path id="Path_29" data-name="Path 29" d="M939.138,750.344l-.086-.557.447-.335-.116-1.617-.224-.11-.471-.366.167-.362-.39-.39v-.3l1.032-.616-.119-.307-.142.057-.5-.335-.392-.219-.64-.307-.14-.53.421-.5-.272-.256.281-.471.7-.167.11-.64.445-.471-.081-.589.333-.392-.116-.64.388-.39-.489-1.335-.754-.2v-.754l-.471-.416.109-.169.589-.109.3-1.284-1.142-.307-.809.533-.53-.533-.445-.221-.333.221-.642-.221-.471-.281.224-.471-.278-.118-.307.2h-.39l.055-.613-.528-.447.471-.614-1.236-1.3-.361-1.032-1.227-.311-.559.392-.778-.169-.169.3.419.589-.335.2-2.145-.2-.419.5-.695-.221-.559.362-.894.278-1.058-.307-1.4-1.839-1.449-1.17-.224-1.227-1.225-1.394-1.17-.252-1.7.2-1.7.975v1.225l-.5.471-.307.589.811.278.554.53.447,1.812-.975,1.505.335.557-.362.78-.221-.059-.92.224-.2.419,1.589,2.091-1.17.64.11.364.364.7-.167,1.67.975,1.284.892,4.015.221,1.977v1.032l1.505,1,.866-.471.695.392.53-.338.642.642.362-.224,1.061-1,1.03,1.477.752,1.227,1.563.809.252,1.839-.421.809.169.557-.055.39.471.169.333.528,1-.392,1.339.088.333.359,1.227-1.142-.116-.362-.169-.59.425-.412.668.528.252-.528.39-.083.193.39.283.055.25-.695.64.11.224.335-.119.25.281.362-.057.335.557.7,1.477-4.962,1.65-.333.164-.118,1.615,1.113.057-.416.837-.419-.112-.335Z" transform="translate(-913.719 -725.591)" fill="#919191" stroke="#fff" stroke-width="1"/>
        </g>
        <g id="Group_42-2" data-name="Group 42" transform="translate(45.011 132.413)" opacity="0.5">
          <path id="Path_30-2" data-name="Path 30" d="M923.054,748.336l-.445-.2-.228-1.251.447-.561.587-.916-.14-1.869-.081-.671-.085-.526-.728-1.256-1.115-.809-1.113-1.451h-1l-1.311.223-1.867-.223-.695-.419-.2.14-.057.642-.866.222-.64-.447-.751.164-.809,1.061-2.172-.25-1.313.362-.528,1.085-1.061-.164-.59,1.225-.055,1.142v.533l.809,1.087.167.609-.219.451-.59.055-.167,1.7-1.144.64-.528.863,1.317.7-.118.116.252,1,.3.118.782-.64h1.282l.614.861h.5l.3.226-.026.416v.419l.78.307.7,1.085-.53,1.674v.447l.5.5.029.39.11.116.978.085v.445l.751,1.258,1.532-.2,1.337,1.17,2.79-.754.807-.362.112-.975.589-.942.445-1.56,1.144-1.508-.086-.861.167-.086.53.364.307-.083L923,752.7l.112-.89.085-.7-.418-1.308.5-.531Z" transform="translate(-904.573 -738.411)" fill="#919191" stroke="#fff" stroke-width="1"/>
        </g>
        <g id="Group_43" data-name="Group 43" transform="translate(44.779 74.63)" opacity="0.35">
          <path id="Path_31" data-name="Path 31" d="M930.664,749.356l-.892-4.015-.975-1.284.167-1.67-.364-.7-.109-.362,1.17-.642-1.589-2.091.2-.419.92-.224.224.057.362-.78-.335-.557.978-1.505-.449-1.812-.555-.53-.811-.278h-.39l-.809.39-.528-.445-.471.167-.224.64h-1.286l-.642-.167.055-.109.59-.7-1.339-1.782-1.394.081-2.121.809-.388.118-.057-.471-.357-1.569-1.422-1.03-1.65-2.733-.942-3.092-.863.526-.809,1.116-1.087.39-1-.164-.671.557-1.03.3-1.311,1.061,1.089,1.448.333,1.506-.166.589-.809.59-.78.589.443,1.841.561,1-.335.754v1.058l.557.752-.081.392-.7.471-.109.587-.725,1.227-.614.278v.419l-2.452,2.021-1.116-.39-.447.118v1.2l-.3,1.758-.419.92-.7,2.088.528.614,1.924,1,.419,1.65h.221l1.924-.5.083-.25.333-.219.5.331.835,1.339,1.784,2-.055,1.9,1.727,1.061,1.227,1.4.118.752,2.172.252.808-1.061.752-.164.64.445.866-.224.057-.64.2-.14.695.418,1.867.224,1.311-.224h1l.892-1.227,1.95-.528.307-.559.083-1.56.418-.53,1.17-.421,1.116-.916.865-.2.471.167v-.513Z" transform="translate(-901.675 -722.655)" fill="#919191" stroke="#fff" stroke-width="1"/>
        </g>
        <g id="Group_44-3" data-name="Group 44" transform="translate(0 124.713)">
          <path id="Path_32-3" data-name="Path 32" d="M921.506,744.377l-1.227-1.4-1.729-1.058.057-1.9-1.784-2-.837-1.339-.5-.331-.333.221-.085.25-1.924.5h-.221l-.419-1.648-1.924-1-.528-.614-.53.083-.392.822-.64.445-2.98-.055-.811.419-.528.809-2.145.224-1.5-.342,2.788,3.04-.118.109-.64.531.471.5.973,1.924-.445.416.169,1.505-.59,1.893-.528.085-1.86-.081.026-.5-1.144-.164-.918.666.278,1.006-.5.221-.416.669v.666h.25l.864,1.006.057,2.621-.362.5-.224-.2-.221.2.053.53-.3.361-.419.64.138,1.339.754-.388,3.011,2.089,1.254,2,.195.782h.725l1.729.589.307.861.587.892,2.148.78.918-.335.725-.861.614-.471,1.059-.055.754-.837.25-2.119,1.03-.782,1.115-1.337,1.337-2.034.528-.863,1.144-.642.167-1.7.589-.055.221-.447-.164-.609-.811-1.089v-.528l.057-1.144.588-1.225,1.061.165.53-1.087,1.31-.362Zm-23.414,8.781.19-.644-.528-.752-1.729-1.648v.614l1.867,2.647Zm-.668-4.543-.112-.118-.557-.25-.89-.526-.644.2-.057-.2.118-.2-.169-.14-.248-.059-.221.528.589.471.471-.055,1.337.589Z" transform="translate(-894.645 -734.06)" fill="#919191" stroke="#fff" stroke-width="1"/>
        </g>
        <g id="Group_45" data-name="Group 45" transform="translate(6.219 39.506)">
          <path id="Path_33" data-name="Path 33" d="M919.852,733.681l-1.085-1.448-.307-1-.809-.808-.942-1.589h-1.733l-.112-1.03-.026-.754-.224-2.343-.642-.223-.052-.39.587-.418-.471-.835-.164-1.56-.782.333-2.882,1.869-.416-.083-.725.224-2.257-.78-2.146.116-2.954-.807-.782.3-.5.754-.471-.112.083-.64-.333-.7L899.09,720l.333-.335.057-.587-.335-.752-1.784-.278-.417.554-.809.14-.64-.307-.806-.226-1.339-.416-.335.252.837,1.561-.169.918.471,2.091,1.867,2.454.081,1.979.471.59.055,1.337-.279.116-.248.8.528,1.177.949,1.56.39.14.118.278-.169.221h-.333l-.559.533.559,1.53.863.2.445-.5,1.337-.53,1.337.642,1.757-.138.169.25.642.169,2.284-.532,1.839-.167.532-.866.695.364.252,1.337.863-.026.057.892,1.168-.169,1.061-.942,1.032-.278.752-.416.169.167.307,2.452,1.56.892.835-.418.169.169v.208l.5.64.666.057-.445-1.839.782-.589.807-.59.166-.589Zm-26.171-4.24.169.333.3-.11-.029-.14Zm.59-.471.416.39.112-.167-.2-.224Z" transform="translate(-893.015 -717.797)" fill="#919191" stroke="#fff" stroke-width="1"/>
        </g>
        <g id="Group_46" data-name="Group 46" transform="translate(83.455 29.589)">
          <path id="Path_34" data-name="Path 34" d="M939.712,744.206l-.223-.863-.918-.281-.557-.557h-.671l.118-.559.116-.75.59-.364-.11-.333-.725-.2-1.109-1.282-.863-.118-.362-.64.559-.364-.337-.335-1.5-.7-1.648-.835-.533-.892-.723-.138-.083-.7-.085-.528-.89-.7v-1.334l.528-.614v-.642l.447-.833-.223-.7-1.032-1.282.335-.668-.055-.668.528-.39-.169-.727.392-.612-.281-.362.281-1.17-.112-1.758,1.032-.278.942-.167V720.6l-.39-.471-1.113-.362-1.589-1.313-1.087-.081-.21-.337.083-.471-.5-.7-.223-.471.335-.921-.138-.5.307-.949-.169-.471-.335.085-.723.669L926,715.977l-.614.614-1.451.279-1.363-.11.053,2.034-.445.471.031,1.144-1.032,1.113-.307,1.17.221.53v.278l.421.642-.118.752-.419.167-.362.59-1.225-.055-.118.307-1.617.7-.11,1.56.863.53-.25.335-.447-.057-.59.167.252.669-.351.386-.055.388.195.2.557-.085.118.2-1.339,2.036.057.528-.333.53-.169.754.7.587-.252.224-.388.589.333.362.419-.14.224.029.083.335-.418.7.085.587-1.144.725.418,1.225,1.17.252,1.225,1.394.224,1.227,1.449,1.17,1.394,1.839,1.061.307.894-.278.557-.362.7.221.419-.5,2.145.2.335-.2-.419-.59.166-.3.78.169.55-.408,1.227.307.362,1.032,1.225,1.308-.471.614.53.447-.057.613h.392l.307-.2.278.118-.224.471.471.281.64.221.335-.221.445.221.528.533.811-.533.083-.611.92-.471.89.276.67-.333.307-1.337.333-1.172.531-.055.419-.64.39-.057.193-.5Z" transform="translate(-915.693 -713.551)" fill="#919191" stroke="#fff" stroke-width="1"/>
        </g>
        <g id="Group_47" data-name="Group 47" transform="translate(81.836 125.061)" opacity="0.75">
          <path id="Path_35" data-name="Path 35" d="M935.243,757.189l-.807-.281-.364-.528-.118-.92-2.312-.362-.807.642-.418-.059h-.951l.421-1.587-.118-.613-1.81-1.924-.8-1.227.364-2.2.333-1.924-.589-2.091.471-.7.807-.664.421-.811-.252-1.839-1.554-.809-.752-1.225-1.03-1.477-1.061,1-.362.224-.642-.64-.53.335-.695-.39-.866.471-1.505-1v-.528l-.471-.167-.863.2-1.118.916-1.168.419-.419.533-.083,1.56-.307.557-1.95.53-.892,1.225,1.113,1.451,1.115.809.723,1.256.085.526.083.671.14,1.867-.589.918-.443.561.222,1.251.447.2.224.92-.5.528.419,1.31-.085.7-.11.89-.224.559-.307.085-.528-.364-.169.085.085.861L913,758.416l-.445,1.56-.59.942-.109.975-.809.362.64.471.112.861.419.471.224.642-.335,1.617.5.278v.892l.471-.642,1.28-.471.419.445.5.029.942-.589.223-.78.445-.7.028-.64.64-.782.866-.835.333,1.225h.642l.589.59.224,1.391.59.642,1.173-3.557.725.53,1.672-1.672,1,2.257.92-.669.39-.557.307-.057.5.085.026.278.278.169.335-.169.921.918.333.782.559-.362.752-1.17.528-.118.169-.362,1.757-1.337.055-.392.471-.278v-.307l.752-.589-.028-.331Z" transform="translate(-911.045 -735.894)" fill="#919191" stroke="#fff" stroke-width="1"/>
        </g>
        <g id="Group_48" data-name="Group 48" transform="translate(44.463 0.078)" opacity="0.5">
          <path id="Path_36" data-name="Path 36" d="M932.759,720.809l-.029-1.144.445-.471-.055-2.034-1.177-.112-1.114.221-.057-.166.278-.278-.39-.362-1.113.918-1.5-1.089-.864.5-.471-.278-.335.278-.026.471-3.263.112-.39-.471-1.755.083-.752.752-.281-1.03-.557-.307-2.424-.531-.589.39-.278-.167-.057-.278.7-.7-.416-.471-1.506.11-1.337.589-.338-.224-.138-.975-2.424-.942-1.758.11-.333.2-.14.725,1.394,1.475v.226l-.167.055-1.282-.425-.863,1.253-.559.59.559.447,1.142,1.28.725.447.866,1.755-.085.445-.14.725.614.112v.221l-.64.754.138,1.115.809.809-.167.471-.471.695.471.471.335,1.394-.809.587,1.144,1.032,1.587-.419.754-.445,1.337.471.333.281.782-.5,1.615,1.144.725.167.335-.278.112-.118.642.642.695-.59,2.509.28.419-.28.92.447,1.449,1.869,1.5.471,1.339-2.036-.118-.2-.557.085-.195-.195.063-.373.364-.392-.245-.668.589-.166.447.057.25-.335-.863-.53.109-1.56,1.618-.7.118-.307,1.225.055.361-.59.416-.167.118-.754-.418-.64v-.278l-.223-.53.307-1.172Z" transform="translate(-906.836 -713.209)" fill="#919191" stroke="#fff" stroke-width="1"/>
        </g>
        <g id="Group_49" data-name="Group 49" transform="translate(113.244 122.033)" opacity="0.35">
          <path id="Path_37" data-name="Path 37" d="M952.936,751.129l-.39-.64-1.448-1.118-.419-1.392-.754-.756-.973-.109-.224-.362-.085-.445,2.174-2.4-.64-1.644-1.532-.918-.447-.7.224-1.758-.589-.721-.11-1.146-1.479-.278-2.871.751-.723.754-.392.835.226.752.471.226.083.25-1.422,1.2-1.589.533-.167-.419.278-.59.892-.445.169-1.979-.59-.863-2.034,1.977-1.177.335-.278-.361-.754-.118-.64.723-.59.2-.471-.725h-.331l-1.118-1.394-1.617-1.116-.164.118-1.65.333-1.477,4.961-.557-.7.059-.333-.283-.362.118-.252-.224-.335-.64-.11-.25.7-.283-.057-.193-.39-.39.083-.252.53-.657-.526-.419.418.167.588.118.361-1.227,1.142-.335-.359-1.337-.088-1.006.392-.333-.528-.471-.169.057-.39-.169-.554L919,742.4l-.471.7.59,2.088-.333,1.924-.386,2.2.811,1.227,1.81,1.924.116.611-.419,1.587h.949l.419.062.806-.642,2.314.362.118.918.362.528.806.28-.835,2.286.029.333-.752.59v.3l-.471.281-.055.39-1.769,1.337-.167.362-.53.118-.752,1.168-.557.362.671,2.222.64.026.471,1.505.809.335.167,1.479.723-.252.5.416.418.644h.276l.057-.471.169-.445.528-.118.809.388.666-.7,1.118.589.333.335.28-.725H930.5l.39.892.14.14.418-.471.892-.169.726-.64.528.167.614-.254.361,1.37.252.169.5-.392.362.2.109.081.364-.362.445.195.28.611.307-.11.943.921.7-.447-.086-.116-.276-.59.445-.419.419.78.138-.031.169-.612v-.419l-.531-1.505-.418.055-.445-.112-.252.169-.167-.118-1.166-1.262.11-.169.528.057-.11-.7.167-.029,1.394.029.307-.471-.471-.782.445-1.311.418-.026.59-.335.252.055.276-.751.112-.281,1.448-1.03-.081-.25.5-.471.809-.226,1.477-.921.224-1.223-.14-.2-.918.055-.169-.335.59-1.31,1.227.863.918-.083,1.282-1.03.642-.668,1.784.136.589-.136.668-1.225.78-.506.642-.64-.195-.751Z" transform="translate(-918.396 -736.746)" fill="#919191" stroke="#fff" stroke-width="1"/>
        </g>
      </g>
    </g>
    <text id="Neighborhood_polygon_small_multiples_" data-name="Neighborhood polygon small multiples " transform="translate(250 2163)" fill="#464242" font-size="15" font-family="HKGrotesk-Regular, HK Grotesk"><tspan x="0" y="15">Neighborhood </tspan><tspan x="0" y="34">polygon small </tspan><tspan x="0" y="53">multiples </tspan></text>
    <text id="Data_source:_GVA_city_police_departments_" data-name="Data source: GVA/ city police departments
" transform="translate(250 2231)" fill="#464242" font-size="10" font-family="HKGrotesk-LightLegacyItalic, HK Grotesk" font-weight="300" font-style="italic"><tspan x="0" y="9">Data source: GVA/ city </tspan><tspan x="0" y="21">police departments</tspan></text>
    <g id="Group_120" data-name="Group 120" transform="translate(5 1709)">
      <text id="Census_tract" data-name="Census tract" transform="translate(242 618)" fill="#464242" font-size="15" font-family="HKGrotesk-Bold, HK Grotesk" font-weight="700"><tspan x="0" y="15">CENSUS TRACT</tspan></text>
      <text id="Maps_" data-name="Maps?" transform="translate(74 618)" fill="#464242" font-size="15" font-family="HKGrotesk-Bold, HK Grotesk" font-weight="700"><tspan x="0" y="15">MAPS?</tspan></text>
      <text id="Viz_Type-4" data-name="Viz Type" transform="translate(74 596)" fill="#464242" font-size="15" font-family="HKGrotesk-Regular, HK Grotesk"><tspan x="0" y="15">Viz Type</tspan></text>
      <text id="Map_scale" data-name="Map scale" transform="translate(242 596)" fill="#464242" font-size="15" font-family="HKGrotesk-Regular, HK Grotesk"><tspan x="0" y="15">Map scale</tspan></text>
    </g>
    <text id="Had_John_still_been_alive_today_he_would_be_x_years_old._This_is_the_average_age_of_a_fellow_enrolled_in_the_advance_peace_program._" data-name="Had John still been alive today, he would be x years old. This is the average age of a fellow enrolled in the advance peace program. " transform="translate(89 2546)" fill="#464242" font-size="20" font-family="HKGrotesk-SemiBold, HK Grotesk" font-weight="600"><tspan x="0" y="20">Had John still been alive </tspan><tspan x="0" y="45">today, he would be x years </tspan><tspan x="0" y="70">old. This is the average age </tspan><tspan x="0" y="95">of a fellow enrolled in the </tspan><tspan x="0" y="120">advance peace program. </tspan></text>
    <text id="What_work_goes_into_supporting_these_fellows_behind_the_scenes_" data-name="What work goes into supporting these fellows behind the scenes?" transform="translate(93 3114)" fill="#464242" font-size="20" font-family="HKGrotesk-SemiBold, HK Grotesk" font-weight="600"><tspan x="0" y="20">What work goes into </tspan><tspan x="0" y="45">supporting these fellows </tspan><tspan x="0" y="70">behind the scenes?</tspan></text>
    <text id="The_next_couple_of_years_in_Sacramento_Stockton_will_be_crucial_to_understanding_the_scalability_of_this_violence_reduction_model." data-name="The next couple of years in Sacramento &amp; Stockton will be crucial to understanding the scalability of this violence reduction model." transform="translate(84 3685)" fill="#464242" font-size="20" font-family="HKGrotesk-SemiBold, HK Grotesk" font-weight="600"><tspan x="0" y="20">The next couple of years in </tspan><tspan x="0" y="45">Sacramento &amp; Stockton will </tspan><tspan x="0" y="70">be crucial to understanding </tspan><tspan x="0" y="95">the scalability of this </tspan><tspan x="0" y="120">violence reduction model.</tspan></text>
    <g id="Group_121" data-name="Group 121" transform="translate(13 2282)">
      <text id="Infographic_Dot_Matrix" data-name="Infographic | Dot Matrix" transform="translate(74 618)" fill="#464242" font-size="15" font-family="HKGrotesk-Bold, HK Grotesk" font-weight="700"><tspan x="0" y="15">INFOGRAPHIC | DOT MATRIX</tspan></text>
      <text id="Viz_Type-5" data-name="Viz Type" transform="translate(74 596)" fill="#464242" font-size="15" font-family="HKGrotesk-Regular, HK Grotesk"><tspan x="0" y="15">Viz Type</tspan></text>
    </g>
    <g id="infographic" transform="translate(-723.406 2029.618)">
      <g id="Group_14" data-name="Group 14" transform="translate(811.943 675.161)">
        <circle id="Ellipse_56" data-name="Ellipse 56" cx="21.223" cy="21.223" r="21.223" transform="translate(0 7.644)" fill="none" stroke="#848484" stroke-width="3"/>
        <path id="Path_11" data-name="Path 11" d="M823.446,700.628l25.463-25.467h17.824" transform="translate(-802.225 -675.161)" fill="none" stroke="#848484" stroke-width="1"/>
        <path id="Path_12" data-name="Path 12" d="M826.206,695.869l14.43,14.432h16.979" transform="translate(-799.893 -657.667)" fill="none" stroke="#848484" stroke-width="1"/>
        <line id="Line_22" data-name="Line 22" x2="25.469" transform="translate(72.152 0)" fill="none" stroke="#848484" stroke-width="4"/>
        <line id="Line_23" data-name="Line 23" x2="25.469" transform="translate(65.352 52.633)" fill="none" stroke="#848484" stroke-width="4"/>
      </g>
    </g>
    <g id="dot_matrix" data-name="dot matrix" transform="translate(-481.406 1977.618)">
      <g id="Group_18" data-name="Group 18" transform="translate(570.987 807.659)">
        <g id="Group_104" data-name="Group 104">
          <circle id="Ellipse_59" data-name="Ellipse 59" cx="8.436" cy="8.436" r="8.436" fill="#848484"/>
          <circle id="Ellipse_60" data-name="Ellipse 60" cx="8.436" cy="8.436" r="8.436" transform="translate(0 24.814)" fill="#848484"/>
          <circle id="Ellipse_61" data-name="Ellipse 61" cx="8.436" cy="8.436" r="8.436" transform="translate(0 49.629)" fill="#848484"/>
          <circle id="Ellipse_62" data-name="Ellipse 62" cx="8.436" cy="8.436" r="8.436" transform="translate(26.138)" fill="#848484"/>
          <circle id="Ellipse_63" data-name="Ellipse 63" cx="8.436" cy="8.436" r="8.436" transform="translate(26.138 24.814)" fill="#848484"/>
          <circle id="Ellipse_64" data-name="Ellipse 64" cx="8.436" cy="8.436" r="8.436" transform="translate(26.138 49.629)" fill="#848484"/>
          <circle id="Ellipse_65" data-name="Ellipse 65" cx="8.436" cy="8.436" r="8.436" transform="translate(52.277)" fill="#848484"/>
          <circle id="Ellipse_66" data-name="Ellipse 66" cx="8.436" cy="8.436" r="8.436" transform="translate(52.277 24.814)" fill="#848484" opacity="0.5" style="isolation: isolate"/>
          <circle id="Ellipse_67" data-name="Ellipse 67" cx="8.436" cy="8.436" r="8.436" transform="translate(52.277 49.629)" fill="#848484" opacity="0.5" style="isolation: isolate"/>
        </g>
        <g id="Group_105" data-name="Group 105" transform="translate(78.66 0.245)">
          <path id="Path_13" data-name="Path 13" d="M621.311,815.957a8.188,8.188,0,1,1,0-.007Z" transform="translate(-604.932 -807.765)" fill="none" stroke="#848484" stroke-width="1"/>
          <path id="Path_14" data-name="Path 14" d="M621.311,826.662a8.189,8.189,0,1,1-8.189-8.189,8.189,8.189,0,0,1,8.189,8.189Z" transform="translate(-604.932 -793.66)" fill="none" stroke="#848484" stroke-width="1"/>
          <path id="Path_15" data-name="Path 15" d="M621.311,837.372a8.186,8.186,0,1,1,0-.007Z" transform="translate(-604.932 -779.552)" fill="none" stroke="#848484" stroke-width="1"/>
        </g>
      </g>
    </g>
    <g id="dot_matrix-2" data-name="dot matrix" transform="translate(-478.406 2526.618)">
      <g id="Group_18-2" data-name="Group 18" transform="translate(570.987 807.659)">
        <g id="Group_104-2" data-name="Group 104">
          <circle id="Ellipse_59-2" data-name="Ellipse 59" cx="8.436" cy="8.436" r="8.436" fill="#848484"/>
          <circle id="Ellipse_59-3" data-name="Ellipse 59" cx="8.436" cy="8.436" r="8.436" transform="translate(0 -25)" fill="#848484"/>
          <circle id="Ellipse_60-2" data-name="Ellipse 60" cx="8.436" cy="8.436" r="8.436" transform="translate(0 24.814)" fill="#848484"/>
          <circle id="Ellipse_61-2" data-name="Ellipse 61" cx="8.436" cy="8.436" r="8.436" transform="translate(0 49.629)" fill="#848484"/>
          <circle id="Ellipse_62-2" data-name="Ellipse 62" cx="8.436" cy="8.436" r="8.436" transform="translate(26.138)" fill="#848484"/>
          <circle id="Ellipse_62-3" data-name="Ellipse 62" cx="8.436" cy="8.436" r="8.436" transform="translate(26.138 -25)" fill="#848484"/>
          <circle id="Ellipse_63-2" data-name="Ellipse 63" cx="8.436" cy="8.436" r="8.436" transform="translate(26.138 24.814)" fill="#848484"/>
          <circle id="Ellipse_64-2" data-name="Ellipse 64" cx="8.436" cy="8.436" r="8.436" transform="translate(26.138 49.629)" fill="#848484"/>
          <circle id="Ellipse_65-2" data-name="Ellipse 65" cx="8.436" cy="8.436" r="8.436" transform="translate(52.277)" fill="#848484"/>
          <circle id="Ellipse_65-3" data-name="Ellipse 65" cx="8.436" cy="8.436" r="8.436" transform="translate(52.277 -25)" fill="#848484"/>
          <circle id="Ellipse_66-2" data-name="Ellipse 66" cx="8.436" cy="8.436" r="8.436" transform="translate(52.277 24.814)" fill="#848484" opacity="0.5" style="isolation: isolate"/>
          <circle id="Ellipse_67-2" data-name="Ellipse 67" cx="8.436" cy="8.436" r="8.436" transform="translate(52.277 49.629)" fill="#848484" opacity="0.5" style="isolation: isolate"/>
        </g>
        <g id="Group_105-2" data-name="Group 105" transform="translate(78.66 0.245)">
          <path id="Path_13-2" data-name="Path 13" d="M621.311,815.957a8.188,8.188,0,1,1,0-.007Z" transform="translate(-604.932 -807.765)" fill="none" stroke="#848484" stroke-width="1"/>
          <path id="Path_13-3" data-name="Path 13" d="M621.311,815.957a8.188,8.188,0,1,1,0-.007Z" transform="translate(-604.932 -832.765)" fill="none" stroke="#848484" stroke-width="1"/>
          <path id="Path_14-2" data-name="Path 14" d="M621.311,826.662a8.189,8.189,0,1,1-8.189-8.189,8.189,8.189,0,0,1,8.189,8.189Z" transform="translate(-604.932 -793.66)" fill="none" stroke="#848484" stroke-width="1"/>
          <path id="Path_15-2" data-name="Path 15" d="M621.311,837.372a8.186,8.186,0,1,1,0-.007Z" transform="translate(-604.932 -779.552)" fill="none" stroke="#848484" stroke-width="1"/>
        </g>
      </g>
    </g>
    <text id="Data_source:_Advance_Peace" data-name="Data source: 
Advance Peace" transform="translate(238 2778)" fill="#464242" font-size="10" font-family="HKGrotesk-LightLegacyItalic, HK Grotesk" font-weight="300" font-style="italic"><tspan x="0" y="9">Data source: </tspan><tspan x="0" y="21">Advance Peace</tspan></text>
    <text id="Fellow_outcome_data" data-name="Fellow outcome data" transform="translate(237 2726)" fill="#464242" font-size="15" font-family="HKGrotesk-Regular, HK Grotesk"><tspan x="0" y="15">Fellow </tspan><tspan x="0" y="34">outcome data</tspan></text>
    <text id="NCA_input_data_-_contacts_focus_groups_types_of_conflict_response" data-name="NCA input data - contacts, focus groups, types of conflict response" transform="translate(93 3242)" fill="#464242" font-size="15" font-family="HKGrotesk-Regular, HK Grotesk"><tspan x="0" y="15">NCA input data - contacts, focus </tspan><tspan x="0" y="34">groups, types of conflict response</tspan></text>
    <text id="Zoom_out" data-name="Zoom out" transform="translate(106 1834)" font-size="15" font-family="HKGrotesk-BoldItalic, HK Grotesk" font-weight="700" font-style="italic"><tspan x="0" y="15">Zoom out</tspan></text>
    <path id="Icon_open-action-undo" data-name="Icon open-action-undo" d="M17.5-12.832,8.75,35H0L17.5,52.5,35,35H26.25C26.369,35.114,17.5-12.832,17.5-12.832Z" transform="translate(59 1817)" fill="#e6e6e6"/>
    <g id="Group_122" data-name="Group 122" transform="translate(7294 10818)">
      <text id="Interpolate" transform="translate(-7023 -8984)" font-size="15" font-family="HKGrotesk-BoldItalic, HK Grotesk" font-weight="700" font-style="italic"><tspan x="0" y="15">Interpolate</tspan></text>
    </g>
    <path id="Icon_metro-move-down" data-name="Icon metro-move-down" d="M44.517,36.816V14.988H40.879V36.816h-9.1L42.7,47.73,53.612,36.816ZM19.051,11.35V22.264H8.137V11.35H19.051Zm3.638-3.638H4.5V25.9h18.19V7.712ZM4.5,33.178H9.956v3.638H4.5Zm7.276,0h5.457v3.638H11.775Zm7.276,0h3.638v5.457H19.051ZM4.5,45.911H8.137v5.457H4.5ZM9.956,47.73h5.457v3.638H9.956V47.73Zm7.276,0h5.457v3.638H17.232ZM4.5,38.635H8.137v5.457H4.5Zm14.552,1.819h3.638v5.457H19.051Z" transform="translate(211.623 1814.007)" fill="#e6e6e6"/>
    <text id="Data_source:_Advance_Peace-2" data-name="Data source: 
Advance Peace" transform="translate(221 3307)" fill="#464242" font-size="10" font-family="HKGrotesk-LightLegacyItalic, HK Grotesk" font-weight="300" font-style="italic"><tspan x="0" y="9">Data source: </tspan><tspan x="0" y="21">Advance Peace</tspan></text>
    <g id="stacked_bar" data-name="stacked bar" transform="translate(-399.406 2752.618)">
      <g id="Group_1" data-name="Group 1" transform="translate(620.702 602.684)">
        <rect id="Rectangle_8" data-name="Rectangle 8" width="26.398" height="15.768" transform="translate(0 0.173)" fill="#ccc"/>
        <rect id="Rectangle_9" data-name="Rectangle 9" width="9.9" height="15.752" transform="translate(45.615 0.173)" fill="#ccc"/>
        <rect id="Rectangle_11" data-name="Rectangle 11" width="25.818" height="14.707" transform="translate(55.123 0.7)" fill="none" stroke="#ccc" stroke-width="1"/>
        <g id="Group_123" data-name="Group 123" transform="translate(55.131 0.698)">
          <line id="Line_1" data-name="Line 1" y1="4.566" x2="3.736" transform="translate(0.097 0.06)" fill="none" stroke="#ccc" stroke-width="1"/>
          <line id="Line_2" data-name="Line 2" y1="8.778" x2="7.181" fill="none" stroke="#ccc" stroke-width="1"/>
          <line id="Line_3" data-name="Line 3" y1="12.751" x2="10.433" transform="translate(0 0.179)" fill="none" stroke="#ccc" stroke-width="1"/>
          <line id="Line_4" data-name="Line 4" y1="14.352" x2="11.744" transform="translate(2.329 0.12)" fill="none" stroke="#ccc" stroke-width="1"/>
          <line id="Line_5" data-name="Line 5" y1="14.352" x2="11.743" transform="translate(5.921 0.12)" fill="none" stroke="#ccc" stroke-width="1"/>
          <line id="Line_6" data-name="Line 6" y1="14.352" x2="11.744" transform="translate(9.413 0.12)" fill="none" stroke="#ccc" stroke-width="1"/>
          <line id="Line_7" data-name="Line 7" y1="14.352" x2="11.743" transform="translate(13.102 0.12)" fill="none" stroke="#ccc" stroke-width="1"/>
          <line id="Line_8" data-name="Line 8" y1="11.03" x2="9.027" transform="translate(16.787 3.797)" fill="none" stroke="#ccc" stroke-width="1"/>
          <line id="Line_9" data-name="Line 9" y1="5.99" x2="4.901" transform="translate(21.155 8.482)" fill="none" stroke="#ccc" stroke-width="1"/>
        </g>
        <rect id="Rectangle_12" data-name="Rectangle 12" width="15.335" height="15.785" transform="translate(0 26.137)" fill="#ccc"/>
        <rect id="Rectangle_13" data-name="Rectangle 13" width="17.813" height="15.768" transform="translate(37.172 26.137)" fill="#ccc"/>
        <rect id="Rectangle_15" data-name="Rectangle 15" width="25.818" height="14.704" transform="translate(55.123 26.677)" fill="none" stroke="#ccc" stroke-width="1"/>
        <g id="Group_124" data-name="Group 124" transform="translate(55.131 26.673)">
          <line id="Line_10" data-name="Line 10" y1="4.565" x2="3.736" transform="translate(0.097 0.062)" fill="none" stroke="#ccc" stroke-width="1"/>
          <line id="Line_11" data-name="Line 11" y1="8.779" x2="7.181" fill="none" stroke="#ccc" stroke-width="1"/>
          <line id="Line_12" data-name="Line 12" y1="12.751" x2="10.433" transform="translate(0 0.179)" fill="none" stroke="#ccc" stroke-width="1"/>
          <line id="Line_13" data-name="Line 13" y1="14.351" x2="11.744" transform="translate(2.329 0.121)" fill="none" stroke="#ccc" stroke-width="1"/>
          <line id="Line_14" data-name="Line 14" y1="14.351" x2="11.743" transform="translate(5.921 0.121)" fill="none" stroke="#ccc" stroke-width="1"/>
          <line id="Line_15" data-name="Line 15" y1="14.351" x2="11.744" transform="translate(9.413 0.121)" fill="none" stroke="#ccc" stroke-width="1"/>
          <line id="Line_16" data-name="Line 16" y1="14.351" x2="11.743" transform="translate(13.102 0.121)" fill="none" stroke="#ccc" stroke-width="1"/>
          <line id="Line_17" data-name="Line 17" y1="11.031" x2="9.027" transform="translate(16.787 3.799)" fill="none" stroke="#ccc" stroke-width="1"/>
          <line id="Line_18" data-name="Line 18" y1="5.99" x2="4.901" transform="translate(21.155 8.483)" fill="none" stroke="#ccc" stroke-width="1"/>
        </g>
        <g id="Rectangle_32" data-name="Rectangle 32" transform="translate(0.445)">
          <rect id="Rectangle_37" data-name="Rectangle 37" width="81.293" height="16.259" fill="none"/>
          <rect id="Rectangle_38" data-name="Rectangle 38" width="80.336" height="15.302" transform="translate(0.478 0.478)" fill="none" stroke="#ccc" stroke-width="1"/>
        </g>
        <g id="Rectangle_33" data-name="Rectangle 33" transform="translate(0.445 25.822)">
          <rect id="Rectangle_39" data-name="Rectangle 39" width="81.293" height="16.259" fill="none"/>
          <rect id="Rectangle_40" data-name="Rectangle 40" width="80.336" height="15.302" transform="translate(0.478 0.478)" fill="none" stroke="#ccc" stroke-width="1"/>
        </g>
      </g>
    </g>
    <g id="Group_125" data-name="Group 125" transform="translate(19 2861)">
      <text id="Dot_Matrix_Stacked_bar_chart" data-name="Dot Matrix | Stacked bar chart" transform="translate(74 618)" fill="#464242" font-size="15" font-family="HKGrotesk-Bold, HK Grotesk" font-weight="700"><tspan x="0" y="15">DOT MATRIX | STACKED BAR CHART</tspan></text>
      <text id="Viz_Type-6" data-name="Viz Type" transform="translate(74 596)" fill="#464242" font-size="15" font-family="HKGrotesk-Regular, HK Grotesk"><tspan x="0" y="15">Viz Type</tspan></text>
    </g>
    <g id="Group_127" data-name="Group 127" transform="translate(13 3428)">
      <text id="Map_TBD" data-name="Map | TBD" transform="translate(74 618)" fill="#464242" font-size="15" font-family="HKGrotesk-Bold, HK Grotesk" font-weight="700"><tspan x="0" y="15">MAP | TBD</tspan></text>
      <text id="Viz_Type-7" data-name="Viz Type" transform="translate(74 596)" fill="#464242" font-size="15" font-family="HKGrotesk-Regular, HK Grotesk"><tspan x="0" y="15">Viz Type</tspan></text>
    </g>
    <g id="Group_128" data-name="Group 128" transform="translate(7274 11966)">
      <text id="Interpolate-2" data-name="Interpolate" transform="translate(-7023 -8984)" font-size="15" font-family="HKGrotesk-BoldItalic, HK Grotesk" font-weight="700" font-style="italic"><tspan x="0" y="15">Interpolate</tspan></text>
    </g>
    <path id="Icon_metro-move-down-2" data-name="Icon metro-move-down" d="M44.517,36.816V14.988H40.879V36.816h-9.1L42.7,47.73,53.612,36.816ZM19.051,11.35V22.264H8.137V11.35H19.051Zm3.638-3.638H4.5V25.9h18.19V7.712ZM4.5,33.178H9.956v3.638H4.5Zm7.276,0h5.457v3.638H11.775Zm7.276,0h3.638v5.457H19.051ZM4.5,45.911H8.137v5.457H4.5ZM9.956,47.73h5.457v3.638H9.956V47.73Zm7.276,0h5.457v3.638H17.232ZM4.5,38.635H8.137v5.457H4.5Zm14.552,1.819h3.638v5.457H19.051Z" transform="translate(191.623 2962.007)" fill="#e6e6e6"/>
    <text id="Switch-2" data-name="Switch" transform="translate(276 3551)" font-size="15" font-family="HKGrotesk-BoldItalic, HK Grotesk" font-weight="700" font-style="italic"><tspan x="0" y="15">Switch</tspan></text>
    <path id="Icon_awesome-exchange-alt-2" data-name="Icon awesome-exchange-alt" d="M0,15.294V13.672a2.433,2.433,0,0,1,2.433-2.433h36.5V6.372A2.435,2.435,0,0,1,43.09,4.651L51.2,12.763a2.434,2.434,0,0,1,0,3.441L43.09,24.316a2.435,2.435,0,0,1-4.154-1.721V17.728H2.433A2.433,2.433,0,0,1,0,15.294ZM49.481,30.706h-36.5V25.839a2.435,2.435,0,0,0-4.154-1.721L.713,32.23a2.434,2.434,0,0,0,0,3.441l8.112,8.112a2.435,2.435,0,0,0,4.154-1.721V37.2h36.5a2.433,2.433,0,0,0,2.433-2.433V33.14A2.433,2.433,0,0,0,49.481,30.706Z" transform="translate(194.243 3537.783)" fill="#e6e6e6"/>
    <g id="point_map" data-name="point map" transform="translate(119 3940.308)">
      <path id="Exclusion_7" data-name="Exclusion 7" d="M392.256,633.824h0a4.9,4.9,0,0,1-2.106-.564,6.274,6.274,0,0,0-1.914-.618c-.05-.213-.094-.431-.137-.643-.258-1.272-.524-2.587-1.761-2.9a6.138,6.138,0,0,0-1.2-3.054,4.1,4.1,0,0,0-2.817-1.438,2.86,2.86,0,0,0-1.287,1.324c-.116.19-.239.387-.371.566-2.106-.3-2.464-1.785-2.727-2.869-.039-.158-.074-.3-.113-.445a3.2,3.2,0,0,0-1.258-1.558,4.272,4.272,0,0,1-1.582-1.992,1.8,1.8,0,0,1-.73.135,6.477,6.477,0,0,1-1.382-.223c-.24-.055-.489-.113-.726-.152a.792.792,0,0,0-.221-.035c-.261,0-.335.19-.408.376-.063.163-.127.329-.318.369-.429.04-.851.061-1.256.061a12.025,12.025,0,0,1-6.793-2.3,16.964,16.964,0,0,0-3.543-1.792.853.853,0,0,0-.118-.658,1.1,1.1,0,0,1-.123-.287c-.6-.047-1.1-.055-1.545-.061a7.185,7.185,0,0,1-2.712-.408c.016-2.9-1.845-3.932-4-5.13-.316-.176-.645-.358-.969-.55a19.688,19.688,0,0,0-1.143-5.652A15.3,15.3,0,0,1,348,596.2c-1.035-.9-.523-1.8.021-2.75.5-.876,1.018-1.779.216-2.69.442-1.1.934-2.068,1.41-3.008a17.213,17.213,0,0,0,2.377-10,2.486,2.486,0,0,1,1.1.374,2.4,2.4,0,0,0,1.243.381,2.68,2.68,0,0,0,.5-.047.416.416,0,0,0,.027-.334c-.047-.089-.156-.115-.264-.14s-.218-.052-.264-.14a.422.422,0,0,1,.029-.331.609.609,0,0,0,.144.016c.3,0,.316-.306.327-.6a1.228,1.228,0,0,1,0-.134,21.776,21.776,0,0,1,3.945,1.042,17.437,17.437,0,0,0,5.107,1.152,5.775,5.775,0,0,0,.884-.066c.11.039.164.081.158.119-.011.069-.2.119-.363.119h-.029a103.333,103.333,0,0,0,25.069,3.056c2.161,0,4.314-.073,6.4-.211a1.679,1.679,0,0,0,1.834,1.388,2.516,2.516,0,0,0,1-.2,6.061,6.061,0,0,0,3.564,1.037c.443.039.9.081,1.4.144a10.373,10.373,0,0,1-.893.6,3.962,3.962,0,0,0-1.942,2c.132.176.256.261.384.261.174,0,.329-.164.5-.337l.039-.042a.928.928,0,0,1,.624-.377.532.532,0,0,1,.111.013c.073-.006.134-.008.185-.008.14,0,.216.019.239.06s-.018.122-.074.216a.717.717,0,0,0-.113.682,4.121,4.121,0,0,0,2.28-1.132,8.412,8.412,0,0,1,1.5-1c-.382.713.071,1.084.553,1.476a2.577,2.577,0,0,1,.635.655l.1-.034a10.4,10.4,0,0,1,3.021-.7,3.833,3.833,0,0,1,1.843.5,2.487,2.487,0,0,0,1.04,2.153,2.06,2.06,0,0,1,.621,2.814c.047.171.111.25.2.25a.583.583,0,0,0,.269-.124l.052-.032a.812.812,0,0,1,.421-.155.508.508,0,0,1,.237.06c1.056,1.382.59,2.453,0,3.809-.16.368-.326.748-.473,1.163a4.084,4.084,0,0,0,1.49.271,6.019,6.019,0,0,0,3.724-1.437,5.825,5.825,0,0,0,2.119-3.564h.156c1.58,0,2.529-.045,3.63-.947a3.434,3.434,0,0,1,1.089-3.319,8.138,8.138,0,0,1,3.132-1.182,16.681,16.681,0,0,0,2.409-.7,5.435,5.435,0,0,0,1.114-2.869c.323-1.584.655-3.224,2.167-3.224a3.182,3.182,0,0,1,.981.179,4.51,4.51,0,0,0,2.358,4.014,2.481,2.481,0,0,1-.926,1.39,2.311,2.311,0,0,0-.963,1.685h-.006c-2,0-2.138,1.774-2.321,4.02-.013.158-.026.314-.039.476a2.269,2.269,0,0,0,1.119.418c.179,0,.281-.061.306-.184a1.541,1.541,0,0,1-.306,1.348,2.319,2.319,0,0,1-1.817,1.024h-.006a4.638,4.638,0,0,1-3.308,2.122,4.954,4.954,0,0,1-.252,3.145,4.942,4.942,0,0,0-.227,3.248,1.742,1.742,0,0,0-1.081,1.038c-.377,1.121.569,2.717,1.2,3.767.143.242.266.45.363.631a3.641,3.641,0,0,1-1.714,1.851,3.139,3.139,0,0,0-1.84,2.648,2.8,2.8,0,0,0-1.887.713,4.531,4.531,0,0,1-2.845,3.549,10.692,10.692,0,0,1-.364,1.619,6.269,6.269,0,0,0-.347,2.638,5.9,5.9,0,0,0,1.26,2.6,6.362,6.362,0,0,1,1.34,2.841,6.465,6.465,0,0,1,1.655,5.681h-.053a.772.772,0,0,0-.4.119.773.773,0,0,1-.4.121.736.736,0,0,1-.1,0l-.371-.284h0c-2.342-1.795-4.773-3.651-4.593-7.283a3.114,3.114,0,0,1-1.26-1,2.638,2.638,0,0,0-1.816-1.121,1.593,1.593,0,0,0-.961.6,1.608,1.608,0,0,1-.932.59,2.479,2.479,0,0,0-2.33-1.374,9.785,9.785,0,0,0-2.188.358l-.061.015a10.52,10.52,0,0,1-2.369.374,3.964,3.964,0,0,1-.86-.1,3.2,3.2,0,0,0-.24,2.369,5.438,5.438,0,0,1-1.972.451,4.514,4.514,0,0,1-1.451-.29l-.166-.053a6.27,6.27,0,0,0-2.09-.345h-.231a4.008,4.008,0,0,0-2.037-.6c-1.485,0-2.783.963-4.04,1.895a9.347,9.347,0,0,1-3.151,1.774,4.907,4.907,0,0,0-.234,4.97Zm-3.093-8.873a1.528,1.528,0,1,0,1.527,1.529A1.528,1.528,0,0,0,389.163,624.951Zm13.238-6.873a1.527,1.527,0,1,0,1.527,1.527A1.527,1.527,0,0,0,402.4,618.078Zm15.148-1.187a1.527,1.527,0,1,0,1.527,1.527,1.527,1.527,0,0,0-1.527-1.527Zm-26.859-3.056a1.528,1.528,0,1,0,1.527,1.527A1.527,1.527,0,0,0,390.69,613.835Zm26.862-2.416a1.528,1.528,0,1,0,1.527,1.529A1.528,1.528,0,0,0,417.552,611.419Zm-42.137,0a1.528,1.528,0,1,0,1.527,1.529A1.528,1.528,0,0,0,375.415,611.419Zm-9.8,0a1.528,1.528,0,1,0,1.529,1.529,1.528,1.528,0,0,0-1.529-1.529Zm48.882-3.054a1.527,1.527,0,1,0,1.527,1.527,1.527,1.527,0,0,0-1.527-1.527Zm-6.238,0a1.527,1.527,0,1,0,1.529,1.527,1.527,1.527,0,0,0-1.529-1.527Zm17.486-3.483a1.528,1.528,0,1,0,1.527,1.527A1.527,1.527,0,0,0,425.741,604.881Zm-40.143-1.1a1.528,1.528,0,1,0,1.527,1.527A1.527,1.527,0,0,0,385.6,603.781Zm-13.238-2.545a1.527,1.527,0,1,0,1.527,1.527A1.528,1.528,0,0,0,372.36,601.237Zm33.86-3.056a1.528,1.528,0,1,0,1.527,1.527,1.527,1.527,0,0,0-1.527-1.527Zm-8.02,0a1.528,1.528,0,1,0,1.527,1.527,1.527,1.527,0,0,0-1.527-1.527Zm28.26-2.164a1.528,1.528,0,1,0,1.527,1.529,1.529,1.529,0,0,0-1.527-1.529h0Zm-21.766-3.437a1.527,1.527,0,1,0,1.527,1.527A1.527,1.527,0,0,0,404.694,592.58Zm-5.857-1.527a1.527,1.527,0,1,0,1.527,1.527A1.527,1.527,0,0,0,398.837,591.053Zm-14.766,0a1.527,1.527,0,1,0,1.527,1.527A1.528,1.528,0,0,0,384.071,591.053Zm-15.4-.255a1.527,1.527,0,1,0,1.527,1.527,1.527,1.527,0,0,0-1.527-1.527h0Zm-4.328-1.527a1.527,1.527,0,1,0,1.527,1.527h0a1.527,1.527,0,0,0-1.524-1.531h0ZM433.082,588a1.528,1.528,0,1,0,1.527,1.529A1.529,1.529,0,0,0,433.082,588Zm-65.939-1.785a1.528,1.528,0,1,0,1.527,1.529A1.529,1.529,0,0,0,367.143,586.211Zm25.712-.847a1.528,1.528,0,1,0,1.527,1.527,1.527,1.527,0,0,0-1.527-1.527h0Zm-17.822,0a1.528,1.528,0,1,0,1.529,1.527,1.527,1.527,0,0,0-1.529-1.527h0Z" transform="translate(-347.406 -576.795)" fill="#ccc"/>
    </g>
    <g id="Group_129" data-name="Group 129" transform="translate(237.954 3936.818)">
      <g id="bar" transform="translate(6.966 9.351)">
        <g id="Group_29" data-name="Group 29" transform="translate(0 0)">
          <rect id="Rectangle_28" data-name="Rectangle 28" width="8.983" height="20.124" transform="translate(0 18.688)" fill="#ccc"/>
          <rect id="Rectangle_29" data-name="Rectangle 29" width="8.982" height="16.055" transform="translate(35.411 22.756)" fill="#ccc"/>
          <rect id="Rectangle_30" data-name="Rectangle 30" width="8.982" height="26.952" transform="translate(23.607 11.859)" fill="#ccc"/>
          <rect id="Rectangle_31" data-name="Rectangle 31" width="8.983" height="38.811" transform="translate(11.803)" fill="#ccc"/>
        </g>
      </g>
      <path id="Path_22-3" data-name="Path 22" d="M425.791,673.363v48.7H482.8" transform="translate(-425.791 -673.363)" fill="none" stroke="#ccc" stroke-linecap="round" stroke-width="3"/>
    </g>
    <text id="Explore_the_data_on_your_own_to_see_which_cities_have_non-law_enforcement_based_urban_gun_violence_reduction_programs" data-name="Explore the data on your own to see which cities have non-law enforcement based urban gun violence reduction programs" transform="translate(86 3836)" fill="#464242" font-size="15" font-family="HKGrotesk-Regular, HK Grotesk"><tspan x="0" y="15">Explore the data on your own to see </tspan><tspan x="0" y="34">which cities have non-law enforcement </tspan><tspan x="0" y="53">based urban gun violence reduction </tspan><tspan x="0" y="72">programs</tspan></text>
    <g id="Group_83" data-name="Group 83">
      <path id="Path_48" data-name="Path 48" d="M0,0H414V36H0Z" fill="#727272"/>
      <text id="Section_3:_Case_Studies" data-name="Section 3: Case Studies" transform="translate(27 5)" fill="rgba(255,255,255,0.99)" font-size="20" font-family="HKGrotesk-Bold, HK Grotesk" font-weight="700"><tspan x="75.54" y="20">Section 3: Case Studies</tspan></text>
    </g>
  </g>
</svg>
