<svg xmlns="http://www.w3.org/2000/svg" xmlns:xlink="http://www.w3.org/1999/xlink" width="414" height="3562" viewBox="0 0 414 3562">
  <defs>
    <clipPath id="clip-path">
      <rect width="173.174" height="163.176" fill="none"/>
    </clipPath>
    <clipPath id="clip-Section_2">
      <rect width="414" height="3562"/>
    </clipPath>
  </defs>
  <g id="Section_2" data-name="Section 2" clip-path="url(#clip-Section_2)">
    <rect width="414" height="3562" fill="#fff"/>
    <g id="Group_91" data-name="Group 91">
      <rect id="Rectangle_45" data-name="Rectangle 45" width="346" height="494" rx="16" transform="translate(34 1886)" fill="#f5f5f5"/>
      <g id="Group_90" data-name="Group 90" transform="translate(-2 1719)">
        <rect id="Rectangle_46" data-name="Rectangle 46" width="346" height="41" transform="translate(36 167)" fill="#cecece"/>
        <text id="Component_4" data-name="Component 4" transform="translate(36 174)" fill="rgba(255,255,255,0.99)" font-size="20" font-family="HKGrotesk-Bold, HK Grotesk" font-weight="700"><tspan x="112.35" y="20">Component 4</tspan></text>
      </g>
    </g>
    <g id="Group_93" data-name="Group 93" transform="translate(0 573)">
      <rect id="Rectangle_45-2" data-name="Rectangle 45" width="346" height="494" rx="16" transform="translate(34 1886)" fill="#f5f5f5"/>
      <g id="Group_90-2" data-name="Group 90" transform="translate(-2 1719)">
        <rect id="Rectangle_46-2" data-name="Rectangle 46" width="346" height="41" transform="translate(36 167)" fill="#cecece"/>
        <text id="Component_5" data-name="Component 5" transform="translate(36 174)" fill="rgba(255,255,255,0.99)" font-size="20" font-family="HKGrotesk-Bold, HK Grotesk" font-weight="700"><tspan x="112.35" y="20">Component 5</tspan></text>
      </g>
    </g>
    <g id="Group_94" data-name="Group 94" transform="translate(0 1146)">
      <rect id="Rectangle_45-3" data-name="Rectangle 45" width="346" height="494" rx="16" transform="translate(34 1886)" fill="#f5f5f5"/>
      <g id="Group_90-3" data-name="Group 90" transform="translate(-2 1719)">
        <rect id="Rectangle_46-3" data-name="Rectangle 46" width="346" height="41" transform="translate(36 167)" fill="#cecece"/>
        <text id="Component_6" data-name="Component 6" transform="translate(36 174)" fill="rgba(255,255,255,0.99)" font-size="20" font-family="HKGrotesk-Bold, HK Grotesk" font-weight="700"><tspan x="112.35" y="20">Component 6</tspan></text>
      </g>
    </g>
    <g id="Group_92" data-name="Group 92">
      <rect id="Rectangle_44" data-name="Rectangle 44" width="346" height="494" rx="16" transform="translate(34 1313)" fill="#f5f5f5"/>
      <g id="Group_89" data-name="Group 89" transform="translate(-2 1146)">
        <rect id="Rectangle_46-4" data-name="Rectangle 46" width="346" height="41" transform="translate(36 167)" fill="#cecece"/>
        <text id="Component_3" data-name="Component 3" transform="translate(36 174)" fill="rgba(255,255,255,0.99)" font-size="20" font-family="HKGrotesk-Bold, HK Grotesk" font-weight="700"><tspan x="112.35" y="20">Component 3</tspan></text>
      </g>
    </g>
    <g id="Group_86" data-name="Group 86">
      <rect id="Rectangle_42" data-name="Rectangle 42" width="346" height="494" rx="16" transform="translate(36 167)" fill="#f5f5f5"/>
      <g id="Group_85" data-name="Group 85">
        <rect id="Rectangle_46-5" data-name="Rectangle 46" width="346" height="41" transform="translate(36 167)" fill="#cecece"/>
        <text id="Component_1" data-name="Component 1" transform="translate(36 174)" fill="rgba(255,255,255,0.99)" font-size="20" font-family="HKGrotesk-Bold, HK Grotesk" font-weight="700"><tspan x="112.35" y="20">Component 1</tspan></text>
      </g>
    </g>
    <rect id="Rectangle_43" data-name="Rectangle 43" width="346" height="494" rx="16" transform="translate(36 740)" fill="#f5f5f5"/>
    <text id="In_cities_like_John_s_across_the_US_the_traditional_violence_reduction_strategy_has_been_increased_policing_but_this_hasn_t_resulted_in_decreases_in_gun_violence_" data-name="In cities like John’s across the US, the traditional violence reduction strategy has been increased policing, but this hasn’t resulted in decreases in gun violence " transform="translate(83 248)" fill="#464242" font-size="20" font-family="HKGrotesk-SemiBold, HK Grotesk" font-weight="600"><tspan x="0" y="20">In cities like John’s across </tspan><tspan x="0" y="45">the US, the traditional </tspan><tspan x="0" y="70">violence reduction strategy </tspan><tspan x="0" y="95">has been increased </tspan><tspan x="0" y="120">policing, but this hasn’t </tspan><tspan x="0" y="145">resulted in decreases in </tspan><tspan x="0" y="170">gun violence </tspan></text>
    <text id="Why_hasn_t_policing_worked_" data-name="Why hasn’t policing worked?" transform="translate(36 86)" fill="#464242" font-size="25" font-family="HKGrotesk-Bold, HK Grotesk" font-weight="700"><tspan x="10.775" y="25">Why hasn’t policing worked?</tspan></text>
    <text id="This_tough_on_crime_approach_has_led_to_alarming_rates_of_incarceration_in_the_US_yet_many_homicides_also_go_unsolved_in_the_US" data-name="This tough on crime approach has led to alarming rates of incarceration in the US, yet many homicides also go unsolved in the US" transform="translate(80 823)" fill="#464242" font-size="20" font-family="HKGrotesk-SemiBold, HK Grotesk" font-weight="600"><tspan x="0" y="20">This tough on crime approach </tspan><tspan x="0" y="45">has led to alarming rates of </tspan><tspan x="0" y="70">incarceration in the US, yet </tspan><tspan x="0" y="95">many homicides also go </tspan><tspan x="0" y="120">unsolved in the US</tspan></text>
    <text id="Before_his_death_John_had_multiple_experiences_with_the_criminal_justice_system._This_is_true_of_the_majority_of_people_involved_in_urban_gun_violence._" data-name="Before his death, John had multiple experiences with the criminal justice system. This is true of the majority of people involved in urban gun violence.  " transform="translate(80 1397)" fill="#464242" font-size="20" font-family="HKGrotesk-SemiBold, HK Grotesk" font-weight="600"><tspan x="0" y="20">Before his death, John had </tspan><tspan x="0" y="45">multiple experiences with the </tspan><tspan x="0" y="70">criminal justice system. This </tspan><tspan x="0" y="95">is true of the majority of </tspan><tspan x="0" y="120">people involved in urban gun </tspan><tspan x="0" y="145" xml:space="preserve">violence.  </tspan></text>
    <text id="In_many_cities_the_number_of_people_most_likely_to_shoot_or_be_shot_with_a_gun_are_part_of_a_network_of_individuals_that_represent_very_small_percentage_of_the_population." data-name="In many cities, the number of people most likely to shoot or be shot with a gun are part of a network of individuals that represent very small percentage of the population." transform="translate(80 1572)" fill="#464242" font-size="15" font-family="HKGrotesk-Regular, HK Grotesk"><tspan x="0" y="15">In many cities, the number of people </tspan><tspan x="0" y="34">most likely to shoot or be shot with a </tspan><tspan x="0" y="53">gun are part of a network of individuals </tspan><tspan x="0" y="72">that represent very small percentage of </tspan><tspan x="0" y="91">the population.</tspan></text>
    <text id="This_research_has_prompted_urban_communities_in_cities_across_the_US_to_push_for_alternative_gun_violence_reduction_strategies_" data-name="This research has prompted urban communities in cities across the US to push for alternative gun violence reduction strategies " transform="translate(74 1967)" fill="#464242" font-size="20" font-family="HKGrotesk-SemiBold, HK Grotesk" font-weight="600"><tspan x="0" y="20">This research has prompted </tspan><tspan x="0" y="45">urban communities in cities </tspan><tspan x="0" y="70">across the US to push for </tspan><tspan x="0" y="95">alternative gun violence </tspan><tspan x="0" y="120">reduction strategies </tspan></text>
    <text id="These_alternative_gun_violence_reduction_strategies_show_promising_results" data-name="These alternative gun violence reduction strategies show promising results" transform="translate(74 2544)" fill="#464242" font-size="20" font-family="HKGrotesk-SemiBold, HK Grotesk" font-weight="600"><tspan x="0" y="20">These alternative gun violence </tspan><tspan x="0" y="45">reduction strategies show </tspan><tspan x="0" y="70">promising results</tspan></text>
    <text id="Describe_alternative_gun_reduction_strategies:_group_violence_interruption_cure_violence_hospital_based_violence_interruption_hybrid_programs" data-name="Describe alternative gun reduction strategies: group violence interruption, cure violence, hospital based violence interruption, hybrid programs" transform="translate(73 2121)" fill="#464242" font-size="15" font-family="HKGrotesk-Regular, HK Grotesk"><tspan x="0" y="15">Describe alternative gun reduction </tspan><tspan x="0" y="34">strategies: group violence interruption, </tspan><tspan x="0" y="53">cure violence, hospital based violence </tspan><tspan x="0" y="72">interruption, hybrid programs</tspan></text>
    <g id="Group_87" data-name="Group 87" transform="translate(0 573)">
      <rect id="Rectangle_46-6" data-name="Rectangle 46" width="346" height="41" transform="translate(36 167)" fill="#cecece"/>
      <text id="Component_2" data-name="Component 2" transform="translate(36 174)" fill="rgba(255,255,255,0.99)" font-size="20" font-family="HKGrotesk-Bold, HK Grotesk" font-weight="700"><tspan x="112.35" y="20">Component 2</tspan></text>
    </g>
    <text id="But_how_do_they_really_work_And_why_are_they_gaining_popularity_" data-name="But how do they really work? And why are they gaining popularity?" transform="translate(61 3101)" fill="#464242" font-size="20" font-family="HKGrotesk-SemiBold, HK Grotesk" font-weight="600"><tspan x="0" y="20">But how do they really work? </tspan><tspan x="0" y="45">And why are they gaining </tspan><tspan x="0" y="70">popularity?</tspan></text>
    <text id="Community_leadership_leading_with_love_meaningful_engagements_with_law_enforcement_trust_building_Misconceptions_etc._" data-name="Community leadership, leading with love, meaningful engagements with law enforcement, trust building 

Misconceptions etc. " transform="translate(61 3209)" fill="#464242" font-size="15" font-family="HKGrotesk-Regular, HK Grotesk"><tspan x="0" y="15">Community leadership, leading with </tspan><tspan x="0" y="34">love, meaningful engagements with </tspan><tspan x="0" y="53">law enforcement, trust building </tspan><tspan x="0" y="72"></tspan><tspan x="0" y="91">Misconceptions etc. </tspan></text>
    <g id="Group_95" data-name="Group 95">
      <text id="City_country" data-name="City | country" transform="translate(227 618)" fill="#464242" font-size="15" font-family="HKGrotesk-Bold, HK Grotesk" font-weight="700"><tspan x="0" y="15">CITY | COUNTRY</tspan></text>
      <text id="Line_graph" data-name="Line graph" transform="translate(74 618)" fill="#464242" font-size="15" font-family="HKGrotesk-Bold, HK Grotesk" font-weight="700"><tspan x="0" y="15">LINE GRAPH</tspan></text>
      <text id="Viz_Type" data-name="Viz Type" transform="translate(74 596)" fill="#464242" font-size="15" font-family="HKGrotesk-Regular, HK Grotesk"><tspan x="0" y="15">Viz Type</tspan></text>
      <text id="Viz_scale" data-name="Viz scale" transform="translate(227 596)" fill="#464242" font-size="15" font-family="HKGrotesk-Regular, HK Grotesk"><tspan x="0" y="15">Viz scale</tspan></text>
    </g>
    <g id="Group_96" data-name="Group 96" transform="translate(12 562)">
      <text id="Bar_chart_scatterplot" data-name="Bar chart | scatterplot" transform="translate(74 618)" fill="#464242" font-size="15" font-family="HKGrotesk-Bold, HK Grotesk" font-weight="700"><tspan x="0" y="15">BAR CHART | SCATTERPLOT</tspan></text>
      <text id="Viz_Type-2" data-name="Viz Type" transform="translate(74 596)" fill="#464242" font-size="15" font-family="HKGrotesk-Regular, HK Grotesk"><tspan x="0" y="15">Viz Type</tspan></text>
    </g>
    <g id="Group_97" data-name="Group 97" transform="translate(1 1142)">
      <text id="Illustration" transform="translate(74 618)" fill="#464242" font-size="15" font-family="HKGrotesk-Bold, HK Grotesk" font-weight="700"><tspan x="0" y="15">ILLUSTRATION</tspan></text>
      <text id="Viz_Type-3" data-name="Viz Type" transform="translate(74 596)" fill="#464242" font-size="15" font-family="HKGrotesk-Regular, HK Grotesk"><tspan x="0" y="15">Viz Type</tspan></text>
    </g>
    <path id="Path_1" data-name="Path 1" d="M0,222Z" fill="#fff" stroke="#707070" stroke-width="1"/>
    <g id="Group_107" data-name="Group 107" transform="translate(8646 8645.02)">
      <g id="line" transform="translate(-8538.966 -8168.537)">
        <path id="Path_10" data-name="Path 10" d="M524.944,752.928l12.614-25.091,11.762,20.432,11.753-21,8.672,11.323,15.344-35.125,12.258,22.939" transform="translate(-524.944 -703.467)" fill="none" stroke="#bcbcbc" stroke-linecap="round" stroke-linejoin="round" stroke-width="2"/>
      </g>
      <path id="Path_22" data-name="Path 22" d="M425.791,673.363v80.082h93.736" transform="translate(-8980.406 -8855.382)" fill="none" stroke="#747474" stroke-linecap="round" stroke-width="3"/>
      <line id="Line_24" data-name="Line 24" y1="50" x2="71" transform="translate(-8538.5 -8163.52)" fill="none" stroke="#707070" stroke-linecap="round" stroke-width="2"/>
    </g>
    <text id="Police_force_city_police_funding_vs._gun_homicide_rate_" data-name="Police force / city police funding vs. gun homicide rate " transform="translate(222 455)" fill="#464242" font-size="15" font-family="HKGrotesk-Regular, HK Grotesk"><tspan x="0" y="15">Police force / city </tspan><tspan x="0" y="34">police funding vs. </tspan><tspan x="0" y="53">gun homicide rate </tspan></text>
    <g id="Group_108" data-name="Group 108" transform="translate(7288 9671)">
      <text id="Interpolate" transform="translate(-7023 -8984)" font-size="15" font-family="HKGrotesk-BoldItalic, HK Grotesk" font-weight="700" font-style="italic"><tspan x="0" y="15">Interpolate</tspan></text>
    </g>
    <g id="Group_110" data-name="Group 110" transform="translate(8651.137 9318.546)">
      <g id="bar" transform="translate(-8544.809 -8328.169)">
        <g id="Group_29" data-name="Group 29" transform="translate(0 0)">
          <rect id="Rectangle_28" data-name="Rectangle 28" width="15.226" height="34.11" transform="translate(0 31.676)" fill="#ccc"/>
          <rect id="Rectangle_29" data-name="Rectangle 29" width="15.224" height="27.213" transform="translate(60.023 38.573)" fill="#ccc"/>
          <rect id="Rectangle_30" data-name="Rectangle 30" width="15.225" height="45.685" transform="translate(40.015 20.101)" fill="#ccc"/>
          <rect id="Rectangle_31" data-name="Rectangle 31" width="15.226" height="65.787" transform="translate(20.006)" fill="#ccc"/>
        </g>
      </g>
      <path id="Path_22-2" data-name="Path 22" d="M425.791,673.363v82.556h96.632" transform="translate(-8982.406 -9017.382)" fill="none" stroke="#ccc" stroke-linecap="round" stroke-width="3"/>
    </g>
    <g id="scatterplot" transform="translate(-381.406 280.895)">
      <g id="Group_5" data-name="Group 5" transform="translate(620.034 694.632)">
        <g id="Group_111" data-name="Group 111">
          <circle id="Ellipse_10" data-name="Ellipse 10" cx="2.622" cy="2.622" r="2.622" transform="translate(13.522 63.898)" fill="#ccc"/>
          <circle id="Ellipse_11" data-name="Ellipse 11" cx="2.622" cy="2.622" r="2.622" transform="translate(18.83 51.513)" fill="#ccc"/>
          <circle id="Ellipse_12" data-name="Ellipse 12" cx="2.622" cy="2.622" r="2.622" transform="translate(32.767 65.209)" fill="#ccc"/>
          <circle id="Ellipse_13" data-name="Ellipse 13" cx="2.622" cy="2.622" r="2.622" transform="translate(35.716 43.779)" fill="#ccc"/>
          <circle id="Ellipse_14" data-name="Ellipse 14" cx="2.621" cy="2.621" r="2.621" transform="translate(45.942 53.413)" fill="#ccc"/>
          <path id="Path_6" data-name="Path 6" d="M660.786,727.561a2.622,2.622,0,1,1-2.623-2.623A2.622,2.622,0,0,1,660.786,727.561Z" transform="translate(-583.06 -663.074)" fill="#ccc"/>
          <circle id="Ellipse_15" data-name="Ellipse 15" cx="2.622" cy="2.622" r="2.622" transform="translate(46.334 28.049)" fill="#ccc"/>
          <circle id="Ellipse_16" data-name="Ellipse 16" cx="2.622" cy="2.622" r="2.622" transform="translate(28.441 22.349)" fill="#ccc"/>
          <circle id="Ellipse_17" data-name="Ellipse 17" cx="2.622" cy="2.622" r="2.622" transform="translate(56.559 37.683)" fill="#ccc"/>
          <circle id="Ellipse_18" data-name="Ellipse 18" cx="2.622" cy="2.622" r="2.622" transform="translate(47.514 37.29)" fill="#ccc"/>
          <circle id="Ellipse_19" data-name="Ellipse 19" cx="2.622" cy="2.622" r="2.622" transform="translate(27.066 37.683)" fill="#ccc"/>
          <circle id="Ellipse_20" data-name="Ellipse 20" cx="2.622" cy="2.622" r="2.622" transform="translate(34.536 53.608)" fill="#ccc"/>
          <circle id="Ellipse_21" data-name="Ellipse 21" cx="2.622" cy="2.622" r="2.622" transform="translate(63.437 10.749)" fill="#ccc"/>
          <circle id="Ellipse_22" data-name="Ellipse 22" cx="2.622" cy="2.622" r="2.622" transform="translate(71.696 25.493)" fill="#ccc"/>
          <circle id="Ellipse_23" data-name="Ellipse 23" cx="2.622" cy="2.622" r="2.622" transform="translate(58.719 22.545)" fill="#ccc"/>
          <circle id="Ellipse_24" data-name="Ellipse 24" cx="2.622" cy="2.622" r="2.622" transform="translate(78.578 12.125)" fill="#ccc"/>
          <circle id="Ellipse_25" data-name="Ellipse 25" cx="2.622" cy="2.622" r="2.622" transform="translate(72.672 1.707)" fill="#ccc"/>
        </g>
        <path id="Path_7" data-name="Path 7" d="M620.034,694.632v81.791h88.08" transform="translate(-620.034 -694.632)" fill="none" stroke="#ccc" stroke-linecap="round" stroke-width="3"/>
      </g>
    </g>
    <text id="Incarceration_rates_-_comparison_of_us_an_other_countries_" data-name="Incarceration rates - comparison of us an other countries " transform="translate(86 1100)" fill="#464242" font-size="15" font-family="HKGrotesk-Regular, HK Grotesk"><tspan x="0" y="15">Incarceration rates - comparison </tspan><tspan x="0" y="34">of us an other countries </tspan></text>
    <g id="Group_112" data-name="Group 112" transform="translate(7278 11394)">
      <text id="Switch" transform="translate(-7010 -8984)" font-size="15" font-family="HKGrotesk-BoldItalic, HK Grotesk" font-weight="700" font-style="italic"><tspan x="0" y="15">Switch</tspan></text>
      <path id="Icon_awesome-exchange-alt" data-name="Icon awesome-exchange-alt" d="M0,15.294V13.672a2.433,2.433,0,0,1,2.433-2.433h36.5V6.372A2.435,2.435,0,0,1,43.09,4.651L51.2,12.763a2.434,2.434,0,0,1,0,3.441L43.09,24.316a2.435,2.435,0,0,1-4.154-1.721V17.728H2.433A2.433,2.433,0,0,1,0,15.294ZM49.481,30.706h-36.5V25.839a2.435,2.435,0,0,0-4.154-1.721L.713,32.23a2.434,2.434,0,0,0,0,3.441l8.112,8.112a2.435,2.435,0,0,0,4.154-1.721V37.2h36.5a2.433,2.433,0,0,0,2.433-2.433V33.14A2.433,2.433,0,0,0,49.481,30.706Z" transform="translate(-7091.757 -8997.217)" fill="#e6e6e6"/>
    </g>
    <text id="Data_source:_TBC_City_police_GVA_" data-name="Data source: TBC
City police, GVA
" transform="translate(222 528)" fill="#464242" font-size="10" font-family="HKGrotesk-LightLegacyItalic, HK Grotesk" font-weight="300" font-style="italic"><tspan x="0" y="9">Data source: TBC</tspan><tspan x="0" y="21">City police, GVA</tspan></text>
    <text id="Data_source:_TBC_" data-name="Data source: TBC

" transform="translate(91 1068)" fill="#464242" font-size="10" font-family="HKGrotesk-LightLegacyItalic, HK Grotesk" font-weight="300" font-style="italic"><tspan x="0" y="9">Data source: TBC</tspan></text>
    <path id="Icon_ionic-md-person" data-name="Icon ionic-md-person" d="M32,32A13.75,13.75,0,1,0,18.25,18.25,13.79,13.79,0,0,0,32,32Zm0,6.875c-9.109,0-27.5,4.641-27.5,13.75V59.5h55V52.625C59.5,43.516,41.109,38.875,32,38.875Z" transform="translate(267.5 1708.5)" fill="#d1d1d1"/>
    <g id="Group_113" data-name="Group 113" transform="translate(7287 10243)">
      <text id="Switch-2" data-name="Switch" transform="translate(-7010 -8984)" font-size="15" font-family="HKGrotesk-BoldItalic, HK Grotesk" font-weight="700" font-style="italic"><tspan x="0" y="15">Switch</tspan></text>
      <path id="Icon_awesome-exchange-alt-2" data-name="Icon awesome-exchange-alt" d="M0,15.294V13.672a2.433,2.433,0,0,1,2.433-2.433h36.5V6.372A2.435,2.435,0,0,1,43.09,4.651L51.2,12.763a2.434,2.434,0,0,1,0,3.441L43.09,24.316a2.435,2.435,0,0,1-4.154-1.721V17.728H2.433A2.433,2.433,0,0,1,0,15.294ZM49.481,30.706h-36.5V25.839a2.435,2.435,0,0,0-4.154-1.721L.713,32.23a2.434,2.434,0,0,0,0,3.441l8.112,8.112a2.435,2.435,0,0,0,4.154-1.721V37.2h36.5a2.433,2.433,0,0,0,2.433-2.433V33.14A2.433,2.433,0,0,0,49.481,30.706Z" transform="translate(-7091.757 -8997.217)" fill="#e6e6e6"/>
    </g>
    <g id="point_map" data-name="point map" transform="translate(-170.406 1649.734)">
      <path id="Exclusion_7" data-name="Exclusion 7" d="M395.147,637.5h0a5.218,5.218,0,0,1-2.242-.6,6.679,6.679,0,0,0-2.038-.657c-.053-.227-.1-.458-.146-.685-.275-1.354-.558-2.754-1.875-3.092a6.534,6.534,0,0,0-1.279-3.251,4.363,4.363,0,0,0-3-1.531,3.045,3.045,0,0,0-1.37,1.409c-.124.2-.254.412-.395.6-2.242-.324-2.623-1.9-2.9-3.054-.041-.168-.079-.324-.12-.474a3.411,3.411,0,0,0-1.339-1.658,4.548,4.548,0,0,1-1.684-2.12,1.913,1.913,0,0,1-.778.144,6.893,6.893,0,0,1-1.471-.237c-.256-.058-.52-.12-.772-.161a.843.843,0,0,0-.235-.038c-.278,0-.357.2-.434.4-.067.173-.136.35-.338.393-.457.043-.906.065-1.337.065a12.8,12.8,0,0,1-7.231-2.446,18.056,18.056,0,0,0-3.771-1.907.908.908,0,0,0-.125-.7,1.172,1.172,0,0,1-.13-.306c-.64-.05-1.174-.058-1.645-.065a7.647,7.647,0,0,1-2.887-.434c.017-3.083-1.964-4.185-4.259-5.461-.336-.187-.687-.381-1.032-.585a20.957,20.957,0,0,0-1.217-6.017,16.283,16.283,0,0,1-1.052-7.587c-1.1-.961-.556-1.918.022-2.927.532-.932,1.083-1.893.23-2.863.47-1.169.994-2.2,1.5-3.2a18.323,18.323,0,0,0,2.53-10.648,2.646,2.646,0,0,1,1.171.4,2.557,2.557,0,0,0,1.324.405,2.86,2.86,0,0,0,.529-.05.443.443,0,0,0,.029-.355c-.05-.094-.166-.122-.281-.149s-.232-.055-.282-.149a.449.449,0,0,1,.031-.352.655.655,0,0,0,.153.017c.324,0,.336-.326.348-.633a1.3,1.3,0,0,1,.005-.143,23.187,23.187,0,0,1,4.2,1.109,18.561,18.561,0,0,0,5.437,1.226,6.145,6.145,0,0,0,.941-.07c.117.041.175.086.168.127-.012.074-.216.127-.386.127h-.031a109.994,109.994,0,0,0,26.685,3.253c2.3,0,4.592-.077,6.812-.225a1.787,1.787,0,0,0,1.952,1.478,2.679,2.679,0,0,0,1.066-.216,6.452,6.452,0,0,0,3.794,1.1c.472.041.958.086,1.493.153a11.007,11.007,0,0,1-.951.644,4.218,4.218,0,0,0-2.067,2.132c.141.187.273.278.409.278.185,0,.35-.175.527-.359l.041-.045a.987.987,0,0,1,.664-.4.565.565,0,0,1,.118.014c.077-.007.143-.008.2-.008.149,0,.23.021.254.064s-.019.13-.079.23a.763.763,0,0,0-.12.726,4.388,4.388,0,0,0,2.427-1.205,8.949,8.949,0,0,1,1.6-1.066c-.407.759.076,1.154.589,1.571a2.746,2.746,0,0,1,.676.7l.108-.036a11.077,11.077,0,0,1,3.215-.749,4.081,4.081,0,0,1,1.962.532,2.647,2.647,0,0,0,1.107,2.292,2.193,2.193,0,0,1,.661,3c.05.182.118.266.216.266a.621.621,0,0,0,.287-.132l.055-.034a.864.864,0,0,1,.448-.165.541.541,0,0,1,.252.063c1.124,1.471.628,2.611,0,4.055-.17.391-.347.8-.5,1.238a4.349,4.349,0,0,0,1.586.288,6.407,6.407,0,0,0,3.964-1.53,6.2,6.2,0,0,0,2.256-3.794h.167c1.682,0,2.692-.048,3.864-1.008a3.655,3.655,0,0,1,1.159-3.533,8.661,8.661,0,0,1,3.334-1.258,17.755,17.755,0,0,0,2.565-.745,5.785,5.785,0,0,0,1.186-3.054c.343-1.686.7-3.432,2.307-3.432a3.387,3.387,0,0,1,1.044.19,4.8,4.8,0,0,0,2.51,4.273,2.641,2.641,0,0,1-.985,1.48,2.459,2.459,0,0,0-1.025,1.794H443.5c-2.13,0-2.276,1.888-2.47,4.28-.014.168-.027.335-.041.506a2.415,2.415,0,0,0,1.191.445c.191,0,.3-.065.326-.2a1.641,1.641,0,0,1-.326,1.435,2.469,2.469,0,0,1-1.935,1.09h-.007a4.937,4.937,0,0,1-3.521,2.259,5.274,5.274,0,0,1-.268,3.348,5.26,5.26,0,0,0-.242,3.457,1.855,1.855,0,0,0-1.15,1.105c-.4,1.193.606,2.893,1.274,4.01.153.258.283.479.386.671a3.876,3.876,0,0,1-1.825,1.971,3.341,3.341,0,0,0-1.959,2.819,2.98,2.98,0,0,0-2.008.759,4.823,4.823,0,0,1-3.028,3.778,11.378,11.378,0,0,1-.388,1.723,6.673,6.673,0,0,0-.369,2.808,6.281,6.281,0,0,0,1.341,2.766,6.772,6.772,0,0,1,1.427,3.025,6.882,6.882,0,0,1,1.761,6.048h-.057a.822.822,0,0,0-.424.127.823.823,0,0,1-.422.129.773.773,0,0,1-.108-.005l-.395-.3h0c-2.493-1.911-5.081-3.886-4.889-7.752a3.315,3.315,0,0,1-1.341-1.068,2.808,2.808,0,0,0-1.933-1.193,1.7,1.7,0,0,0-1.023.634,1.712,1.712,0,0,1-.992.628,2.639,2.639,0,0,0-2.481-1.463,10.418,10.418,0,0,0-2.329.381l-.065.015a11.2,11.2,0,0,1-2.522.4,4.217,4.217,0,0,1-.915-.1,3.4,3.4,0,0,0-.256,2.522,5.789,5.789,0,0,1-2.1.481,4.8,4.8,0,0,1-1.545-.309l-.177-.057a6.677,6.677,0,0,0-2.225-.367h-.245a4.266,4.266,0,0,0-2.168-.637c-1.581,0-2.963,1.025-4.3,2.017A9.947,9.947,0,0,1,395.4,632.2a5.224,5.224,0,0,0-.249,5.291Zm-3.293-9.445a1.627,1.627,0,1,0,1.626,1.627A1.626,1.626,0,0,0,391.855,628.056Zm14.092-7.316a1.626,1.626,0,1,0,1.626,1.626A1.626,1.626,0,0,0,405.947,620.74Zm16.125-1.263A1.626,1.626,0,1,0,423.7,621.1a1.626,1.626,0,0,0-1.626-1.626Zm-28.591-3.253a1.627,1.627,0,1,0,1.626,1.626A1.626,1.626,0,0,0,393.48,616.223Zm28.594-2.571a1.626,1.626,0,1,0,1.626,1.627A1.626,1.626,0,0,0,422.075,613.652Zm-44.854,0a1.626,1.626,0,1,0,1.626,1.627A1.626,1.626,0,0,0,377.22,613.652Zm-10.435,0a1.626,1.626,0,1,0,1.627,1.627,1.626,1.626,0,0,0-1.627-1.627Zm52.033-3.251a1.626,1.626,0,1,0,1.626,1.626,1.626,1.626,0,0,0-1.626-1.626Zm-6.64,0a1.626,1.626,0,1,0,1.627,1.626,1.626,1.626,0,0,0-1.627-1.626Zm18.614-3.708a1.627,1.627,0,1,0,1.626,1.626A1.626,1.626,0,0,0,430.792,606.692Zm-42.731-1.171a1.627,1.627,0,1,0,1.626,1.626A1.626,1.626,0,0,0,388.061,605.521Zm-14.092-2.709a1.626,1.626,0,1,0,1.626,1.626A1.626,1.626,0,0,0,373.969,602.813Zm36.043-3.253a1.626,1.626,0,1,0,1.626,1.626,1.626,1.626,0,0,0-1.626-1.626Zm-8.537,0a1.626,1.626,0,1,0,1.626,1.626,1.626,1.626,0,0,0-1.626-1.626Zm30.082-2.3a1.627,1.627,0,1,0,1.626,1.627,1.627,1.627,0,0,0-1.626-1.627h0Zm-23.17-3.658a1.626,1.626,0,1,0,1.626,1.626A1.626,1.626,0,0,0,408.388,593.6Zm-6.235-1.626a1.626,1.626,0,1,0,1.626,1.626A1.626,1.626,0,0,0,402.153,591.972Zm-15.718,0a1.626,1.626,0,1,0,1.626,1.626A1.626,1.626,0,0,0,386.435,591.972Zm-16.4-.271a1.626,1.626,0,1,0,1.626,1.626,1.626,1.626,0,0,0-1.626-1.626h0Zm-4.607-1.626a1.626,1.626,0,1,0,1.626,1.626h0a1.626,1.626,0,0,0-1.622-1.629h0Zm73.174-1.356a1.627,1.627,0,1,0,1.626,1.627A1.627,1.627,0,0,0,438.606,588.719Zm-70.19-1.9a1.627,1.627,0,1,0,1.626,1.627A1.628,1.628,0,0,0,368.416,586.819Zm27.37-.9a1.627,1.627,0,1,0,1.626,1.626,1.626,1.626,0,0,0-1.626-1.626h0Zm-18.971,0a1.627,1.627,0,1,0,1.627,1.626,1.626,1.626,0,0,0-1.627-1.626h0Z" transform="translate(0 0)" fill="#ccc"/>
    </g>
    <g id="Group_97-2" data-name="Group 97" transform="translate(5 1709)">
      <text id="Country" transform="translate(268 618)" fill="#464242" font-size="15" font-family="HKGrotesk-Bold, HK Grotesk" font-weight="700"><tspan x="0" y="15">COUNTRY</tspan></text>
      <text id="Point_Map-2" data-name="Point Map" transform="translate(74 618)" fill="#464242" font-size="15" font-family="HKGrotesk-Bold, HK Grotesk" font-weight="700"><tspan x="0" y="15">POINT MAP</tspan></text>
      <text id="Viz_Type-4" data-name="Viz Type" transform="translate(74 596)" fill="#464242" font-size="15" font-family="HKGrotesk-Regular, HK Grotesk"><tspan x="0" y="15">Viz Type</tspan></text>
      <text id="Map_scale" data-name="Map scale" transform="translate(268 596)" fill="#464242" font-size="15" font-family="HKGrotesk-Regular, HK Grotesk"><tspan x="0" y="15">Map scale</tspan></text>
    </g>
    <text id="Map_of_city_programs" data-name="Map of city programs" transform="translate(79 2227)" fill="#464242" font-size="15" font-family="HKGrotesk-Regular, HK Grotesk"><tspan x="0" y="15">Map of city </tspan><tspan x="0" y="34">programs</tspan></text>
    <text id="Data_source:_TBC_2" data-name="Data source: TBC

" transform="translate(79 2273)" fill="#464242" font-size="10" font-family="HKGrotesk-LightLegacyItalic, HK Grotesk" font-weight="300" font-style="italic"><tspan x="0" y="9">Data source: TBC</tspan></text>
    <path id="Icon_metro-move-down" data-name="Icon metro-move-down" d="M44.517,36.816V14.988H40.879V36.816h-9.1L42.7,47.73,53.612,36.816ZM19.051,11.35V22.264H8.137V11.35H19.051Zm3.638-3.638H4.5V25.9h18.19V7.712ZM4.5,33.178H9.956v3.638H4.5Zm7.276,0h5.457v3.638H11.775Zm7.276,0h3.638v5.457H19.051ZM4.5,45.911H8.137v5.457H4.5ZM9.956,47.73h5.457v3.638H9.956V47.73Zm7.276,0h5.457v3.638H17.232ZM4.5,38.635H8.137v5.457H4.5Zm14.552,1.819h3.638v5.457H19.051Z" transform="translate(186.622 670.007)" fill="#e6e6e6"/>
    <g id="Group_114" data-name="Group 114" transform="translate(-5 2288)">
      <text id="City_country-2" data-name="City | country" transform="translate(227 618)" fill="#464242" font-size="15" font-family="HKGrotesk-Bold, HK Grotesk" font-weight="700"><tspan x="0" y="15">CITY | COUNTRY</tspan></text>
      <text id="Line_graph-2" data-name="Line graph" transform="translate(74 618)" fill="#464242" font-size="15" font-family="HKGrotesk-Bold, HK Grotesk" font-weight="700"><tspan x="0" y="15">LINE GRAPH</tspan></text>
      <text id="Viz_Type-5" data-name="Viz Type" transform="translate(74 596)" fill="#464242" font-size="15" font-family="HKGrotesk-Regular, HK Grotesk"><tspan x="0" y="15">Viz Type</tspan></text>
      <text id="Viz_scale-2" data-name="Viz scale" transform="translate(227 596)" fill="#464242" font-size="15" font-family="HKGrotesk-Regular, HK Grotesk"><tspan x="0" y="15">Viz scale</tspan></text>
    </g>
    <g id="Repeat_Grid_2" data-name="Repeat Grid 2" transform="translate(78.885 2675.501)" clip-path="url(#clip-path)">
      <g id="Group_115" data-name="Group 115" transform="translate(8556.115 8183.519)">
        <g id="line-2" data-name="line" transform="translate(-8547.741 -8176.097)">
          <path id="Path_10-2" data-name="Path 10" d="M524.944,725.193l5.541-11.021,5.166,8.975,5.163-9.224,3.809,4.974,6.74-15.429,5.384,10.076" transform="translate(-524.944 -703.467)" fill="none" stroke="#bcbcbc" stroke-linecap="round" stroke-linejoin="round" stroke-width="2"/>
        </g>
        <path id="Path_22-3" data-name="Path 22" d="M425.791,673.363v35.176h41.174" transform="translate(-8980.406 -8855.382)" fill="none" stroke="#747474" stroke-linecap="round" stroke-width="3"/>
        <line id="Line_24-2" data-name="Line 24" y1="21.963" x2="31.187" transform="translate(-8547.536 -8173.893)" fill="none" stroke="#707070" stroke-linecap="round" stroke-width="2"/>
      </g>
      <g id="Group_115-2" data-name="Group 115" transform="translate(8614.115 8183.519)">
        <g id="line-3" data-name="line" transform="translate(-8547.741 -8176.097)">
          <path id="Path_10-3" data-name="Path 10" d="M524.944,725.193l5.541-11.021,5.166,8.975,5.163-9.224,3.809,4.974,6.74-15.429,5.384,10.076" transform="translate(-524.944 -703.467)" fill="none" stroke="#bcbcbc" stroke-linecap="round" stroke-linejoin="round" stroke-width="2"/>
        </g>
        <path id="Path_22-4" data-name="Path 22" d="M425.791,673.363v35.176h41.174" transform="translate(-8980.406 -8855.382)" fill="none" stroke="#747474" stroke-linecap="round" stroke-width="3"/>
        <line id="Line_24-3" data-name="Line 24" y1="21.963" x2="31.187" transform="translate(-8547.536 -8173.893)" fill="none" stroke="#707070" stroke-linecap="round" stroke-width="2"/>
      </g>
      <g id="Group_115-3" data-name="Group 115" transform="translate(8672.115 8183.519)">
        <g id="line-4" data-name="line" transform="translate(-8547.741 -8176.097)">
          <path id="Path_10-4" data-name="Path 10" d="M524.944,725.193l5.541-11.021,5.166,8.975,5.163-9.224,3.809,4.974,6.74-15.429,5.384,10.076" transform="translate(-524.944 -703.467)" fill="none" stroke="#bcbcbc" stroke-linecap="round" stroke-linejoin="round" stroke-width="2"/>
        </g>
        <path id="Path_22-5" data-name="Path 22" d="M425.791,673.363v35.176h41.174" transform="translate(-8980.406 -8855.382)" fill="none" stroke="#747474" stroke-linecap="round" stroke-width="3"/>
        <line id="Line_24-4" data-name="Line 24" y1="21.963" x2="31.187" transform="translate(-8547.536 -8173.893)" fill="none" stroke="#707070" stroke-linecap="round" stroke-width="2"/>
      </g>
      <g id="Group_115-4" data-name="Group 115" transform="translate(8556.115 8242.519)">
        <g id="line-5" data-name="line" transform="translate(-8547.741 -8176.097)">
          <path id="Path_10-5" data-name="Path 10" d="M524.944,725.193l5.541-11.021,5.166,8.975,5.163-9.224,3.809,4.974,6.74-15.429,5.384,10.076" transform="translate(-524.944 -703.467)" fill="none" stroke="#bcbcbc" stroke-linecap="round" stroke-linejoin="round" stroke-width="2"/>
        </g>
        <path id="Path_22-6" data-name="Path 22" d="M425.791,673.363v35.176h41.174" transform="translate(-8980.406 -8855.382)" fill="none" stroke="#747474" stroke-linecap="round" stroke-width="3"/>
        <line id="Line_24-5" data-name="Line 24" y1="21.963" x2="31.187" transform="translate(-8547.536 -8173.893)" fill="none" stroke="#707070" stroke-linecap="round" stroke-width="2"/>
      </g>
      <g id="Group_115-5" data-name="Group 115" transform="translate(8614.115 8242.519)">
        <g id="line-6" data-name="line" transform="translate(-8547.741 -8176.097)">
          <path id="Path_10-6" data-name="Path 10" d="M524.944,725.193l5.541-11.021,5.166,8.975,5.163-9.224,3.809,4.974,6.74-15.429,5.384,10.076" transform="translate(-524.944 -703.467)" fill="none" stroke="#bcbcbc" stroke-linecap="round" stroke-linejoin="round" stroke-width="2"/>
        </g>
        <path id="Path_22-7" data-name="Path 22" d="M425.791,673.363v35.176h41.174" transform="translate(-8980.406 -8855.382)" fill="none" stroke="#747474" stroke-linecap="round" stroke-width="3"/>
        <line id="Line_24-6" data-name="Line 24" y1="21.963" x2="31.187" transform="translate(-8547.536 -8173.893)" fill="none" stroke="#707070" stroke-linecap="round" stroke-width="2"/>
      </g>
      <g id="Group_115-6" data-name="Group 115" transform="translate(8672.115 8242.519)">
        <g id="line-7" data-name="line" transform="translate(-8547.741 -8176.097)">
          <path id="Path_10-7" data-name="Path 10" d="M524.944,725.193l5.541-11.021,5.166,8.975,5.163-9.224,3.809,4.974,6.74-15.429,5.384,10.076" transform="translate(-524.944 -703.467)" fill="none" stroke="#bcbcbc" stroke-linecap="round" stroke-linejoin="round" stroke-width="2"/>
        </g>
        <path id="Path_22-8" data-name="Path 22" d="M425.791,673.363v35.176h41.174" transform="translate(-8980.406 -8855.382)" fill="none" stroke="#747474" stroke-linecap="round" stroke-width="3"/>
        <line id="Line_24-7" data-name="Line 24" y1="21.963" x2="31.187" transform="translate(-8547.536 -8173.893)" fill="none" stroke="#707070" stroke-linecap="round" stroke-width="2"/>
      </g>
      <g id="Group_115-7" data-name="Group 115" transform="translate(8556.115 8301.519)">
        <g id="line-8" data-name="line" transform="translate(-8547.741 -8176.097)">
          <path id="Path_10-8" data-name="Path 10" d="M524.944,725.193l5.541-11.021,5.166,8.975,5.163-9.224,3.809,4.974,6.74-15.429,5.384,10.076" transform="translate(-524.944 -703.467)" fill="none" stroke="#bcbcbc" stroke-linecap="round" stroke-linejoin="round" stroke-width="2"/>
        </g>
        <path id="Path_22-9" data-name="Path 22" d="M425.791,673.363v35.176h41.174" transform="translate(-8980.406 -8855.382)" fill="none" stroke="#747474" stroke-linecap="round" stroke-width="3"/>
        <line id="Line_24-8" data-name="Line 24" y1="21.963" x2="31.187" transform="translate(-8547.536 -8173.893)" fill="none" stroke="#707070" stroke-linecap="round" stroke-width="2"/>
      </g>
      <g id="Group_115-8" data-name="Group 115" transform="translate(8614.115 8301.519)">
        <g id="line-9" data-name="line" transform="translate(-8547.741 -8176.097)">
          <path id="Path_10-9" data-name="Path 10" d="M524.944,725.193l5.541-11.021,5.166,8.975,5.163-9.224,3.809,4.974,6.74-15.429,5.384,10.076" transform="translate(-524.944 -703.467)" fill="none" stroke="#bcbcbc" stroke-linecap="round" stroke-linejoin="round" stroke-width="2"/>
        </g>
        <path id="Path_22-10" data-name="Path 22" d="M425.791,673.363v35.176h41.174" transform="translate(-8980.406 -8855.382)" fill="none" stroke="#747474" stroke-linecap="round" stroke-width="3"/>
        <line id="Line_24-9" data-name="Line 24" y1="21.963" x2="31.187" transform="translate(-8547.536 -8173.893)" fill="none" stroke="#707070" stroke-linecap="round" stroke-width="2"/>
      </g>
      <g id="Group_115-9" data-name="Group 115" transform="translate(8672.115 8301.519)">
        <g id="line-10" data-name="line" transform="translate(-8547.741 -8176.097)">
          <path id="Path_10-10" data-name="Path 10" d="M524.944,725.193l5.541-11.021,5.166,8.975,5.163-9.224,3.809,4.974,6.74-15.429,5.384,10.076" transform="translate(-524.944 -703.467)" fill="none" stroke="#bcbcbc" stroke-linecap="round" stroke-linejoin="round" stroke-width="2"/>
        </g>
        <path id="Path_22-11" data-name="Path 22" d="M425.791,673.363v35.176h41.174" transform="translate(-8980.406 -8855.382)" fill="none" stroke="#747474" stroke-linecap="round" stroke-width="3"/>
        <line id="Line_24-10" data-name="Line 24" y1="21.963" x2="31.187" transform="translate(-8547.536 -8173.893)" fill="none" stroke="#707070" stroke-linecap="round" stroke-width="2"/>
      </g>
    </g>
    <text id="Gun_homicide_rates_small_multiples_" data-name="Gun homicide rates small multiples " transform="translate(271 2740)" fill="#464242" font-size="15" font-family="HKGrotesk-Regular, HK Grotesk"><tspan x="0" y="15">Gun </tspan><tspan x="0" y="34">homicide </tspan><tspan x="0" y="53">rates small </tspan><tspan x="0" y="72">multiples </tspan></text>
    <text id="Data_source:_GVA_" data-name="Data source: GVA
" transform="translate(271 2823)" fill="#464242" font-size="10" font-family="HKGrotesk-LightLegacyItalic, HK Grotesk" font-weight="300" font-style="italic"><tspan x="0" y="9">Data source: GVA</tspan><tspan x="0" y="21"></tspan></text>
    <g id="Group_116" data-name="Group 116" transform="translate(-13 2859)">
      <text id="Illustration-2" data-name="Illustration" transform="translate(74 618)" fill="#464242" font-size="15" font-family="HKGrotesk-Bold, HK Grotesk" font-weight="700"><tspan x="0" y="15">ILLUSTRATION</tspan></text>
      <text id="Viz_Type-6" data-name="Viz Type" transform="translate(74 596)" fill="#464242" font-size="15" font-family="HKGrotesk-Regular, HK Grotesk"><tspan x="0" y="15">Viz Type</tspan></text>
    </g>
    <path id="Icon_ionic-md-person-2" data-name="Icon ionic-md-person" d="M23.19,23.19a9.345,9.345,0,1,0-9.345-9.345A9.372,9.372,0,0,0,23.19,23.19Zm0,4.673C17,27.863,4.5,31.017,4.5,37.208v4.673H41.881V37.208C41.881,31.017,29.381,27.863,23.19,27.863Z" transform="translate(255.881 3450.119)" fill="#d1d1d1"/>
    <path id="Icon_ionic-md-person-3" data-name="Icon ionic-md-person" d="M23.19,23.19a9.345,9.345,0,1,0-9.345-9.345A9.372,9.372,0,0,0,23.19,23.19Zm0,4.673C17,27.863,4.5,31.017,4.5,37.208v4.673H41.881V37.208C41.881,31.017,29.381,27.863,23.19,27.863Z" transform="translate(218.5 3435.167)" fill="#d1d1d1"/>
    <path id="Icon_ionic-md-person-4" data-name="Icon ionic-md-person" d="M23.19,23.19a9.345,9.345,0,1,0-9.345-9.345A9.372,9.372,0,0,0,23.19,23.19Zm0,4.673C17,27.863,4.5,31.017,4.5,37.208v4.673H41.881V37.208C41.881,31.017,29.381,27.863,23.19,27.863Z" transform="translate(289.184 3427.011)" fill="#d1d1d1"/>
    <g id="Group_83" data-name="Group 83">
      <path id="Path_48" data-name="Path 48" d="M0,0H414V36H0Z" fill="#727272"/>
      <text id="Section_2:_Violence_Reduction" data-name="Section 2: Violence Reduction" transform="translate(20 5)" fill="rgba(255,255,255,0.99)" font-size="20" font-family="HKGrotesk-Bold, HK Grotesk" font-weight="700"><tspan x="46.95" y="20">Section 2: Violence Reduction</tspan></text>
    </g>
    <g id="Group_118" data-name="Group 118" transform="translate(7283 11968)">
      <text id="Interpolate-2" data-name="Interpolate" transform="translate(-7023 -8984)" font-size="15" font-family="HKGrotesk-BoldItalic, HK Grotesk" font-weight="700" font-style="italic"><tspan x="0" y="15">Interpolate</tspan></text>
    </g>
    <path id="Icon_metro-move-down-2" data-name="Icon metro-move-down" d="M44.517,36.816V14.988H40.879V36.816h-9.1L42.7,47.73,53.612,36.816ZM19.051,11.35V22.264H8.137V11.35H19.051Zm3.638-3.638H4.5V25.9h18.19V7.712ZM4.5,33.178H9.956v3.638H4.5Zm7.276,0h5.457v3.638H11.775Zm7.276,0h3.638v5.457H19.051ZM4.5,45.911H8.137v5.457H4.5ZM9.956,47.73h5.457v3.638H9.956V47.73Zm7.276,0h5.457v3.638H17.232ZM4.5,38.635H8.137v5.457H4.5Zm14.552,1.819h3.638v5.457H19.051Z" transform="translate(181.623 2967.007)" fill="#e6e6e6"/>
  </g>
</svg>
