<svg xmlns="http://www.w3.org/2000/svg" xmlns:xlink="http://www.w3.org/1999/xlink" width="414" height="4130" viewBox="0 0 414 4130">
  <defs>
    <clipPath id="clip-Section_1">
      <rect width="414" height="4130"/>
    </clipPath>
  </defs>
  <g id="Section_1" data-name="Section 1" clip-path="url(#clip-Section_1)">
    <rect width="414" height="4130" fill="#fff"/>
    <g id="Group_91" data-name="Group 91">
      <rect id="Rectangle_45" data-name="Rectangle 45" width="346" height="494" rx="16" transform="translate(34 1886)" fill="#f5f5f5"/>
      <g id="Group_90" data-name="Group 90" transform="translate(-2 1719)">
        <rect id="Rectangle_46" data-name="Rectangle 46" width="346" height="41" transform="translate(36 167)" fill="#cecece"/>
        <text id="Component_4" data-name="Component 4" transform="translate(36 174)" fill="rgba(255,255,255,0.99)" font-size="20" font-family="HKGrotesk-Bold, HK Grotesk" font-weight="700"><tspan x="112.35" y="20">Component 4</tspan></text>
      </g>
    </g>
    <g id="Group_93" data-name="Group 93" transform="translate(0 573)">
      <rect id="Rectangle_45-2" data-name="Rectangle 45" width="346" height="494" rx="16" transform="translate(34 1886)" fill="#f5f5f5"/>
      <g id="Group_90-2" data-name="Group 90" transform="translate(-2 1719)">
        <rect id="Rectangle_46-2" data-name="Rectangle 46" width="346" height="41" transform="translate(36 167)" fill="#cecece"/>
        <text id="Component_5" data-name="Component 5" transform="translate(36 174)" fill="rgba(255,255,255,0.99)" font-size="20" font-family="HKGrotesk-Bold, HK Grotesk" font-weight="700"><tspan x="112.35" y="20">Component 5</tspan></text>
      </g>
    </g>
    <g id="Group_94" data-name="Group 94" transform="translate(0 1146)">
      <rect id="Rectangle_45-3" data-name="Rectangle 45" width="346" height="494" rx="16" transform="translate(34 1886)" fill="#f5f5f5"/>
      <g id="Group_90-3" data-name="Group 90" transform="translate(-2 1719)">
        <rect id="Rectangle_46-3" data-name="Rectangle 46" width="346" height="41" transform="translate(36 167)" fill="#cecece"/>
        <text id="Component_6" data-name="Component 6" transform="translate(36 174)" fill="rgba(255,255,255,0.99)" font-size="20" font-family="HKGrotesk-Bold, HK Grotesk" font-weight="700"><tspan x="112.35" y="20">Component 6</tspan></text>
      </g>
    </g>
    <g id="Group_101" data-name="Group 101" transform="translate(2 1716)">
      <rect id="Rectangle_45-4" data-name="Rectangle 45" width="346" height="494" rx="16" transform="translate(34 1886)" fill="#f5f5f5"/>
      <g id="Group_90-4" data-name="Group 90" transform="translate(-2 1719)">
        <rect id="Rectangle_46-4" data-name="Rectangle 46" width="346" height="41" transform="translate(36 167)" fill="#cecece"/>
        <text id="Component_7" data-name="Component 7" transform="translate(36 174)" fill="rgba(255,255,255,0.99)" font-size="20" font-family="HKGrotesk-Bold, HK Grotesk" font-weight="700"><tspan x="112.35" y="20">Component 7</tspan></text>
      </g>
    </g>
    <g id="Group_92" data-name="Group 92">
      <rect id="Rectangle_44" data-name="Rectangle 44" width="346" height="494" rx="16" transform="translate(34 1313)" fill="#f5f5f5"/>
      <g id="Group_89" data-name="Group 89" transform="translate(-2 1146)">
        <rect id="Rectangle_46-5" data-name="Rectangle 46" width="346" height="41" transform="translate(36 167)" fill="#cecece"/>
        <text id="Component_3" data-name="Component 3" transform="translate(36 174)" fill="rgba(255,255,255,0.99)" font-size="20" font-family="HKGrotesk-Bold, HK Grotesk" font-weight="700"><tspan x="112.35" y="20">Component 3</tspan></text>
      </g>
    </g>
    <g id="Group_86" data-name="Group 86">
      <rect id="Rectangle_42" data-name="Rectangle 42" width="346" height="494" rx="16" transform="translate(36 167)" fill="#f5f5f5"/>
      <g id="Group_85" data-name="Group 85">
        <rect id="Rectangle_46-6" data-name="Rectangle 46" width="346" height="41" transform="translate(36 167)" fill="#cecece"/>
        <text id="Component_1" data-name="Component 1" transform="translate(36 174)" fill="rgba(255,255,255,0.99)" font-size="20" font-family="HKGrotesk-Bold, HK Grotesk" font-weight="700"><tspan x="112.35" y="20">Component 1</tspan></text>
      </g>
    </g>
    <rect id="Rectangle_43" data-name="Rectangle 43" width="346" height="494" rx="16" transform="translate(36 740)" fill="#f5f5f5"/>
    <text id="On_the_evening_of_x_day_2019_John_Doe_was_killed_in_the_x_block_of_y_city._" data-name="On the evening of x day 2019, John Doe was killed in the x block of y city. " transform="translate(75 253)" fill="#464242" font-size="20" font-family="HKGrotesk-SemiBold, HK Grotesk" font-weight="600"><tspan x="0" y="20">On the evening of x day 2019, </tspan><tspan x="0" y="45">John Doe was killed in the x </tspan><tspan x="0" y="70">block of y city. </tspan></text>
    <circle id="Ellipse_133" data-name="Ellipse 133" cx="11" cy="11" r="11" transform="translate(183 434)" fill="#747474"/>
    <text id="Why_urban_gun_violence_" data-name="Why urban gun violence?" transform="translate(36 86)" fill="#464242" font-size="25" font-family="HKGrotesk-Bold, HK Grotesk" font-weight="700"><tspan x="30.375" y="25">Why urban gun violence?</tspan></text>
    <text id="Zoom_out" data-name="Zoom out" transform="translate(246 690)" font-size="15" font-family="HKGrotesk-BoldItalic, HK Grotesk" font-weight="700" font-style="italic"><tspan x="0" y="15">Zoom out</tspan></text>
    <text id="Zoom_out-2" data-name="Zoom out" transform="translate(239 1260)" font-size="15" font-family="HKGrotesk-BoldItalic, HK Grotesk" font-weight="700" font-style="italic"><tspan x="0" y="15">Zoom out</tspan></text>
    <text id="Zoom_out-3" data-name="Zoom out" transform="translate(237 1833)" font-size="15" font-family="HKGrotesk-BoldItalic, HK Grotesk" font-weight="700" font-style="italic"><tspan x="0" y="15">Zoom out</tspan></text>
    <text id="Zoom_in" data-name="Zoom in" transform="translate(249 2406)" font-size="15" font-family="HKGrotesk-BoldItalic, HK Grotesk" font-weight="700" font-style="italic"><tspan x="0" y="15">Zoom in</tspan></text>
    <text id="John_was_one_of_x_number_of_people_killed_by_a_gun_in_this_city_in_2019" data-name="John was one of x number of people killed by a gun in this city in 2019" transform="translate(95 823)" fill="#464242" font-size="20" font-family="HKGrotesk-SemiBold, HK Grotesk" font-weight="600"><tspan x="0" y="20">John was one of x number </tspan><tspan x="0" y="45">of people killed by a gun in </tspan><tspan x="0" y="70">this city in 2019</tspan></text>
    <g id="Group_88" data-name="Group 88" transform="translate(0 6)">
      <g id="Group_82" data-name="Group 82" transform="translate(102.583 944)">
        <g id="Group_80" data-name="Group 80">
          <path id="Path_41" data-name="Path 41" d="M7.146,0A7.146,7.146,0,1,1,0,7.146,7.146,7.146,0,0,1,7.146,0Z" transform="translate(30.172)" fill="rgba(160,160,160,0.32)"/>
          <path id="Path_41-2" data-name="Path 41" d="M7.146,0A7.146,7.146,0,1,1,0,7.146,7.146,7.146,0,0,1,7.146,0Z" transform="translate(60.344)" fill="rgba(160,160,160,0.32)"/>
          <path id="Path_41-3" data-name="Path 41" d="M7.146,0A7.146,7.146,0,1,1,0,7.146,7.146,7.146,0,0,1,7.146,0Z" transform="translate(90.516)" fill="rgba(160,160,160,0.32)"/>
          <path id="Path_41-4" data-name="Path 41" d="M7.146,0A7.146,7.146,0,1,1,0,7.146,7.146,7.146,0,0,1,7.146,0Z" transform="translate(120.687)" fill="rgba(160,160,160,0.32)"/>
          <path id="Path_41-5" data-name="Path 41" d="M7.146,0A7.146,7.146,0,1,1,0,7.146,7.146,7.146,0,0,1,7.146,0Z" transform="translate(0 30.172)" fill="rgba(160,160,160,0.32)"/>
          <path id="Path_41-6" data-name="Path 41" d="M7.146,0A7.146,7.146,0,1,1,0,7.146,7.146,7.146,0,0,1,7.146,0Z" transform="translate(30.172 30.172)" fill="rgba(160,160,160,0.32)"/>
          <path id="Path_41-7" data-name="Path 41" d="M7.146,0A7.146,7.146,0,1,1,0,7.146,7.146,7.146,0,0,1,7.146,0Z" transform="translate(60.344 30.172)" fill="rgba(160,160,160,0.32)"/>
          <path id="Path_41-8" data-name="Path 41" d="M7.146,0A7.146,7.146,0,1,1,0,7.146,7.146,7.146,0,0,1,7.146,0Z" transform="translate(90.516 30.172)" fill="rgba(160,160,160,0.32)"/>
          <path id="Path_41-9" data-name="Path 41" d="M7.146,0A7.146,7.146,0,1,1,0,7.146,7.146,7.146,0,0,1,7.146,0Z" transform="translate(120.687 30.172)" fill="rgba(160,160,160,0.32)"/>
          <path id="Path_41-10" data-name="Path 41" d="M7.146,0A7.146,7.146,0,1,1,0,7.146,7.146,7.146,0,0,1,7.146,0Z" transform="translate(150.859 30.172)" fill="rgba(160,160,160,0.32)"/>
          <path id="Path_41-11" data-name="Path 41" d="M7.146,0A7.146,7.146,0,1,1,0,7.146,7.146,7.146,0,0,1,7.146,0Z" transform="translate(0 60.344)" fill="rgba(160,160,160,0.32)"/>
          <path id="Path_41-12" data-name="Path 41" d="M7.146,0A7.146,7.146,0,1,1,0,7.146,7.146,7.146,0,0,1,7.146,0Z" transform="translate(30.172 60.344)" fill="rgba(160,160,160,0.32)"/>
          <path id="Path_41-13" data-name="Path 41" d="M7.146,0A7.146,7.146,0,1,1,0,7.146,7.146,7.146,0,0,1,7.146,0Z" transform="translate(60.344 60.344)" fill="rgba(160,160,160,0.32)"/>
          <path id="Path_41-14" data-name="Path 41" d="M7.146,0A7.146,7.146,0,1,1,0,7.146,7.146,7.146,0,0,1,7.146,0Z" transform="translate(90.516 60.344)" fill="rgba(160,160,160,0.32)"/>
          <path id="Path_41-15" data-name="Path 41" d="M7.146,0A7.146,7.146,0,1,1,0,7.146,7.146,7.146,0,0,1,7.146,0Z" transform="translate(120.687 60.344)" fill="rgba(160,160,160,0.32)"/>
          <path id="Path_41-16" data-name="Path 41" d="M7.146,0A7.146,7.146,0,1,1,0,7.146,7.146,7.146,0,0,1,7.146,0Z" transform="translate(150.859 60.344)" fill="rgba(160,160,160,0.32)"/>
          <path id="Path_41-17" data-name="Path 41" d="M7.146,0A7.146,7.146,0,1,1,0,7.146,7.146,7.146,0,0,1,7.146,0Z" transform="translate(0 90.516)" fill="rgba(160,160,160,0.32)"/>
          <path id="Path_41-18" data-name="Path 41" d="M7.146,0A7.146,7.146,0,1,1,0,7.146,7.146,7.146,0,0,1,7.146,0Z" transform="translate(30.172 90.516)" fill="rgba(160,160,160,0.32)"/>
          <path id="Path_41-19" data-name="Path 41" d="M7.146,0A7.146,7.146,0,1,1,0,7.146,7.146,7.146,0,0,1,7.146,0Z" transform="translate(60.344 90.516)" fill="#747474"/>
          <path id="Path_41-20" data-name="Path 41" d="M7.146,0A7.146,7.146,0,1,1,0,7.146,7.146,7.146,0,0,1,7.146,0Z" transform="translate(90.516 90.516)" fill="rgba(160,160,160,0.32)"/>
          <path id="Path_41-21" data-name="Path 41" d="M7.146,0A7.146,7.146,0,1,1,0,7.146,7.146,7.146,0,0,1,7.146,0Z" transform="translate(120.687 90.516)" fill="rgba(160,160,160,0.32)"/>
          <path id="Path_41-22" data-name="Path 41" d="M7.146,0A7.146,7.146,0,1,1,0,7.146,7.146,7.146,0,0,1,7.146,0Z" transform="translate(150.859 90.516)" fill="rgba(160,160,160,0.32)"/>
          <path id="Path_41-23" data-name="Path 41" d="M7.146,0A7.146,7.146,0,1,1,0,7.146,7.146,7.146,0,0,1,7.146,0Z" transform="translate(0 120.688)" fill="rgba(160,160,160,0.32)"/>
          <path id="Path_41-24" data-name="Path 41" d="M7.146,0A7.146,7.146,0,1,1,0,7.146,7.146,7.146,0,0,1,7.146,0Z" transform="translate(30.172 120.688)" fill="rgba(160,160,160,0.32)"/>
          <path id="Path_41-25" data-name="Path 41" d="M7.146,0A7.146,7.146,0,1,1,0,7.146,7.146,7.146,0,0,1,7.146,0Z" transform="translate(60.344 120.688)" fill="rgba(160,160,160,0.32)"/>
          <path id="Path_41-26" data-name="Path 41" d="M7.146,0A7.146,7.146,0,1,1,0,7.146,7.146,7.146,0,0,1,7.146,0Z" transform="translate(90.516 120.688)" fill="rgba(160,160,160,0.32)"/>
          <path id="Path_41-27" data-name="Path 41" d="M7.146,0A7.146,7.146,0,1,1,0,7.146,7.146,7.146,0,0,1,7.146,0Z" transform="translate(120.687 120.688)" fill="rgba(160,160,160,0.32)"/>
          <path id="Path_41-28" data-name="Path 41" d="M7.146,0A7.146,7.146,0,1,1,0,7.146,7.146,7.146,0,0,1,7.146,0Z" transform="translate(150.859 120.688)" fill="rgba(160,160,160,0.32)"/>
          <path id="Path_41-29" data-name="Path 41" d="M7.146,0A7.146,7.146,0,1,1,0,7.146,7.146,7.146,0,0,1,7.146,0Z" transform="translate(30.172 150.859)" fill="rgba(160,160,160,0.32)"/>
          <path id="Path_41-30" data-name="Path 41" d="M7.146,0A7.146,7.146,0,1,1,0,7.146,7.146,7.146,0,0,1,7.146,0Z" transform="translate(60.344 150.859)" fill="rgba(160,160,160,0.32)"/>
          <path id="Path_41-31" data-name="Path 41" d="M7.146,0A7.146,7.146,0,1,1,0,7.146,7.146,7.146,0,0,1,7.146,0Z" transform="translate(90.516 150.859)" fill="rgba(160,160,160,0.32)"/>
          <path id="Path_41-32" data-name="Path 41" d="M7.146,0A7.146,7.146,0,1,1,0,7.146,7.146,7.146,0,0,1,7.146,0Z" transform="translate(120.687 150.859)" fill="rgba(160,160,160,0.32)"/>
        </g>
      </g>
      <g id="Ellipse_134" data-name="Ellipse 134" transform="translate(77 918)" fill="none" stroke="#707070" stroke-width="1">
        <circle cx="108.5" cy="108.5" r="108.5" stroke="none"/>
        <circle cx="108.5" cy="108.5" r="108" fill="none"/>
      </g>
    </g>
    <g id="point_map" data-name="point map" transform="translate(-243.406 921.734)">
      <path id="Exclusion_7" data-name="Exclusion 7" d="M449.84,707.046h0a11.2,11.2,0,0,1-4.81-1.289,14.334,14.334,0,0,0-4.372-1.411c-.114-.486-.214-.983-.313-1.47-.589-2.906-1.2-5.908-4.022-6.634a14.018,14.018,0,0,0-2.744-6.976,9.36,9.36,0,0,0-6.435-3.285,6.533,6.533,0,0,0-2.939,3.024c-.265.434-.545.884-.847,1.293-4.81-.7-5.628-4.077-6.228-6.553-.088-.361-.169-.7-.258-1.016A7.319,7.319,0,0,0,414,679.171a9.758,9.758,0,0,1-3.613-4.549,4.108,4.108,0,0,1-1.668.309,14.788,14.788,0,0,1-3.157-.508c-.549-.125-1.116-.258-1.657-.346a1.808,1.808,0,0,0-.5-.081c-.6,0-.766.435-.932.858-.144.372-.291.751-.726.843-.98.092-1.945.14-2.869.14a27.466,27.466,0,0,1-15.514-5.249,38.737,38.737,0,0,0-8.092-4.092,1.948,1.948,0,0,0-.269-1.5,2.514,2.514,0,0,1-.28-.656c-1.374-.107-2.519-.125-3.529-.14a16.406,16.406,0,0,1-6.2-.932c.037-6.615-4.214-8.98-9.138-11.716-.722-.4-1.473-.818-2.214-1.256a44.965,44.965,0,0,0-2.611-12.91,34.939,34.939,0,0,1-2.258-16.28c-2.365-2.063-1.193-4.114.048-6.28,1.142-2,2.324-4.062.494-6.143,1.009-2.508,2.133-4.722,3.219-6.869a39.313,39.313,0,0,0,5.429-22.847,5.679,5.679,0,0,1,2.512.855,5.483,5.483,0,0,0,2.84.869,6.13,6.13,0,0,0,1.134-.107.951.951,0,0,0,.063-.762c-.107-.2-.357-.262-.6-.321s-.5-.118-.6-.32a.964.964,0,0,1,.066-.755,1.4,1.4,0,0,0,.328.037c.7,0,.722-.7.748-1.359a2.81,2.81,0,0,1,.011-.306,49.732,49.732,0,0,1,9.009,2.379,39.828,39.828,0,0,0,11.665,2.63,13.19,13.19,0,0,0,2.018-.151c.251.088.376.184.361.272-.026.158-.464.273-.829.273h-.066a236.007,236.007,0,0,0,57.256,6.98c4.935,0,9.853-.166,14.615-.482a3.834,3.834,0,0,0,4.188,3.171,5.749,5.749,0,0,0,2.287-.464,13.844,13.844,0,0,0,8.14,2.368c1.013.088,2.055.184,3.2.328a23.648,23.648,0,0,1-2.041,1.381,9.05,9.05,0,0,0-4.435,4.575c.3.4.586.6.877.6.4,0,.751-.376,1.131-.77l.089-.1a2.119,2.119,0,0,1,1.425-.862,1.216,1.216,0,0,1,.254.029c.166-.015.306-.018.424-.018.32,0,.494.044.545.136s-.041.28-.17.493a1.638,1.638,0,0,0-.258,1.558,9.415,9.415,0,0,0,5.208-2.586,19.2,19.2,0,0,1,3.425-2.287c-.873,1.628.162,2.475,1.263,3.37a5.89,5.89,0,0,1,1.451,1.5l.232-.077a23.767,23.767,0,0,1,6.9-1.606,8.755,8.755,0,0,1,4.21,1.142,5.68,5.68,0,0,0,2.376,4.917,4.706,4.706,0,0,1,1.418,6.427c.107.391.254.571.464.571a1.331,1.331,0,0,0,.615-.284l.118-.074a1.854,1.854,0,0,1,.961-.353,1.16,1.16,0,0,1,.541.136c2.413,3.157,1.348,5.6,0,8.7-.365.84-.744,1.709-1.079,2.656a9.331,9.331,0,0,0,3.4.619,13.748,13.748,0,0,0,8.5-3.282,13.3,13.3,0,0,0,4.84-8.14h.357c3.609,0,5.775-.1,8.291-2.162a7.842,7.842,0,0,1,2.486-7.58,18.586,18.586,0,0,1,7.153-2.7,38.085,38.085,0,0,0,5.5-1.6,12.412,12.412,0,0,0,2.545-6.553c.737-3.617,1.5-7.363,4.95-7.363a7.271,7.271,0,0,1,2.239.409,10.3,10.3,0,0,0,5.385,9.168,5.666,5.666,0,0,1-2.114,3.175,5.278,5.278,0,0,0-2.2,3.849h-.015c-4.571,0-4.884,4.052-5.3,9.182-.03.361-.059.718-.088,1.086a5.183,5.183,0,0,0,2.556.954c.409,0,.641-.14.7-.42a3.521,3.521,0,0,1-.7,3.079,5.3,5.3,0,0,1-4.151,2.339h-.015a10.593,10.593,0,0,1-7.554,4.847,11.315,11.315,0,0,1-.575,7.182,11.286,11.286,0,0,0-.519,7.418,3.98,3.98,0,0,0-2.468,2.372c-.862,2.56,1.3,6.206,2.733,8.6.328.553.608,1.028.829,1.44a8.316,8.316,0,0,1-3.915,4.228,7.169,7.169,0,0,0-4.2,6.048A6.394,6.394,0,0,0,526.6,661.1a10.349,10.349,0,0,1-6.5,8.107,24.424,24.424,0,0,1-.832,3.7,14.318,14.318,0,0,0-.792,6.026,13.478,13.478,0,0,0,2.877,5.934,14.532,14.532,0,0,1,3.061,6.49,14.766,14.766,0,0,1,3.779,12.976h-.122a1.764,1.764,0,0,0-.91.273,1.766,1.766,0,0,1-.906.276,1.688,1.688,0,0,1-.232-.011l-.847-.648h0c-5.348-4.1-10.9-8.339-10.49-16.633a7.113,7.113,0,0,1-2.877-2.291,6.025,6.025,0,0,0-4.147-2.56,3.637,3.637,0,0,0-2.2,1.359,3.672,3.672,0,0,1-2.129,1.348,5.662,5.662,0,0,0-5.322-3.138,22.354,22.354,0,0,0-5,.818l-.14.033a24.035,24.035,0,0,1-5.411.854,9.051,9.051,0,0,1-1.963-.225,7.305,7.305,0,0,0-.549,5.411,12.422,12.422,0,0,1-4.5,1.031,10.31,10.31,0,0,1-3.315-.663l-.379-.121a14.324,14.324,0,0,0-4.773-.788h-.527a9.152,9.152,0,0,0-4.652-1.366c-3.392,0-6.357,2.2-9.227,4.328a21.344,21.344,0,0,1-7.2,4.051,11.208,11.208,0,0,0-.534,11.352Zm-7.064-20.265a3.49,3.49,0,1,0,3.488,3.492A3.489,3.489,0,0,0,442.775,686.781Zm30.236-15.7a3.488,3.488,0,1,0,3.488,3.488A3.488,3.488,0,0,0,473.011,671.082Zm34.6-2.711a3.484,3.484,0,1,0,.007,0Zm-61.345-6.98a3.49,3.49,0,1,0,3.488,3.488A3.488,3.488,0,0,0,446.263,661.392Zm61.352-5.517a3.49,3.49,0,1,0,3.488,3.492A3.49,3.49,0,0,0,507.615,655.875Zm-96.24,0a3.49,3.49,0,1,0,3.488,3.492A3.489,3.489,0,0,0,411.375,655.875Zm-22.39,0a3.488,3.488,0,1,0,.007,0ZM500.628,648.9a3.484,3.484,0,1,0,.007,0Zm-14.247,0a3.488,3.488,0,1,0,.007,0Zm39.937-7.956a3.49,3.49,0,1,0,3.488,3.488A3.488,3.488,0,0,0,526.319,640.943Zm-91.683-2.512a3.49,3.49,0,1,0,3.488,3.488A3.488,3.488,0,0,0,434.635,638.43ZM404.4,632.618a3.488,3.488,0,1,0,3.488,3.488A3.489,3.489,0,0,0,404.4,632.618Zm77.333-6.979a3.49,3.49,0,1,0,3.488,3.488,3.488,3.488,0,0,0-3.488-3.488Zm-18.317,0a3.484,3.484,0,1,0,.007,0Zm64.545-4.943a2.468,2.468,0,1,0,.007-.007h0Zm-49.713-7.849a3.488,3.488,0,1,0,3.488,3.488A3.488,3.488,0,0,0,478.249,612.847Zm-13.377-3.488a3.488,3.488,0,1,0,3.488,3.488A3.488,3.488,0,0,0,464.871,609.359Zm-33.724,0a3.488,3.488,0,1,0,3.488,3.488A3.489,3.489,0,0,0,431.147,609.359Zm-35.179-.582a2.6,2.6,0,1,0,0-.007h0Zm-9.886-3.488a3.488,3.488,0,1,0,3.488,3.488h0a3.488,3.488,0,0,0-3.481-3.5h0Zm157-2.91a3.49,3.49,0,1,0,3.488,3.492A3.491,3.491,0,0,0,543.085,602.379Zm-150.6-4.078a3.49,3.49,0,1,0,3.488,3.492A3.492,3.492,0,0,0,392.484,598.3Zm58.726-1.934a3.49,3.49,0,1,0,3.488,3.488,3.488,3.488,0,0,0-3.488-3.488h0Zm-40.7,0A3.49,3.49,0,1,0,414,599.856a3.488,3.488,0,0,0-3.492-3.488h0Z" transform="translate(0 0)" fill="#ccc"/>
    </g>
    <text id="John_was_one_of_x_number_of_people_died_who_died_in_the_US_from_gun_violence_in_2019" data-name="John was one of x number of people died who died in the US from gun violence in 2019" transform="translate(80 1391)" fill="#464242" font-size="20" font-family="HKGrotesk-SemiBold, HK Grotesk" font-weight="600"><tspan x="0" y="20">John was one of x number of </tspan><tspan x="0" y="45">people died who died in the </tspan><tspan x="0" y="70">US from gun violence in 2019</tspan></text>
    <text id="That_s_x_deaths_per_100_000" data-name="That’s x deaths per 100,000" transform="translate(80 1680)" fill="#464242" font-size="20" font-family="HKGrotesk-SemiBold, HK Grotesk" font-weight="600"><tspan x="0" y="20">That’s x deaths per 100,000</tspan></text>
    <text id="Globally_the_US_ranks_x_in_terms_of_annual_gun_homicides" data-name="Globally, the US ranks x in terms of annual gun homicides" transform="translate(74 1967)" fill="#464242" font-size="20" font-family="HKGrotesk-SemiBold, HK Grotesk" font-weight="600"><tspan x="0" y="20">Globally, the US ranks x in </tspan><tspan x="0" y="45">terms of annual gun homicides</tspan></text>
    <g id="Group_84" data-name="Group 84" transform="translate(86.5 2066.5)">
      <path id="Path_44" data-name="Path 44" d="M11.983,9.284c.2-.176.406-.355.612-.529C12.389,8.929,12.186,9.108,11.983,9.284Z" transform="translate(12.916 8.939)" fill="#9f9f9f"/>
      <path id="Path_45" data-name="Path 45" d="M50.379,21.312c-.087-1.518-1.92-2.1-3.183-2.759.065-1.4.435-.295.348-1.641A2.184,2.184,0,0,0,46.433,17c-.98.435-.435.56-.435.717.045.75.982-.156-.022.77a1.986,1.986,0,0,1-1.089.279c-.676-.942-.632-1.413-1.94-1.449a6.6,6.6,0,0,0-1.415,2.252c-.435,1.292-.132.4-.087,1.8a.469.469,0,0,0,0,.176c-.022.837-.219-.158-.087.612,1.025-.21.241-.192,1-.437a11.709,11.709,0,0,1,3.554-.75C47.415,21.312,48.68,22.5,50.379,21.312Z" transform="translate(49.037 18.955)" fill="#9f9f9f"/>
      <path id="Path_46" data-name="Path 46" d="M48.883,24.343c1.067.77,1.853,1.239,3.248.857.194-1.712-.348-1.625-.871-2.795a1.726,1.726,0,0,1,.371-.348c.393-.522.2.208.393-.681C51,21.046,49.343,20,49.213,18.62c.5-.4.348-.158.717-.4.806-.525.2.277.676-.612-.413-.8-.871-.944-1.875-.542a13.413,13.413,0,0,0-1.83,1.185c.152,2.132,1.415,2.951,2.312,3.929C49.1,23.191,48.861,22.93,48.883,24.343Z" transform="translate(55.939 18.909)" fill="#9f9f9f"/>
      <path id="Path_47" data-name="Path 47" d="M136.63,57.778a6.172,6.172,0,0,1-.616-1.328,13.631,13.631,0,0,1-2.942.73l-.071.094c-.625.891.031.518-1.065,1.444-1.306,1.1-2.156,2.6-3.614,3.489-.179,1.556.129,1.9-.263,3.752-.156.681-.917,2.513-1.81,2.375-.286-.054-1.484-3.022-1.766-3.841a31.145,31.145,0,0,1-1.373-4.033c-.2-.855-.33-2.5-.527-3.071-.935.138-.891.734-1.788.107-.634-.46-.348-.734-.7-1.417-.739-.694-1.5-1.4-2.263-2.094-.589-.187-2.857.143-3.815.036-1.725-.156-1.873-.054-2.9-1.431-1.815.089-1.658.766-3.426-.748-1.154-.98-.935-2.549-2.612-1.663-.067,1.435.634,1.748,1.261,2.411.46.509,1.025.855,1.266,1.533.022.022.129.663.152.752,1.636.107,2.027-.681,2.92-1.342.873.819.022.958,1.288,1.6,1,.509.806.21,1.462,1.029.326,1.1-2.246,4.083-3.1,4.625-.652.42-1,.174-1.591.661-.868.734.112.629-1.413,1.19-1.636.594-3.254,1.85-4.973,1.953-.371-1.011-.739-2.04-1.109-3.071-1.091-3.507-1.047-2.147-2.156-3.962-.527-.783-.308-1.292-.654-1.991-.241-.522-.612-.748-.94-1.4-.5-.993-1.087-2.545-2.241-2.388-.241.783,1.065,3.435,1.4,4.083s.846.926,1,1.85c.219,1.275-.045,1.118.652,1.973,1.462,1.761-.063,1.449,2.2,3.174,1.7,1.292,1.266,1.681,1.987,3.4,1.109.317,4.422-1.167,4.987-.73.676,1.2-.779,3.125-1.154,4.172-1.221,3.507-3.355,3.453-4.991,6.141A25.87,25.87,0,0,0,99.2,79.24c-.935,1.973,1.9,7.437.2,9.725-.371.522-1.569.837-3.071,2.424-1.6,1.73.04,1.431-.571,4.315-.478.658-1.065.694-1.658,1.167a11.942,11.942,0,0,1-.411,2.058c-.393,1.011-.46.473-1.029,1.292a11.755,11.755,0,0,1-.846,1.5,6.28,6.28,0,0,1-1.025,1.047c-1.9,1.748-5.971,1.8-6.319,1.551-.962-.819-.308-1.029-.545-2.179A9.663,9.663,0,0,0,82.7,99.5l-.045-.08a6.11,6.11,0,0,1-.527-1.1c-.783-2.478-.5-4.364-1.873-6.877-1.725-3.25.958-4.942.846-6.774-.045-.487-.219-.783-.263-1.167-.326-2.022-.522-3.841-1.873-5.428-1.484-1.73-1.288-1.118-.806-3.962.612-3.263-.783-2.429-2.746-2.513-.962-2.969-2.835-1.52-4.71-.647-1.176.54-1.614-.156-2.942.036-2.969.4-.634,1.676-4.6-1.466-1.658-1.31-.545-.647-1.529-2.286a23.464,23.464,0,0,0-1.788-1.973c-1.5-1.886.286-3.788.022-5.949-.455-4.016-1.109-.527,1.136-5.379,1.176-2.58,2.964-2.6,3.422-3.752.393-1.029.129-1.761.868-2.705.654-.766,1.591-.612,1.96-1.815.527-1.484-.478-1.676-1.569-1.712-.455-1.551-.455-1.167-.107-2.6.2-.806.022-1.19.2-1.991.437-2,3.859-.018,4.839-.837a2.337,2.337,0,0,0,0-2.513c-.549-.819-1.266-.717-1.636-1.5.828-.558.219-.067.935-.228.85-.192.739-.437,1.743-.625.9-.179,1.467-1,2.335-1.556,1.243-.8.652-1.52,2.156-1.766,2.42-.42.85-.348,1.114-2.6.366-.143.716-.3,1.065-.455.761.993-.2.594.721,1.257.237-.138.522-.281.783-.42-.134-1.083-.634-.873-.962-2.214-1.2.192-1.632,1.2-2.594.837-.935-.353-.98-1.694-.935-2.812.348-.837,2.089-1.292,2.768-1.5,1.092-.366.935-1.1,1.944-2.094,1.306-1.31.348.018.98-1.676,1.44-.054.761-.1,1.614-.54l.04-.018.089-.036c.5-.228,1.154-.281,1.81-.5a5.907,5.907,0,0,1,5.12.312c1.35.558,5.429.576,5.737,2.286-.984,1.029-1.922.281-3.337.366.263,1.328.371,1.328,1.569,1.694.2-.629-.085-.384.241-.783.393.085.783.156,1.176.228.4-1.346.85-1.154,2.183-1.31-.223-.926-.46-.663.04-1.4,1.377.138.263.018.935,1.118.962-.125,1.9-1.19,3.228-1.328.828-.089.788.228,1.96.1.962-.1.917-.451,1.877-.049.348-.647,0-.629.85-.788,1.306-.228,2.442.576,3.7.752-.935-1.154-1.828-.926-.672-2.848,1.458-.295,1.591-.085,2.223,1.016.357-.205.509-.406.685-.509-.1-.08-.2-.161-.3-.241-.545-.433-1.091-.855-1.654-1.27-.107-.08-.214-.156-.326-.237q-.7-.516-1.413-1.011c-.152-.1-.3-.21-.451-.312q-.864-.589-1.739-1.154c-.054-.036-.112-.067-.165-.1q-.8-.509-1.627-1c-.17-.1-.339-.205-.509-.3-.522-.3-1.047-.607-1.574-.9-.094-.049-.183-.1-.272-.152-.6-.33-1.212-.647-1.828-.958-.179-.089-.357-.174-.531-.263-.5-.241-.989-.482-1.489-.712-.156-.071-.312-.147-.473-.219-.621-.286-1.248-.558-1.882-.824-.165-.067-.335-.134-.5-.205-.5-.205-1.007-.406-1.516-.6-.2-.076-.388-.152-.58-.223-.645-.241-1.292-.473-1.949-.69l-.375-.121c-.554-.183-1.1-.362-1.667-.531l-.638-.187c-.589-.174-1.176-.339-1.775-.5-.1-.022-.192-.054-.29-.076-.672-.174-1.35-.335-2.027-.487-.214-.049-.433-.094-.65-.143-.54-.116-1.078-.223-1.623-.326-.179-.036-.357-.071-.536-.1-.681-.125-1.373-.237-2.062-.339-.205-.031-.415-.058-.621-.089-.54-.076-1.074-.143-1.618-.205-.214-.027-.433-.054-.652-.076-.674-.065-1.373-.127-2.083-.181-.17-.013-.339-.022-.509-.031-.574-.04-1.15-.071-1.723-.094-.237-.013-.469-.022-.7-.027-.676-.022-1.355-.036-2.031-.04H69.58A67.772,67.772,0,0,0,25.687,17.549l.031.063a1.047,1.047,0,0,1,.241.509c-1.1.268-1.1.451-1.516.5-.25.228-.5.451-.752.676a7.584,7.584,0,0,0,2.616.058c.286-.522.46-.98.958-1.167a1.94,1.94,0,0,1,.766-.071c.04.259.107.522.174.783,0,.018.027.129.027.156.022-.018.04.112.058.161,1.377-.8.219-.819.958-2.268-1.154-.228-1-.089-1.721-.824a4,4,0,0,1,3.054-.958c-.067.7-.393.681-.129,1.275.783-.491,1.328-1.8,2.594-1.556.237.174.522.335.783.491a7.555,7.555,0,0,1-2.487.993c-.371,3.788,1.2.612.676,3.214a2.878,2.878,0,0,0,2.2-1.449c-.346-.458-.848-.458-1.134-1A2.5,2.5,0,0,1,34.439,15.6a3.668,3.668,0,0,1,1.591-.33c6.931.054,3.636.371,5.777,1.346.482.21,1.328.317,1.614.734.437.663.022,1.288.717,1.815.612.455.7-.018,1.507.993a1.507,1.507,0,0,1-1.44,1.19c-1.176.018-.478-.788-1.743-.665.022,1.185,1.2,1.641.107,2.286-.958.576-.348-.21-1.065.192-.022.018-.089.054-.112.071a.56.56,0,0,0-.112.121c-.129.138-.237.263-.348.384-1.743-.473-1.413-.259-2.46-1.413-.393-.437-.46-.545-1.158-.487-.433.013-1,.205-1.417-.179.85-1.065,1.266-.031,2.509-.663a15.618,15.618,0,0,0,1.81-1.413c-.371-.837-.045-.143-.589-.681-1.221-1.239-1.574-.922-3.228-.922a11.4,11.4,0,0,1-2.2,2.478,2.01,2.01,0,0,1-1.917.018c.371,1.5,1.328.348,1.413,2.165-.629-.125-.958-.442-1.614-.21-1.4.522-.152.469-.04.748,0,.018.65.085,0,.33-.721.263-.112-.138-1.507-.958.2-.348.393-.712.589-1.083a28.416,28.416,0,0,0-3.877,1.556,17.232,17.232,0,0,0-3.77,2.388c-.022,1.31.214.437.348,1.991,2.027.121,1.373.73,3.4,1.306.393.107.891.21,1.507.317,0,.975-.873,1.712-.268,2.723,1.417.993,1.462-.944,1.815-2.179,4.795-1,2.482-2.415,3.721-5.054a5.859,5.859,0,0,1,.833-1.266c.371.013,1.873.174,2.2.241,1.087.192.5.455,1.676.975-.022.944-.5,2.165.9,1.94,1.065-.187.828-1.029,2.134-1.239.589,1.382.437,1.975.7,3.632,3.138,1.221,1.743,2.214,1.132,4.5.393.192.806.371,1.221.545-.022.663-.045,1.306-.067,1.958-.062,0-3.355-.717-3.574-.788.5-1.431,1.417-1.449,2-2.915-1.176.21-1.092.576-1.94.837a12.175,12.175,0,0,1-2.152.174,1.55,1.55,0,0,1,.058.384c.045.455.263.022-.045.509-1.087-.509-.717-1.694-2.746-.594.46.21.913.4,1.4.594-.063,1.341-.174.33-.46,1.221-.694,2.286,1.9.873,2.576.752-.179,1.2-.917,1.2-1.966,1.533-1.154.348-1.5.819-2.42,1.033,0-1.435-.214-.228.415-1.225a8.347,8.347,0,0,0-2.46.873l-.089.036c-1.118.455-1.288.522-1.417,1.953a6.585,6.585,0,0,0-2.746,1.328c-.676.647-1.35,1.292-2,1.922-.067.054-.112.1-.152.138.241,1.8,0,1.833-1.092,2.531a12.2,12.2,0,0,0-2.071,1.328c-2.723,2.442-1.413,1.306-1.266,5.513-.567-.174-1.109-.366-1.632-.558-.415-2.79.152-1.868-2.094-2.513-2.42-.694-2.089.491-3.094.7-1.114.246-1.658-1.011-3.27.036-.891.612-1.743,1.011-1.962,2.094-.263,1.31-.85,2.268-.761,3.716.152,3.926,3.725,4.154,4.638,2.321.612-1.221.46-1.886,2.442-1.569a4.832,4.832,0,0,1-.371,2.616c-.174.473-.656,1.324-.415,1.973,1.417.576,1.462-.509,3.333.607.134,1.873-.846,3.966.594,5.045,1.109.819,1.176.089,2.156-.085,1.092-.192.891.487,1.9.647.571-.7.33-.263.7-1.118.654-1.484.828-.783,2.375-1.694.152-.085.281-.174.437-.277.174.366.371.712.545,1.065,1.132-1.346,1.266-.036,2.571.33a5.038,5.038,0,0,0,1.275.214c.949.013,1.047-.451,2.344.013a4.048,4.048,0,0,0,.527.174c.022,0,.085.036.085.071.022.018.089.067.107.085a5.285,5.285,0,0,1,.415.752c.9.85,1.792,1.712,2.661,2.549,1.721.676,1.721-.6,3.685,1.306.828.783.455.77.913,1.783.067.156.2.313.286.5.174.473.371.926.567,1.382.9,1.167,2.112.438,3.355,1.641.716.7.174.487,1.766.766,2.464.4,1.507.179,3.382,1.591.717.522.891.228,1.569.676a3.233,3.233,0,0,1-.089,3.877c-2.42,3.525-1.592,2.951-1.7,5.745-.089,1.6-.545,4.92-2.049,5.321-5.473,1.538-2.29,2.6-3.725,5.3-.415.77-.721.962-.984,1.574-1.087,2.549-.326,3.4-3.551,2.83a7.76,7.76,0,0,0,.415.658c.958,1.484,1.114,2.6-.85,2.969-1.632.312-.935,0-1.087,1.815-.634.263-.917,0-1.328.42.567,1.047.04.174,1,.77-.179.576-.308,1.132-.46,1.69-.371,1.364-.482.107-.612,1.694.567.263.958.21,1.462.891-.067.527-.589,1.958-.743,2.777.806,1.2,1.462,2.5,3.187,2.621-.022,1.007.214.9-.656,1.114a6.173,6.173,0,0,1-2.969-.873,7.955,7.955,0,0,1-2.942-2.562,10.37,10.37,0,0,0-.717-.944c-.828-1.065-.5-1.556-.739-2.268a2.773,2.773,0,0,1-.527-2.237c.067-.384.676-2.214-.063-1.9-.743.295.567.174-.46.658a14.668,14.668,0,0,1-.567-2.46c-.263-1.377-.589-1.431-.743-2.268-.326-1.94.5-2.147-.415-5.379-.6-2.134-.357-7.194-.993-9.788a4.161,4.161,0,0,0-.379-1.033c-.589-.975-2.027-1.431-3.183-2.214A.211.211,0,0,1,27,88.517c-1.591-1.114-3.1-5.5-4.359-7.136-.589-.788-.962-.442-1.221-1.676-.286-1.136.152-.944.522-1.891-1.94-3.556,2.509-3.507,1.591-7.781A4.78,4.78,0,0,0,22.294,67.8c-.917.4-.482.625-.962,1.4-.739-.42-1.48-.837-2.2-1.257-2.246-2.165-1.047-.594-1.676-2.009-1.355-2.964-2.638-1.306-4.252-2.772-.721-.612-.85-1.574-2.049-1.4-1.81.241-.806.522-2.679-.353a18.451,18.451,0,0,1-4.364-2.634c-.058-2.121.589-1.917-1.025-3.873A68.347,68.347,0,0,0,1.5,69.58c0,.779.018,1.556.045,2.33,0,.165.009.335.018.5.031.739.067,1.475.121,2.21,0,.031,0,.058.009.089q.087,1.155.214,2.3c.013.152.031.308.049.464.08.685.17,1.368.268,2.045.013.08.022.161.036.241.112.752.241,1.5.375,2.241l.08.415c.125.652.259,1.306.4,1.953.027.107.045.214.071.321q.248,1.1.536,2.192c.031.107.058.219.089.326.174.643.353,1.283.545,1.917.036.121.067.237.1.357.223.717.451,1.435.694,2.143.022.067.049.138.071.21.228.647.46,1.288.7,1.926.045.121.089.241.134.357.272.708.558,1.408.85,2.1l.013.031c.286.672.589,1.341.9,2,.054.112.1.228.156.339q.964,2.032,2.049,3.993c.054.1.112.2.165.295q1.1,1.972,2.335,3.855l.161.241q1.249,1.905,2.625,3.712l.134.174c.451.589.9,1.172,1.373,1.743.013.013.022.031.036.045.5.6.993,1.194,1.507,1.779.031.031.058.063.085.094.5.562.993,1.109,1.5,1.654.027.027.054.058.076.085q1.6,1.691,3.31,3.277c.031.031.067.063.1.094q1.711,1.577,3.52,3.036c.04.031.076.063.116.094q1.811,1.45,3.725,2.777c.04.031.08.058.121.085q1.918,1.323,3.931,2.522l.112.067q2.019,1.2,4.132,2.254c.031.013.058.031.089.045A68.1,68.1,0,0,0,136.63,57.778Zm-66.379-31.6c.174.388.348.77.545,1.154.263,1.083-.589.192.263,1.484.672.8,1.328,1.6,1.982,2.406-.415,1.2-.393,1.31-1.569,1.413a22.718,22.718,0,0,1-2.4.263c.241-1.551-.219-.748.152-1.641.415-1.065.482-.263.846-1.292-.806-1.2-1.654-.384-1.614-2.826A3.261,3.261,0,0,1,70.251,26.181Zm35.814,62.941c-.348.962-.654,2.129-.98,3.161-.437,1.449-1.462,6.074-3.355,4.243-.634-.6-.612-2.6-.2-3.4,1.158-2.165.112-1.658.5-3.315.3-1.328,1.35-1,2.134-1.712.717-.629.85-1.748,1.81-2.232C106.912,87.184,106.414,88.093,106.066,89.122Zm30.471-31.879.094.536.009.013C136.608,57.609,136.572,57.426,136.536,57.243Z" transform="translate(0 0)" fill="#9f9f9f"/>
    </g>
    <g id="Group_87" data-name="Group 87" transform="translate(0 573)">
      <rect id="Rectangle_46-7" data-name="Rectangle 46" width="346" height="41" transform="translate(36 167)" fill="#cecece"/>
      <text id="Component_2" data-name="Component 2" transform="translate(36 174)" fill="rgba(255,255,255,0.99)" font-size="20" font-family="HKGrotesk-Bold, HK Grotesk" font-weight="700"><tspan x="112.35" y="20">Component 2</tspan></text>
    </g>
    <text id="But_we_this_isn_t_just_a_US_problem_-_gun_violence_is_an_urban_problem_" data-name="But we this isn’t just a US problem - gun violence is an urban problem " transform="translate(67 2528)" fill="#464242" font-size="20" font-family="HKGrotesk-SemiBold, HK Grotesk" font-weight="600"><tspan x="0" y="20">But we this isn’t just a US </tspan><tspan x="0" y="45">problem - gun violence is an </tspan><tspan x="0" y="70">urban problem </tspan></text>
    <text id="Gun_homicides_across_US_cities" data-name="Gun homicides across US cities" transform="translate(70 2646)" fill="#464242" font-size="15" font-family="HKGrotesk-Regular, HK Grotesk"><tspan x="0" y="15">Gun homicides across US cities</tspan></text>
    <g id="bubble_map" data-name="bubble map" transform="translate(-396.347 1882.527)">
      <path id="Path_40" data-name="Path 40" d="M670.212,805.3c-8.511-2.792-5.663,9.8-9.592,13.323-6.932,2.83-15.907,1.447-14.916,11.717-2.532,2.091-4.721,2.144-8.526,2.144-1.168,7.671-10.12,13.153-16.513,10.658,1.541-4.344,4.1-7.241,1.066-11.2-1.322-.693-2.208,1.563-2.652,0,2.814-6.371-4.126-5.674-3.737-11.182-3.677-1.929-6.021-1.134-11.182.531-.972-1.7-3.967-2.374-2.667-4.792-3.161,1.5-5.429,4.725-8.519,4.792-.622-1.39,1.643-2.3-.535-2.14-1.658-.365-2.3,2.988-3.726,1.085,1.017-3.078,4.1-4.088,6.386-5.877-4.86-.621-8.221-.279-11.182-2.66-2.585,1.127-6.153.177-6.394-2.664a234.449,234.449,0,0,1-70.85-6.394c.569.019,1.353-.253.527-.539-6.834,1.055-15.368-3.93-22.376-4.8-.045.84.072,1.839-1.066,1.6-.656,1.726,1.725.418,1.066,2.14-3.263.588-3.888-1.443-6.394-1.6.791,14.577-4.668,19.735-8.522,29.3,3.7,4.212-5.075,8.289-.539,12.252-1.669,10.41,4.7,18.507,4.8,28.766,5.6,3.293,11.224,5.286,11.182,12.791,3.429,1.27,5.354.724,9.585,1.063.169.723.757,1.017.539,2.125,8.8,2.916,13.138,10.316,26.083,9.038,1.04-.218.422-2.072,2.144-1.6,2.163.373,4.57,1.326,6.394.531,1.454,4.216,5.44,4.687,6.393,7.991.686,2.43.961,6.684,6.394,7.46,1.126-1.53,1.823-3.5,3.73-4.257,5.689.69,8.2,4.567,9.038,10.124,3.259.848,3.523,4.653,4.284,7.983,4.374.693,4.747,2.445,9.053,2.668a11.1,11.1,0,0,1,.528-11.179c7.012-1.688,12.263-11.879,20.786-6.921,6.427-.181,6.6,3.176,13.307.531a7.212,7.212,0,0,1,.539-5.335c6.262,1.368,13.756-5.083,17.583,1.609,2-.324,2.234-2.385,4.265-2.668,3.591.324,4.065,3.753,6.921,4.793-.437,8.613,5.708,12.836,11.182,17.041,1.013.128,1.19-.588,2.14-.528a14.594,14.594,0,0,0-3.726-12.783c-.655-5.037-5.229-7.615-5.862-12.253-.475-3.455,1.187-6.22,1.6-9.588a10.134,10.134,0,0,0,6.4-7.991,6.291,6.291,0,0,1,4.25-1.6c.17-5.874,6.541-5.534,7.991-10.124-1.579-2.972-6.819-9.893-1.07-12.252-1.729-6.424,2.656-8.082,1.07-14.388a10.447,10.447,0,0,0,7.452-4.785c3.048.011,5.52-3.349,4.808-5.338-.185,1-2.728-.053-3.2-.528.46-5.508.5-10.124,5.331-10.124.181-3.549,3.666-3.783,4.257-6.929A10.117,10.117,0,0,1,670.212,805.3ZM506.377,858.633a23.371,23.371,0,1,1,23.37-23.371A23.37,23.37,0,0,1,506.377,858.633Zm46.052,36a19.586,19.586,0,1,1,19.58-19.588A19.586,19.586,0,0,1,552.429,894.633ZM573.1,847a11.966,11.966,0,1,1,11.97-11.962A11.963,11.963,0,0,1,573.1,847Zm19.249,27.613a6.107,6.107,0,1,1,6.107-6.107A6.106,6.106,0,0,1,592.35,874.615ZM643.579,866a15.221,15.221,0,1,1,0-.015Z" transform="translate(32 14)" fill="#ccc" fill-rule="evenodd"/>
    </g>
    <text id="It_is_also_a_problem_that_disproportionately_impacts_low_income_communities_of_color" data-name="It is also a problem that disproportionately impacts low income communities of color" transform="translate(61 3101)" fill="#464242" font-size="20" font-family="HKGrotesk-SemiBold, HK Grotesk" font-weight="600"><tspan x="0" y="20">It is also a problem that </tspan><tspan x="0" y="45">disproportionately impacts low </tspan><tspan x="0" y="70">income communities of color</tspan></text>
    <text id="Where_John_was_killed_the_gun_homicide_rate_is_x_times_higher_than_in_surrounding_neighborhoods" data-name="Where John was killed, the gun homicide rate is x times higher than in surrounding neighborhoods" transform="translate(61 3192)" fill="#464242" font-size="15" font-family="HKGrotesk-Regular, HK Grotesk"><tspan x="0" y="15">Where John was killed, the gun </tspan><tspan x="0" y="34">homicide rate is x times higher than </tspan><tspan x="0" y="53">in surrounding neighborhoods</tspan></text>
    <g id="Group_95" data-name="Group 95">
      <text id="Neighborhood" transform="translate(238 618)" fill="#464242" font-size="15" font-family="HKGrotesk-Bold, HK Grotesk" font-weight="700"><tspan x="0" y="15">NEIGHBORHOOD</tspan></text>
      <text id="Map_Illustration" data-name="Map | Illustration" transform="translate(68 618)" fill="#464242" font-size="15" font-family="HKGrotesk-Bold, HK Grotesk" font-weight="700"><tspan x="0" y="15">MAP | ILLUSTRATION</tspan></text>
      <text id="Viz_Type" data-name="Viz Type" transform="translate(68 596)" fill="#464242" font-size="15" font-family="HKGrotesk-Regular, HK Grotesk"><tspan x="0" y="15">Viz Type</tspan></text>
      <text id="Map_scale" data-name="Map scale" transform="translate(238 596)" fill="#464242" font-size="15" font-family="HKGrotesk-Regular, HK Grotesk"><tspan x="0" y="15">Map scale</tspan></text>
    </g>
    <g id="Group_96" data-name="Group 96" transform="translate(6 569)">
      <text id="City" transform="translate(270 618)" fill="#464242" font-size="15" font-family="HKGrotesk-Bold, HK Grotesk" font-weight="700"><tspan x="0" y="15">CITY</tspan></text>
      <text id="Map_Dot_Matrix" data-name="Map | Dot Matrix" transform="translate(74 618)" fill="#464242" font-size="15" font-family="HKGrotesk-Bold, HK Grotesk" font-weight="700"><tspan x="0" y="15">MAP | DOT MATRIX</tspan></text>
      <text id="Viz_Type-2" data-name="Viz Type" transform="translate(74 596)" fill="#464242" font-size="15" font-family="HKGrotesk-Regular, HK Grotesk"><tspan x="0" y="15">Viz Type</tspan></text>
      <text id="Map_scale-2" data-name="Map scale" transform="translate(270 596)" fill="#464242" font-size="15" font-family="HKGrotesk-Regular, HK Grotesk"><tspan x="0" y="15">Map scale</tspan></text>
    </g>
    <g id="Group_97" data-name="Group 97" transform="translate(1 1142)">
      <text id="Country" transform="translate(268 618)" fill="#464242" font-size="15" font-family="HKGrotesk-Bold, HK Grotesk" font-weight="700"><tspan x="0" y="15">COUNTRY</tspan></text>
      <text id="Point_Map-2" data-name="Point Map" transform="translate(74 618)" fill="#464242" font-size="15" font-family="HKGrotesk-Bold, HK Grotesk" font-weight="700"><tspan x="0" y="15">POINT MAP</tspan></text>
      <text id="Viz_Type-3" data-name="Viz Type" transform="translate(74 596)" fill="#464242" font-size="15" font-family="HKGrotesk-Regular, HK Grotesk"><tspan x="0" y="15">Viz Type</tspan></text>
      <text id="Map_scale-3" data-name="Map scale" transform="translate(268 596)" fill="#464242" font-size="15" font-family="HKGrotesk-Regular, HK Grotesk"><tspan x="0" y="15">Map scale</tspan></text>
    </g>
    <g id="Group_98" data-name="Group 98" transform="translate(4 1710)">
      <text id="World" transform="translate(268 618)" fill="#464242" font-size="15" font-family="HKGrotesk-Bold, HK Grotesk" font-weight="700"><tspan x="0" y="15">WORLD</tspan></text>
      <text id="Map_Bubble_Chart" data-name="Map | Bubble Chart" transform="translate(74 618)" fill="#464242" font-size="15" font-family="HKGrotesk-Bold, HK Grotesk" font-weight="700"><tspan x="0" y="15">MAP | BUBBLE CHART</tspan></text>
      <text id="Viz_Type-4" data-name="Viz Type" transform="translate(74 596)" fill="#464242" font-size="15" font-family="HKGrotesk-Regular, HK Grotesk"><tspan x="0" y="15">Viz Type</tspan></text>
      <text id="Map_scale-4" data-name="Map scale" transform="translate(268 596)" fill="#464242" font-size="15" font-family="HKGrotesk-Regular, HK Grotesk"><tspan x="0" y="15">Map scale</tspan></text>
    </g>
    <g id="bubble_chart" data-name="bubble chart" transform="translate(-170.406 1461.926)">
      <g id="Group_27" data-name="Group 27" transform="translate(425.791 673.363)">
        <circle id="Ellipse_102" data-name="Ellipse 102" cx="10.517" cy="10.517" r="10.517" transform="translate(28.768 14.314)" fill="#9f9f9f"/>
        <circle id="Ellipse_103" data-name="Ellipse 103" cx="5.861" cy="5.861" r="5.861" transform="translate(11.476 37.591)" fill="#9f9f9f"/>
        <circle id="Ellipse_104" data-name="Ellipse 104" cx="5.196" cy="5.196" r="5.196" transform="translate(53.99 34.708)" fill="#9f9f9f"/>
        <circle id="Ellipse_105" data-name="Ellipse 105" cx="3.865" cy="3.865" r="3.865" transform="translate(57.316 4.779)" fill="#9f9f9f"/>
        <path id="Path_22" data-name="Path 22" d="M425.791,673.363v61.183h71.615" transform="translate(-425.791 -673.363)" fill="none" stroke="#9f9f9f" stroke-linecap="round" stroke-width="3"/>
      </g>
    </g>
    <g id="Group_99" data-name="Group 99" transform="translate(-7 2292)">
      <text id="Country-2" data-name="Country" transform="translate(268 618)" fill="#464242" font-size="15" font-family="HKGrotesk-Bold, HK Grotesk" font-weight="700"><tspan x="0" y="15">COUNTRY</tspan></text>
      <text id="Bubble_Map-2" data-name="Bubble Map" transform="translate(74 618)" fill="#464242" font-size="15" font-family="HKGrotesk-Bold, HK Grotesk" font-weight="700"><tspan x="0" y="15">BUBBLE MAP</tspan></text>
      <text id="Viz_Type-5" data-name="Viz Type" transform="translate(74 596)" fill="#464242" font-size="15" font-family="HKGrotesk-Regular, HK Grotesk"><tspan x="0" y="15">Viz Type</tspan></text>
      <text id="Map_scale-5" data-name="Map scale" transform="translate(268 596)" fill="#464242" font-size="15" font-family="HKGrotesk-Regular, HK Grotesk"><tspan x="0" y="15">Map scale</tspan></text>
    </g>
    <g id="Group_100" data-name="Group 100" transform="translate(-9 2861)">
      <text id="City-2" data-name="City" transform="translate(284 618)" fill="#464242" font-size="15" font-family="HKGrotesk-Bold, HK Grotesk" font-weight="700"><tspan x="0" y="15">CITY</tspan></text>
      <text id="Choropleth_Map" data-name="Choropleth Map" transform="translate(74 618)" fill="#464242" font-size="15" font-family="HKGrotesk-Bold, HK Grotesk" font-weight="700"><tspan x="0" y="15">CHOROPLETH MAP</tspan></text>
      <text id="Viz_Type-6" data-name="Viz Type" transform="translate(74 596)" fill="#464242" font-size="15" font-family="HKGrotesk-Regular, HK Grotesk"><tspan x="0" y="15">Viz Type</tspan></text>
      <text id="Map_scale-6" data-name="Map scale" transform="translate(284 596)" fill="#464242" font-size="15" font-family="HKGrotesk-Regular, HK Grotesk"><tspan x="0" y="15">Map scale</tspan></text>
    </g>
    <g id="Group_102" data-name="Group 102" transform="translate(-7 3431)">
      <text id="Infographic_Dot_Matrix" data-name="Infographic | Dot Matrix" transform="translate(74 618)" fill="#464242" font-size="15" font-family="HKGrotesk-Bold, HK Grotesk" font-weight="700"><tspan x="0" y="15">INFOGRAPHIC | DOT MATRIX</tspan></text>
      <text id="Viz_Type-7" data-name="Viz Type" transform="translate(74 596)" fill="#464242" font-size="15" font-family="HKGrotesk-Regular, HK Grotesk"><tspan x="0" y="15">Viz Type</tspan></text>
    </g>
    <path id="Icon_open-action-undo" data-name="Icon open-action-undo" d="M17.5-12.832,8.75,35H0L17.5,52.5,35,35H26.25C26.369,35.114,17.5-12.832,17.5-12.832Z" transform="translate(190 670)" fill="#e6e6e6"/>
    <path id="Icon_open-action-undo-2" data-name="Icon open-action-undo" d="M17.5-12.832,8.75,35H0L17.5,52.5,35,35H26.25C26.369,35.114,17.5-12.832,17.5-12.832Z" transform="translate(190 1247)" fill="#e6e6e6"/>
    <path id="Icon_open-action-undo-3" data-name="Icon open-action-undo" d="M17.5-12.832,8.75,35H0L17.5,52.5,35,35H26.25C26.369,35.114,17.5-12.832,17.5-12.832Z" transform="translate(190 1816)" fill="#e6e6e6"/>
    <path id="Icon_open-action-undo-4" data-name="Icon open-action-undo" d="M-9.275-13.259,14.134,44.314H6.53L17.5,52.5l10.384-8.186H20.322l23.22-57.573Z" transform="translate(190 2393)" fill="#e6e6e6"/>
    <text id="Zoom_in-2" data-name="Zoom in" transform="translate(250 2979)" font-size="15" font-family="HKGrotesk-BoldItalic, HK Grotesk" font-weight="700" font-style="italic"><tspan x="0" y="15">Zoom in</tspan></text>
    <text id="Switch" transform="translate(263 3553)" font-size="15" font-family="HKGrotesk-BoldItalic, HK Grotesk" font-weight="700" font-style="italic"><tspan x="0" y="15">Switch</tspan></text>
    <path id="Icon_open-action-undo-5" data-name="Icon open-action-undo" d="M-9.275-13.259,14.134,44.314H6.53L17.5,52.5l10.384-8.186H20.322l23.22-57.573Z" transform="translate(190 2966)" fill="#e6e6e6"/>
    <path id="Icon_awesome-exchange-alt" data-name="Icon awesome-exchange-alt" d="M0,15.294V13.672a2.433,2.433,0,0,1,2.433-2.433h36.5V6.372A2.435,2.435,0,0,1,43.09,4.651L51.2,12.763a2.434,2.434,0,0,1,0,3.441L43.09,24.316a2.435,2.435,0,0,1-4.154-1.721V17.728H2.433A2.433,2.433,0,0,1,0,15.294ZM49.481,30.706h-36.5V25.839a2.435,2.435,0,0,0-4.154-1.721L.713,32.23a2.434,2.434,0,0,0,0,3.441l8.112,8.112a2.435,2.435,0,0,0,4.154-1.721V37.2h36.5a2.433,2.433,0,0,0,2.433-2.433V33.14A2.433,2.433,0,0,0,49.481,30.706Z" transform="translate(181.243 3539.783)" fill="#e6e6e6"/>
    <text id="In_fact_John_by_x_years_old_and_being_born_of_race_x_had_an_x_higher_likelihood_of_being_a_victim_of_gun_violence_" data-name="In fact, John, by x years old, and being born of race x, had an x% higher likelihood of being a victim of gun violence " transform="translate(67 3688)" fill="#464242" font-size="20" font-family="HKGrotesk-SemiBold, HK Grotesk" font-weight="600"><tspan x="0" y="20">In fact, John, by x years old, and </tspan><tspan x="0" y="45">being born of race x, had an x% </tspan><tspan x="0" y="70">higher likelihood of being a </tspan><tspan x="0" y="95">victim of gun violence </tspan></text>
    <g id="Group_44" data-name="Group 44" transform="translate(118.437 365.547)">
      <path id="Path_32" data-name="Path 32" d="M1038.332,789.251l-6.566-7.468-9.249-5.661.305-10.152-9.542-10.715-4.479-7.163-2.684-1.77-1.782,1.183-.457,1.337-10.293,2.684H992.4l-2.239-8.816-10.293-5.368-2.825-3.283-2.837.445-2.1,4.4-3.423,2.381-15.944-.294-4.337,2.239-2.826,4.326-11.477,1.2-8.03-1.829,14.912,16.26-.633.586L936.93,766.6l2.519,2.684,5.206,10.293-2.38,2.227.9,8.053-3.154,10.129-2.825.457-9.953-.433.14-2.686-6.119-.878-4.912,3.563,1.489,5.38-2.685,1.184-2.227,3.576v3.563h1.335l4.62,5.381.3,14.02-1.935,2.661-1.2-1.055-1.184,1.055.282,2.838-1.629,1.933-2.239,3.423.738,7.163,4.033-2.075,16.107,11.172,6.706,10.7,1.043,4.185h3.88l9.249,3.153,1.642,4.607,3.14,4.771,11.489,4.174,4.912-1.794,3.88-4.607,3.283-2.52,5.662-.294,4.033-4.479,1.336-11.334,5.509-4.185,5.968-7.151,7.151-10.879,2.825-4.619,6.12-3.435.891-9.108,3.153-.293,1.184-2.391-.879-3.258-4.337-5.827v-2.826l.3-6.118,3.142-6.554,5.674.88,2.836-5.815,7.01-1.934ZM913.085,836.225l1.019-3.447-2.825-4.021-9.249-8.815v3.283l9.988,14.161Zm-3.575-24.3-.6-.633-2.977-1.336-4.759-2.813-3.447,1.067-.305-1.044.632-1.043-.9-.75-1.326-.317-1.183,2.825L897.8,810.4l2.521-.293,7.15,3.153Z" transform="translate(-894.645 -734.06)" fill="none" stroke="#707070" stroke-width="1"/>
    </g>
    <g id="Group_44-2" data-name="Group 44" transform="translate(147.437 1024.977)">
      <path id="Path_32-2" data-name="Path 32" d="M937.758,750.62l-1.97-2.241-2.775-1.7.092-3.046-2.863-3.215L928.9,738.27l-.806-.531-.535.355-.137.4-3.088.805h-.355l-.672-2.645-3.089-1.611-.848-.985-.851.134-.63,1.319-1.027.714-4.784-.088-1.3.672-.848,1.3-3.443.359-2.409-.549,4.474,4.879-.19.176-1.027.851.756.805,1.562,3.088-.714.668.271,2.416-.946,3.039-.848.137-2.986-.13.042-.806-1.836-.263-1.474,1.069.447,1.614-.806.355-.668,1.073v1.069h.4l1.386,1.615.091,4.207-.581.8-.359-.317-.355.317.085.851-.489.58-.672,1.027.221,2.149,1.21-.623,4.833,3.352,2.012,3.212.313,1.256h1.164l2.775.946.493,1.382.942,1.431,3.447,1.252,1.474-.538,1.164-1.382.985-.756,1.7-.088,1.21-1.344.4-3.4,1.653-1.256,1.791-2.146,2.146-3.264.847-1.386,1.836-1.031.267-2.733.946-.088.355-.718-.264-.978-1.3-1.748v-.848l.091-1.836.943-1.966,1.7.264.851-1.745,2.1-.58Zm-37.58,14.094.306-1.034-.848-1.207-2.775-2.645v.985l3,4.249Zm-1.073-7.292-.179-.19-.893-.4-1.428-.844-1.034.32-.091-.313.19-.313-.271-.225-.4-.1-.355.848.946.756.756-.088,2.145.946Z" transform="translate(-894.645 -734.06)" fill="none" stroke="#707070" stroke-width="1"/>
    </g>
    <g id="Group_103" data-name="Group 103" transform="translate(-38 -20.827)">
      <g id="choropleth" transform="translate(122.984 3299.827)">
        <g id="Group_50" data-name="Group 50">
          <g id="Group_35" data-name="Group 35" transform="translate(62.403 26.046)">
            <path id="Path_23" data-name="Path 23" d="M938.126,734.639l.684-1.139-.136-.548-.365-.043-.684.229-.544-.595.638-.963.408-.362-1.135-.963.272-1.232.548-.863-.093-.867-2.46-.77-2.367-3.051-1.5-.731-.684.455-4.1-.455-1.139.964-1.049-1.049-.179.193-.551.451-1.182-.269-2.643-1.869-1.275.82-.548-.458-2.185-.77-1.228.731-2.6.68-1.869-1.683-.68,3.416-1.311.68-.5.82.684,2.872,1.54,5.053,2.693,4.466,2.324,1.683.595,2.553.089.77.638-.193,3.466-1.321,2.278-.133,2.17,2.915-.963,1.142-.09.179,1.05.272h2.095l.361-1.046.77-.272.863.727,1.322-.637h.641l.5-.963.824-.77v-2l2.779-1.594,2.776-.322-.684-2,1.869-1.185Z" transform="translate(-907.668 -720.482)" fill="#919191" stroke="#fff" stroke-width="1"/>
          </g>
          <g id="Group_36" data-name="Group 36" transform="translate(144.143 22.347)">
            <path id="Path_24" data-name="Path 24" d="M948.854,720l-2.052-.548-4.87.459-1.053,1.411-.863,1.046-1.411-.093-1.321.369-4.555-1.411-.229,1.637h-.68l-.365.548h-.638l-.323.362.05.77,1.318.5.82,1.776,1.644-1.229.587.272,1.278-.272.136.272-.319.684,1.1.637v.408l-.412.548-.093,2.414-2.095,3,.193,1.186.315,2.371h1.228l.276,1.046-.641,1.275-1.318,4.373-.917,2.009-.73,3.918,1.414,1.046,1.225,1.916.276.96,1.644.963.175,1.687,1.142,1.322.319-.455,1.959-.229,1.912-.727.09-1.049,1.5-2.049-1.325-1.64-.362-1.64.77-4.372-.276-3.818-.086-.916,1-3.6.634-4.6.233-2.915,2.639-3.463,2.417-5.1Z" transform="translate(-930.493 -719.449)" fill="#919191" stroke="#fff" stroke-width="1"/>
          </g>
          <g id="Group_37" data-name="Group 37" transform="translate(113.682 13.207)" opacity="0.5">
            <path id="Path_25" data-name="Path 25" d="M961.015,724.668l-1.415-.362-1.776,1.046h-1.178l-2.643.365L952.86,724.4l-2.278-.229-.681.909-1.687-.77-4.28-5.325h-.684l-2.736-1.139-1.73,1.59-.867.229-3.416-1.54H932.05l-.595.867-1.729.5-1.322-2.234-1.687-.366-1.54.276-1.687.455.183,2.872-.458,1.913.458.591-.641,1,.276,1.185-.863.641.09,1.092-.548,1.092,1.687,2.1.365,1.139-.73,1.364v1.032l-.863,1v2.188l1.454,1.139.14.863.136,1.142,1.182.226.866,1.457,2.7,1.365,2.457,1.142.548.544-.91.594.591,1.046,1.411.194,1.776,2.1,1.186.319.182.544-.963.594L935,751.323l-.19.909h1.1l.906.913,1.5.455.365,1.411.963.319,1.322-.136.866-2.278.272-.272,2.185,1.411h2.371l.362-.272,1.547,1.321.5-.193.319-1.64.408-.136,2.7,2.371,1.683.91.68-.093.73-3.914.91-2.005,1.318-4.373.641-1.275-.272-1.046h-1.229l-.315-2.367-.193-1.189,2.095-3,.093-2.413.408-.548v-.412l-1.092-.638.319-.68-.136-.276-1.278.276-.588-.276-1.644,1.232-.82-1.776-1.318-.5-.05-.77.318-.365h.641l.366-.544h.68l.229-1.641,4.555,1.411,1.321-.365,1.411.093.863-1.049,1.049-1.411Z" transform="translate(-921.987 -716.897)" fill="#919191" stroke="#fff" stroke-width="1"/>
          </g>
          <g id="Group_38" data-name="Group 38" transform="translate(0 42.649)" opacity="0.5">
            <path id="Path_26" data-name="Path 26" d="M893.151,768.766l.863.272.319-.369-1.275-.68Zm3.552-5.333-.77-.964-.458-.952-1-.548-.365.548,1.232,1.368,1.321.906Zm46.09-25.641v-1.73l.548-1.232-.913-1.637-1.089-.093-.82-1.045v-.369l-.276-.273-1.365.681-2.55-1.458-.509-4-.276-.272-1.228.681-1.687.455-1.729,1.54-1.913.276-.093-1.458-1.411.043-.408-2.184-1.139-.595-.867,1.415-3.008.272-3.732.87-1.049-.276-.272-.408-2.872.225-.136.5.183,2.732-.77,2,.963,2.643.544,3.051-.272.77-.362-.086-2.094.906-1.278,3.828-3.324-1.411-2.181,1.239-3.965,2.185-2.457.637-1.142.867-.591,2.185-5.286,2.192-.319.77-.77.276-.638.591.867.68.179.727-.408.595.182.183,1.093.638,1.275-.5,1.457.863,1.776-1.5,1.729-.365,6.2,2.822-.77.194-3.961-1.873-2.962-.133-.77.684.183,1.909-.96.458.132.133,1.508.279,1.909.963.824,1.5-1.232-.089-.5,1.912-1.185,1.54-.318.913,4.691,5.243.867,2.593,2.643,1.776,1.318.591,3.234,1.869.548-.544.591.641.77.361V777.6l1.5-.319,1.5-1.088,1.869.272-.043.82,3.051.136.863-.136.963-3.094-.276-2.464.727-.68-1.59-3.141-.77-.824,1.046-.863.193-.179-4.555-4.971,2.46.548,3.506-.366.863-1.318,1.325-.684,4.87.09,1.046-.731.641-1.318.866-.14,1.135-3.413.684-1.5.5-2.872v-1.955l.731-.182,1.819.637,3.982-3.327v-.684l1-.451,1.185-2.009.179-.96,1.139-.77.136-.641Z" transform="translate(-890.243 -725.118)" fill="#919191" stroke="#fff" stroke-width="1"/>
          </g>
          <g id="Group_39" data-name="Group 39" transform="translate(40.342 6.872)" opacity="0.75">
            <path id="Path_27" data-name="Path 27" d="M926.838,731.061l-.77-.77.77-1.139.272-.77-1.321-1.321-.226-1.819,1.046-1.232v-.365l-1-.179.226-1.185.139-.727-1.411-2.872-1.185-.727-1.866-2.1-.913-.73-2.5,2.5-4.92,1.995-2.733.412-3.463,1.683-2.371,2.185-1.275.594-1.823,4.1.412.82,2.961.179,1,.5-.727.276.272,2.55.77,1.364-.963.684.09.638,1.049.365.362,3.825.047,1.232.193,1.683H909.8l1.547,2.6,1.318,1.318.505,1.64,2.138-1.733,1.687-.5,1.093-.91,1.64.268,1.776-.637,1.321-1.823,1.411-.86-.68-2.872.5-.82,1.322-.684.684-3.417,1.321-.96Z" transform="translate(-901.508 -715.128)" fill="#919191" stroke="#fff" stroke-width="1"/>
          </g>
          <g id="Group_40" data-name="Group 40" transform="translate(123.061 48.944)" opacity="0.75">
            <path id="Path_28" data-name="Path 28" d="M949.746,740.452l-.136-.365.863-2.095,1.143-.684,1.225-.183-.175-1.687-1.644-.96-.276-.964L949.52,731.6l-1.414-1.049-.681.093-1.687-.913-2.693-2.367-.408.136-.319,1.64-.5.19-1.551-1.318-.362.272h-2.364l-2.188-1.411-.272.272-.866,2.277-1.322.136-.315.82-.641.093-.684,1.049-.867.089-.541,1.912-.505,2.185-1.092.548-1.457-.455-1.5.77-.14,1,1.866.5-.5,2.095-.964.183-.179.272.77.684v1.229l1.232.319.82,2.188-.638.634.19,1.049-.544.638.132.963-.727.77-.179,1.046-1.139.276-.458.77.458.408-.687.82.229.866,1.045.5.641.358.817.551.229-.093.193.5-1.683,1v.5l.634.641-.272.591.77.594.365.179.194,2.643-.734.551.143.906.723.272.183.548-1.364.684-.093.68,1.826,2.278H929l.77,1.185.96-.319,1.046-1.186,1.236.193.451.595,1.927-.548,3.32-3.234-.089-.867.276-.731.319-.909-.047-.638,1.869-3.27,2.045-1.321.5-1.415-.39-2.364.362-1.139,3.692-2.095.5-1.923,2.005-1.69.193-1.046,1.773-2.639.093-.77-.548-.863Z" transform="translate(-924.606 -726.876)" fill="#919191" stroke="#fff" stroke-width="1"/>
          </g>
          <g id="Group_41" data-name="Group 41" transform="translate(84.072 44.343)" opacity="0.5">
            <path id="Path_29" data-name="Path 29" d="M955.257,766.041l-.14-.91.73-.548-.19-2.643-.365-.179-.77-.6.272-.591-.638-.637v-.5l1.687-1.006-.194-.5-.233.093-.813-.548-.641-.358-1.046-.5-.229-.866.688-.82-.444-.419.458-.77,1.139-.272.179-1.046.727-.77-.133-.963.544-.641-.19-1.046.634-.637-.8-2.181-1.232-.319v-1.232l-.77-.68.179-.276.963-.179.5-2.1-1.866-.5-1.322.87-.866-.87-.727-.362-.545.362-1.049-.362-.77-.458.365-.77-.455-.193-.5.322h-.637l.089-1-.863-.731.77-1-2.02-2.131-.591-1.687-2.005-.508-.913.641-1.271-.276-.276.5.684.963-.548.319-3.506-.319-.684.82-1.135-.362-.913.591-1.461.455-1.73-.5-2.281-3-2.367-1.912-.365-2.006-2-2.277-1.913-.412-2.775.322-2.779,1.594v2l-.824.77-.5.963,1.325.455.906.867.73,2.961-1.593,2.46.548.91-.591,1.275-.362-.1-1.5.365-.319.684,2.6,3.417-1.912,1.046.179.594.594,1.139-.272,2.729,1.593,2.1,1.458,6.561.362,3.23v1.687l2.46,1.637,1.415-.77,1.135.641.867-.552,1.049,1.049.591-.365,1.733-1.64,1.683,2.414,1.228,2.006,2.553,1.321.412,3-.688,1.321.276.91-.09.637.77.276.544.863,1.64-.641,2.188.143.544.587,2.005-1.866-.19-.591-.276-.964.695-.673,1.092.863.412-.863.637-.136.315.637.462.09.408-1.135,1.045.179.365.548-.194.408.458.591-.093.548.91,1.139,2.414-8.108,2.7-.544.269-.193,2.639,1.819.093-.68,1.368-.684-.182-.548Z" transform="translate(-913.719 -725.591)" fill="#919191" stroke="#fff" stroke-width="1"/>
          </g>
          <g id="Group_42" data-name="Group 42" transform="translate(51.319 90.254)" opacity="0.5">
            <path id="Path_30" data-name="Path 30" d="M934.773,754.63l-.727-.322-.372-2.045.731-.917.96-1.5-.229-3.055L935,745.7l-.14-.859-1.189-2.052-1.823-1.322-1.819-2.371H928.4l-2.142.365-3.051-.365-1.135-.684-.319.229-.093,1.049-1.415.362-1.046-.731-1.228.269-1.322,1.733-3.549-.408-2.145.591-.863,1.773-1.733-.268-.964,2-.089,1.866v.87l1.322,1.776.272,1-.358.738-.964.09-.272,2.782-1.869,1.046-.863,1.411,2.152,1.142-.193.19.412,1.64.5.193,1.278-1.046h2.095l1,1.407h.82l.5.369-.043.68v.684l1.275.5,1.139,1.773-.867,2.736v.731l.82.817.047.637.179.19,1.6.14v.727l1.228,2.056,2.5-.322,2.184,1.912,4.559-1.232,1.318-.591.183-1.594.963-1.54.727-2.55,1.87-2.464-.14-1.407.272-.14.866.595.5-.136.361-.917.183-1.454.14-1.139-.684-2.138.816-.867Z" transform="translate(-904.573 -738.411)" fill="#919191" stroke="#fff" stroke-width="1"/>
          </g>
          <g id="Group_43" data-name="Group 43" transform="translate(40.94 33.828)" opacity="0.35">
            <path id="Path_31" data-name="Path 31" d="M949.047,766.288l-1.458-6.561-1.594-2.1.272-2.729-.594-1.139-.179-.591,1.912-1.049-2.6-3.416.319-.684,1.5-.365.365.093.591-1.275-.548-.91,1.6-2.46-.734-2.962-.906-.867-1.325-.455h-.637l-1.322.637-.863-.727-.77.272-.365,1.046h-2.1l-1.049-.272.089-.179.964-1.143-2.188-2.912-2.278.133L931.685,737l-.634.193-.093-.77-.584-2.564-2.324-1.683-2.7-4.466-1.54-5.053-1.411.859-1.321,1.823-1.776.637-1.64-.269-1.1.91-1.683.5-2.142,1.733,1.78,2.367.544,2.46-.272.963-1.322.964-1.275.963.723,3.008.917,1.637-.548,1.232v1.73l.909,1.228-.132.641-1.146.77-.179.96-1.185,2.005-1,.455v.684l-4.007,3.3-1.823-.638-.73.194v1.955l-.5,2.872-.684,1.5-1.139,3.413.863,1,3.144,1.637.684,2.7h.362l3.144-.824.136-.408.544-.358.824.541,1.365,2.188,2.915,3.273-.089,3.1,2.822,1.733,2.006,2.281.193,1.229,3.549.412,1.321-1.733,1.229-.268,1.046.727,1.415-.365.093-1.046.319-.229,1.135.684,3.051.365,2.142-.365h1.64l1.458-2.005,3.187-.863.5-.913.136-2.55.684-.867,1.913-.687,1.823-1.5,1.414-.319.77.272v-.838Z" transform="translate(-901.675 -722.655)" fill="#919191" stroke="#fff" stroke-width="1"/>
          </g>
          <g id="Group_44-3" data-name="Group 44" transform="translate(15.765 74.672)">
            <path id="Path_32-3" data-name="Path 32" d="M938.54,750.92l-2.006-2.281-2.825-1.729.093-3.1-2.915-3.273-1.368-2.188-.82-.541-.544.362-.14.408-3.144.82h-.362l-.684-2.693-3.145-1.64-.863-1-.867.136-.641,1.343-1.046.727-4.87-.09-1.325.684-.863,1.322-3.506.365-2.453-.559,4.556,4.967-.193.179-1.046.867.77.82,1.59,3.144-.727.68.276,2.46-.964,3.094-.863.14-3.04-.132.043-.82-1.869-.268-1.5,1.089.455,1.644-.82.362-.68,1.093v1.089h.408l1.411,1.644.093,4.283-.591.813-.365-.322-.362.322.086.867-.5.591-.684,1.046.226,2.188,1.232-.634,4.921,3.413,2.049,3.27.319,1.278h1.185l2.825.963.5,1.407.959,1.457,3.51,1.275,1.5-.548,1.185-1.407,1-.77,1.73-.09,1.232-1.368.408-3.463,1.683-1.279,1.823-2.185,2.185-3.323.863-1.411,1.87-1.049.272-2.783.963-.09.362-.73-.269-1-1.325-1.78v-.863l.093-1.869.96-2,1.733.269.867-1.776,2.141-.591Zm-38.261,14.35.311-1.053-.863-1.229L896.9,760.3v1l3.051,4.326Zm-1.092-7.424-.183-.193-.91-.408-1.454-.859-1.053.326-.093-.319.193-.319-.276-.229-.4-.1-.361.863.963.77.77-.09,2.184.963Z" transform="translate(-894.645 -734.06)" fill="#919191" stroke="#fff" stroke-width="1"/>
          </g>
          <g id="Group_45" data-name="Group 45" transform="translate(9.927 16.431)">
            <path id="Path_33" data-name="Path 33" d="M936.87,743.753l-1.773-2.367-.5-1.64-1.321-1.321-1.54-2.6H928.9l-.183-1.683-.043-1.232-.365-3.828-1.049-.365-.086-.638.96-.684-.77-1.365-.268-2.55-1.279.544-4.709,3.055-.681-.136-1.185.365-3.688-1.275-3.506.19-4.828-1.318-1.278.5-.82,1.232-.77-.182.136-1.046-.545-1.139-1-2.868.545-.548.093-.96-.548-1.229-2.915-.455-.681.906-1.321.229-1.046-.5-1.318-.369-2.188-.68-.548.412,1.368,2.55-.276,1.5.77,3.416,3.051,4.011.132,3.234.77.963.09,2.184-.455.19-.4,1.307.863,1.923,1.551,2.55.638.229.193.455-.276.362h-.544l-.913.87.913,2.5,1.411.322.727-.82,2.184-.866,2.185,1.049,2.872-.225.276.408,1.049.276,3.732-.87,3-.272.87-1.415,1.135.595.412,2.184,1.411-.043.093,1.458,1.909-.276,1.733-1.54,1.687-.455,1.228-.681.276.272.5,4.008,2.55,1.457,1.364-.684.276.276v.34l.82,1.045,1.089.093-.727-3,1.278-.963,1.318-.964.272-.963Zm-42.767-6.93.276.544.5-.179-.047-.229Zm.964-.77.68.637.182-.272-.319-.365Z" transform="translate(-893.015 -717.797)" fill="#919191" stroke="#fff" stroke-width="1"/>
          </g>
          <g id="Group_46" data-name="Group 46" transform="translate(91.142 1.225)">
            <path id="Path_34" data-name="Path 34" d="M954.943,763.645l-.365-1.411-1.5-.458-.91-.91h-1.1l.193-.913.19-1.225.964-.594-.179-.544-1.185-.319-1.812-2.095-1.411-.193-.591-1.046.913-.595-.551-.548-2.457-1.139-2.693-1.365-.87-1.457-1.182-.226-.136-1.142-.14-.863-1.454-1.139v-2.181l.863-1V741.23l.731-1.361-.365-1.142-1.687-2.1.548-1.092-.09-1.092.863-.638-.276-1.189.641-1-.459-.591.459-1.912-.183-2.872,1.687-.455,1.54-.272v-.455l-.637-.77-1.82-.591-2.6-2.145-1.776-.132-.344-.551.136-.77-.82-1.139-.365-.77.548-1.5-.226-.82.5-1.55-.276-.77-.548.14-1.181,1.093-1,2.732-1,1-2.371.455-2.227-.179.086,3.323-.727.77.05,1.869-1.687,1.819-.5,1.912.361.867v.455l.688,1.049-.193,1.228-.684.272-.591.964-2-.09-.193.5-2.643,1.139-.179,2.55,1.411.867-.408.548-.73-.093-.964.272.412,1.092-.573.63-.089.634.318.322.91-.14.193.319-2.188,3.327.093.863-.544.867-.276,1.232,1.139.96-.412.365-.634.963.544.591.684-.229.365.047.136.548-.684,1.139.14.96-1.869,1.185.684,2,1.912.412,2,2.278.365,2.006,2.367,1.912,2.277,3,1.733.5,1.461-.455.91-.591,1.139.362.684-.82,3.506.319.548-.319-.684-.964.272-.5,1.275.276.9-.666,2.005.5.591,1.687,2,2.138-.77,1,.866.731-.093,1h.641l.5-.322.455.193-.365.77.77.458,1.046.362.548-.362.727.362.863.87,1.325-.87.136-1,1.5-.77,1.454.451,1.1-.544.5-2.185.544-1.916.867-.09.684-1.046.637-.093.315-.82Z" transform="translate(-915.693 -713.551)" fill="#919191" stroke="#fff" stroke-width="1"/>
          </g>
          <g id="Group_47" data-name="Group 47" transform="translate(74.496 81.24)" opacity="0.75">
            <path id="Path_35" data-name="Path 35" d="M950.589,770.693l-1.318-.459-.594-.863-.193-1.5-3.778-.591-1.318,1.05-.684-.1h-1.554l.688-2.593-.193-1-2.958-3.144-1.314-2.006.594-3.6.544-3.144-.963-3.416.77-1.143,1.318-1.085.687-1.325-.412-3-2.539-1.321-1.228-2-1.683-2.414-1.733,1.637-.591.365-1.05-1.046-.867.548-1.135-.638-1.415.77-2.46-1.641v-.863l-.77-.272-1.411.319-1.827,1.5-1.909.684-.684.87-.136,2.55-.5.91-3.187.866-1.458,2,1.819,2.371,1.823,1.322,1.182,2.052.14.859.136,1.1.229,3.051-.963,1.5-.724.917.362,2.045.73.322.365,1.5-.82.863.684,2.141-.14,1.139-.179,1.454-.365.913-.5.14-.863-.594-.276.14.14,1.407-1.869,2.464-.727,2.55-.964,1.54-.179,1.594-1.322.591,1.046.77.183,1.407.684.77.365,1.049-.548,2.643.82.455v1.457l.77-1.049,2.092-.77.684.727.82.047,1.54-.963.365-1.275.727-1.139.046-1.046,1.046-1.278,1.414-1.364.545,2h1.049l.963.964.365,2.274.964,1.049,1.916-5.812,1.185.867,2.732-2.733,1.641,3.689,1.5-1.092.638-.909.5-.093.82.14.043.455.455.276.548-.276,1.5,1.5.544,1.278.913-.591,1.228-1.913.863-.193.276-.591,2.872-2.184.09-.641.77-.455v-.5l1.228-.963-.047-.541Z" transform="translate(-911.045 -735.894)" fill="#919191" stroke="#fff" stroke-width="1"/>
          </g>
          <g id="Group_48" data-name="Group 48" transform="translate(59.423)" opacity="0.5">
            <path id="Path_36" data-name="Path 36" d="M949.2,725.629l-.047-1.869.727-.77-.089-3.323-1.923-.183-1.82.362-.093-.272.455-.455-.638-.591-1.819,1.5-2.453-1.779-1.411.82-.77-.455-.548.455-.043.77-5.332.183-.638-.77-2.868.136-1.229,1.228-.458-1.683-.91-.5-3.961-.867-.963.638-.455-.272-.093-.455,1.139-1.139-.68-.77-2.46.179-2.185.963-.552-.365-.226-1.594-3.961-1.54-2.872.179-.544.319-.229,1.185,2.277,2.41v.369l-.272.089-2.1-.695-1.411,2.048-.913.964.913.731,1.866,2.091,1.185.731,1.415,2.868-.14.727-.229,1.185,1,.183v.362l-1.046,1.232.226,1.823,1.321,1.322-.273.77-.77,1.135.77.77.548,2.278-1.321.96,1.869,1.687,2.593-.684L918,739.52l2.185.77.544.458,1.278-.824,2.639,1.869,1.186.272.548-.455.183-.193,1.049,1.049,1.135-.964,4.1.458.684-.458,1.5.731,2.367,3.055,2.457.77,2.188-3.327-.193-.322-.91.14-.318-.318.1-.609.594-.641-.4-1.092.963-.272.731.093.408-.548-1.411-.867.179-2.55,2.643-1.139.193-.5,2,.09.591-.963.68-.272.193-1.232-.684-1.046v-.455l-.365-.867.5-1.916Z" transform="translate(-906.836 -713.209)" fill="#919191" stroke="#fff" stroke-width="1"/>
          </g>
          <g id="Group_49" data-name="Group 49" transform="translate(100.822 84.291)" opacity="0.35">
            <path id="Path_37" data-name="Path 37" d="M974.839,760.25,974.2,759.2l-2.367-1.826-.684-2.274-1.232-1.236-1.59-.179-.365-.591-.14-.727,3.553-3.921-1.046-2.686-2.5-1.5-.73-1.139.365-2.872-.963-1.178-.179-1.873-2.417-.455-4.692,1.228-1.182,1.232-.641,1.365.369,1.228.77.369.136.408-2.324,1.955-2.6.87-.272-.684.455-.963,1.458-.727.276-3.234-.964-1.411-3.323,3.23-1.923.548-.455-.591-1.232-.193-1.046,1.182-.964.322-.77-1.185h-.541l-1.826-2.278-2.643-1.823-.269.193-2.7.544-2.414,8.108-.91-1.139.1-.544-.462-.591.193-.412-.365-.548-1.046-.179-.408,1.139-.462-.093-.315-.637-.638.136-.412.867-1.074-.859-.684.684.272.96.193.591-2.005,1.866-.548-.587-2.184-.143-1.644.641-.544-.863-.77-.276.093-.638-.276-.906-1.318,1.085-.77,1.146.964,3.413-.544,3.144-.63,3.588,1.325,2.006,2.958,3.144.19,1-.684,2.593h1.551l.684.1,1.318-1.05,3.782.591.193,1.5.591.863,1.318.458-1.365,3.735.047.544-1.229.963v.5l-.77.458-.09.638-2.89,2.185-.272.591-.866.193-1.229,1.909-.909.591,1.1,3.631,1.046.043.77,2.46,1.322.548.272,2.417,1.182-.412.824.68.684,1.053h.451l.093-.77.276-.727.863-.193,1.321.634,1.089-1.139,1.826.963.545.548.458-1.185h2l.637,1.457.229.229.684-.77,1.458-.276,1.186-1.046.863.272,1-.415.591,2.238.412.276.82-.641.591.322.179.132.594-.591.727.318.458,1,.5-.179,1.54,1.5,1.139-.731-.14-.19-.451-.964.727-.684.684,1.275.226-.05.276-1v-.684l-.867-2.46-.684.09-.727-.183-.412.276-.272-.193-1.905-2.063.179-.276.863.093L949.1,784.3l.272-.047,2.278.047.5-.77-.77-1.278.727-2.142.684-.043.964-.548.412.089.451-1.228.183-.458,2.367-1.683-.132-.408.817-.77,1.321-.369,2.414-1.5.365-2-.229-.319-1.5.09-.276-.548.964-2.141,2.005,1.411,1.5-.136,2.1-1.683,1.049-1.092,2.915.222.963-.222,1.092-2,1.275-.828,1.049-1.046-.319-1.228Z" transform="translate(-918.396 -736.746)" fill="#919191" stroke="#fff" stroke-width="1"/>
          </g>
        </g>
      </g>
    </g>
    <g id="infographic" transform="translate(-717.406 3155.618)">
      <g id="Group_14" data-name="Group 14" transform="translate(811.943 675.161)">
        <circle id="Ellipse_56" data-name="Ellipse 56" cx="21.223" cy="21.223" r="21.223" transform="translate(0 7.644)" fill="none" stroke="#848484" stroke-width="3"/>
        <path id="Path_11" data-name="Path 11" d="M823.446,700.628l25.463-25.467h17.824" transform="translate(-802.225 -675.161)" fill="none" stroke="#848484" stroke-width="1"/>
        <path id="Path_12" data-name="Path 12" d="M826.206,695.869l14.43,14.432h16.979" transform="translate(-799.893 -657.667)" fill="none" stroke="#848484" stroke-width="1"/>
        <line id="Line_22" data-name="Line 22" x2="25.469" transform="translate(72.152 0)" fill="none" stroke="#848484" stroke-width="4"/>
        <line id="Line_23" data-name="Line 23" x2="25.469" transform="translate(65.352 52.633)" fill="none" stroke="#848484" stroke-width="4"/>
      </g>
    </g>
    <g id="dot_matrix" data-name="dot matrix" transform="translate(-475.406 3103.618)">
      <g id="Group_18" data-name="Group 18" transform="translate(570.987 807.659)">
        <g id="Group_104" data-name="Group 104">
          <circle id="Ellipse_59" data-name="Ellipse 59" cx="8.436" cy="8.436" r="8.436" fill="#848484"/>
          <circle id="Ellipse_60" data-name="Ellipse 60" cx="8.436" cy="8.436" r="8.436" transform="translate(0 24.814)" fill="#848484"/>
          <circle id="Ellipse_61" data-name="Ellipse 61" cx="8.436" cy="8.436" r="8.436" transform="translate(0 49.629)" fill="#848484"/>
          <circle id="Ellipse_62" data-name="Ellipse 62" cx="8.436" cy="8.436" r="8.436" transform="translate(26.138)" fill="#848484"/>
          <circle id="Ellipse_63" data-name="Ellipse 63" cx="8.436" cy="8.436" r="8.436" transform="translate(26.138 24.814)" fill="#848484"/>
          <circle id="Ellipse_64" data-name="Ellipse 64" cx="8.436" cy="8.436" r="8.436" transform="translate(26.138 49.629)" fill="#848484"/>
          <circle id="Ellipse_65" data-name="Ellipse 65" cx="8.436" cy="8.436" r="8.436" transform="translate(52.277)" fill="#848484"/>
          <circle id="Ellipse_66" data-name="Ellipse 66" cx="8.436" cy="8.436" r="8.436" transform="translate(52.277 24.814)" fill="#848484" opacity="0.5" style="isolation: isolate"/>
          <circle id="Ellipse_67" data-name="Ellipse 67" cx="8.436" cy="8.436" r="8.436" transform="translate(52.277 49.629)" fill="#848484" opacity="0.5" style="isolation: isolate"/>
        </g>
        <g id="Group_105" data-name="Group 105" transform="translate(78.66 0.245)">
          <path id="Path_13" data-name="Path 13" d="M621.311,815.957a8.188,8.188,0,1,1,0-.007Z" transform="translate(-604.932 -807.765)" fill="none" stroke="#848484" stroke-width="1"/>
          <path id="Path_14" data-name="Path 14" d="M621.311,826.662a8.189,8.189,0,1,1-8.189-8.189,8.189,8.189,0,0,1,8.189,8.189Z" transform="translate(-604.932 -793.66)" fill="none" stroke="#848484" stroke-width="1"/>
          <path id="Path_15" data-name="Path 15" d="M621.311,837.372a8.186,8.186,0,1,1,0-.007Z" transform="translate(-604.932 -779.552)" fill="none" stroke="#848484" stroke-width="1"/>
        </g>
      </g>
    </g>
    <path id="Icon_ionic-md-person" data-name="Icon ionic-md-person" d="M32,32A13.75,13.75,0,1,0,18.25,18.25,13.79,13.79,0,0,0,32,32Zm0,6.875c-9.109,0-27.5,4.641-27.5,13.75V59.5h55V52.625C59.5,43.516,41.109,38.875,32,38.875Z" transform="translate(250.5 463.5)" fill="#d1d1d1"/>
    <text id="Data_source:_Gun_Violence_Archive" data-name="Data source: 
Gun Violence Archive" transform="translate(80 1621)" fill="#464242" font-size="10" font-family="HKGrotesk-LightLegacyItalic, HK Grotesk" font-weight="300" font-style="italic"><tspan x="0" y="9">Data source: </tspan><tspan x="0" y="21">Gun Violence </tspan><tspan x="0" y="33">Archive</tspan></text>
    <text id="Data_source:_City_police_department" data-name="Data source: City police department" transform="translate(137 540)" fill="#464242" font-size="10" font-family="HKGrotesk-LightLegacyItalic, HK Grotesk" font-weight="300" font-style="italic"><tspan x="0" y="9">Data source: City police </tspan></text>
    <text id="Data_source:_City_police_department-2" data-name="Data source: City police department" transform="translate(279 1116)" fill="#464242" font-size="10" font-family="HKGrotesk-LightLegacyItalic, HK Grotesk" font-weight="300" font-style="italic"><tspan x="0" y="9">Data source: </tspan><tspan x="0" y="21">City police </tspan></text>
    <text id="Data_source:_IMHE_Global_burden_of_disease" data-name="Data source: 
IMHE Global burden of disease" transform="translate(91 2226)" fill="#464242" font-size="10" font-family="HKGrotesk-LightLegacyItalic, HK Grotesk" font-weight="300" font-style="italic"><tspan x="0" y="9">Data source: </tspan><tspan x="0" y="21">IMHE Global burden of </tspan><tspan x="0" y="33">disease</tspan></text>
    <text id="Data_source:_Gun_Violence_Archive_American_Community_Survey" data-name="Data source: 
Gun Violence Archive,
American Community Survey" transform="translate(70 2827)" fill="#464242" font-size="10" font-family="HKGrotesk-LightLegacyItalic, HK Grotesk" font-weight="300" font-style="italic"><tspan x="0" y="9">Data source: </tspan><tspan x="0" y="21">Gun Violence Archive,</tspan><tspan x="0" y="33">American Community Survey</tspan></text>
    <text id="Data_source:_Gun_Violence_Archive_American_Community_Survey-2" data-name="Data source: 
Gun Violence Archive,
American Community Survey" transform="translate(263 3379)" fill="#464242" font-size="10" font-family="HKGrotesk-LightLegacyItalic, HK Grotesk" font-weight="300" font-style="italic"><tspan x="0" y="9">Data source: </tspan><tspan x="0" y="21">Gun Violence </tspan><tspan x="0" y="33">Archive,</tspan><tspan x="0" y="45">American </tspan></text>
    <text id="Data_source:_TBC_Everytown_for_gun_safety_Giffords_Law_Center_" data-name="Data source: 
TBC
Everytown for gun safety
Giffords Law Center
" transform="translate(244 3930)" fill="#464242" font-size="10" font-family="HKGrotesk-LightLegacyItalic, HK Grotesk" font-weight="300" font-style="italic"><tspan x="0" y="9">Data source: </tspan><tspan x="0" y="21">TBC</tspan><tspan x="0" y="33">Everytown for gun </tspan><tspan x="0" y="45">safety</tspan></text>
    <g id="Group_83" data-name="Group 83">
      <path id="Path_48" data-name="Path 48" d="M0,0H414V36H0Z" fill="#727272"/>
      <text id="Section_1:_Intro" data-name="Section 1: Intro" transform="translate(20 5)" fill="rgba(255,255,255,0.99)" font-size="20" font-family="HKGrotesk-Bold, HK Grotesk" font-weight="700"><tspan x="111.24" y="20">Section 1: Intro</tspan></text>
    </g>
    <text id="Point" transform="translate(75 231)" fill="#464242" font-size="10" font-family="HKGrotesk-LightLegacyItalic, HK Grotesk" font-weight="300" font-style="italic"><tspan x="0" y="9">Point</tspan></text>
  </g>
</svg>
