<svg xmlns="http://www.w3.org/2000/svg" width="576.629" height="540.486" viewBox="0 0 576.629 540.486">
  <g id="Group_743" data-name="Group 743" transform="translate(-1136 -1471)">
    <path id="Path_2581" data-name="Path 2581" d="M270.079,0C419.24,0,540.158,120.919,540.158,270.079S419.24,540.158,270.079,540.158,0,419.24,0,270.079,120.919,0,270.079,0Z" transform="translate(1136 1471)" fill="#c69ecc"/>
    <circle id="Ellipse_264" data-name="Ellipse 264" cx="269.5" cy="269.5" r="269.5" transform="translate(1173 1471.987)" fill="#f0bef8"/>
    <path id="Subtraction_3" data-name="Subtraction 3" d="M269.751,540.158a273.44,273.44,0,0,1-32.248-1.91l-2.148-27.027,4.038-9.874a2.291,2.291,0,0,0,.173-.848l.1-15.594a2.374,2.374,0,0,0-.231-1.014l-2.956-6.115,3.986-24.558,5.494-1.312a2.306,2.306,0,0,0,1.731-1.805l3.75-20.1,2.624-16.031,1.856.6a2.284,2.284,0,0,0,.7.114,2.292,2.292,0,0,0,2.192-2.991l-1.95-6.04,1.922-5.221a2.288,2.288,0,0,0-1.272-2.9l-1-.423,2.308-9.428a2.576,2.576,0,0,0,.373.24,2.376,2.376,0,0,0,1.042.247,2.327,2.327,0,0,0,1.08-.276l3.831-2.033,2.9.212.167,0a2.369,2.369,0,0,0,.777-.131l8.57-3.061a2.32,2.32,0,0,0,.955-.647l4.527-5.152a2.311,2.311,0,0,0,.546-1.186l1.294-8.975a2.2,2.2,0,0,0,.022-.436l-.838-17.422h.408a2.322,2.322,0,0,0,1.834-.912l1.967-2.591a2.228,2.228,0,0,0,.46-1.306l.116-3.45a2.267,2.267,0,0,0-.133-.854l-1.674-4.613a2.3,2.3,0,0,0-1.966-1.5l-.766-.068,2.267-17.63.323-4.711-.933-16.035-2.587-15.509-1.042-11.508,15.681-6.71a2.313,2.313,0,0,0,1.294-1.451,2.264,2.264,0,0,0-.287-1.924l-8.824-13.268-13.362-26.014-6.259-12.212-5.4-8.126-2.576-3.909a2.13,2.13,0,0,0-.7-.682l-14.57-9.136a2.255,2.255,0,0,0-.529-.246l-14.133-4.464-14.232-6.185-2.329-9.13,2.651-8.194a2.17,2.17,0,0,0,.092-.4l1.088-8.271a2.341,2.341,0,0,0-.035-.8l-1.11-5.048.16-.1a2.173,2.173,0,0,0,.5-.424l2-2.258a2.289,2.289,0,0,0,.465-.824l1.167-3.662a2.282,2.282,0,0,0-.788-2.51l-3.52-2.689-.011-2.75.173-6.694a2.047,2.047,0,0,0-.046-.521L217.7,113.8a2.317,2.317,0,0,0-.494-1.026l-5.045-5.96a2.079,2.079,0,0,0-.46-.413l-6.085-4.143a2.417,2.417,0,0,0-.726-.332l-9.7-2.471a2.211,2.211,0,0,0-.576-.074c-.067,0-.126,0-.191.008l-.056,0-10.509,1.13a2.315,2.315,0,0,0-.811.24L175,104.906a2.361,2.361,0,0,0-.355.235l-8.584,6.723a2.2,2.2,0,0,0-.753,1.037l-3.089,8.649a2.307,2.307,0,0,0-.132.8l.1,9.624a2.123,2.123,0,0,0,.116.669l1.771,5.537a2.276,2.276,0,0,0-.61,1.708l.329,5.2a2.228,2.228,0,0,0,.316,1.032l4.371,7.313a2.476,2.476,0,0,0,.506.59l2.076,1.725,1.058,2.711.317,6.132-.225,2.864-9.1,7.273a2.281,2.281,0,0,0-.851,1.583l-.154,1.764-5.31,1.7v-1.318a2.294,2.294,0,0,0-2.083-2.28l-7.443-.7c-.075-.006-.139-.006-.219-.006a2.184,2.184,0,0,0-.6.081l-5.527,1.513a2.275,2.275,0,0,0-1.462,1.2l-3.71,7.57-8.191,5.021a2.424,2.424,0,0,0-.621.562l-5.447,7.094a2.944,2.944,0,0,0-.2.321L109.474,220.92l-4.516,10.6L96.279,243.69a2.927,2.927,0,0,0-.191.327L88.04,260.573a2.285,2.285,0,0,0,.6,2.757l6.776,5.623-3.226,20.706-2.762,30.553-.472,12.54L87.212,340.5a2.4,2.4,0,0,0-.046.757l.391,3.5a2.148,2.148,0,0,0,.058.32l.914,3.559-.368,19.9a2.272,2.272,0,0,0,.505,1.478l4.367,5.427,4.406,7.039a2.3,2.3,0,0,0,1.771,1.072l4.981.372,2.642,1.972a2.3,2.3,0,0,0,1.38.459c.055,0,.107,0,.167-.009h0l.042,0,3.2-.3,5.1.66.036,0h0a2.464,2.464,0,0,0,.253.018,2.3,2.3,0,0,0,2.042-1.231l.989-1.88a1.465,1.465,0,0,0,.132-.332l2.043.607L120.132,397.4c-.016.1-.022.194-.029.3l-1.052,47.471,1.673,16.941-1.984,10.477a2.63,2.63,0,0,0-.04.374l-.133,5.92a2.22,2.22,0,0,0,.41,1.352l6.592,9.519-.932,5.915a2.179,2.179,0,0,0,.114,1.129l.5,1.385A269.524,269.524,0,0,1,2.293,305.46a274.2,274.2,0,0,1-.9-62.995A270.811,270.811,0,0,1,5.48,215.649c1.778-8.7,4.014-17.41,6.646-25.883,2.6-8.378,5.655-16.727,9.071-24.814A270.651,270.651,0,0,1,164.751,21.224c8.077-3.42,16.415-6.476,24.783-9.082C198,9.506,206.7,7.267,215.387,5.487A270.207,270.207,0,0,1,242.17,1.395a273.432,273.432,0,0,1,55.161,0,270.207,270.207,0,0,1,26.784,4.092c8.688,1.78,17.386,4.02,25.852,6.655,8.368,2.606,16.706,5.662,24.783,9.082A270.762,270.762,0,0,1,518.3,164.952c3.416,8.085,6.467,16.434,9.071,24.814,2.631,8.472,4.868,17.18,6.647,25.883a270.94,270.94,0,0,1,4.087,26.816,274.29,274.29,0,0,1,0,55.228,270.949,270.949,0,0,1-4.087,26.816c-1.78,8.7-4.016,17.412-6.647,25.883-2.6,8.38-5.656,16.729-9.071,24.813A270.643,270.643,0,0,1,374.75,518.934c-8.078,3.421-16.416,6.477-24.783,9.082-8.462,2.635-17.16,4.875-25.852,6.655a270.13,270.13,0,0,1-26.784,4.093A273.71,273.71,0,0,1,269.751,540.158Zm-81.624-12.585h0c-3.5-1.111-7.02-2.309-10.46-3.561l-2.256-8.344L174.4,505.106l.34-21.348,4.848-15.176,4.257-9.061a2.288,2.288,0,0,0,.208-1.14l-1.531-20.4.213-1.519,1.611,8.992,3.124,28.455.7,11.766a2.247,2.247,0,0,0,.127.63L191,493.884l-2.254,9.669a2.1,2.1,0,0,0-.059.464l-.559,23.555Zm51.708-77.731h0l9.388-58.108,6.563-27.514-.1,3.426-.4,7.532a.482.482,0,0,0,.07.236.787.787,0,0,1,.061.148,1.061,1.061,0,0,1,.04.141l0,.008a.6.6,0,0,0,.108.263.523.523,0,0,0,.224.135.935.935,0,0,1,.134.061c.038.022.074.049.108.074a.561.561,0,0,0,.271.132l1.691.177-5.3,21.635a.373.373,0,0,0,.022.2.59.59,0,0,1,.029.14c0,.034,0,.067.005.1a.8.8,0,0,0,.063.338.814.814,0,0,0,.221.232l.012.009.061.05a.76.76,0,0,1,.086.1.408.408,0,0,0,.173.16l1.8.756-1.812,4.935a.393.393,0,0,0,0,.223.673.673,0,0,1,.018.138.709.709,0,0,1-.025.135.411.411,0,0,0-.01.243l1.507,4.659-2.272-.728a.056.056,0,0,0-.018,0,.137.137,0,0,0-.029,0h0a.122.122,0,0,1-.031.006l-.017,0a.076.076,0,0,1-.033-.02.089.089,0,0,0-.043-.026.2.2,0,0,0-.038,0,.4.4,0,0,0-.154.042.561.561,0,0,1-.129.042l-.057.006H252a.788.788,0,0,0-.385.1.551.551,0,0,0-.163.179l0,.007c-.02.029-.04.06-.062.089a.913.913,0,0,1-.106.106l0,0a.467.467,0,0,0-.16.211.085.085,0,0,0,0,.048.082.082,0,0,1,0,.049.089.089,0,0,1-.023.036.093.093,0,0,0-.023.039l-3.043,18.609v0l-3.612,19.337-4.585,1.088Zm21.318-65.753h0l-.08-.515,2-4.539v-.051l.035-.046,2.864-8.552a.11.11,0,0,0,0-.074.13.13,0,0,1-.008-.051.189.189,0,0,1,.036-.067.14.14,0,0,0,.034-.066l.494-5.582a.08.08,0,0,0-.012-.038.066.066,0,0,1-.01-.03.655.655,0,0,0-.072-.282l0,0c-.017-.039-.034-.079-.047-.121s-.033-.085-.046-.125a.694.694,0,0,0-.138-.271l-.03-.069-1.789-1.667a.171.171,0,0,0-.089-.042.189.189,0,0,1-.071-.027.227.227,0,0,1-.049-.058.209.209,0,0,0-.072-.074.206.206,0,0,0-.088-.017c-.025,0-.051,0-.071,0a.611.611,0,0,1-.071,0,.337.337,0,0,1-.046,0,1.243,1.243,0,0,0-.292-.043.745.745,0,0,0-.139.013,1.087,1.087,0,0,0-.38.172.415.415,0,0,1-.109.043.272.272,0,0,0-.144.072.155.155,0,0,0-.037.09.175.175,0,0,1-.026.074.247.247,0,0,1-.063.053.148.148,0,0,0-.068.067l-2.025,4.133a.051.051,0,0,0,0,.029.048.048,0,0,1,0,.033.048.048,0,0,1-.021.027.063.063,0,0,0-.023.025l-2.791,7.708-.04-.006.351-6.441-.006-.018.006-.011.288-9.571,2.139-5.118.685-1.232,4.733-8.458,3.647-.665,5.252,1.221.959.935v0l1.215,1.244a.207.207,0,0,0,.1.048h0a.271.271,0,0,1,.087.037.265.265,0,0,1,.061.069.205.205,0,0,0,.078.081l3.077,1.455a.68.68,0,0,0,.172.045h0c.028,0,.058.01.088.017v.356l.011.029-.011.028.88,18.271-1.236,8.522-4.108,4.672-8.064,2.882-1.173-.086,3.2-4.063a.2.2,0,0,0,.035-.107.273.273,0,0,1,.023-.093.625.625,0,0,1,.069-.1l0,0h0a.409.409,0,0,0,.1-.171l2.111-10.334a1.153,1.153,0,0,0-.9-1.352,1.362,1.362,0,0,0-.229-.02,1.118,1.118,0,0,0-1.128.913l-2.059,10.076-4.194,5.336-2.76,1.472ZM116.348,383.2h0l-4.55-.6h-.008a.12.12,0,0,0-.055.017.123.123,0,0,1-.058.018.132.132,0,0,1-.066-.021.111.111,0,0,0-.057-.02h-.008l-3.015.28-2.825-2.1a.358.358,0,0,0-.187-.06.488.488,0,0,1-.128-.026.461.461,0,0,1-.116-.064.363.363,0,0,0-.166-.074l-5.067-.391-4.235-6.773-.057-.04a.068.068,0,0,1-.011-.039.074.074,0,0,0-.006-.03l-3.158-3.92-.937-2.287.357-18.695a.152.152,0,0,0-.031-.083.121.121,0,0,1-.015-.137.14.14,0,0,0,.01-.078l-.978-3.795-.357-3.22,1.75-7.766a.11.11,0,0,0-.01-.056.152.152,0,0,1-.013-.058.1.1,0,0,1,.022-.042.1.1,0,0,0,.024-.056l.472-12.585,2.71-30.358,3.175-20.391,10.52,5.49a.176.176,0,0,0,.066.017.157.157,0,0,1,.066.018.041.041,0,0,1,.023.021c.006.009.011.017.022.019l16.36,5.164a1.051,1.051,0,0,0,.223.034h.012l.035.017,2.037.149-6.219,13a.174.174,0,0,0,0,.088.181.181,0,0,1,0,.084.169.169,0,0,1-.046.067.137.137,0,0,0-.045.077l-2.319,15.061-7.7,15.972-7.237,13.595a.076.076,0,0,0-.007.047.086.086,0,0,1,0,.039.079.079,0,0,1-.029.031.077.077,0,0,0-.028.032l-.967,2.635v.034a.607.607,0,0,0,0,.3c.008.047.016.093.02.138s0,.089,0,.133a.592.592,0,0,0,.044.3v.035l1.645,3.061a.041.041,0,0,0,.022.024.061.061,0,0,1,.019.016v.039l4.469,7.044L111.458,357l2.168,8.206a.078.078,0,0,0,.021.036.1.1,0,0,1,.025.038.048.048,0,0,1,0,.034.05.05,0,0,0,0,.036l2.122,5.164-.362,1.284-1.312.017-2.7-2.826-2.979-6.223a.1.1,0,0,0-.039-.033.1.1,0,0,1-.032-.025.663.663,0,0,0-.227-.217l0,0h0c-.028-.019-.057-.04-.086-.062l-.063-.055-.005,0a.726.726,0,0,0-.287-.186.1.1,0,0,1-.034-.024.077.077,0,0,0-.036-.022l-2.375-.492a.227.227,0,0,0-.048,0,.491.491,0,0,0-.161.037.724.724,0,0,1-.126.036h-.035a.712.712,0,0,1-.1-.009h-.009a.728.728,0,0,0-.105-.009.277.277,0,0,0-.106.018l-1.968.848a.272.272,0,0,0-.12.109.425.425,0,0,1-.069.081,1,1,0,0,0-.294.3.85.85,0,0,0-.125.4.39.39,0,0,1-.042.1.283.283,0,0,0-.045.153l.483,5.433a.33.33,0,0,0,.066.144.41.41,0,0,1,.061.114.316.316,0,0,1,.013.108.24.24,0,0,0,.027.132l4.079,6.626a.125.125,0,0,0,.08.049.12.12,0,0,1,.069.037.378.378,0,0,1,.059.11.268.268,0,0,0,.079.124l5.833,4.35a.438.438,0,0,0,.188.072h0a.668.668,0,0,1,.112.031.205.205,0,0,1,.074.055.162.162,0,0,0,.082.054l2.807.568.628.91-.3.567Zm6.551-2.7h0l-1.863-.555-.7-4.419a.17.17,0,0,0-.046-.073.178.178,0,0,1-.035-.047.135.135,0,0,1,0-.061.1.1,0,0,0,0-.071l-2.117-5.107-2.283-19.308a.05.05,0,0,0-.019-.032.047.047,0,0,1-.016-.019.071.071,0,0,1,.006-.024v0a.049.049,0,0,0,0-.042l-1.753-7.794.7-1.989,1.312-.16h0l9.451-1.036,3.342,1.788.713,11.341.013.035-.006.035,1.352,11.307-4.825,14.351-1.64.962-1.594.922Zm-5.6-2.033h0l-.131-.035-2.756-.55-5.069-3.776-3.56-5.793-.276-3.107.31.069,2.578,5.369a2.714,2.714,0,0,0,.4.59l3.164,3.325a2.321,2.321,0,0,0,1.674.717l.086-.006,2.756-.1.483,1.168.34,2.132ZM192.985,361.9h0l-3.142-2.43-1.661-14.1v-.006l-1.012-8.4v-.006l-.305-6.408-.144-3,1.61-.544,10.618-1.581.6,1.231.011.012v.011l.88,1.7,1.444,28.816-.373,3.765-8.525.929Zm-78.394-1.992-.941-3.562c0-.012-.008-.018-.016-.026a.055.055,0,0,1-.019-.025.046.046,0,0,1,0-.034.05.05,0,0,0,0-.034l-1.778-4.631a.1.1,0,0,0-.042-.042.108.108,0,0,1-.044-.043.133.133,0,0,1-.007-.058.1.1,0,0,0-.011-.062l-4.516-7.119-1.38-2.567.765-2.081,7.2-13.525v-.023l.017-.022,7.794-16.167a.141.141,0,0,0,.007-.094v0a.159.159,0,0,1,0-.059.276.276,0,0,1,.049-.074l0,0h0a.18.18,0,0,0,.047-.083l2.318-15.062,6.863-14.361a.05.05,0,0,0,.014-.047.047.047,0,0,1,0-.028.128.128,0,0,1,.026-.037.152.152,0,0,0,.031-.048l2.456-8.081.95-1.279.132,8.74-3.808,15.164a.058.058,0,0,0,0,.043.07.07,0,0,1,.006.049.06.06,0,0,1-.022.041.074.074,0,0,0-.024.04l-2.076,22.912a.314.314,0,0,0,.045.157l0,0a.4.4,0,0,1,.042.113.493.493,0,0,1,0,.121.334.334,0,0,0,.01.172l2.888,6.555a1.087,1.087,0,0,0,.322.367.115.115,0,0,1,.025.043.085.085,0,0,0,.033.049l3.791,2.752-2.187,13.29-2.024,5.811-.4-6.287a.141.141,0,0,0-.035-.074.148.148,0,0,1-.029-.053.8.8,0,0,0-.108-.252c-.016-.027-.032-.056-.047-.085a.919.919,0,0,0-.3-.367.157.157,0,0,1-.042-.055.125.125,0,0,0-.044-.054l-3.877-2.068-1.755-3.95,1.139-3.111a.484.484,0,0,0,0-.264.845.845,0,0,1-.019-.149.953.953,0,0,1,.013-.141.476.476,0,0,0-.013-.271l-1.126-2.746a.068.068,0,0,0-.032-.034.067.067,0,0,1-.032-.034.725.725,0,0,0-.21-.224l-.013-.011c-.027-.021-.055-.044-.082-.069s-.053-.047-.083-.076a.673.673,0,0,0-.268-.182.1.1,0,0,1-.037-.028.063.063,0,0,0-.032-.023l-5.21-1.307a.232.232,0,0,0-.044,0,.414.414,0,0,0-.123.024h0a.409.409,0,0,1-.123.025.416.416,0,0,1-.12-.023h0a.393.393,0,0,0-.115-.022.239.239,0,0,0-.054.007l-3.1.826a.212.212,0,0,0-.093.066.212.212,0,0,1-.067.054,1.086,1.086,0,0,0-.347.263,1.067,1.067,0,0,0-.224.356.222.222,0,0,1-.052.079l0,0a.224.224,0,0,0-.06.1l-.833,4.775a.181.181,0,0,0,.021.1.221.221,0,0,1,.025.092.21.21,0,0,1-.024.086.172.172,0,0,0-.022.1l1.086,6.625-.852.109a.193.193,0,0,0-.09.05.207.207,0,0,1-.077.046,1.1,1.1,0,0,0-.364.208l0,0a.946.946,0,0,0-.275.31.249.249,0,0,1-.062.062.168.168,0,0,0-.065.076l-1.047,2.963a.3.3,0,0,0,0,.187.42.42,0,0,1,.013.129.533.533,0,0,1-.031.133.373.373,0,0,0-.026.195l1.817,8.056,1.034,8.72Zm139.47-.811h-3.388l-6.868-4.631-4.125-8.3-.771-8.861.4-6.246.27-4.132a.1.1,0,0,0-.019-.063.11.11,0,0,1-.021-.058.163.163,0,0,1,.018-.063.118.118,0,0,0,.017-.063l-1.173-7.971.919-3.025v-.007l1.56-5.175,2.651-.63,5.483,2.034a.512.512,0,0,0,.131.027h.006l.052.007.04.029,3.118.476,2.525.395.478,1.021-.317,7.347-.633,6.67a.3.3,0,0,0,.043.165.425.425,0,0,1,.043.117.415.415,0,0,1,0,.121.3.3,0,0,0,.009.16l2.754,6.447,1.082,4.625.11,2.068.465,9.416-.558,1a.064.064,0,0,0,0,.033.054.054,0,0,1,0,.036l-.051.052-2.146,5.135-1.087.951v.006l-.011.005-1,.882Zm-45.442-.63h0l-2.214-2.046-1.641-30.662a.4.4,0,0,0-.086-.206.8.8,0,0,1-.068-.12.557.557,0,0,1-.021-.122.331.331,0,0,0-.048-.171l-1.692-2.3,9.556-2.63,2.013,2.47.006,0,.684.837.977,14.374.95,14.563-1.5,4.681-6.914,1.331Zm-52.064-1.479h0l-6.045-.1-6.017-3.92-1.674-7.376-.759-3.375,20.628.339.178,1.014.035.057a.073.073,0,0,1,0,.034.068.068,0,0,0,0,.034l1.956,6.541-.253,2.1-8.042,4.653Zm10.153-8.573h0l-1.586-5.334-.283-1.554,1.19-3.226,2.134,7.215-1.454,2.9ZM261.05,347.2v0l-.281-5.586,3.18-15.594.737,3.037.6,5.135a.98.98,0,0,0-.241.2.731.731,0,0,0-.145.256l-.008.02-.02.05a.549.549,0,0,1-.067.113.379.379,0,0,0-.083.18l-.753,6.969-2.921,5.219Zm22.865-1.593h-2.847l-2.653-1.255-.724-.745.138-3.45.69-2.235.886-.527.006-.006.909-.545,1.294.126h.028l1.294.114,1.541,1.307.926,2.51-.1,2.871-1.392,1.834Zm-143.68-.98h0l-1.1-.034-3.233-3.439,1.927-11.686.915.671a.739.739,0,0,0,.362.129l.075.013a.174.174,0,0,1,.064.037.148.148,0,0,0,.074.038l18.965,1.657.1.006h.012l20.311-.2,5.9-.057.252,5.306.024.046-.011.041.867,7.215-15.5.092-3-10.133a.061.061,0,0,0-.031-.039.07.07,0,0,1-.027-.03.654.654,0,0,0-.15-.21c-.025-.027-.049-.054-.074-.082a1.17,1.17,0,0,1-.074-.1l0-.005a.491.491,0,0,0-.152-.171l-.132-.058a.091.091,0,0,1-.03-.03.085.085,0,0,0-.027-.027.237.237,0,0,0-.091-.017.523.523,0,0,0-.109.015.656.656,0,0,1-.118.014h-.01a.471.471,0,0,1-.116-.032.4.4,0,0,0-.143-.034l-.035,0-6.378,1.2h-6.673l-6.743-1.943h-.01a.1.1,0,0,0-.024,0,.1.1,0,0,1-.025,0h-.009a.07.07,0,0,1-.026-.016.055.055,0,0,0-.038-.019l-.886-.155-.029,0a.279.279,0,0,0-.11.03.284.284,0,0,1-.113.031,1.008,1.008,0,0,0-.38.085.972.972,0,0,0-.368.275.326.326,0,0,1-.083.059.266.266,0,0,0-.1.072l-4.314,7.307a.275.275,0,0,0-.03.164.381.381,0,0,1-.011.124.476.476,0,0,1-.056.11.308.308,0,0,0-.065.165.145.145,0,0,0,.028.078.129.129,0,0,1,.024.054.139.139,0,0,1-.016.068.1.1,0,0,0-.013.064l.752,3.346Zm135.224-2.895h0l-5.7-1.324a.1.1,0,0,0-.027,0,.292.292,0,0,0-.1.024.311.311,0,0,1-.1.024.3.3,0,0,1-.1-.028.287.287,0,0,0-.113-.03H269.3l-2.9.533.518-4.785,3.411-.39,5.718.6.575.275a.387.387,0,0,1-.078.09.291.291,0,0,0-.088.117l-.862,2.791a.136.136,0,0,0,0,.089.182.182,0,0,1,.009.065.163.163,0,0,1-.034.063.126.126,0,0,0-.034.074l-.075,1.816ZM162.854,340.27h0l-20.243-.332,2.91-4.93.059.013,6.833,1.97a.993.993,0,0,0,.316.046h6.919a.87.87,0,0,0,.214-.022l4.514-.854-1.523,4.11ZM116.923,338.4h0l-1.07-6.532.673-3.87,2.111-.566,4.36,1.088.735,1.795-1.15,3.129a.7.7,0,0,0,0,.361c.009.047.017.093.021.138a.647.647,0,0,1-.006.134.412.412,0,0,0,.017.233l.006.022,1.46,3.279-7.16.79Zm101.348-2.125h0l-.9-13.267a.6.6,0,0,0-.109-.268l0,0a1.034,1.034,0,0,1-.067-.117l19.3-5.571-.379,1.261a.24.24,0,0,0,.008.143.331.331,0,0,1,.016.1.36.36,0,0,1-.032.112.293.293,0,0,0-.031.146l1.2,8.115-.206,3.221-18.792,6.127Zm41.434-1.013h0l-.229-.981a.075.075,0,0,0-.03-.041.1.1,0,0,1-.034-.046.091.091,0,0,1,0-.047.081.081,0,0,0,0-.056l-2.681-6.275.61-6.436-.011-.035.017-.035.327-7.634a.254.254,0,0,0-.048-.149.386.386,0,0,1-.049-.109.361.361,0,0,1,0-.112.287.287,0,0,0-.013-.156l-.678-1.456,1.479-5.617a.158.158,0,0,0-.01-.1.173.173,0,0,1-.014-.075.2.2,0,0,1,.031-.074.173.173,0,0,0,.033-.1l-.352-7.96a.266.266,0,0,0-.063-.145.358.358,0,0,1-.057-.1.383.383,0,0,1-.007-.108v0a.26.26,0,0,0-.028-.158l-3.347-5.852a.186.186,0,0,0-.072-.061l0,0a.172.172,0,0,1-.063-.052.245.245,0,0,1-.029-.068.2.2,0,0,0-.052-.1l-4.424-4.051-1.385-6.786-1.053-11.508,2.756,3.187,3.335,9.268.04.046v.046l4.257,9.22.6,9.5a.06.06,0,0,0,.014.033.094.094,0,0,1,.016.031.073.073,0,0,1-.009.032.063.063,0,0,0-.008.042l2.289,12.637.022.035,0,.029,1.88,7.868Zm19.05-.145h0l-1.886-.911a.162.162,0,0,0-.066-.013h-.046l-.043,0a.2.2,0,0,1-.046,0,.238.238,0,0,1-.085-.048.215.215,0,0,0-.093-.049l-6.057-.636a.145.145,0,0,0-.059.019.144.144,0,0,1-.061.021.141.141,0,0,1-.065-.02.129.129,0,0,0-.062-.02l-2.64.3-.6-5.05-.035-.068a.059.059,0,0,1,.006-.034.057.057,0,0,0,0-.036l-1.966-8.115-1.927-8.045v-.006L260.746,299.8l-.61-9.622a.216.216,0,0,0-.049-.107.244.244,0,0,1-.043-.077.24.24,0,0,1,0-.1.21.21,0,0,0-.01-.12l-3.906-8.443,22.786-12.556,1.058,11.582.022.046-.011.047,2.554,15.221.92,15.594-.293,4.441-2.433,18.884-.564-.057a.423.423,0,0,0-.191.055.552.552,0,0,1-.131.049.806.806,0,0,1-.144.013h0a.418.418,0,0,0-.236.05l-.7.418Zm-76.208-7.659-.792-1.517.059-.619.667.911.068,1.224Zm52.283-16.95h0l-.792-.12.392-1.255v-.011l.965-3.17a.206.206,0,0,0-.008-.122.252.252,0,0,1-.014-.09.265.265,0,0,1,.034-.085.182.182,0,0,0,.035-.11l-.425-6.723a.2.2,0,0,0-.055-.11.262.262,0,0,1-.049-.08.289.289,0,0,1,0-.1.226.226,0,0,0-.012-.134l-2-4.132a.226.226,0,0,0-.1-.1.316.316,0,0,1-.071-.055.32.32,0,0,1-.052-.1.254.254,0,0,0-.069-.119l-1.863-1.559-.006-.006-8.324-7.02-7.524-16.117L228.3,235.15a.057.057,0,0,0-.02-.026.078.078,0,0,1-.026-.043.087.087,0,0,1,0-.039.069.069,0,0,0,0-.046l-3.123-9.095-1.237-3.6-1.49-12.912.006-.011-.131-1.186,2.185-.081.046,1.69v.013l.4,12.1a.225.225,0,0,0,.046.1.278.278,0,0,1,.041.077.22.22,0,0,1-.005.084.2.2,0,0,0,0,.1l.593,1.536v.005l3.6,9.674,3.658,20.9.018.022,0,.023,3.1,14.287a.184.184,0,0,0,.043.071.186.186,0,0,1,.038.056.132.132,0,0,1,0,.052.113.113,0,0,0,0,.063l6.989,14.792a.48.48,0,0,0,.128.154c.023.021.045.041.067.064a.181.181,0,0,1,.027.065.109.109,0,0,0,.036.066l4.8,4.4v.011l4.567,4.18,3.118,5.449.333,7.521-1.277,4.842Zm-1.979-9.442-.62-2.9.5,1.038.12,1.865Zm-103.711-28.95h0l-5.908-.636-5.435-7.857-2.721-8.345-1.1-9.667,2.451-.82,4.963-1.45,2.8,1a1.02,1.02,0,0,0,.385.076h3.642a1.163,1.163,0,0,0,.621-.184l4.274-2.722,5.873.9.035.006h.011l5.8.688.133.006h0l.03-.011a1.1,1.1,0,0,0,.649-.225l.305,9.25-1.409,12.54-3.728,3.7-5.77,3.238Zm-15.394-28.833h0l-.955-10.934,4.632-1.633,5.93.315h.057l.116-.006,17.659-1.656,5.517.424-1.26,5.313v0l-1.346,5.605-4.763-.562-6.224-.963-.07-.011a.3.3,0,0,0-.047,0,.554.554,0,0,0-.2.053.645.645,0,0,1-.282.062.488.488,0,0,0-.259.06l-.058.041-.023.017-4.274,2.728H144.78l-2.962-1.06a.278.278,0,0,0-.1-.018.771.771,0,0,0-.125.014.755.755,0,0,1-.127.015.6.6,0,0,1-.141-.023.609.609,0,0,0-.139-.023.222.222,0,0,0-.077.013l-5.327,1.552-.017.017h-.024l-1.989.66Zm9.642-14.546h0l-1.858-.1,4.59-.562,7.513-.3Zm-1.869-2.412h0l.081-2.665,7.483-1.227,6.506.361v2.6l-9.64.385-.041.017-.053-.012-4.335.54ZM221.814,226h0l-1.891-1.341-2.969-5.771.483-8.15,2.813-.057,1.386,12.024a.132.132,0,0,0,.035.064.092.092,0,0,1,.021.11.1.1,0,0,0,0,.066l.931,2.706-.8.349Zm47.313-3.851h0l-5.119-1.1-5.086-1.85-2.5-3.13-.748-3.726.788-5.409,2.249-3.869,4.125-1.708,4.733,7.1,5.874,11.462-1.22,1.565Zm-41.935-1.141h0l-.3-9.191,1.146.665v7.531l-.839,1Zm-113.657-.442h0l10.186-19.037.042.022.9,2.66-.459,4.023-1.427,5.759-2.348,4.35-3.417,1.788-3.473.435Zm107.756-14.619h0l-3.687-2.1-2.635-4.958.443-6.893,11.257-.849a.1.1,0,0,0,.059-.028.115.115,0,0,1,.056-.029l.091-.018a1.014,1.014,0,0,0,.375-.125.138.138,0,0,0,.044-.067.138.138,0,0,1,.036-.06.871.871,0,0,0,.209-.32l.017-.035a.992.992,0,0,0,.131-.407.138.138,0,0,1,.023-.066.12.12,0,0,0,.023-.071.274.274,0,0,0-.068-.146.377.377,0,0,1-.063-.112.53.53,0,0,1-.021-.125.366.366,0,0,0-.055-.19l-3-4.229,5.13,1.771v13.445l-1.87,3.886-2.547,1.582Zm-38.552-1.106h0l-8.864-8.165-.057-.024a.69.69,0,0,0-.346-.138l-.1-.022c-.03-.009-.06-.019-.088-.029l-.006,0a.765.765,0,0,0-.252-.058.289.289,0,0,0-.046,0h-.008a.077.077,0,0,1-.033-.009.077.077,0,0,0-.032-.01H172.9l-14.6,2.562,14.024-22.666,1.07-1.165,1.356,7.348.006.011v.006l1.541,7.576a.276.276,0,0,0,.072.128l0,0a.371.371,0,0,1,.057.086.285.285,0,0,1,.012.085.236.236,0,0,0,.023.109l7.983,11.829-1.7,2.538Zm3.083-4.6h0L178.5,189.377l-1.489-7.325v-.005l-1.761-9.479.305-3.846v-.028l.38-5a.216.216,0,0,0-.034-.129.315.315,0,0,1-.036-.094.318.318,0,0,1,.01-.109.253.253,0,0,0,0-.138L175.8,163l-.138-2.671.3,1.318a.551.551,0,0,0,.127.226c.023.028.047.058.068.089a.244.244,0,0,1,.034.1.19.19,0,0,0,.047.111l3.371,3.6a.164.164,0,0,0,.087.044.162.162,0,0,1,.08.037.21.21,0,0,1,.049.064.165.165,0,0,0,.071.078l6.028,3.336,3.365,3.686a.2.2,0,0,0,.117.061.256.256,0,0,1,.089.036.339.339,0,0,1,.072.083.232.232,0,0,0,.09.09l4.889,2.264a.975.975,0,0,0,.351.081l.051.028,5.874.43.086.005a1.04,1.04,0,0,0,.27-.035l5.875-1.4a.359.359,0,0,0,.181-.115.8.8,0,0,1,.1-.086.456.456,0,0,1,.115-.039.305.305,0,0,0,.168-.082l2.939-3.071-1.444,3.158L199.7,185.359l-9.232,8.018a.145.145,0,0,0-.04.072.13.13,0,0,1-.036.065.159.159,0,0,1-.061.044.118.118,0,0,0-.06.047l-4.445,6.637ZM141.6,192.9h0l-4.05-2.934.99-2.041,3.768-7.7,4.82-1.318,6.19.59v3.135l-4.281,8.333L141.6,192.9Zm52.957-.031h0l6.706-5.82a.077.077,0,0,0,.022-.043.075.075,0,0,1,.023-.043.05.05,0,0,1,.034-.017.055.055,0,0,0,.034-.017l9.584-11.13a.1.1,0,0,0,.02-.058.116.116,0,0,1,.02-.062.332.332,0,0,1,.065-.07.229.229,0,0,0,.067-.084l2.215-4.838v-.006h.005l.431-.969,1.6,6.27a.076.076,0,0,0,.023.037.093.093,0,0,1,.023.032.561.561,0,0,0,.054.1l0,0c.012.02.024.039.035.06a.148.148,0,0,1,.017.07.124.124,0,0,0,.018.067l5.027,7.146,3.895,5.5-10.234.774h-.006l-12.269.963a.119.119,0,0,0-.058.03.115.115,0,0,1-.051.027h0a.184.184,0,0,1-.045-.007h0l-.007,0h0a.18.18,0,0,0-.043-.009.061.061,0,0,0-.019,0Zm-29.028-14.652h0l.11-1.123,7.414-5.927-.081.986-2.439,2.665-2.508,2.666-2.5.733Zm35.278-4.425h0l-5.488-.4-4.47-2.068-3.336-3.661a.192.192,0,0,0-.092-.048.227.227,0,0,1-.087-.04.2.2,0,0,1-.056-.067.138.138,0,0,0-.065-.069l-6.039-3.347-3.031-3.245-1.605-7.009a.325.325,0,0,0-.1-.162.489.489,0,0,1-.078-.1.529.529,0,0,1-.042-.125.359.359,0,0,0-.073-.167.123.123,0,0,0-.065-.028.117.117,0,0,1-.057-.022.819.819,0,0,0-.311-.143l-.079-.024-.019-.006a1.077,1.077,0,0,0-.34-.072.655.655,0,0,0-.067,0,.186.186,0,0,1-.063-.014.2.2,0,0,0-.056-.012l-.018,0a.332.332,0,0,0-.159.1.581.581,0,0,1-.094.077.555.555,0,0,1-.116.036.342.342,0,0,0-.178.08l-.391.378-.627-.275-2.272-1.869-4.125-6.9-.282-4.431.586-.6,1.284-1.3,1.852.218,2.346,1.839h.013a1.113,1.113,0,0,0,.7.247,1.124,1.124,0,0,0,.3-.046.61.61,0,0,0,.265-.188c.033-.034.066-.068.1-.1a.315.315,0,0,1,.107-.048.243.243,0,0,0,.129-.067.081.081,0,0,0,.009-.04.071.071,0,0,1,.013-.046.658.658,0,0,0,.1-.306c0-.031.01-.069.018-.107s.015-.06.024-.089a.632.632,0,0,0,.033-.329.113.113,0,0,1,.007-.035.075.075,0,0,0,0-.051l-.1-.367,4.367-1.066,3.272-.562,5.684,3.778a.123.123,0,0,0,.046.014.134.134,0,0,1,.046.014l.04.046,3.913,1.937a1.244,1.244,0,0,0,.472.114l.022.006,4.268.057h.018a1.029,1.029,0,0,0,.368-.063l3.516-1.186a.476.476,0,0,0,.2-.161.955.955,0,0,1,.1-.1.3.3,0,0,1,.105-.046.21.21,0,0,0,.124-.068l1.779-2.258a.108.108,0,0,0,.019-.062.116.116,0,0,1,.015-.058.4.4,0,0,1,.055-.06.269.269,0,0,0,.072-.1l1.081-2.665.253-.081.472.258,1.634,2.877,1.173,2.516a1.158,1.158,0,0,0,.484.5l.022.028,2.146,1.13a1.128,1.128,0,0,0,.54.131l.121-.011,3.607-.373a.112.112,0,0,0,.052-.025.11.11,0,0,1,.052-.025c.036-.01.073-.018.109-.024h.009a.779.779,0,0,0,.268-.089l.189-.121,1.07,4.849-1.047,7.96-2.439,7.468-1.708,2.842-1.744,2.912-3.382,3.524Zm10.445-32.49h0l-1.5-.785-1.018-2.184-.04-.035-.006-.045-1.83-3.221a.328.328,0,0,0-.141-.123.472.472,0,0,1-.111-.078.446.446,0,0,1-.08-.106.31.31,0,0,0-.116-.128l-1.185-.647h-.006a.268.268,0,0,0-.146-.031h-.062a.421.421,0,0,1-.108-.01c-.039-.008-.077-.018-.115-.027a1.3,1.3,0,0,0-.3-.049.523.523,0,0,0-.141.019h-.011l-1.237.373a.074.074,0,0,0-.025.022.051.051,0,0,1-.028.023.554.554,0,0,0-.2.156c-.028.03-.058.06-.09.089s-.065.053-.1.077l-.008.006a.682.682,0,0,0-.241.255l-.046.046-1.236,3.02-1.455,1.857-3,1.008-3.813-.046-3.594-1.782-5.989-3.972,1.133-.321,7.472-1.684h7.254l4.044.728.012,0a1.159,1.159,0,0,0,.189.021l.057-.006,3.02-.149.046-.022h0a1.105,1.105,0,0,0,.421-.108l1.362-.7,2.434-.612,5.711.527h.029l.559.063,1.846,1.4.414,1.41-.575,1.789-1.738,1.959-1.386.877v.006l-1.334.825Zm-44.067-4.694h0l-1.553-4.848-.092-9.25,2.916-8.149,8.238-6.447,7.759-3.989,10.079-1.083,9.313,2.372,5.775,3.931,4.763,5.623.357,1.765-3.619-5.238a.294.294,0,0,0-.138-.1.45.45,0,0,1-.1-.051.923.923,0,0,0-.357-.229.682.682,0,0,0-.265-.047c-.052,0-.1,0-.155.007H210.1a.446.446,0,0,1-.112-.019.4.4,0,0,0-.1-.018.18.18,0,0,0-.054.008l-5.511,1.714-16.175,3.758-3.814-.5-.006-.006h-.011l-.034,0a.537.537,0,0,0-.2.056.875.875,0,0,1-.139.05c-.049.011-.1.016-.145.021a.618.618,0,0,0-.321.1l-6.586,4.895a.344.344,0,0,0-.111.167v0a.536.536,0,0,1-.054.108.445.445,0,0,1-.1.1.351.351,0,0,0-.123.138l-1.767,4.722a.111.111,0,0,0,0,.066.11.11,0,0,1,0,.054.114.114,0,0,1-.029.045.107.107,0,0,0-.034.059l-1.064,6.786-1.633,3a.438.438,0,0,0-.041.242.774.774,0,0,1-.006.148l-.116-.092a.335.335,0,0,0-.174-.058.534.534,0,0,1-.125-.028.522.522,0,0,1-.11-.07.354.354,0,0,0-.167-.084L168.5,135.9a.094.094,0,0,0-.042.013.081.081,0,0,1-.033.011H168.4a.661.661,0,0,0-.266.072h0c-.035.016-.075.033-.116.047s-.075.025-.112.036h0a.708.708,0,0,0-.287.135l-.07.022-.355.366Zm8.122-1.731h0l.419-.772a.172.172,0,0,0,.016-.1.2.2,0,0,1,.008-.084.279.279,0,0,1,.054-.089.218.218,0,0,0,.055-.1l1.082-6.878,1.6-4.3,5.931-4.413,3.583.475.149.012a1.419,1.419,0,0,0,.265-.03l16.4-3.815.018-.013.063-.011,4.75-1.478,3.52,5.106,2.106,8.734.011,3.128-4.59-.413h-.012a.219.219,0,0,0-.1.03.268.268,0,0,1-.07.027h-.01a.258.258,0,0,1-.076-.014l-.007,0h0a.243.243,0,0,0-.074-.016.145.145,0,0,0-.032,0l-2.755.695a.133.133,0,0,0-.064.046.2.2,0,0,1-.045.039.177.177,0,0,1-.033,0h-.058a.093.093,0,0,0-.047.011l-1.265.643-2.641.131-4.026-.722-.017,0a.1.1,0,0,0-.044.013.108.108,0,0,1-.042.013.131.131,0,0,1-.048-.023.1.1,0,0,0-.055-.023h-7.467a.129.129,0,0,0-.069.03.18.18,0,0,1-.051.027.188.188,0,0,1-.058-.013.133.133,0,0,0-.05-.012l-.017,0-7.6,1.714-.035.016-.034,0-8.529,2.429Z" transform="translate(1173.128 1471.328)" fill="#475e64"/>
  </g>
</svg>
