<svg xmlns="http://www.w3.org/2000/svg" width="190.967" height="220.126" viewBox="0 0 190.967 220.126">
  <g id="Group_570" data-name="Group 570" transform="translate(0.609 0.608)">
    <g id="Group_427" data-name="Group 427" transform="translate(0 0)">
      <g id="Group_418" data-name="Group 418" transform="translate(0)">
        <rect id="Rectangle_98" data-name="Rectangle 98" width="131.519" height="148.19" transform="translate(138.482 186.95) rotate(-161.392)" fill="#fff" stroke="#000" stroke-width="1"/>
        <path id="Path_1578" data-name="Path 1578" d="M695.289,849.783l125.262,42.174a3.677,3.677,0,0,1,2.341,4.717l-57.024,169.369a3.672,3.672,0,0,1-4.714,2.339L635.891,1026.21a3.677,3.677,0,0,1-2.341-4.717l57.022-169.369A3.677,3.677,0,0,1,695.289,849.783ZM653.227,987.115a3.674,3.674,0,0,0,2.341,4.714L766.275,1029.1a3.674,3.674,0,0,0,4.717-2.338L813.165,901.5a3.676,3.676,0,0,0-2.341-4.717l-110.486-37.2a3.676,3.676,0,0,0-4.717,2.341l-42.174,125.26Z" transform="translate(-633.346 -849.579)" fill="#fff" stroke="#000" stroke-width="1"/>
      </g>
    </g>
    <g id="Group_519" data-name="Group 519" transform="translate(-15558.377 -12906.731) rotate(19)">
      <path id="Path_1657" data-name="Path 1657" d="M100.336,57.05a22.954,22.954,0,0,0-12.581-20.42V28.366a3.337,3.337,0,0,0-3.331-3.331h-6.2V19.783a4.513,4.513,0,0,0,2.313-1.444,3.944,3.944,0,0,0,.836-3.1l-.614-3.815A4.2,4.2,0,0,0,75.8,8.084a4.55,4.55,0,0,0-2.026.921L69.7,6.471a.229.229,0,0,0,.02-.059,4.53,4.53,0,0,0-.327-3.26,3.893,3.893,0,0,0-2.482-2.025L63.175.121A4.319,4.319,0,0,0,58.092,3.3a3.981,3.981,0,0,0-.045.64l-3.88.614a4.3,4.3,0,0,0-5.5-2.2L45.156,3.974a4.2,4.2,0,0,0-1.95,5.389l-2.923,3.024L35.512,9.056a3.339,3.339,0,0,0-4.639.823l-4.736,6.774A22.9,22.9,0,0,0,8.425,57.081l2.6-3.723A18.477,18.477,0,1,1,13.6,55.213L11,58.935A22.911,22.911,0,0,0,43.295,28.652l4.743-6.78a3.352,3.352,0,0,0-.823-4.645l-4.991-3.489,2.361-2.449a4.168,4.168,0,0,0,2.626,1,3.852,3.852,0,0,0,1.62-.353l3.511-1.619a4.019,4.019,0,0,0,2.211-3.331L58.4,6.378c.052.111.059.235.11.346A3.938,3.938,0,0,0,60.9,8.58l3.736,1.005a3.931,3.931,0,0,0,.992.137A4.09,4.09,0,0,0,68.4,8.567l3.893,2.424a3.822,3.822,0,0,0-.183,1.816l.613,3.815a4.017,4.017,0,0,0,3.162,3.227v5.186H70.151a3.341,3.341,0,0,0-3.331,3.331v8.264a22.9,22.9,0,0,0,8.648,43.283V75.366a18.435,18.435,0,1,1,3.169.052v4.546A22.991,22.991,0,0,0,100.336,57.05ZM38.82,20.313A2.023,2.023,0,1,1,35.5,17.994a1.9,1.9,0,0,1,1.9-.7l1.861-2.672,1.421,1-1.864,2.665A1.893,1.893,0,0,1,38.82,20.313Zm12.594-12L47.9,9.933a1.811,1.811,0,0,1-1.77-.249l.778-.8a1.167,1.167,0,1,0-1.682-1.619l-.069.071a1.747,1.747,0,0,1,.921-1.352l3.5-1.62a1.669,1.669,0,0,1,.7-.151,2,2,0,0,1,1.424.731l-.51.078a1.236,1.236,0,0,0,.193,2.456.99.99,0,0,0,.193-.02l.617-.1A1.688,1.688,0,0,1,51.414,8.313ZM67.172,4.9a1.232,1.232,0,0,0-1.306,2.09l.5.307a1.658,1.658,0,0,1-1.15.164l-3.736-1c-.248-.072-.392-.307-.587-.471l.9-.143a1.228,1.228,0,0,0,1.025-1.411A1.185,1.185,0,0,0,61.4,3.407l-.992.157A2.061,2.061,0,0,1,62.182,2.2a1.55,1.55,0,0,1,.425.052l3.729,1a1.761,1.761,0,0,1,1.1.921,2.358,2.358,0,0,1,.092.941ZM74.9,16.275l-.613-3.815c-.007-.065.059-.13.059-.2l.3.183a1.23,1.23,0,0,0,.653.2,1.244,1.244,0,0,0,1.045-.588,1.223,1.223,0,0,0-.392-1.692c.071-.02.11-.091.183-.1a2.689,2.689,0,0,1,.4-.033,1.982,1.982,0,0,1,2.051,1.548l.614,3.815a1.759,1.759,0,0,1-.385,1.372c-.144.177-.405.209-.588.333v-.856a1.169,1.169,0,1,0-2.339,0V17.5A1.717,1.717,0,0,1,74.9,16.275ZM77.29,34.388a2.025,2.025,0,0,1-2.025-2.019A1.905,1.905,0,0,1,76.421,30.7V27.444h1.737V30.7a1.907,1.907,0,0,1,1.15,1.673A2.017,2.017,0,0,1,77.29,34.388Z" transform="matrix(0.951, -0.309, 0.309, 0.951, 18975.203, 7178.247)" fill="#484848" opacity="0.302"/>
    </g>
  </g>
</svg>
