<svg xmlns="http://www.w3.org/2000/svg" width="190.967" height="220.126" viewBox="0 0 190.967 220.126">
  <g id="Group_569" data-name="Group 569" transform="translate(0.609 0.608)">
    <g id="Group_428" data-name="Group 428" transform="translate(0 0)">
      <g id="Group_418" data-name="Group 418">
        <rect id="Rectangle_98" data-name="Rectangle 98" width="131.518" height="148.19" transform="translate(3.981 46.507) rotate(-18.608)" fill="#fff" stroke="#707070" stroke-width="1"/>
        <path id="Path_1578" data-name="Path 1578" d="M761.153,849.783,635.891,891.957a3.677,3.677,0,0,0-2.341,4.717l57.024,169.369a3.672,3.672,0,0,0,4.714,2.339l125.262-42.171a3.677,3.677,0,0,0,2.341-4.717L765.869,852.124A3.677,3.677,0,0,0,761.153,849.783Zm42.062,137.332a3.674,3.674,0,0,1-2.341,4.714L690.167,1029.1a3.674,3.674,0,0,1-4.717-2.338L643.277,901.5a3.676,3.676,0,0,1,2.341-4.717l110.485-37.2a3.676,3.676,0,0,1,4.717,2.341l42.174,125.26Z" transform="translate(-633.346 -849.579)" fill="#fff" stroke="#707070" stroke-width="1"/>
      </g>
    </g>
    <g id="Group_514" data-name="Group 514" transform="matrix(0.966, -0.259, 0.259, 0.966, -553.8, -81.877)">
      <g id="Group_488" data-name="Group 488" transform="translate(525.495 296.467)">
        <g id="Group_452" data-name="Group 452" transform="translate(49.353 37.508)">
          <path id="Path_1629" data-name="Path 1629" d="M86.224,35.718l-27.455,18.1a12.192,12.192,0,0,0-.89-1.4L85.233,34.4A10.841,10.841,0,0,0,86.224,35.718Z" transform="translate(-57.879 -34.4)" fill="#c4c4c4"/>
        </g>
        <g id="Group_459" data-name="Group 459" transform="translate(13.369 38.332)">
          <path id="Path_1636" data-name="Path 1636" d="M47.388,48.4c-.43.346-.856.692-1.252,1.071L35.43,35.869a8.5,8.5,0,0,0,1.335-.955Z" transform="translate(-35.43 -34.914)" fill="#c4c4c4"/>
        </g>
        <g id="Group_462" data-name="Group 462" transform="translate(43.129 7.831)">
          <path id="Path_1639" data-name="Path 1639" d="M86.951,32.4a9.553,9.553,0,0,0-.676,1.516L54,17.353a6.351,6.351,0,0,0,.692-1.467Z" transform="translate(-53.996 -15.886)" fill="#c4c4c4"/>
        </g>
        <g id="Group_463" data-name="Group 463" transform="translate(34.778 12.394)">
          <path id="Path_1640" data-name="Path 1640" d="M52.179,18.747,50.45,54.7c-.3-.016-.577-.016-.874-.016-.263,0-.527,0-.79.016l1.746-35.967a4.992,4.992,0,0,0,.856.066A6.567,6.567,0,0,0,52.179,18.747Z" transform="translate(-48.786 -18.733)" fill="#c4c4c4"/>
        </g>
        <g id="Group_466" data-name="Group 466" transform="translate(81.964 42.991)">
          <path id="Path_1643" data-name="Path 1643" d="M82.339,38.118,79.836,56.2a7.6,7.6,0,0,0-1.613-.279l2.5-18.1A12.951,12.951,0,0,0,82.339,38.118Z" transform="translate(-78.223 -37.821)" fill="#c4c4c4"/>
        </g>
        <g id="Group_468" data-name="Group 468" transform="translate(51.939 67.643)">
          <path id="Path_1645" data-name="Path 1645" d="M79.01,56.266a4.069,4.069,0,0,0,.016.442L59.492,54.832A12.993,12.993,0,0,0,59.8,53.2L79.09,55.045A10.243,10.243,0,0,0,79.01,56.266Z" transform="translate(-59.492 -53.2)" fill="#c4c4c4"/>
        </g>
        <g id="Group_473" data-name="Group 473" transform="translate(15.034 9.709)">
          <path id="Path_1650" data-name="Path 1650" d="M54.485,18.26,37.572,32.522a7.93,7.93,0,0,0-1.1-1.236L53.35,17.058A7.827,7.827,0,0,0,54.485,18.26Z" transform="translate(-36.469 -17.058)" fill="#c4c4c4"/>
        </g>
        <g id="Group_475" data-name="Group 475" transform="translate(20.341 49.995)">
          <path id="Path_1652" data-name="Path 1652" d="M55.008,42.19A15.228,15.228,0,1,0,70.22,57.418,15.242,15.242,0,0,0,55.008,42.19Z" transform="translate(-39.78 -42.19)" fill="#c4c4c4"/>
        </g>
        <g id="Group_493" data-name="Group 493" transform="translate(76.03 18.649)">
          <path id="Path_1652-2" data-name="Path 1652" d="M51.275,42.19a11.5,11.5,0,1,0,11.483,11.5A11.506,11.506,0,0,0,51.275,42.19Z" transform="translate(-39.78 -42.19)" fill="#c4c4c4"/>
        </g>
        <g id="Group_489" data-name="Group 489" transform="translate(0 22.65)">
          <path id="Path_1652-3" data-name="Path 1652" d="M48.073,42.19a8.293,8.293,0,1,0,8.284,8.293A8.3,8.3,0,0,0,48.073,42.19Z" transform="translate(-39.78 -42.19)" fill="#c4c4c4"/>
        </g>
        <g id="Group_494" data-name="Group 494" transform="translate(72.696 62.5)">
          <path id="Path_1652-4" data-name="Path 1652" d="M48.112,42.19a8.332,8.332,0,1,0,8.323,8.332A8.34,8.34,0,0,0,48.112,42.19Z" transform="translate(-39.78 -42.19)" fill="#c4c4c4"/>
        </g>
        <g id="Group_491" data-name="Group 491" transform="translate(31.716 0)">
          <path id="Path_1652-5" data-name="Path 1652" d="M45.156,42.19a5.376,5.376,0,1,0,5.37,5.376A5.381,5.381,0,0,0,45.156,42.19Z" transform="translate(-39.78 -42.19)" fill="#c4c4c4"/>
        </g>
      </g>
      <g id="Group_516" data-name="Group 516" transform="translate(529.143 298.88)">
        <g id="Group_506" data-name="Group 506" transform="translate(0 25.144)">
          <path id="Path_1654" data-name="Path 1654" d="M36.956-188.34a3.525,3.525,0,0,0,3.525-3.526,3.525,3.525,0,0,0-3.525-3.525,3.526,3.526,0,0,0-3.526,3.525A3.526,3.526,0,0,0,36.956-188.34Z" transform="translate(-32.38 195.391)" fill="#8e8e8e"/>
          <path id="Path_1655" data-name="Path 1655" d="M31.367-150.565a4.188,4.188,0,0,1-2.424-.77A6.538,6.538,0,0,0,26.792-150a5.951,5.951,0,0,0,4.531,2.093,5.953,5.953,0,0,0,4.569-2.136,6.622,6.622,0,0,0-2.1-1.288A4.188,4.188,0,0,1,31.367-150.565Z" transform="translate(-26.792 158.302)" fill="#8e8e8e"/>
        </g>
        <g id="Group_508" data-name="Group 508" transform="translate(30.345 0)">
          <path id="Path_1654-2" data-name="Path 1654" d="M35.87-190.512a2.44,2.44,0,0,0,2.44-2.44,2.44,2.44,0,0,0-2.44-2.44,2.44,2.44,0,0,0-2.44,2.44A2.44,2.44,0,0,0,35.87-190.512Z" transform="translate(-32.704 195.391)" fill="#8e8e8e"/>
          <path id="Path_1655-2" data-name="Path 1655" d="M29.958-150.8a2.9,2.9,0,0,1-1.677-.533,4.525,4.525,0,0,0-1.489.922,4.118,4.118,0,0,0,3.136,1.448,4.119,4.119,0,0,0,3.162-1.478,4.582,4.582,0,0,0-1.455-.891A2.9,2.9,0,0,1,29.958-150.8Z" transform="translate(-26.792 156.157)" fill="#8e8e8e"/>
        </g>
        <g id="Group_509" data-name="Group 509" transform="translate(72.362 64.052)">
          <path id="Path_1654-3" data-name="Path 1654" d="M37.275-187.7a3.845,3.845,0,0,0,3.845-3.845,3.845,3.845,0,0,0-3.845-3.845,3.845,3.845,0,0,0-3.845,3.845A3.845,3.845,0,0,0,37.275-187.7Z" transform="translate(-32.285 195.391)" fill="#8e8e8e"/>
          <path id="Path_1655-3" data-name="Path 1655" d="M31.782-150.495a4.568,4.568,0,0,1-2.643-.84,7.129,7.129,0,0,0-2.347,1.453,6.49,6.49,0,0,0,4.942,2.282,6.492,6.492,0,0,0,4.983-2.329,7.221,7.221,0,0,0-2.294-1.4A4.567,4.567,0,0,1,31.782-150.495Z" transform="translate(-26.792 158.933)" fill="#8e8e8e"/>
        </g>
        <g id="Group_512" data-name="Group 512" transform="translate(76.697 21.229)">
          <path id="Path_1654-4" data-name="Path 1654" d="M38.849-184.553a5.419,5.419,0,0,0,5.419-5.419,5.419,5.419,0,0,0-5.419-5.419,5.419,5.419,0,0,0-5.419,5.419A5.419,5.419,0,0,0,38.849-184.553Z" transform="translate(-31.816 195.391)" fill="#8e8e8e"/>
          <path id="Path_1655-4" data-name="Path 1655" d="M33.825-150.151a6.438,6.438,0,0,1-3.726-1.184,10.049,10.049,0,0,0-3.307,2.049,9.147,9.147,0,0,0,6.965,3.217,9.15,9.15,0,0,0,7.023-3.283,10.178,10.178,0,0,0-3.233-1.98A6.438,6.438,0,0,1,33.825-150.151Z" transform="translate(-26.792 162.045)" fill="#8e8e8e"/>
        </g>
      </g>
      <g id="Group_133" data-name="Group 133" transform="translate(553.183 356.485)">
        <g id="Group_255" data-name="Group 255" transform="translate(6.93 4.457)">
          <path id="Path_49-2" data-name="Path 49-2" d="M1120.752,499.148a1.569,1.569,0,0,0,.761.91c.037.019.037.056-.074.037a1.172,1.172,0,0,1-.371-.111,1.268,1.268,0,0,1-.706-.743,2.388,2.388,0,0,1-.2-1.022s-.093-.074-.167-.149h1.077A1.175,1.175,0,0,0,1120.752,499.148Z" transform="translate(-1119.99 -498.071)" fill="#5a5a5a"/>
        </g>
        <g id="Group_256" data-name="Group 256" transform="translate(0 0)">
          <path id="Path_50-2" data-name="Path 50-2" d="M741,259.2a1.023,1.023,0,0,0,.074-.78c-.111-.52-.836-.892-.836-.892l-.464-.278s-.186-.223-.037-.409a2.2,2.2,0,0,1,.632-.39s.037-.929.074-1.282a1.066,1.066,0,0,1,.074-.26c.056-.409-.2-.594-.353-.78a.277.277,0,0,1-.037-.371c.112-.093.353-.093.409.056.056.2.353.334.613.427.149-.093.26-.149.26-.149l.5-.2h.3l.241-.409h.167l.2.316h2.823l1.114.3h8.34s.26-.427.316-.5a.247.247,0,0,1,.39,0,4.963,4.963,0,0,1,.446.5h.52v.279h.5v2.267h-.5v.316h-.65v.279h-1.207v.149h-4.421s-.929.371-.929,1.022-.056,1.263-.056,1.263a2.44,2.44,0,0,1-2.08.761,6.849,6.849,0,0,1-2.191-.3l-.929,3.009a1.89,1.89,0,0,0,0,.687c.037.111.074.242.111.371.074.223-.353.409-.353.409H740.4a1.111,1.111,0,0,1-.687-1.151,6.391,6.391,0,0,1,.3-1.82Zm4.607.13c.056.279.576.817,1.894.817s1.69-.557,1.69-.557v-1.133a1.275,1.275,0,0,0-1.189-.669h-1.746c-.093.056-.353.13-.427.223a.951.951,0,0,0-.223.446A2.707,2.707,0,0,0,745.6,259.331Z" transform="translate(-739.675 -253.48)" fill="#5a5a5a"/>
        </g>
      </g>
    </g>
  </g>
</svg>
