<svg xmlns="http://www.w3.org/2000/svg" xmlns:xlink="http://www.w3.org/1999/xlink" width="1919.898" height="385" viewBox="0 0 1919.898 385">
  <defs>
    <linearGradient id="linear-gradient" x1="0.5" x2="0.5" y2="1" gradientUnits="objectBoundingBox">
      <stop offset="0" stop-color="#696969"/>
      <stop offset="0.626" stop-color="#2d373a"/>
      <stop offset="1" stop-color="#1e2629"/>
    </linearGradient>
  </defs>
  <g id="Group_1012" data-name="Group 1012" transform="translate(58.618 -2983.842)">
    <g id="Group_811" data-name="Group 811">
      <g id="Group_1013" data-name="Group 1013" transform="translate(-58.62 2274.842)">
        <g id="Group_808" data-name="Group 808">
          <path id="Path_1581" data-name="Path 1581" d="M13860,4600.624V4358.331s424.266-13.349,618.795,0,507.13-16.281,619.752-15.392c78.835.622,411.373,4.313,556.879,8.813,62.742,1.941,124.473,6.58,124.473,6.58v242.293Z" transform="translate(-13860 -3506.624)" fill="url(#linear-gradient)"/>
        </g>
      </g>
      <g id="Group_434" data-name="Group 434">
        <g id="Group_428" data-name="Group 428">
          <g id="Group_427" data-name="Group 427">
            <g id="Group_392" data-name="Group 392">
              <path id="Path_1440" data-name="Path 1440" d="M912.449,3051.134v88.89s-22.87,12.945-47.9,0V3050.7S885.7,3040.778,912.449,3051.134Z" fill="#ece5e2" fill-rule="evenodd"/>
              <path id="Path_1441" data-name="Path 1441" d="M912.449,3050.7a52.2,52.2,0,0,1-47.9-.431A68.754,68.754,0,0,1,912.449,3050.7Z" fill="#ded9d5" fill-rule="evenodd"/>
              <path id="Path_1442" data-name="Path 1442" d="M906.54,3053.144s-19.387-4.017-34.409,0A50.253,50.253,0,0,0,906.54,3053.144Z" fill="#fff" fill-rule="evenodd"/>
              <path id="Path_1443" data-name="Path 1443" d="M889.376,3055.4s3.063,0,0-5.741-2.3-4.594-2.3-4.594S882.868,3058.083,889.376,3055.4Z" fill="#fbb03b" fill-rule="evenodd"/>
              <path id="Path_1444" data-name="Path 1444" d="M864.62,3063.412s9.359,5.953,23.771,5.578l-.187,58.4a28.9,28.9,0,0,1-23.583-5.241Z" fill="#ded9d5" fill-rule="evenodd"/>
            </g>
            <g id="Group_393" data-name="Group 393">
              <path id="Path_1445" data-name="Path 1445" d="M972.493,3051.6v88.89s-22.87,12.946-47.9,0v-89.323S945.744,3041.241,972.493,3051.6Z" fill="#ece5e2" fill-rule="evenodd"/>
              <path id="Path_1446" data-name="Path 1446" d="M972.493,3051.165a52.193,52.193,0,0,1-47.9-.431A68.754,68.754,0,0,1,972.493,3051.165Z" fill="#ded9d5" fill-rule="evenodd"/>
              <path id="Path_1447" data-name="Path 1447" d="M966.584,3053.609s-19.387-4.017-34.408,0A50.261,50.261,0,0,0,966.584,3053.609Z" fill="#fff" fill-rule="evenodd"/>
              <path id="Path_1448" data-name="Path 1448" d="M949.424,3055.866s3.063,0,0-5.742-2.3-4.594-2.3-4.594S942.916,3058.545,949.424,3055.866Z" fill="#fbb03b" fill-rule="evenodd"/>
              <path id="Path_1449" data-name="Path 1449" d="M924.668,3063.874s9.359,5.953,23.771,5.579l-.187,58.4a28.908,28.908,0,0,1-23.584-5.242Z" fill="#ded9d5" fill-rule="evenodd"/>
            </g>
            <g id="Group_394" data-name="Group 394">
              <path id="Path_1450" data-name="Path 1450" d="M1155.59,3074.729v109.246s28.107,15.908,58.865,0V3074.2S1188.469,3062,1155.59,3074.729Z" fill="#ece5e2" fill-rule="evenodd"/>
              <path id="Path_1451" data-name="Path 1451" d="M1155.59,3074.2a64.148,64.148,0,0,0,58.865-.531S1186.878,3062,1155.59,3074.2Z" fill="#ded9d5" fill-rule="evenodd"/>
              <path id="Path_1452" data-name="Path 1452" d="M1162.856,3077.2s23.827-4.937,42.288,0A61.773,61.773,0,0,1,1162.856,3077.2Z" fill="#fff" fill-rule="evenodd"/>
              <path id="Path_1453" data-name="Path 1453" d="M1183.946,3079.975s-3.764,0,0-7.057,2.823-5.646,2.823-5.646S1191.944,3083.264,1183.946,3079.975Z" fill="#fbb03b" fill-rule="evenodd"/>
              <path id="Path_1454" data-name="Path 1454" d="M1214.371,3089.814s-11.5,7.316-29.213,6.855l.23,71.77s15.412,4.141,28.983-6.44Z" fill="#ded9d5" fill-rule="evenodd"/>
            </g>
            <g id="Group_395" data-name="Group 395">
              <path id="Path_1455" data-name="Path 1455" d="M1238.9,3086.862v109.246s28.108,15.908,58.866,0V3086.332S1271.783,3074.138,1238.9,3086.862Z" fill="#ece5e2" fill-rule="evenodd"/>
              <path id="Path_1456" data-name="Path 1456" d="M1238.9,3086.332a64.152,64.152,0,0,0,58.866-.531S1270.193,3074.135,1238.9,3086.332Z" fill="#ded9d5" fill-rule="evenodd"/>
              <path id="Path_1457" data-name="Path 1457" d="M1246.17,3089.335s23.826-4.937,42.287,0A61.759,61.759,0,0,1,1246.17,3089.335Z" fill="#fff" fill-rule="evenodd"/>
              <path id="Path_1458" data-name="Path 1458" d="M1267.26,3092.108s-3.765,0,0-7.057,2.822-5.646,2.822-5.646S1275.258,3095.4,1267.26,3092.108Z" fill="#fbb03b" fill-rule="evenodd"/>
              <path id="Path_1459" data-name="Path 1459" d="M1297.685,3101.951s-11.5,7.316-29.214,6.855l.23,71.77s15.412,4.141,28.985-6.44Z" fill="#ded9d5" fill-rule="evenodd"/>
            </g>
            <g id="Group_396" data-name="Group 396">
              <path id="Path_1460" data-name="Path 1460" d="M1313.126,3076.624V3185.87s28.107,15.91,58.865,0V3076.094S1346.005,3063.9,1313.126,3076.624Z" fill="#ece5e2" fill-rule="evenodd"/>
              <path id="Path_1461" data-name="Path 1461" d="M1313.126,3076.094a64.147,64.147,0,0,0,58.865-.531S1344.415,3063.9,1313.126,3076.094Z" fill="#ded9d5" fill-rule="evenodd"/>
              <path id="Path_1462" data-name="Path 1462" d="M1320.392,3079.1s23.827-4.937,42.288,0A61.773,61.773,0,0,1,1320.392,3079.1Z" fill="#fff" fill-rule="evenodd"/>
              <path id="Path_1463" data-name="Path 1463" d="M1341.482,3081.87s-3.763,0,0-7.057,2.823-5.646,2.823-5.646S1349.48,3085.163,1341.482,3081.87Z" fill="#fbb03b" fill-rule="evenodd"/>
              <path id="Path_1464" data-name="Path 1464" d="M1371.907,3091.712s-11.5,7.316-29.213,6.856l.23,71.771s15.412,4.14,28.983-6.442Z" fill="#ded9d5" fill-rule="evenodd"/>
            </g>
            <g id="Group_397" data-name="Group 397">
              <path id="Path_1465" data-name="Path 1465" d="M1397.585,3083.87v103.011s26.5,15,55.506,0v-103.51S1428.588,3071.869,1397.585,3083.87Z" fill="#ece5e2" fill-rule="evenodd"/>
              <path id="Path_1466" data-name="Path 1466" d="M1397.585,3083.37a60.485,60.485,0,0,0,55.506-.5S1427.089,3071.869,1397.585,3083.37Z" fill="#ded9d5" fill-rule="evenodd"/>
              <path id="Path_1467" data-name="Path 1467" d="M1404.437,3086.2s22.467-4.654,39.874,0A58.235,58.235,0,0,1,1404.437,3086.2Z" fill="#fff" fill-rule="evenodd"/>
              <path id="Path_1468" data-name="Path 1468" d="M1424.324,3088.816s-3.549,0,0-6.654,2.662-5.324,2.662-5.324S1431.867,3091.922,1424.324,3088.816Z" fill="#fbb03b" fill-rule="evenodd"/>
              <path id="Path_1469" data-name="Path 1469" d="M1453.011,3098.1s-10.846,6.9-27.547,6.464l.217,67.674s14.532,3.9,27.33-6.073Z" fill="#ded9d5" fill-rule="evenodd"/>
            </g>
            <g id="Group_398" data-name="Group 398">
              <path id="Path_1470" data-name="Path 1470" d="M1459.755,3092.087v83.965s21.6,12.228,45.245,0v-84.375S1485.028,3082.3,1459.755,3092.087Z" fill="#ece5e2" fill-rule="evenodd"/>
              <path id="Path_1471" data-name="Path 1471" d="M1459.755,3091.678a49.3,49.3,0,0,0,45.245-.408A64.946,64.946,0,0,0,1459.755,3091.678Z" fill="#ded9d5" fill-rule="evenodd"/>
              <path id="Path_1472" data-name="Path 1472" d="M1465.34,3093.986s18.314-3.8,32.5,0A47.473,47.473,0,0,1,1465.34,3093.986Z" fill="#fff" fill-rule="evenodd"/>
              <path id="Path_1473" data-name="Path 1473" d="M1481.55,3096.122s-2.892,0,0-5.425,2.17-4.339,2.17-4.339S1487.7,3098.65,1481.55,3096.122Z" fill="#fbb03b" fill-rule="evenodd"/>
              <path id="Path_1474" data-name="Path 1474" d="M1504.936,3103.683s-8.84,5.623-22.454,5.269l.18,55.167a27.3,27.3,0,0,0,22.277-4.95Z" fill="#ded9d5" fill-rule="evenodd"/>
            </g>
            <g id="Group_399" data-name="Group 399">
              <path id="Path_1475" data-name="Path 1475" d="M1379.566,3109.907v117.474s30.224,17.107,63.3,0V3109.337S1414.923,3096.221,1379.566,3109.907Z" fill="#ece5e2" fill-rule="evenodd"/>
              <path id="Path_1476" data-name="Path 1476" d="M1379.566,3109.337s29.654,17.108,63.3-.57C1442.865,3108.767,1413.211,3096.221,1379.566,3109.337Z" fill="#ded9d5" fill-rule="evenodd"/>
              <path id="Path_1477" data-name="Path 1477" d="M1387.385,3112.566s25.621-5.309,45.472,0A66.42,66.42,0,0,1,1387.385,3112.566Z" fill="#fff" fill-rule="evenodd"/>
              <path id="Path_1478" data-name="Path 1478" d="M1410.058,3115.548s-4.048,0,0-7.588,3.035-6.072,3.035-6.072S1418.658,3119.09,1410.058,3115.548Z" fill="#fbb03b" fill-rule="evenodd"/>
              <path id="Path_1479" data-name="Path 1479" d="M1442.775,3126.132s-12.368,7.867-31.414,7.372l.247,77.174s16.573,4.453,31.167-6.926Z" fill="#ded9d5" fill-rule="evenodd"/>
            </g>
            <g id="Group_400" data-name="Group 400">
              <path id="Path_1480" data-name="Path 1480" d="M1065.516,3151.208c-38.334-18.407-52.057,18.165-51.644,15.054,1.573-14.239,20.773-29.9,43.852-25.768-43.973-42.893-77.418-.652-75.489-4.452,13.143-24.977,52.362-30.366,81.5-4.856l-56.838-49.478c-1.267-1.983-.853-5.1,1.956-4.544,11.265,1.462,53.227,46.364,61.624,56.8-5.836-11.238-29.646-71.7-25.924-83.621.689-2.506,3.636-1.652,4.9.333.3-.138,2.392,15.725,6.933,33.767,4.595,16.552,11.339,35.421,14.614,43.436-13.7-63.954,27.365-70.913,21.138-63.7-17.8,21.973-14.661,41.748-10.865,63.782,2.134-49.209,32.534-45.842,27.034-41.878-19.448,14.317-18.322,32.082-20.255,51.965,9.211-51.335,50.665-68.7,76.136-52.861,1.156.936-33.157-9.427-52.553,19.486-7.714,11.181-8.488,19.938-11.74,31.284-1.047.111-6.335,2.147-11.926,4.322.165-.441.165-.441.027-.743l-.027.743a40.275,40.275,0,0,0-5.9,2.311C1073.586,3146.445,1067.939,3150.107,1065.516,3151.208Z" fill="#009245" fill-rule="evenodd"/>
              <g id="Group_1007" data-name="Group 1007">
                <path id="Path_9339" data-name="Path 9339" d="M1004.411,3084.3s-7,10-12,11-12,0-12,0l-1-3-9.723-5.422-1.277-2.578,14-5,4.413-.931,1.587-2.069v-14l10,2-3.9-8.742-1.1-4.258-5.1-10.925h2.005l20.1,16.925-1,18-2,2-1,3Z" fill="#4f1932" fill-rule="evenodd"/>
                <path id="Path_9340" data-name="Path 9340" d="M1043.151,3046.8s-9.48-7.689-10.124-12.748.848-11.97.848-11.97l3.064-.785,6.1-9.315,2.661-1.092,4,14.319.617,4.468,1.951,1.729,13.965.99-2.7,9.834,9-3.268,4.325-.8,11.259-4.317-.142,2-18.3,18.85-17.884-2.271-1.854-2.136-2.922-1.21Z" fill="#4f1932" fill-rule="evenodd"/>
                <g id="Group_400-2" data-name="Group 400">
                  <path id="Path_1482" data-name="Path 1482" d="M1005.493,3080.807c-18.4,22.249-23.055,11.2-26.69,12.856-.3.138-12.946,7.708-3.555,7.462,6.114-.219,20.409-4.154,25.01-7.705C1006.4,3088.436,1007.558,3081.33,1005.493,3080.807Z" fill="#c06ed1" fill-rule="evenodd"/>
                  <path id="Path_1483" data-name="Path 1483" d="M1005.824,3079.926c-.715-.772-9.695,4.4-19-1.6-7.875-4.464-9.583-6.613-22.116,2-8.1,5.506,24.729,11.794,34.426,3.368,2.755-1.982-3.776,9.391-32.857,2.5-4.572-1.213,15.31,8.762,20.24,8.35,5.067-.109,12.147-6.25,16.031-10.573.166-.44,3.278-4.048,3.278-4.048Z" fill="#c06ed1" fill-rule="evenodd"/>
                  <path id="Path_1484" data-name="Path 1484" d="M1005.411,3079.017c-6.527,3.331-17.214,2.338-22.169-4.549-2.7-3.525-2.7-7.547-7.378-13.827-5.947-8.264-4.1-5.813,12.726-5.782,13.412-.244,18.945,11.132,18.833,22.147l-19.028-12.92,18.422,13.2c.137.3-.193,1.184-1.406,1.735Z" fill="#c06ed1" fill-rule="evenodd"/>
                  <path id="Path_1485" data-name="Path 1485" d="M986.882,3052.712c-4.6-4.491-1.318-16.581,1.243-13.358,4.571,5.234,1.652,3.636,10.188,10.358,8.4,6.419,9.775,9.449,10.709,20.355.658,10.3,1.515-4.709-2.228-12.146a11.038,11.038,0,0,0-4.13-5.069c-3.47-2.81-7.683-5.647-9.528-8.1a65.026,65.026,0,0,1-4.543-5.977c-2.974-4.132,7.9,3.719,8.482,4.187,3.469,2.81,7.435,4.3,9.72,6.915,14.263,16.914,2.086,31.948,1.151,25.063-.494-2.7-.55-5.232-1.513-7.353-2.119-7.079-5.891-9.751-8.81-11.349-3.056-1.9-7.408-1.021-10.741-3.528Z" fill="#c06ed1" fill-rule="evenodd"/>
                  <path id="Path_1486" data-name="Path 1486" d="M1046.48,3047.933c-20.845-20.138-9.387-23.881-10.735-27.655-.138-.3-6.8-13.359-6.994-4.132-.525,6.086,2.06,20.628,5.888,25.835,4.239,6.114,11.179,7.714,11.842,5.952Z" fill="#c06ed1" fill-rule="evenodd"/>
                  <path id="Path_1487" data-name="Path 1487" d="M1047.364,3048.268c.908-.413-3.8-9.971,2.786-18.811,5.482-7.241,7.63-8.948-.216-22.2-4.6-8.511-13.694,23.764-6.039,34.177,1.982,2.755-8.922-4.353.338-33.05,1.35-4.268-9.781,14.678-9.974,19.883-.332,4.9,5.34,12.56,9.36,16.583C1043.922,3044.71,1047.364,3048.268,1047.364,3048.268Z" fill="#c06ed1" fill-rule="evenodd"/>
                  <path id="Path_1488" data-name="Path 1488" d="M1048.272,3047.85c-2.724-6.8-.85-17.158,6.313-21.508,3.663-2.4,7.685-2.4,14.24-6.47,8.54-5.34,6.391-3.634,5.01,13.442-.94,13.219-12.728,17.843-23.854,16.683l14.215-17.788-14.05,17.348c-.744-.028-1.185-.193-1.873-1.708Z" fill="#c06ed1" fill-rule="evenodd"/>
                  <path id="Path_1489" data-name="Path 1489" d="M1075.845,3031.3c5.07-4.13,16.525.169,13.3,2.73-5.51,3.964-3.911,1.045-10.909,8.975-7.3,8.068-10.33,9.444-21.347,9.332-10.272-.085,4.847,1.818,12.559-1.319a13.974,13.974,0,0,0,5.206-3.828c3.251-3.3,6.226-7.214,8.678-9.059a40.728,40.728,0,0,1,6.252-3.937c4.27-2.67-4.16,7.739-4.766,8.014-2.81,3.469-4.739,7.269-7.493,9.251-18.071,13.326-32.168-.008-25.145-.639a42.687,42.687,0,0,0,7.326-.769c7.216-1.816,10.329-5.423,12.065-8.039,2.2-3.195,1.627-7.683,4.271-10.712Z" fill="#c06ed1" fill-rule="evenodd"/>
                </g>
              </g>
            </g>
            <g id="Group_401" data-name="Group 401">
              <path id="Path_1490" data-name="Path 1490" d="M1334,3105l-4-5-37.121,26.085c-21.137,13.243-49.4,16-76.316,20.586,3.186-1.774,5.74-3.645,8.562-5.151L1252,3122l-4-4-38.1,25.7a102.015,102.015,0,0,1-14.739,7.434,60.465,60.465,0,0,0-8.44,2.257c-2.723.875-5.082,1.481-6.809,2.186-14.155,3.64-29.014,5.555-43.97,8.1,14.375-7.167,19.042-3.858,32.907-14.016,18.244-13.365,39.038-20.189,45.228-47.713,6.091-26.892,14.8-37.2,14.8-37.2-21.744,10.885-25.567,20.974-37.832,41.735-19.639,32.892-41.868,38.523-63.081,58.551-8.341,1.626-17.047,3.518-24.855,5.874-12.623,4.2-11.553,5.66-1.85,3.6,12.694-2.572,33.7-4.508,56.371-8.777-.56,1.531,5.058.78,6.323.975l42.917,5c21.787,1.421,68.285-6.291,76.177,15.963,3.158,8.9,8.986-26.77-45.774-32.63-7.318-.806-28.6.765-47.347,2.725,3.09-1.141,6.081-1.65,8.9-3.157,30.082-4.1,78.087-8.986,109.271-30.711Z" fill="#007437" fill-rule="evenodd"/>
              <g id="Group_440" data-name="Group 440">
                <path id="Path_1491" data-name="Path 1491" d="M1350.061,3044.941c-5.451,10.162,7.782-.094-16.474,24.966-10.7,10.645-9.787,25.674-3.248,31.538h0c.1-.633.729-.535,1-.17,9.894,5.087,16.076-5.61,20.407-12.708l.365-.268c.39-2.528,4.09-9.724,4.917-10.891a29.371,29.371,0,0,1,3.675-4.935c1.922-1.969,6.86-6.708,10.484-7.12,1.095-.8,1.192-1.434,1.192-1.434h0l-.268-.365h0c-.632-.1-.632-.1-.9-.463h0c-.364.268-1,.17-2.163-.658h0l-.365.268-.9-.463h0a41.527,41.527,0,0,1-3.963-1.582c-8.075,1.991-25.184,35.273-25.914,35.807l11.366-21.224c2.58-4.132,9.44-10.84,13.381-15.41.1-.633,1.192-1.435,2.58-4.133,1.217-3.7-5.5-2.142-8.584-1-2.189,1.6-1.777,5.227-9.733,12.738-9.61,9.843-10.632,12.275-13.75,24.092-1.316,4.327-2.088-7.442,9.638-20.52,7.785-8.507,11.29-14.439,12.508-18.135h0a26.877,26.877,0,0,0-.022-6.152C1354.049,3044.262,1350.159,3044.308,1350.061,3044.941Z" fill="#e34242" fill-rule="evenodd"/>
                <path id="Path_1492" data-name="Path 1492" d="M1395.343,3089.147a6.547,6.547,0,0,0-3.305-3.746c-6.784-.077-16.582-5.8-31.3-.623-1.361.438-6.2,4.545-8.1,4.252-4.7,7.366-10.974,18.7-21.4,12.878-3.331-1.485,16.671,21.99,41.071.19,4.574-4.472,13.818-14.049,21.673-12.513C1394.614,3089.681,1395.513,3090.143,1395.343,3089.147Z" fill="#e34242" fill-rule="evenodd"/>
                <path id="Path_1493" data-name="Path 1493" d="M1356.112,3053.965c3.72-1.044,11.795-3.034,9.75,1.828a13.305,13.305,0,0,1-2.481,3.5c.534.73,5.129,2.41,5.762,2.508a15.9,15.9,0,0,1,3.963,1.582l.267.365h0c3.968-6.831-5.682-17.705-11.371-18.583-8.584-1-4.816,1.845-5.694,7.535Z" fill="#e34242" fill-rule="evenodd"/>
                <path id="Path_1494" data-name="Path 1494" d="M1397.048,3082.29c-6.5,6.44-15.317-5.6-36.476,1.49a82.424,82.424,0,0,0-7.565,4.982,38.35,38.35,0,0,1,4.917-10.891c.2-1.265,1.752-2.966,3.309-4.668,3.479-3.67,8.952-7.68,11.383-6.658.633.1.17,1,.438,1.362,3.449,7.005-.95,4.061,16.675,13.576l-12.4-7.739c-7.073-6.593-2.352-16.221,7.954-7.51,7.073,6.593-2.24,6.126-1.607,6.225,2.77,3.016,6.228-6.807,13.76,7.3a1.657,1.657,0,0,1-.388,2.531Z" fill="#e34242" fill-rule="evenodd"/>
                <path id="Path_1495" data-name="Path 1495" d="M1298.291,3095.205a145.945,145.945,0,0,1,15.028-.918c8.316.636-24.555,43.785-58.594,29.47-6.394-2.6-5.567-3.771-4.2-4.209l.633.1c1.264.2,3.623-.411,6.08-1.65a54.763,54.763,0,0,0,7.565-4.982c2.918-2.138,6.3-5.176,9.851-7.217a95.837,95.837,0,0,1,10.022-6.221c3.089-1.141,5.545-2.381,7.9-2.988l4.985-.849Z" fill="#e34242" fill-rule="evenodd"/>
                <path id="Path_1496" data-name="Path 1496" d="M1272.8,3061.176a28.931,28.931,0,0,1,2.524,8.8,33.976,33.976,0,0,1-1.828,9.75c-1.51,5.592-3.991,9.093-7.835,13.03-3.746,3.3-3.212,4.036-5.159,8.265-2.508,5.762-4.527,8.363-8.468,12.933-1.922,1.969-2.142,5.494-2.508,5.762s-1.629.073-2.7-1.387c-2.236-2.287-4.663-11.723-5.172-14.714a35.7,35.7,0,0,1,4.047-22.029c3.334-6.929,11.192-13.807,18.027-18.254C1266.184,3062.095,1271.025,3057.987,1272.8,3061.176Z" fill="#e34242" fill-rule="evenodd"/>
                <path id="Path_1497" data-name="Path 1497" d="M1297.5,3077.283c-4.672,5.1-8.906,11.571-12.677,17.138-.365.268-.73.534-1.265-.2-.9-.463,11.022-14.8,12.312-16.871a3.414,3.414,0,0,0,.925-1.8c-.9-.462-2.966-1.751-3.963-1.582-2.359.607-16.084,22.438-21.218,28.442a1.578,1.578,0,0,1-1,.17c-1.167-.828,20.051-29.27,20.682-29.172a5.465,5.465,0,0,0-3.16-.488,35.962,35.962,0,0,0-9.632,3.692c-1.726.7-2.554,1.872-3.479,3.671a31.678,31.678,0,0,1-8.2,13.3c-3.381,3.039-3.211,4.036-5.158,8.266-2.143,5.494-4.527,8.363-8.469,12.933-.729.534-1.022,2.431-1.849,3.6a24.274,24.274,0,0,0,5.35-1.116c5.278-2.746,11.773-9.187,17.148-12.564,9.293-5.686,16.662-9.4,23.544-9.959.924-1.8,1.658-10.747,1.319-12.741A24.615,24.615,0,0,0,1297.5,3077.283Z" fill="#e34242" fill-rule="evenodd"/>
                <path id="Path_1498" data-name="Path 1498" d="M1290.521,3070.058a9.008,9.008,0,0,1,2.918-2.139c2.554-1.871,5.279-2.745,8.342-1.625,1.9.293,2.431,1.023,4.327,1.316a7.346,7.346,0,0,1,4.231,1.947c2.771,3.016,3.865,2.214,5.079,6.932,1.044,3.721.483,5.253-1,8.584-1.192,1.434-2.215,3.865-3.042,5.032s-1.921,1.969-2.384,2.869c-.365.268-.2,1.265-.2,1.265s-7.88.725-8.512.627c-1.994.34-2.359.607-1.9-.293.1-.632.853-3.428,1.243-5.957.318-4.158.954-12.473-3.812-15.151-1.8-.924-4.061-.95-5.859-1.875a.442.442,0,0,1-.619-.083l-.013-.017.827-1.167Z" fill="#e34242" fill-rule="evenodd"/>
                <path id="Path_1499" data-name="Path 1499" d="M1265.479,3060.367c4.671-5.1,22.3-12.416,19.165-6.751-.925,1.8-8.418,8.411-7.884,9.14-.1.632,9.635-12.106,15.3-8.967,1.167.828,9.479,9.878,4.762,11.092-6.178,2.282-4.646,2.843-8.757,6.416-.827,1.167-1.825,1.336-3.186,1.774-8.44,2.257-9.827,4.956-10.022,6.22l-.364.267c1.217-3.7,2.68-13.178-.7-18.554-2.042-3.551-6.59-1.341-9.144.531A1.661,1.661,0,0,0,1265.479,3060.367Z" fill="#e34242" fill-rule="evenodd"/>
              </g>
            </g>
            <g id="Group_402" data-name="Group 402">
              <g id="Group_438" data-name="Group 438">
                <g id="Group_436" data-name="Group 436">
                  <path id="Path_1500" data-name="Path 1500" d="M790.616,3038.687c-22.7-15.607,23.449-59.962,25.394-52.875a11.966,11.966,0,0,1-1.093,6.938c-13.18,7.986-27.958,24.032-26.224,39.4A18.008,18.008,0,0,0,790.616,3038.687Z" fill="#f5d266" fill-rule="evenodd"/>
                  <path id="Path_1501" data-name="Path 1501" d="M792.84,3039.148c-18.046-29.86,65.154-78.219,30.221-29.364-8.332,11.922,3.83-.709,9.274-15.82,3.468-9.517,4.184,1.206,1.185,15.39-5.934,9.893-6.847,21.234-15.028,30.117-4.75,5.158-11.77,8.755-18.557,4.623Z" fill="#f5d266" fill-rule="evenodd"/>
                  <path id="Path_1502" data-name="Path 1502" d="M854.407,3021.177c-11.9,32.47-43.665,37.636-49.095,26.28-.31-.814,6.672,1.379,14.327-6.93,12.667-13.754,12.59-42.422,27.77-35.327,19.387,8.852-24.7,22.8-13.5,20.4C836.379,3025.227,858.357,3009.987,854.407,3021.177Z" fill="#f5d266" fill-rule="evenodd"/>
                </g>
                <g id="Group_437" data-name="Group 437">
                  <path id="Path_1503" data-name="Path 1503" d="M863.683,3045.608c-7.163-6.6-2.188-26.377,13.873-38.065,4.554-3.22,26.994-20.685,32.265-13.182.023.551.309.815.068,1.652-.55.023-.529.573-1.057,1.147-10.684,15.05-22.25,28.759-36.946,40.116C869.488,3039.3,865.221,3042.787,863.683,3045.608Z" fill="#f5d266" fill-rule="evenodd"/>
                  <path id="Path_1504" data-name="Path 1504" d="M867.853,3053.155c-9.5-9.81,4.856-9.3,23.216-32.108l5.278-5.731c6.87-.558,15.987-.106,22.2,3.5-10.322,3.732-32.166,22.275-42.248,25.171,8.316-5.58,21.21-13.83,30.078-19.433,7.239-4.984,12.389-7.125,13.452-1.379.023.551-.694,9.953-.934,10.79-5.174,1.591-4.223,4.584-4.065,8.438-1.3,1.983-23.134,7.292-25.313,7.934Z" fill="#f5d266" fill-rule="evenodd"/>
                  <path id="Path_1505" data-name="Path 1505" d="M870.122,3054.716l19.749-2.466c40.371-10.483,20.954-6.652,28.539-16.613l24.4,3.408C938.348,3064.592,895.015,3083.467,870.122,3054.716Z" fill="#f5d266" fill-rule="evenodd"/>
                  <path id="Path_1506" data-name="Path 1506" d="M910.483,2997.091c.264-.287,18.429-1.034,6.621,13.513-7.081,8.838,1.3-1.983,5.481-.777,14.252,4.651,4.374,12.5-.285,19.861l10.224-12.827c3.612.678,2.263,14.795-3.656,18.346l-8.588-1.025c-3-5.941,7.118-14.628-7.111-18.73-8.37-2.413-14.667-1.326-15.745-.731-1.1.045,4.2-5.135,6.289-7.978Z" fill="#f5d266" fill-rule="evenodd"/>
                </g>
              </g>
              <path id="Path_1507" data-name="Path 1507" d="M799.431,3045.218l-4.54-3.122c-12.411,26.7-22.973,51.4-39.592,76.341,10.277-24.96,24.988-42.658,15.267-71.205-10.008-28.811-7.844-43.236-7.844-43.236-13.98,22.079-11.566,33.834-11.293,60.566.664,42.981-17.9,60.837-25.68,92.861-6.31,7.428-39.239,38-17.915,26.928,6.205-3.288,14.937-12.194,24.392-23.611l55.2-25.428c28.562-16.061,81.842-61.261,108.663-39.206,10.557,8.663-9.668-40.681-83.216-5.675-5.128,2.692-15.6,9.464-27.394,17.667,26.372-22.312,55.881-37.44,85.521-54.1l-5-6c-39.964,20.391-72.377,43.772-106.667,74.681C777.754,3094.631,787.156,3075.221,799.431,3045.218Z" fill="#006837" fill-rule="evenodd"/>
            </g>
            <g id="Group_403" data-name="Group 403">
              <path id="Path_1508" data-name="Path 1508" d="M720.579,3114.154c-14.064,18.761-50.18-22.029-44.084-23.437a10.181,10.181,0,0,1,5.862,1.172c6.333,11.487,19.465,24.614,32.6,23.674A15.323,15.323,0,0,0,720.579,3114.154Z" fill="#ff6889" fill-rule="evenodd"/>
              <path id="Path_1509" data-name="Path 1509" d="M721.048,3112.278c-26.022,14.308-64.255-58.134-23.92-26.724,9.849,7.5-.469-3.282-13.132-8.438-7.972-3.281,1.172-3.518,13.13-.471,8.208,5.39,17.821,6.561,25.091,13.828,4.221,4.22,7.036,10.315,3.286,15.943Z" fill="#ff6889" fill-rule="evenodd"/>
              <path id="Path_1510" data-name="Path 1510" d="M707.9,3059.291c27.2,11.249,30.489,38.446,20.642,42.668-.7.235,1.406-5.628-5.4-12.426-11.256-11.252-35.641-12.184-29.079-24.847,8.2-16.18,18.528,21.8,16.884,12.188C710.725,3074.765,698.528,3055.542,707.9,3059.291Z" fill="#ff6889" fill-rule="evenodd"/>
              <g id="Group_435" data-name="Group 435">
                <path id="Path_1511" data-name="Path 1511" d="M729.012,3052.253c-5.861,5.863-22.508.943-31.89-13.123-2.58-3.986-16.652-23.678-10.088-27.9.469,0,.7-.234,1.407,0,0,.468.469.468.938.938,12.429,9.61,23.685,19.925,32.832,32.819C723.849,3047.1,726.663,3050.848,729.012,3052.253Z" fill="#f4d366" fill-rule="evenodd"/>
                <path id="Path_1512" data-name="Path 1512" d="M735.573,3048.965c-8.673,7.74-7.738-4.453-26.5-20.862l-4.69-4.688c-.235-5.862.466-13.6,3.747-18.758,2.815,8.909,17.826,28.132,19.938,36.807-4.457-7.267-11.024-18.52-15.481-26.257-3.987-6.33-5.63-10.784-.706-11.488.468,0,8.441.936,9.144,1.17,1.173,4.454,3.752,3.751,7.034,3.75,1.642,1.173,5.4,19.929,5.866,21.8Z" fill="#f4d366" fill-rule="evenodd"/>
                <path id="Path_1513" data-name="Path 1513" d="M736.98,3047.1l-1.41-16.881c-7.51-34.7-4.928-18.053-13.135-24.851l3.745-20.638C747.753,2989.413,762.3,3026.924,736.98,3047.1Z" fill="#f4d366" fill-rule="evenodd"/>
                <path id="Path_1514" data-name="Path 1514" d="M689.376,3010.762c-.235-.234-.238-15.709,11.722-5.161,7.269,6.329-1.642-1.172-.47-4.689,4.453-11.959,10.785-3.285,16.882.934l-10.553-9.142c.7-3.048,12.661-1.41,15.475,3.749l-1.17,7.268c-5.157,2.346-12.194-6.563-16.177,5.4-2.343,7.035-1.639,12.428-1.169,13.365,0,.937-4.221-3.751-6.566-5.625Z" fill="#f4d366" fill-rule="evenodd"/>
              </g>
              <path id="Path_1515" data-name="Path 1515" d="M726.441,3106.885l-2.813,3.752c22.276,11.485,42.911,21.328,63.548,36.329-20.87-9.608-35.409-22.735-60.027-15.462-24.851,7.509-37.044,5.166-37.044,5.166,18.291,12.658,28.372,11.015,51.116,11.713,36.577.931,51.117,17.34,78.083,25.072,6.1,5.625,30.957,34.694,22.277,16.173-2.58-5.393-9.851-13.128-19.231-21.567l-19.7-47.827c-12.667-24.852-49.258-71.737-29.567-93.784,7.735-8.677-34.934,6.807-7.722,70.576,2.111,4.454,7.506,13.6,14.073,23.912-18.059-23.208-29.3-49.149-42.434-74.938l-6,4c15.951,34.7,34.833,63.439,59.927,93.684C767.711,3127.04,751.531,3118.369,726.441,3106.885Z" fill="#006837" fill-rule="evenodd"/>
              <g id="Group_1008" data-name="Group 1008">
                <path id="Path_9341" data-name="Path 9341" d="M687.173,3011.8l3.6-3.238s12,1,14-3,4-5,7-5a35.483,35.483,0,0,1,7,1s1-6,3-6,11,4,11,4l5.306,44.946s-2.919,2.624-5.612,4.839,1.306,1.215-3.694,2.215-21-11-21-11Z" fill="#6d603b" fill-rule="evenodd"/>
                <g id="Group_403-2" data-name="Group 403">
                  <g id="Group_435-2" data-name="Group 435">
                    <path id="Path_1511-2" data-name="Path 1511" d="M728.584,3051.6c-5.861,5.863-22.508.943-31.89-13.123-2.58-3.986-16.652-23.678-10.088-27.9.469,0,.7-.234,1.407,0,0,.468.469.468.938.938,12.429,9.61,23.685,19.925,32.832,32.819C723.421,3046.449,726.235,3050.2,728.584,3051.6Z" fill="#f4d366" fill-rule="evenodd"/>
                    <path id="Path_1512-2" data-name="Path 1512" d="M735.145,3048.317c-8.673,7.74-7.738-4.453-26.5-20.862l-4.69-4.688c-.235-5.862.466-13.6,3.747-18.758,2.815,8.909,17.826,28.132,19.938,36.807-4.457-7.267-11.024-18.52-15.481-26.257-3.987-6.33-5.63-10.784-.706-11.488.468,0,8.441.936,9.144,1.17,1.173,4.454,3.752,3.751,7.034,3.75,1.642,1.173,5.4,19.929,5.866,21.8Z" fill="#f4d366" fill-rule="evenodd"/>
                    <path id="Path_1513-2" data-name="Path 1513" d="M736.552,3046.45l-1.41-16.881c-7.51-34.7-4.928-18.053-13.135-24.851l3.745-20.638C747.325,2988.765,761.87,3026.276,736.552,3046.45Z" fill="#f4d366" fill-rule="evenodd"/>
                    <path id="Path_1514-2" data-name="Path 1514" d="M688.948,3010.114c-.235-.234-.238-15.709,11.722-5.161,7.269,6.329-1.642-1.172-.47-4.689,4.453-11.959,10.785-3.285,16.882.934l-10.553-9.142c.7-3.048,12.661-1.41,15.475,3.749l-1.17,7.268c-5.157,2.346-12.194-6.563-16.177,5.4-2.343,7.035-1.639,12.428-1.169,13.365,0,.937-4.221-3.751-6.566-5.625Z" fill="#f4d366" fill-rule="evenodd"/>
                  </g>
                </g>
              </g>
            </g>
            <g id="Group_404" data-name="Group 404">
              <path id="Path_1516" data-name="Path 1516" d="M623.756,3070.264v113.83s-29.287,16.577-61.336,0V3069.712S589.5,3057,623.756,3070.264Z" fill="#ece5e2" fill-rule="evenodd"/>
              <path id="Path_1517" data-name="Path 1517" d="M623.756,3069.714a66.837,66.837,0,0,1-61.336-.553S591.154,3057,623.756,3069.714Z" fill="#ded9d5" fill-rule="evenodd"/>
              <path id="Path_1518" data-name="Path 1518" d="M616.184,3072.841s-24.826-5.144-44.062,0A64.364,64.364,0,0,0,616.184,3072.841Z" fill="#fff" fill-rule="evenodd"/>
              <path id="Path_1519" data-name="Path 1519" d="M594.21,3075.73s3.921,0,0-7.353-2.942-5.883-2.942-5.883S585.875,3079.162,594.21,3075.73Z" fill="#fbb03b" fill-rule="evenodd"/>
              <path id="Path_1520" data-name="Path 1520" d="M562.508,3085.985s11.985,7.623,30.44,7.144l-.24,74.782s-16.059,4.314-30.2-6.711Z" fill="#ded9d5" fill-rule="evenodd"/>
            </g>
            <g id="Group_405" data-name="Group 405">
              <path id="Path_1521" data-name="Path 1521" d="M933.566,3106.61v113.835s-29.287,16.577-61.336,0V3106.058S899.306,3093.345,933.566,3106.61Z" fill="#ece5e2" fill-rule="evenodd"/>
              <path id="Path_1522" data-name="Path 1522" d="M933.566,3106.057a66.836,66.836,0,0,1-61.336-.553S900.964,3093.349,933.566,3106.057Z" fill="#ded9d5" fill-rule="evenodd"/>
              <path id="Path_1523" data-name="Path 1523" d="M926,3109.187s-24.826-5.144-44.062,0A64.361,64.361,0,0,0,926,3109.187Z" fill="#fff" fill-rule="evenodd"/>
              <path id="Path_1524" data-name="Path 1524" d="M904.021,3112.077s3.922,0,0-7.354-2.942-5.882-2.942-5.882S895.686,3115.508,904.021,3112.077Z" fill="#fbb03b" fill-rule="evenodd"/>
              <path id="Path_1525" data-name="Path 1525" d="M872.318,3122.332s11.985,7.623,30.44,7.143l-.239,74.783s-16.059,4.314-30.2-6.711Z" fill="#ded9d5" fill-rule="evenodd"/>
            </g>
            <g id="Group_406" data-name="Group 406">
              <path id="Path_1526" data-name="Path 1526" d="M739.457,3052.115v113.83s-29.287,16.577-61.336,0V3051.562S705.2,3038.852,739.457,3052.115Z" fill="#ece5e2" fill-rule="evenodd"/>
              <path id="Path_1527" data-name="Path 1527" d="M739.457,3051.561a66.838,66.838,0,0,1-61.332-.549S706.857,3038.852,739.457,3051.561Z" fill="#ded9d5" fill-rule="evenodd"/>
              <path id="Path_1528" data-name="Path 1528" d="M731.889,3054.692s-24.826-5.144-44.062,0A64.361,64.361,0,0,0,731.889,3054.692Z" fill="#fff" fill-rule="evenodd"/>
              <path id="Path_1529" data-name="Path 1529" d="M709.916,3057.581s3.922,0,0-7.353-2.941-5.883-2.941-5.883S701.582,3061.013,709.916,3057.581Z" fill="#fbb03b" fill-rule="evenodd"/>
              <path id="Path_1530" data-name="Path 1530" d="M678.213,3067.835s11.985,7.623,30.44,7.144l-.24,74.781s-16.059,4.314-30.2-6.711Z" fill="#ded9d5" fill-rule="evenodd"/>
            </g>
            <g id="Group_407" data-name="Group 407">
              <path id="Path_1531" data-name="Path 1531" d="M619.532,3071.178v145.5s37.435,21.189,78.4,0v-146.2S663.323,3054.228,619.532,3071.178Z" fill="#ece5e2" fill-rule="evenodd"/>
              <path id="Path_1532" data-name="Path 1532" d="M619.532,3070.474s36.729,21.191,78.4-.705C697.932,3069.769,661.2,3054.228,619.532,3070.474Z" fill="#ded9d5" fill-rule="evenodd"/>
              <path id="Path_1533" data-name="Path 1533" d="M629.21,3074.475s31.735-6.576,56.322,0C685.532,3074.475,659.516,3085.625,629.21,3074.475Z" fill="#fff" fill-rule="evenodd"/>
              <path id="Path_1534" data-name="Path 1534" d="M657.3,3078.169s-5.013,0,0-9.4,3.759-7.52,3.759-7.52S667.952,3082.555,657.3,3078.169Z" fill="#fbb03b" fill-rule="evenodd"/>
              <path id="Path_1535" data-name="Path 1535" d="M697.821,3091.277s-15.319,9.745-38.91,9.131l.307,95.591s20.527,5.515,38.6-8.579Z" fill="#ded9d5" fill-rule="evenodd"/>
            </g>
            <g id="Group_408" data-name="Group 408">
              <path id="Path_1536" data-name="Path 1536" d="M704.98,3081.473v145.5s37.436,21.19,78.4,0v-146.2S748.773,3064.522,704.98,3081.473Z" fill="#ece5e2" fill-rule="evenodd"/>
              <path id="Path_1537" data-name="Path 1537" d="M704.98,3080.768s36.73,21.19,78.4-.707C783.383,3080.062,746.654,3064.522,704.98,3080.768Z" fill="#ded9d5" fill-rule="evenodd"/>
              <path id="Path_1538" data-name="Path 1538" d="M714.659,3084.768s31.735-6.576,56.323,0C770.979,3084.768,744.964,3095.918,714.659,3084.768Z" fill="#fff" fill-rule="evenodd"/>
              <path id="Path_1539" data-name="Path 1539" d="M742.748,3088.463s-5.013,0,0-9.4,3.759-7.52,3.759-7.52S753.4,3092.848,742.748,3088.463Z" fill="#fbb03b" fill-rule="evenodd"/>
              <path id="Path_1540" data-name="Path 1540" d="M783.27,3101.571s-21.546,11.26-50.2,7.522l.307,95.59s28.041,10.943,49.9-6.969Z" fill="#ded9d5" fill-rule="evenodd"/>
            </g>
            <g id="Group_409" data-name="Group 409">
              <path id="Path_1541" data-name="Path 1541" d="M785.1,3105.705v145.5s37.435,21.189,78.4,0V3105S828.9,3088.753,785.1,3105.705Z" fill="#ece5e2" fill-rule="evenodd"/>
              <path id="Path_1542" data-name="Path 1542" d="M785.1,3105s36.729,21.191,78.4-.707C863.506,3104.293,826.776,3088.753,785.1,3105Z" fill="#ded9d5" fill-rule="evenodd"/>
              <path id="Path_1543" data-name="Path 1543" d="M794.781,3109s31.735-6.576,56.323,0C851.1,3109,825.086,3120.15,794.781,3109Z" fill="#fff" fill-rule="evenodd"/>
              <path id="Path_1544" data-name="Path 1544" d="M822.871,3112.694s-5.013,0,0-9.4,3.76-7.52,3.76-7.52S833.524,3117.08,822.871,3112.694Z" fill="#fbb03b" fill-rule="evenodd"/>
              <path id="Path_1545" data-name="Path 1545" d="M863.394,3125.8s-15.319,9.745-38.91,9.131l.306,95.591s20.527,5.514,38.6-8.578Z" fill="#ded9d5" fill-rule="evenodd"/>
            </g>
            <g id="Group_410" data-name="Group 410">
              <path id="Path_1546" data-name="Path 1546" d="M948.9,3098.027v145.5s37.435,21.191,78.4,0V3097.321S992.7,3081.075,948.9,3098.027Z" fill="#ece5e2" fill-rule="evenodd"/>
              <path id="Path_1547" data-name="Path 1547" d="M948.9,3097.322s36.729,21.19,78.4-.707C1027.306,3096.615,990.578,3081.075,948.9,3097.322Z" fill="#ded9d5" fill-rule="evenodd"/>
              <path id="Path_1548" data-name="Path 1548" d="M958.581,3101.322s31.736-6.576,56.323,0C1014.9,3101.322,988.887,3112.472,958.581,3101.322Z" fill="#fff" fill-rule="evenodd"/>
              <path id="Path_1549" data-name="Path 1549" d="M986.671,3105.015s-5.013,0,0-9.4,3.76-7.519,3.76-7.519S997.324,3109.4,986.671,3105.015Z" fill="#fbb03b" fill-rule="evenodd"/>
              <path id="Path_1550" data-name="Path 1550" d="M1027.194,3118.124s-15.319,9.744-38.91,9.131l.307,95.59s20.527,5.515,38.6-8.578Z" fill="#ded9d5" fill-rule="evenodd"/>
            </g>
            <g id="Group_411" data-name="Group 411">
              <path id="Path_1551" data-name="Path 1551" d="M1048.719,3080.111v145.5s37.435,21.189,78.4,0V3079.405S1092.511,3063.159,1048.719,3080.111Z" fill="#ece5e2" fill-rule="evenodd"/>
              <path id="Path_1552" data-name="Path 1552" d="M1048.719,3079.405s36.73,21.191,78.4-.707C1127.122,3078.7,1090.392,3063.159,1048.719,3079.405Z" fill="#ded9d5" fill-rule="evenodd"/>
              <path id="Path_1553" data-name="Path 1553" d="M1058.4,3083.406s31.735-6.576,56.323,0C1114.72,3083.406,1088.7,3094.556,1058.4,3083.406Z" fill="#fff" fill-rule="evenodd"/>
              <path id="Path_1554" data-name="Path 1554" d="M1086.487,3087.1s-5.013,0,0-9.4,3.76-7.519,3.76-7.519S1097.14,3091.486,1086.487,3087.1Z" fill="#fbb03b" fill-rule="evenodd"/>
              <path id="Path_1555" data-name="Path 1555" d="M1127.009,3100.208s-15.319,9.744-38.91,9.131l.307,95.591s20.527,5.514,38.6-8.579Z" fill="#ded9d5" fill-rule="evenodd"/>
            </g>
            <g id="Group_412" data-name="Group 412">
              <path id="Path_1556" data-name="Path 1556" d="M1018.007,3136.417v145.5s37.435,21.19,78.4,0V3135.712S1061.8,3119.466,1018.007,3136.417Z" fill="#ece5e2" fill-rule="evenodd"/>
              <path id="Path_1557" data-name="Path 1557" d="M1018.007,3135.712s36.729,21.19,78.4-.707C1096.407,3135,1059.681,3119.466,1018.007,3135.712Z" fill="#ded9d5" fill-rule="evenodd"/>
              <path id="Path_1558" data-name="Path 1558" d="M1027.684,3139.712s31.736-6.576,56.323,0C1084.007,3139.712,1057.99,3150.862,1027.684,3139.712Z" fill="#fff" fill-rule="evenodd"/>
              <path id="Path_1559" data-name="Path 1559" d="M1055.774,3143.407s-5.013,0,0-9.4,3.76-7.52,3.76-7.52S1066.427,3147.792,1055.774,3143.407Z" fill="#fbb03b" fill-rule="evenodd"/>
              <path id="Path_1560" data-name="Path 1560" d="M1096.3,3156.515s-15.319,9.743-38.91,9.131l.307,95.59s20.527,5.515,38.6-8.578Z" fill="#ded9d5" fill-rule="evenodd"/>
            </g>
            <g id="Group_413" data-name="Group 413">
              <path id="Path_1561" data-name="Path 1561" d="M1117.2,3128.429v145.5s37.435,21.19,78.4,0V3127.723S1160.991,3111.477,1117.2,3128.429Z" fill="#ece5e2" fill-rule="evenodd"/>
              <path id="Path_1562" data-name="Path 1562" d="M1117.2,3127.723s36.73,21.191,78.4-.707C1195.6,3127.017,1158.868,3111.477,1117.2,3127.723Z" fill="#ded9d5" fill-rule="evenodd"/>
              <path id="Path_1563" data-name="Path 1563" d="M1126.878,3131.725s31.735-6.576,56.323,0C1183.2,3131.725,1157.183,3142.874,1126.878,3131.725Z" fill="#fff" fill-rule="evenodd"/>
              <path id="Path_1564" data-name="Path 1564" d="M1154.967,3135.418s-5.013,0,0-9.4,3.759-7.519,3.759-7.519S1165.62,3139.8,1154.967,3135.418Z" fill="#fbb03b" fill-rule="evenodd"/>
              <path id="Path_1565" data-name="Path 1565" d="M1195.489,3148.526s-15.319,9.745-38.91,9.131l.307,95.591s20.527,5.514,38.6-8.58Z" fill="#ded9d5" fill-rule="evenodd"/>
            </g>
            <g id="Group_414" data-name="Group 414">
              <path id="Path_1566" data-name="Path 1566" d="M1206.784,3136.107v145.5s37.436,21.19,78.4,0V3135.4S1250.577,3119.155,1206.784,3136.107Z" fill="#ece5e2" fill-rule="evenodd"/>
              <path id="Path_1567" data-name="Path 1567" d="M1206.784,3135.4s36.73,21.191,78.4-.7C1285.187,3134.7,1248.458,3119.155,1206.784,3135.4Z" fill="#ded9d5" fill-rule="evenodd"/>
              <path id="Path_1568" data-name="Path 1568" d="M1216.463,3139.4s31.735-6.576,56.323,0C1272.786,3139.4,1246.768,3150.552,1216.463,3139.4Z" fill="#fff" fill-rule="evenodd"/>
              <path id="Path_1569" data-name="Path 1569" d="M1244.552,3143.095s-5.013,0,0-9.4,3.759-7.52,3.759-7.52S1255.2,3147.482,1244.552,3143.095Z" fill="#fbb03b" fill-rule="evenodd"/>
              <path id="Path_1570" data-name="Path 1570" d="M1285.076,3156.2s-15.319,9.744-38.91,9.131l.306,95.591s20.527,5.515,38.6-8.579Z" fill="#ded9d5" fill-rule="evenodd"/>
            </g>
            <g id="Group_415" data-name="Group 415">
              <path id="Path_1571" data-name="Path 1571" d="M1297.592,3140.984v148.483s38.2,21.624,80.008,0v-149.2S1342.281,3123.684,1297.592,3140.984Z" fill="#ece5e2" fill-rule="evenodd"/>
              <path id="Path_1572" data-name="Path 1572" d="M1297.592,3140.259s37.481,21.624,80.008-.721C1377.6,3139.542,1340.118,3123.684,1297.592,3140.259Z" fill="#ded9d5" fill-rule="evenodd"/>
              <path id="Path_1573" data-name="Path 1573" d="M1307.468,3144.345s32.385-6.71,57.476,0C1364.944,3144.345,1338.394,3155.728,1307.468,3144.345Z" fill="#fff" fill-rule="evenodd"/>
              <path id="Path_1574" data-name="Path 1574" d="M1336.132,3148.114s-5.116,0,0-9.592,3.837-7.674,3.837-7.674S1347,3152.591,1336.132,3148.114Z" fill="#fbb03b" fill-rule="evenodd"/>
              <path id="Path_1575" data-name="Path 1575" d="M1377.486,3161.491s-15.632,9.944-39.707,9.319l.313,97.547s20.947,5.629,39.394-8.754Z" fill="#ded9d5" fill-rule="evenodd"/>
            </g>
            <g id="Group_419" data-name="Group 419">
              <g id="Group_418" data-name="Group 418">
                <rect id="Rectangle_98" data-name="Rectangle 98" width="61.25" height="69.014" transform="matrix(0.948, -0.319, 0.319, 0.948, 853.347, 3214.619)" fill="#f2f2f2"/>
                <path id="Path_1578" data-name="Path 1578" d="M911.015,3193.055,852.679,3212.7a1.712,1.712,0,0,0-1.105,2.154l.015.046,26.558,78.875a1.711,1.711,0,0,0,2.151,1.106l.049-.017,58.336-19.64a1.713,1.713,0,0,0,1.106-2.154l-.016-.046-26.556-78.878a1.711,1.711,0,0,0-2.155-1.1Zm19.589,63.958a1.71,1.71,0,0,1-1.042,2.184l-.048.016-51.558,17.359a1.712,1.712,0,0,1-2.184-1.042l-.016-.047-19.638-58.342a1.711,1.711,0,0,1,1.044-2.184l.046-.016,51.455-17.324a1.713,1.713,0,0,1,2.185,1.044l.015.046,19.641,58.335Z" fill="#333"/>
              </g>
              <line id="Line_30" data-name="Line 30" x1="8.745" y2="9.717" transform="translate(881.425 3229.726)" fill="none" stroke="#000" stroke-miterlimit="10" stroke-width="0.5"/>
              <line id="Line_31" data-name="Line 31" x1="11.984" y2="14.251" transform="translate(885.636 3231.346)" fill="none" stroke="#000" stroke-miterlimit="10" stroke-width="0.5"/>
            </g>
            <g id="Group_422" data-name="Group 422">
              <g id="Group_420" data-name="Group 420">
                <rect id="Rectangle_99" data-name="Rectangle 99" width="69.019" height="61.254" transform="matrix(0.012, -1, 1, 0.012, 931.789, 3249.47)" fill="#f2f2f2"/>
                <path id="Path_1579" data-name="Path 1579" d="M933.1,3231.689s14.058,1.807,17.438-2.189,7.683-25.508,18.133-26.124,18.132,12.909,21.206,20.285l2.323.437-.181,24.942-59.461-.362Z" fill="#ece5e2" opacity="0.47" style="isolation: isolate"/>
                <path id="Path_1580" data-name="Path 1580" d="M994.17,3179.157l-61.55-.735a1.712,1.712,0,0,0-1.754,1.671v.042l-.993,83.223a1.714,1.714,0,0,0,1.67,1.754h.043l61.55.734a1.712,1.712,0,0,0,1.755-1.668v-.045l.993-83.221a1.711,1.711,0,0,0-1.67-1.754Zm-2.64,66.837a1.712,1.712,0,0,1-1.71,1.714h-.045l-54.4-.649a1.71,1.71,0,0,1-1.713-1.708v-.047l.734-61.55a1.71,1.71,0,0,1,1.71-1.712h.044l54.29.647a1.714,1.714,0,0,1,1.714,1.713v.041l-.735,61.55Z" fill="#333"/>
              </g>
              <g id="Group_421" data-name="Group 421">
                <line id="Line_32" data-name="Line 32" x1="16.543" y2="8.546" transform="translate(944.483 3190.146)" fill="none" stroke="#000" stroke-miterlimit="10" stroke-width="0.5"/>
                <line id="Line_33" data-name="Line 33" x1="10.965" y2="5.664" transform="translate(946.198 3200.029)" fill="none" stroke="#000" stroke-miterlimit="10" stroke-width="0.5"/>
              </g>
            </g>
          </g>
        </g>
        <g id="Group_431" data-name="Group 431">
          <g id="Group_433" data-name="Group 433">
            <path id="Path_1490-2" data-name="Path 1490-2" d="M595.03,3123.669l2.559-2.9,28.432,18.66c16.362,10.251,38.237,12.387,59.076,15.935-2.466-1.373-4.444-2.821-6.628-3.987l-19.206-14.071,2.559-2.9,28.432,18.66a79.043,79.043,0,0,0,11.41,5.755,46.794,46.794,0,0,1,6.533,1.747c2.108.677,3.934,1.147,5.271,1.692,10.958,2.818,22.46,4.3,34.037,6.271-11.128-5.548-14.741-2.986-25.474-10.85-14.123-10.346-30.219-15.629-35.011-36.935-4.715-20.817-11.457-28.8-11.457-28.8,16.832,8.426,19.791,16.236,29.285,32.307,15.2,25.462,32.41,29.821,48.831,45.324,6.457,1.258,13.2,2.723,19.24,4.547,9.771,3.252,8.943,4.381,1.432,2.785-9.827-1.991-26.091-3.49-43.636-6.794.434,1.185-3.915.6-4.894.755l-33.224,3.88c-16.865,1.1-52.859-4.87-58.969,12.357-2.444,6.891-6.956-20.722,35.434-25.259,5.665-.624,22.137.592,36.651,2.11-2.392-.883-4.707-1.278-6.891-2.444-23.287-3.17-60.447-6.956-84.586-23.773Z" fill="#007437" fill-rule="evenodd"/>
            <g id="Group_1009" data-name="Group 1009">
              <path id="Path_9342" data-name="Path 9342" d="M620,3120.278v-23l4-4,15-1,3-4,6,2,13,33,2,12-5.081,2.143Z" fill="#4f1932" fill-rule="evenodd"/>
              <path id="Path_9343" data-name="Path 9343" d="M580.184,3126.1a3.107,3.107,0,0,1-2.171-.477c-4.19-2.764-20.405-13.347-23.013-13.347a7.5,7.5,0,0,1-3.158-.692,3.06,3.06,0,0,1-1.729-2.591h0a3.119,3.119,0,0,1,1.278-2.728l9.119-6.633a3.11,3.11,0,0,0,.811-.869L565,3091c.047-.075,1.027.243,1.08.172L570,3084c.342-.456,2.279-.834,2.807-1.047l3.519-1.418a3.118,3.118,0,0,1,3.752,1.148l15.556,23.053a3.118,3.118,0,0,1,.483,1.186l1.858,10.217c.017.093.029.186.038.28l.269,3.021a3.119,3.119,0,0,1-2.648,3.363Z" fill="#4f1932" fill-rule="evenodd"/>
              <g id="Group_433-2" data-name="Group 433">
                <g id="Group_439" data-name="Group 439">
                  <path id="Path_1491-2" data-name="Path 1491-2" d="M582.711,3078.217c4.22,7.866-6.024-.073,12.753,19.326,8.285,8.24,7.576,19.874,2.514,24.413h0c-.075-.49-.564-.414-.772-.132-7.659,3.938-12.444-4.343-15.8-9.838l-.283-.207c-.3-1.957-3.166-7.527-3.806-8.431a22.767,22.767,0,0,0-2.844-3.82c-1.488-1.524-5.31-5.193-8.115-5.511-.847-.621-.923-1.11-.923-1.11h0l.207-.283h0c.489-.075.489-.075.7-.358h0c.282.207.772.132,1.675-.509h0l.283.207.7-.358h0a31.931,31.931,0,0,0,3.068-1.225c6.251,1.541,19.495,27.3,20.06,27.718l-8.8-16.43c-2-3.2-7.307-8.391-10.358-11.929-.076-.49-.923-1.111-2-3.2-.942-2.861,4.254-1.659,6.645-.774,1.694,1.242,1.376,4.046,7.534,9.86,7.439,7.62,8.23,9.5,10.644,18.649,1.019,3.35,1.617-5.761-7.461-15.884-6.026-6.585-8.74-11.177-9.682-14.038h0a20.834,20.834,0,0,1,.017-4.762C579.624,3077.691,582.635,3077.727,582.711,3078.217Z" fill="#ad5077" fill-rule="evenodd"/>
                  <path id="Path_1492-2" data-name="Path 1492-2" d="M547.656,3112.436a5.069,5.069,0,0,1,2.559-2.9c5.251-.06,12.836-4.486,24.226-.482,1.053.339,4.8,3.518,6.27,3.292,3.635,5.7,8.5,14.472,16.569,9.969,2.579-1.149-12.905,17.023-31.793.147-3.541-3.462-10.7-10.875-16.777-9.687C548.223,3112.849,547.527,3113.207,547.656,3112.436Z" fill="#ad5077" fill-rule="evenodd"/>
                  <path id="Path_1493-2" data-name="Path 1493-2" d="M578.027,3085.2c-2.88-.808-9.13-2.349-7.547,1.415a10.3,10.3,0,0,0,1.921,2.71c-.414.565-3.97,1.866-4.46,1.941a12.341,12.341,0,0,0-3.068,1.225l-.206.283h0c-3.071-5.288,4.4-13.706,8.8-14.385,6.645-.775,3.728,1.429,4.407,5.833Z" fill="#ad5077" fill-rule="evenodd"/>
                  <path id="Path_1494-2" data-name="Path 1494-2" d="M546.338,3107.129c5.028,4.985,11.857-4.335,28.236,1.154a63.817,63.817,0,0,1,5.856,3.856,29.686,29.686,0,0,0-3.806-8.431c-.152-.979-1.356-2.3-2.562-3.613-2.693-2.841-6.93-5.945-8.812-5.154-.49.076-.132.772-.339,1.055-2.67,5.422.736,3.143-12.908,10.51l9.6-5.991c5.475-5.1,1.82-12.556-6.157-5.813-5.475,5.1,1.734,4.742,1.244,4.819-2.144,2.335-4.821-5.269-10.651,5.652a1.284,1.284,0,0,0,.1,1.812A1.329,1.329,0,0,0,546.338,3107.129Z" fill="#ad5077" fill-rule="evenodd"/>
                  <path id="Path_1495-2" data-name="Path 1495-2" d="M622.785,3117.126a113.023,113.023,0,0,0-11.633-.711c-6.438.492,19.008,33.893,45.357,22.813,4.949-2.017,4.309-2.919,3.255-3.258l-.49.075a9.388,9.388,0,0,1-4.706-1.278,42.342,42.342,0,0,1-5.856-3.856,85.363,85.363,0,0,0-7.626-5.587,74.174,74.174,0,0,0-7.758-4.815c-2.391-.883-4.293-1.843-6.119-2.313l-3.859-.657Z" fill="#ad5077" fill-rule="evenodd"/>
                  <path id="Path_1496-2" data-name="Path 1496-2" d="M642.52,3090.783a22.392,22.392,0,0,0-1.954,6.815,26.313,26.313,0,0,0,1.415,7.547,21.315,21.315,0,0,0,6.065,10.087c2.9,2.559,2.486,3.124,3.994,6.4a33.544,33.544,0,0,0,6.555,10.011c1.488,1.524,1.658,4.253,1.941,4.46s1.261.056,2.089-1.074c1.731-1.77,3.61-9.075,4-11.39a27.64,27.64,0,0,0-3.132-17.053c-2.581-5.364-8.664-10.688-13.955-14.13C647.641,3091.5,643.893,3088.316,642.52,3090.783Z" fill="#ad5077" fill-rule="evenodd"/>
                  <path id="Path_1497-2" data-name="Path 1497-2" d="M623.4,3103.253c3.616,3.951,6.894,8.957,9.813,13.266.283.207.565.414.979-.151.7-.358-8.532-11.46-9.531-13.06a2.647,2.647,0,0,1-.716-1.393c.7-.357,2.3-1.356,3.068-1.225,1.826.47,12.451,17.369,16.424,22.017a1.219,1.219,0,0,0,.772.132c.9-.641-15.521-22.657-16.01-22.582a4.227,4.227,0,0,1,2.446-.378,27.852,27.852,0,0,1,7.456,2.858,5.133,5.133,0,0,1,2.693,2.841,24.53,24.53,0,0,0,6.349,10.293c2.617,2.352,2.486,3.124,3.993,6.4,1.659,4.253,3.5,6.474,6.556,10.011.565.414.791,1.882,1.431,2.785a18.762,18.762,0,0,1-4.141-.864c-4.085-2.126-9.114-7.111-13.274-9.726-7.193-4.4-12.9-7.279-18.226-7.709-.716-1.393-1.284-8.319-1.021-9.863A19.115,19.115,0,0,1,623.4,3103.253Z" fill="#ad5077" fill-rule="evenodd"/>
                  <path id="Path_1498-2" data-name="Path 1498-2" d="M628.8,3097.659a6.969,6.969,0,0,0-2.259-1.656c-1.977-1.449-4.086-2.125-6.458-1.258-1.468.227-1.882.792-3.35,1.018a5.689,5.689,0,0,0-3.275,1.507c-2.145,2.335-2.992,1.714-3.932,5.366-.808,2.881-.374,4.066.775,6.645.923,1.11,1.715,2.992,2.355,3.9s1.487,1.524,1.845,2.221c.283.207.151.979.151.979s6.1.561,6.589.486c1.543.263,1.826.47,1.468-.227-.075-.489-.66-2.653-.962-4.611-.246-3.219-.738-9.656,2.95-11.729,1.392-.716,3.143-.736,4.536-1.451a.34.34,0,0,0,.479-.062l.01-.013-.64-.9Z" fill="#ad5077" fill-rule="evenodd"/>
                  <path id="Path_1499-2" data-name="Path 1499-2" d="M648.185,3090.159c-3.616-3.951-17.266-9.611-14.836-5.226.716,1.393,6.516,6.511,6.1,7.075.076.489-7.458-9.371-11.844-6.941-.9.641-7.338,7.646-3.686,8.586,4.782,1.767,3.6,2.2,6.779,4.966a3.969,3.969,0,0,0,2.466,1.373c6.533,1.747,7.607,3.836,7.758,4.815l.282.206c-.942-2.861-2.075-10.2.539-14.363,1.581-2.749,5.1-1.038,7.078.411A1.282,1.282,0,0,1,648.185,3090.159Z" fill="#ad5077" fill-rule="evenodd"/>
                </g>
              </g>
            </g>
          </g>
          <g id="Group_427-2" data-name="Group 427-2">
            <g id="Group_392-2" data-name="Group 392-2">
              <path id="Path_1440-2" data-name="Path 1440-2" d="M347.7,3088.052v85.765s-23.447,12.486-49.105,0v-86.181S320.275,3078.06,347.7,3088.052Z" fill="#ece5e2" fill-rule="evenodd"/>
              <path id="Path_1441-2" data-name="Path 1441-2" d="M347.7,3087.961a52.825,52.825,0,0,1-49.105-.449A69.517,69.517,0,0,1,347.7,3087.961Z" fill="#ded9d5" fill-rule="evenodd"/>
              <path id="Path_1442-2" data-name="Path 1442-2" d="M341.555,3090.5s-20.173-4.179-35.8,0A52.291,52.291,0,0,0,341.555,3090.5Z" fill="#fff" fill-rule="evenodd"/>
              <path id="Path_1443-2" data-name="Path 1443-2" d="M324.066,3092.851s3.187,0,0-5.974-2.393-4.78-2.393-4.78S317.294,3095.64,324.066,3092.851Z" fill="#fbb03b" fill-rule="evenodd"/>
              <path id="Path_1444-2" data-name="Path 1444-2" d="M298.669,3101.184s9.738,5.5,24.734,5.155l-.2,53.969s-13.048,3.113-24.538-4.844Z" fill="#ded9d5" fill-rule="evenodd"/>
            </g>
            <g id="Group_393-2" data-name="Group 393-2">
              <path id="Path_1445-2" data-name="Path 1445-2" d="M399.2,3100.279V3205.3s-27.019,15.3-56.59,0V3099.768S367.6,3088.043,399.2,3100.279Z" fill="#ece5e2" fill-rule="evenodd"/>
              <path id="Path_1446-2" data-name="Path 1446-2" d="M399.2,3099.768a61.665,61.665,0,0,1-56.59-.509A81.223,81.223,0,0,1,399.2,3099.768Z" fill="#ded9d5" fill-rule="evenodd"/>
              <path id="Path_1447-2" data-name="Path 1447-2" d="M392.221,3102.655s-22.9-4.745-40.65,0A59.374,59.374,0,0,0,392.221,3102.655Z" fill="#fff" fill-rule="evenodd"/>
              <path id="Path_1448-2" data-name="Path 1448-2" d="M371.948,3105.322s3.619,0,0-6.784-2.717-5.427-2.717-5.427S364.259,3108.487,371.948,3105.322Z" fill="#fbb03b" fill-rule="evenodd"/>
              <path id="Path_1449-2" data-name="Path 1449-2" d="M342.7,3114.783s11.057,7.033,28.083,6.591l-.22,68.995a34.149,34.149,0,0,1-27.863-6.193Z" fill="#ded9d5" fill-rule="evenodd"/>
            </g>
            <g id="Group_410-2" data-name="Group 410-2">
              <path id="Path_1546-2" data-name="Path 1546-2" d="M378.491,3101.587v145.5s37.435,21.191,78.4,0V3100.881S422.283,3084.635,378.491,3101.587Z" fill="#ece5e2" fill-rule="evenodd"/>
              <path id="Path_1547-2" data-name="Path 1547-2" d="M378.491,3100.882s36.729,21.19,78.4-.707C456.893,3100.175,420.165,3084.635,378.491,3100.882Z" fill="#ded9d5" fill-rule="evenodd"/>
              <path id="Path_1548-2" data-name="Path 1548-2" d="M388.168,3104.882s31.736-6.576,56.323,0C444.491,3104.882,418.474,3116.032,388.168,3104.882Z" fill="#fff" fill-rule="evenodd"/>
              <path id="Path_1549-2" data-name="Path 1549-2" d="M416.258,3108.575s-5.013,0,0-9.4,3.76-7.519,3.76-7.519S426.911,3112.962,416.258,3108.575Z" fill="#fbb03b" fill-rule="evenodd"/>
              <path id="Path_1550-2" data-name="Path 1550-2" d="M456.781,3121.684s-15.319,9.744-38.91,9.131l.307,95.59s20.527,5.515,38.6-8.578Z" fill="#ded9d5" fill-rule="evenodd"/>
            </g>
            <g id="Group_411-2" data-name="Group 411-2">
              <path id="Path_1551-2" data-name="Path 1551-2" d="M464.068,3086.341v145.5s37.435,21.189,78.4,0V3085.635S507.86,3069.389,464.068,3086.341Z" fill="#ece5e2" fill-rule="evenodd"/>
              <path id="Path_1552-2" data-name="Path 1552-2" d="M464.068,3085.635s36.73,21.191,78.4-.707C542.471,3084.929,505.741,3069.389,464.068,3085.635Z" fill="#ded9d5" fill-rule="evenodd"/>
              <path id="Path_1553-2" data-name="Path 1553-2" d="M473.746,3089.636s31.735-6.576,56.323,0C530.069,3089.636,504.052,3100.786,473.746,3089.636Z" fill="#fff" fill-rule="evenodd"/>
              <path id="Path_1554-2" data-name="Path 1554-2" d="M501.836,3093.329s-5.013,0,0-9.4,3.76-7.519,3.76-7.519S512.489,3097.716,501.836,3093.329Z" fill="#fbb03b" fill-rule="evenodd"/>
              <path id="Path_1555-2" data-name="Path 1555-2" d="M542.358,3106.438s-15.319,9.744-38.91,9.131l.307,95.591s20.527,5.514,38.6-8.579Z" fill="#ded9d5" fill-rule="evenodd"/>
            </g>
            <g id="Group_412-2" data-name="Group 412-2">
              <path id="Path_1556-2" data-name="Path 1556-2" d="M447.594,3139.977v145.5s37.435,21.19,78.4,0V3139.272S491.386,3123.026,447.594,3139.977Z" fill="#ece5e2" fill-rule="evenodd"/>
              <path id="Path_1557-2" data-name="Path 1557-2" d="M447.594,3139.272s36.729,21.19,78.4-.707C525.994,3138.565,489.268,3123.026,447.594,3139.272Z" fill="#ded9d5" fill-rule="evenodd"/>
              <path id="Path_1558-2" data-name="Path 1558-2" d="M457.271,3143.272s31.736-6.576,56.323,0C513.594,3143.272,487.577,3154.422,457.271,3143.272Z" fill="#fff" fill-rule="evenodd"/>
              <path id="Path_1559-2" data-name="Path 1559-2" d="M485.361,3146.967s-5.013,0,0-9.4,3.76-7.52,3.76-7.52S496.014,3151.352,485.361,3146.967Z" fill="#fbb03b" fill-rule="evenodd"/>
              <path id="Path_1560-2" data-name="Path 1560-2" d="M525.885,3160.075s-15.319,9.743-38.91,9.131l.307,95.59s20.527,5.515,38.6-8.578Z" fill="#ded9d5" fill-rule="evenodd"/>
            </g>
            <g id="Group_413-2" data-name="Group 413-2">
              <path id="Path_1561-2" data-name="Path 1561-2" d="M546.786,3131.989v145.5s37.435,21.19,78.4,0V3131.283S590.578,3115.037,546.786,3131.989Z" fill="#ece5e2" fill-rule="evenodd"/>
              <path id="Path_1562-2" data-name="Path 1562-2" d="M546.786,3131.283s36.73,21.191,78.4-.707C625.189,3130.577,588.455,3115.037,546.786,3131.283Z" fill="#ded9d5" fill-rule="evenodd"/>
              <path id="Path_1563-2" data-name="Path 1563-2" d="M556.465,3135.285s31.735-6.576,56.323,0C612.788,3135.285,586.77,3146.434,556.465,3135.285Z" fill="#fff" fill-rule="evenodd"/>
              <path id="Path_1564-2" data-name="Path 1564-2" d="M584.554,3138.978s-5.013,0,0-9.4,3.759-7.519,3.759-7.519S595.207,3143.364,584.554,3138.978Z" fill="#fbb03b" fill-rule="evenodd"/>
              <path id="Path_1565-2" data-name="Path 1565-2" d="M625.076,3152.086s-15.319,9.745-38.91,9.131l.307,95.591s20.527,5.514,38.6-8.58Z" fill="#ded9d5" fill-rule="evenodd"/>
            </g>
            <g id="Group_414-2" data-name="Group 414-2">
              <path id="Path_1566-2" data-name="Path 1566-2" d="M656.839,3139.667v145.5s37.436,21.19,78.4,0V3138.961S700.632,3122.715,656.839,3139.667Z" fill="#ece5e2" fill-rule="evenodd"/>
              <path id="Path_1567-2" data-name="Path 1567-2" d="M656.839,3138.961s36.73,21.191,78.4-.7C735.242,3138.256,698.513,3122.715,656.839,3138.961Z" fill="#ded9d5" fill-rule="evenodd"/>
              <path id="Path_1568-2" data-name="Path 1568-2" d="M666.518,3142.962s31.735-6.576,56.323,0C722.841,3142.962,696.823,3154.112,666.518,3142.962Z" fill="#fff" fill-rule="evenodd"/>
              <path id="Path_1569-2" data-name="Path 1569-2" d="M694.607,3146.655s-5.013,0,0-9.4,3.759-7.52,3.759-7.52S705.26,3151.042,694.607,3146.655Z" fill="#fbb03b" fill-rule="evenodd"/>
              <path id="Path_1570-2" data-name="Path 1570-2" d="M735.131,3159.764s-15.319,9.744-38.91,9.131l.306,95.591s20.527,5.515,38.6-8.579Z" fill="#ded9d5" fill-rule="evenodd"/>
            </g>
            <g id="Group_415-2" data-name="Group 415-2">
              <path id="Path_1571-2" data-name="Path 1571-2" d="M759.215,3134.756v148.483s38.2,21.624,80.008,0v-149.2S803.9,3117.456,759.215,3134.756Z" fill="#ece5e2" fill-rule="evenodd"/>
              <path id="Path_1572-2" data-name="Path 1572-2" d="M759.215,3134.031s37.481,21.624,80.008-.721C839.223,3133.314,801.741,3117.456,759.215,3134.031Z" fill="#ded9d5" fill-rule="evenodd"/>
              <path id="Path_1573-2" data-name="Path 1573-2" d="M769.091,3138.117s32.385-6.71,57.476,0C826.567,3138.117,800.017,3149.5,769.091,3138.117Z" fill="#fff" fill-rule="evenodd"/>
              <path id="Path_1574-2" data-name="Path 1574-2" d="M797.755,3141.886s-5.116,0,0-9.592,3.837-7.674,3.837-7.674S808.626,3146.363,797.755,3141.886Z" fill="#fbb03b" fill-rule="evenodd"/>
              <path id="Path_1575-2" data-name="Path 1575-2" d="M839.109,3155.263s-15.632,9.944-39.707,9.319l.313,97.547s20.947,5.629,39.394-8.754Z" fill="#ded9d5" fill-rule="evenodd"/>
            </g>
          </g>
        </g>
      </g>
    </g>
    <g id="Group_1010" data-name="Group 1010">
      <path id="Path_9344" data-name="Path 9344" d="M794.9,3038s-5,1-7-5,3-28,14-35,19-7,19-7l11,2,1,15,4,2s14,2,11,4-3.5,3.735-3.5,3.735l1.272,1.59S822.9,3045,819.9,3046s-15,0-15,0Z" fill="#6d603b" fill-rule="evenodd"/>
      <path id="Path_9345" data-name="Path 9345" d="M896.9,2999l-34,41a36.145,36.145,0,0,0,2.337,8.328C866.9,3052,875.5,3057.2,876.2,3058.1s44.7-7.1,44.7-7.1l10.112-14.111S928.9,3036,927.9,3032s-6-4-6-4-.841-6.063-.421-8.032S914.9,3012,911.9,3012h-10l8-16-3-2Z" fill="#6d603b" fill-rule="evenodd"/>
      <g id="Group_402-2" data-name="Group 402">
        <g id="Group_438-2" data-name="Group 438">
          <g id="Group_436-2" data-name="Group 436">
            <path id="Path_1500-2" data-name="Path 1500" d="M790.323,3037.477c-22.7-15.607,23.449-59.961,25.394-52.875a11.966,11.966,0,0,1-1.093,6.938c-13.18,7.987-27.958,24.032-26.224,39.4A18,18,0,0,0,790.323,3037.477Z" fill="#f5d266" fill-rule="evenodd"/>
            <path id="Path_1501-2" data-name="Path 1501" d="M792.547,3037.938c-18.046-29.859,65.154-78.219,30.221-29.364-8.332,11.922,3.83-.709,9.274-15.82,3.468-9.517,4.184,1.206,1.185,15.39-5.934,9.893-6.847,21.234-15.028,30.117-4.75,5.159-11.77,8.755-18.557,4.623Z" fill="#f5d266" fill-rule="evenodd"/>
            <path id="Path_1502-2" data-name="Path 1502" d="M854.114,3019.967c-11.9,32.471-43.665,37.636-49.1,26.281-.31-.815,6.672,1.379,14.327-6.93,12.667-13.755,12.59-42.422,27.77-35.328,19.387,8.852-24.7,22.8-13.5,20.4C836.086,3024.018,858.064,3008.777,854.114,3019.967Z" fill="#f5d266" fill-rule="evenodd"/>
          </g>
          <g id="Group_437-2" data-name="Group 437">
            <path id="Path_1503-2" data-name="Path 1503" d="M863.39,3044.4c-7.163-6.6-2.188-26.377,13.873-38.065,4.554-3.22,26.994-20.685,32.265-13.182.023.551.309.815.068,1.652-.55.023-.529.573-1.057,1.147-10.684,15.05-22.25,28.759-36.946,40.116C869.2,3038.09,864.928,3041.577,863.39,3044.4Z" fill="#f5d266" fill-rule="evenodd"/>
            <path id="Path_1504-2" data-name="Path 1504" d="M867.56,3051.945c-9.5-9.81,4.856-9.3,23.216-32.108l5.278-5.731c6.87-.558,15.987-.106,22.2,3.5-10.322,3.732-32.166,22.275-42.248,25.171,8.316-5.58,21.21-13.83,30.078-19.433,7.239-4.984,12.389-7.125,13.452-1.379.023.551-.694,9.953-.934,10.79-5.174,1.591-4.223,4.584-4.065,8.438-1.3,1.983-23.134,7.292-25.313,7.934Z" fill="#f5d266" fill-rule="evenodd"/>
            <path id="Path_1505-2" data-name="Path 1505" d="M869.829,3053.507l19.749-2.466c40.371-10.483,20.954-6.652,28.539-16.613l24.4,3.408C938.055,3063.382,894.722,3082.257,869.829,3053.507Z" fill="#f5d266" fill-rule="evenodd"/>
            <path id="Path_1506-2" data-name="Path 1506" d="M910.19,2995.882c.264-.287,18.429-1.034,6.621,13.513-7.081,8.838,1.3-1.983,5.481-.777,14.252,4.651,4.374,12.5-.285,19.861l10.224-12.827c3.612.678,2.263,14.795-3.656,18.346l-8.588-1.025c-3-5.941,7.118-14.628-7.111-18.73-8.37-2.413-14.667-1.326-15.745-.731-1.1.044,4.2-5.136,6.289-7.979Z" fill="#f5d266" fill-rule="evenodd"/>
          </g>
        </g>
      </g>
    </g>
    <g id="Group_1011" data-name="Group 1011">
      <path id="Path_9346" data-name="Path 9346" d="M1337,3106s-14-7-10-21,18-23,19-25,9-13,9-13l2.054-.3L1367,3052l6,11,3,5,16,13v6Z" fill="#7a2727" fill-rule="evenodd"/>
      <path id="Path_9347" data-name="Path 9347" d="M1247.325,3119.16s-4.831-13.165-2.847-22.164,18.545-35,21.522-37,10-2,10.233,3c.093,2,0,10,2.977,10s12.805-3,14.79-3,11.01,11,11.01,19,5.954,14-7.939,21-32.746,13-34.731,13S1250.172,3123.325,1247.325,3119.16Z" fill="#7a2727" fill-rule="evenodd"/>
      <g id="Group_401-2" data-name="Group 401">
        <g id="Group_440-2" data-name="Group 440">
          <path id="Path_1491-2-2" data-name="Path 1491" d="M1350.4,3044.9c-5.451,10.162,7.782-.093-16.474,24.967-10.7,10.645-9.787,25.674-3.248,31.538h0c.1-.633.729-.535,1-.17,9.894,5.087,16.076-5.61,20.407-12.708l.365-.268c.39-2.528,4.09-9.724,4.917-10.891a29.23,29.23,0,0,1,3.675-4.935c1.922-1.969,6.86-6.708,10.484-7.12,1.095-.8,1.192-1.434,1.192-1.434h0l-.268-.365h0c-.632-.1-.632-.1-.9-.463h0c-.364.268-1,.17-2.163-.658h0l-.365.268-.9-.464h0a41.148,41.148,0,0,1-3.963-1.581c-8.075,1.991-25.184,35.273-25.914,35.807l11.366-21.224c2.58-4.132,9.44-10.84,13.381-15.41.1-.633,1.192-1.435,2.58-4.133,1.217-3.7-5.5-2.142-8.584-1-2.189,1.6-1.777,5.227-9.733,12.738-9.61,9.843-10.632,12.275-13.75,24.092-1.316,4.327-2.088-7.442,9.638-20.521,7.785-8.507,11.29-14.439,12.508-18.135h0a26.924,26.924,0,0,0-.022-6.151C1354.388,3044.223,1350.5,3044.27,1350.4,3044.9Z" fill="#e34242" fill-rule="evenodd"/>
          <path id="Path_1492-2-2" data-name="Path 1492" d="M1395.682,3089.108a6.548,6.548,0,0,0-3.305-3.745c-6.784-.078-16.582-5.8-31.3-.623-1.361.438-6.2,4.545-8.1,4.252-4.7,7.366-10.974,18.7-21.4,12.878-3.331-1.485,16.671,21.99,41.071.19,4.574-4.472,13.818-14.049,21.673-12.513C1394.953,3089.642,1395.852,3090.1,1395.682,3089.108Z" fill="#e34242" fill-rule="evenodd"/>
          <path id="Path_1493-2-2" data-name="Path 1493" d="M1356.451,3053.926c3.72-1.044,11.795-3.034,9.75,1.828a13.347,13.347,0,0,1-2.481,3.5c.534.73,5.129,2.41,5.762,2.508a15.944,15.944,0,0,1,3.963,1.582l.267.365h0c3.968-6.831-5.682-17.705-11.371-18.583-8.584-1-4.816,1.845-5.694,7.535Z" fill="#e34242" fill-rule="evenodd"/>
          <path id="Path_1494-2-2" data-name="Path 1494" d="M1397.387,3082.251c-6.5,6.44-15.317-5.6-36.476,1.49a82.493,82.493,0,0,0-7.565,4.982,38.353,38.353,0,0,1,4.917-10.891c.2-1.265,1.752-2.966,3.309-4.668,3.479-3.67,8.952-7.68,11.383-6.658.633.1.17,1,.438,1.362,3.449,7.005-.95,4.061,16.675,13.576l-12.4-7.739c-7.073-6.593-2.352-16.221,7.954-7.51,7.073,6.593-2.24,6.126-1.607,6.225,2.77,3.016,6.228-6.807,13.76,7.3a1.659,1.659,0,0,1-.129,2.342A1.641,1.641,0,0,1,1397.387,3082.251Z" fill="#e34242" fill-rule="evenodd"/>
          <path id="Path_1495-2-2" data-name="Path 1495" d="M1298.63,3095.166a146.22,146.22,0,0,1,15.028-.918c8.316.636-24.555,43.785-58.594,29.47-6.394-2.6-5.567-3.771-4.2-4.209l.633.1c1.264.2,3.623-.411,6.08-1.65a54.756,54.756,0,0,0,7.565-4.982c2.918-2.138,6.3-5.176,9.851-7.217a95.742,95.742,0,0,1,10.022-6.221c3.089-1.141,5.545-2.381,7.9-2.988l4.985-.849Z" fill="#e34242" fill-rule="evenodd"/>
          <path id="Path_1496-2-2" data-name="Path 1496" d="M1273.138,3061.137a28.938,28.938,0,0,1,2.524,8.8,33.976,33.976,0,0,1-1.828,9.75c-1.51,5.592-3.991,9.093-7.835,13.03-3.746,3.3-3.212,4.037-5.159,8.266-2.508,5.762-4.527,8.362-8.468,12.932-1.922,1.969-2.142,5.495-2.508,5.763s-1.629.073-2.7-1.388c-2.236-2.286-4.663-11.723-5.172-14.713a35.7,35.7,0,0,1,4.047-22.029c3.334-6.929,11.192-13.807,18.027-18.255C1266.523,3062.056,1271.364,3057.948,1273.138,3061.137Z" fill="#e34242" fill-rule="evenodd"/>
          <path id="Path_1497-2-2" data-name="Path 1497" d="M1297.836,3077.244c-4.672,5.1-8.906,11.571-12.677,17.138-.365.268-.73.534-1.265-.2-.9-.463,11.022-14.8,12.312-16.871a3.418,3.418,0,0,0,.925-1.8c-.9-.462-2.966-1.751-3.963-1.582-2.359.607-16.084,22.438-21.218,28.442a1.586,1.586,0,0,1-1,.17c-1.167-.828,20.051-29.27,20.682-29.172a5.449,5.449,0,0,0-3.16-.488,35.9,35.9,0,0,0-9.632,3.692c-1.726.7-2.554,1.872-3.479,3.671a31.7,31.7,0,0,1-8.2,13.3c-3.381,3.039-3.211,4.036-5.158,8.266-2.143,5.494-4.527,8.363-8.469,12.933-.729.534-1.022,2.431-1.849,3.6a24.315,24.315,0,0,0,5.35-1.116c5.278-2.746,11.773-9.188,17.148-12.565,9.293-5.685,16.662-9.4,23.544-9.959.924-1.8,1.658-10.747,1.319-12.741A24.724,24.724,0,0,0,1297.836,3077.244Z" fill="#e34242" fill-rule="evenodd"/>
          <path id="Path_1498-2-2" data-name="Path 1498" d="M1290.86,3070.02a8.954,8.954,0,0,1,2.918-2.139c2.554-1.871,5.279-2.745,8.342-1.625,1.9.293,2.431,1.023,4.327,1.316a7.339,7.339,0,0,1,4.231,1.947c2.771,3.016,3.865,2.214,5.079,6.932,1.044,3.721.483,5.253-1,8.584-1.192,1.434-2.215,3.865-3.042,5.031s-1.921,1.969-2.384,2.87c-.365.268-.2,1.265-.2,1.265s-7.88.725-8.512.627c-1.994.34-2.359.607-1.9-.293.1-.633.853-3.428,1.243-5.957.318-4.158.954-12.473-3.812-15.151-1.8-.924-4.061-.95-5.859-1.875a.443.443,0,0,1-.62-.083l-.012-.017.827-1.167Z" fill="#e34242" fill-rule="evenodd"/>
          <path id="Path_1499-2-2" data-name="Path 1499" d="M1265.818,3060.328c4.671-5.1,22.3-12.416,19.165-6.751-.925,1.8-8.418,8.411-7.884,9.14-.1.633,9.635-12.106,15.3-8.966,1.167.828,9.479,9.878,4.762,11.091-6.178,2.282-4.646,2.844-8.757,6.417-.827,1.167-1.825,1.336-3.186,1.774-8.44,2.257-9.827,4.955-10.022,6.219l-.364.268c1.217-3.7,2.68-13.178-.7-18.555-2.042-3.551-6.59-1.341-9.144.531A1.66,1.66,0,0,0,1265.818,3060.328Z" fill="#e34242" fill-rule="evenodd"/>
        </g>
      </g>
    </g>
  </g>
</svg>
