<svg xmlns="http://www.w3.org/2000/svg" width="521" height="487" viewBox="0 0 521 487">
  <g id="Group_752" data-name="Group 752" transform="translate(172 -23186)">
    <ellipse id="Ellipse_268" data-name="Ellipse 268" cx="242" cy="243" rx="242" ry="243" transform="translate(-135 23187)" fill="#85a4ad"/>
    <path id="Path_2573" data-name="Path 2573" d="M243.128,0C377.4,0,486.256,108.852,486.256,243.128S377.4,486.256,243.128,486.256,0,377.4,0,243.128,108.852,0,243.128,0Z" transform="translate(-172 23186)" fill="#adccd6"/>
    <path id="Subtraction_4" data-name="Subtraction 4" d="M243.126,486.253a244.924,244.924,0,0,1-49-4.939,241.8,241.8,0,0,1-86.936-36.583A243.838,243.838,0,0,1,19.1,337.761,241.9,241.9,0,0,1,4.938,292.124a245.5,245.5,0,0,1,0-98A241.8,241.8,0,0,1,41.521,107.19,243.838,243.838,0,0,1,148.49,19.1,241.9,241.9,0,0,1,194.127,4.937a245.5,245.5,0,0,1,98,0A241.8,241.8,0,0,1,379.061,41.52a243.837,243.837,0,0,1,88.086,106.969,241.907,241.907,0,0,1,14.167,45.638,245.442,245.442,0,0,1-.488,100.325,84.971,84.971,0,0,0-3.26-13.917,83.047,83.047,0,0,0-25.973-38.362,85.7,85.7,0,0,0-41.1-18.646l-9.372-28.843a12.109,12.109,0,0,0-4.516-6.158,12.374,12.374,0,0,0-7.125-2.29,12.159,12.159,0,0,0-3.763.6l-21.637,7.03-5.955-18.33a16.429,16.429,0,0,0,6.435-7.663,14.484,14.484,0,0,0-.595-11.756L357.5,143.5a14.287,14.287,0,0,0-5.535-5.87,15.512,15.512,0,0,0-7.867-2.118,16.487,16.487,0,0,0-13.741,7.457l-17.079-4.232a.639.639,0,0,1,.006-.086.333.333,0,0,0,0-.143,16.64,16.64,0,0,0-4.838-11.008,14.343,14.343,0,0,0-10.146-4.276c-.27,0-.544.008-.814.023l-14.182.729a13.661,13.661,0,0,0-5.669,1.6,15.453,15.453,0,0,0-4.59,3.731,16.562,16.562,0,0,0-3,5.278,16.38,16.38,0,0,0-.887,6.24,5.1,5.1,0,0,0,.312,1.382,8,8,0,0,1,.256.9l-12.846,6.543a16.632,16.632,0,0,0-11.934-5.093,14.342,14.342,0,0,0-9.765,3.672l-10.407,9.631a14.12,14.12,0,0,0-4.474,10.083,16.791,16.791,0,0,0,3.781,10.938L217.3,192.75l-20.434-6.215a12.079,12.079,0,0,0-3.544-.533,12.37,12.37,0,0,0-7.221,2.362,12.092,12.092,0,0,0-4.493,6.3l-8.848,29.013a85.812,85.812,0,0,0-40.743,19.405,83.612,83.612,0,0,0-25.845,85.853,84.738,84.738,0,0,0,50.615,55.941l4.862-15.949a68.108,68.108,0,0,1-35.26-33.421,67.055,67.055,0,0,1-3.686-48.75,67.908,67.908,0,1,1,120.109,59.42,66.993,66.993,0,0,1-15.036,15.057,68.076,68.076,0,0,1-55.037,11.25l-4.864,15.944a84.712,84.712,0,0,0,69.74-13.751,83.662,83.662,0,0,0,31.621-89.768A85.573,85.573,0,0,0,246.26,246.1l8.866-29.043a12.3,12.3,0,0,0-8.14-15.278l-21.376-6.517,5.463-11.227a16.571,16.571,0,0,0,6.017,1.177,13.823,13.823,0,0,0,4.281-.667,14.132,14.132,0,0,0,5.256-3.07l10.417-9.635a13.338,13.338,0,0,0,3.842-6.5,16.687,16.687,0,0,0,.1-7.631l12.743-6.483a3.5,3.5,0,0,1,.393.546,3.581,3.581,0,0,0,.384.537,14.561,14.561,0,0,0,9.656,3.787c.263,0,.53-.008.793-.023l14.182-.728a14.516,14.516,0,0,0,3.62-.646,15.04,15.04,0,0,0,8.358-7.176l16.338,4.046a13.922,13.922,0,0,0,1.422,6.547l6.466,12.62a13.758,13.758,0,0,0,5.483,5.732,15.744,15.744,0,0,0,7.792,2c.469,0,.947-.02,1.419-.059l5.882,18.1-20.019,6.5a12.261,12.261,0,0,0-7.849,15.405l9.372,28.843A85.687,85.687,0,0,0,315.151,286.5a83.669,83.669,0,0,0,32.639,88.714,84.746,84.746,0,0,0,68.9,13.32l-5.155-15.869A68.063,68.063,0,0,1,357.5,361.69a67.645,67.645,0,0,1-28.052-60.816A67.9,67.9,0,0,1,461.7,285.69a67.1,67.1,0,0,1-3.139,49.553,68.1,68.1,0,0,1-35.9,34.014l5.156,15.868a85.062,85.062,0,0,0,20.469-11.474,244.323,244.323,0,0,1-86.423,81.689,242.029,242.029,0,0,1-118.733,30.912Zm126-258.316h0a7.415,7.415,0,0,1-4.325-1.387,7.327,7.327,0,0,1-2.737-3.728,6.011,6.011,0,0,1,.035-3.88,8.843,8.843,0,0,1,2.1-3.269l-3.689-11.353,6.062-1.97,3.689,11.354a8.816,8.816,0,0,1,3.6,1.412,6.028,6.028,0,0,1,2.306,3.123,7.413,7.413,0,0,1-7.048,9.7Zm-155.037-.576h0a7.442,7.442,0,0,1-7.111-9.621,5.954,5.954,0,0,1,2.246-3.127,8.879,8.879,0,0,1,3.6-1.467l3.466-11.437,6.093,1.876L218.9,215a8.869,8.869,0,0,1,2.171,3.218,5.889,5.889,0,0,1,.112,3.853,7.425,7.425,0,0,1-7.09,5.288Zm22.951-50.334h0a8.656,8.656,0,0,1-2.38-.348l1.8-3.687a4.273,4.273,0,0,0,.194-3.3,4.28,4.28,0,0,0-4.038-2.865,4.3,4.3,0,0,0-3.863,2.42l-.16.327a6.481,6.481,0,0,1,1.682-5.762l10.395-9.631a6.125,6.125,0,0,1,2.256-1.314,5.524,5.524,0,0,1,1.709-.266,8.593,8.593,0,0,1,4.09,1.2l-1.69.851a4.539,4.539,0,0,0,2.053,8.578,4.545,4.545,0,0,0,1.406-.223,3.631,3.631,0,0,0,.649-.289l2.043-1.043a6.3,6.3,0,0,1-1.66,4.225l-10.409,9.635A5.861,5.861,0,0,1,237.044,177.027Zm110.321-6.821h0a6.375,6.375,0,0,1-4.826-3.143l-6.466-12.62a.735.735,0,0,1-.014-.391.829.829,0,0,0,0-.359l1.255.3a4.927,4.927,0,0,0,1.181.148,4.273,4.273,0,0,0,1.321-.206,4.6,4.6,0,0,0,2.983-3.238,4.415,4.415,0,0,0-.488-3.384,4.5,4.5,0,0,0-2.8-2.076.932.932,0,0,0,.244-.279.807.807,0,0,1,.275-.293,9.741,9.741,0,0,1,1.353-.567,8.743,8.743,0,0,1,2.7-.436,6.827,6.827,0,0,1,6.21,3.513l6.469,12.619a6.449,6.449,0,0,1,.211,5.225,3.078,3.078,0,0,1-.971,1.144,4.845,4.845,0,0,0-.7.685l-.971-2.987a4.292,4.292,0,1,0-8.163,2.652l1.2,3.693Zm-62.874-22.188a3.746,3.746,0,0,1-1.727-.589,8.444,8.444,0,0,0-.8-.39l2.978-1.521a4.509,4.509,0,0,0,1.98-6.088,4.551,4.551,0,0,0-3.981-2.558,4.152,4.152,0,0,0-2.107.579l-3.286,1.672c.343-3.36,2.118-5.954,4.63-6.771a5.654,5.654,0,0,1,1.544-.3l14.151-.742c.09,0,.182-.006.272-.006a6.5,6.5,0,0,1,4.6,1.976,4.911,4.911,0,0,1,1.055,2.168c.1.336.2.684.334,1.011l-1.482-.355a4.452,4.452,0,0,0-1.109-.141,4.528,4.528,0,0,0-1.08,8.918l2.082.509a6.059,6.059,0,0,1-3.829,1.875l-14.175.75Z" transform="translate(-171.702 23186.299)" fill="#475e64"/>
  </g>
</svg>
