<svg xmlns="http://www.w3.org/2000/svg" width="295.562" height="26.641" viewBox="0 0 295.562 26.641">
  <g id="Group_918" data-name="Group 918" transform="translate(-624.635 -32755.547)">
    <g id="Group_907" data-name="Group 907" transform="translate(625.209 32756.047)">
      <path id="Path_9155" data-name="Path 9155" d="M18.366,17.932c-.542-1.218-3.185-2.024-4.941-2.78s-1.516-1.215-1.579-1.843c-.009-.086-.014-.177-.018-.271a5.194,5.194,0,0,0,1.415-2.056l.021-.055c.067-.179.127-.365.178-.555a1.094,1.094,0,0,0,.727-.9,1.781,1.781,0,0,0,.235-1,1.022,1.022,0,0,0-.561-.954c0-.035,0-.068,0-.1a14.717,14.717,0,0,0-.208-2.482,4.129,4.129,0,0,0-.131-.573,4.239,4.239,0,0,0-1.527-2.15,4.876,4.876,0,0,0-5.492,0,4.239,4.239,0,0,0-1.527,2.15,4.129,4.129,0,0,0-.131.573A14.713,14.713,0,0,0,4.62,7.414c0,.03,0,.06,0,.092-.276.106-.524.371-.581.962a1.781,1.781,0,0,0,.235,1,1.08,1.08,0,0,0,.748.906c.052.191.112.379.18.559l.014.035.006.016a5.176,5.176,0,0,0,1.449,2.082c0,.084-.009.165-.017.242-.063.627.122,1.086-1.635,1.843S.62,16.714.079,17.931s-1.626,9.06-1.626,9.06H19.946S18.907,19.149,18.366,17.932Z" transform="translate(1.547 -1.362)" fill="#fc916c" stroke="#1e2629" stroke-width="1"/>
    </g>
    <g id="Group_911" data-name="Group 911" transform="translate(703.209 32756.047)">
      <path id="Path_9155-2" data-name="Path 9155" d="M18.366,17.932c-.542-1.218-3.185-2.024-4.941-2.78s-1.516-1.215-1.579-1.843c-.009-.086-.014-.177-.018-.271a5.194,5.194,0,0,0,1.415-2.056l.021-.055c.067-.179.127-.365.178-.555a1.094,1.094,0,0,0,.727-.9,1.781,1.781,0,0,0,.235-1,1.022,1.022,0,0,0-.561-.954c0-.035,0-.068,0-.1a14.717,14.717,0,0,0-.208-2.482,4.129,4.129,0,0,0-.131-.573,4.239,4.239,0,0,0-1.527-2.15,4.876,4.876,0,0,0-5.492,0,4.239,4.239,0,0,0-1.527,2.15,4.129,4.129,0,0,0-.131.573A14.713,14.713,0,0,0,4.62,7.414c0,.03,0,.06,0,.092-.276.106-.524.371-.581.962a1.781,1.781,0,0,0,.235,1,1.08,1.08,0,0,0,.748.906c.052.191.112.379.18.559l.014.035.006.016a5.176,5.176,0,0,0,1.449,2.082c0,.084-.009.165-.017.242-.063.627.122,1.086-1.635,1.843S.62,16.714.079,17.931s-1.626,9.06-1.626,9.06H19.946S18.907,19.149,18.366,17.932Z" transform="translate(1.547 -1.362)" fill="#fc916c" stroke="#1e2629" stroke-width="1"/>
    </g>
    <g id="Group_912" data-name="Group 912" transform="translate(820.209 32756.047)">
      <path id="Path_9155-3" data-name="Path 9155" d="M18.366,17.932c-.542-1.218-3.185-2.024-4.941-2.78s-1.516-1.215-1.579-1.843c-.009-.086-.014-.177-.018-.271a5.194,5.194,0,0,0,1.415-2.056l.021-.055c.067-.179.127-.365.178-.555a1.094,1.094,0,0,0,.727-.9,1.781,1.781,0,0,0,.235-1,1.022,1.022,0,0,0-.561-.954c0-.035,0-.068,0-.1a14.717,14.717,0,0,0-.208-2.482,4.129,4.129,0,0,0-.131-.573,4.239,4.239,0,0,0-1.527-2.15,4.876,4.876,0,0,0-5.492,0,4.239,4.239,0,0,0-1.527,2.15,4.129,4.129,0,0,0-.131.573A14.713,14.713,0,0,0,4.62,7.414c0,.03,0,.06,0,.092-.276.106-.524.371-.581.962a1.781,1.781,0,0,0,.235,1,1.08,1.08,0,0,0,.748.906c.052.191.112.379.18.559l.014.035.006.016a5.176,5.176,0,0,0,1.449,2.082c0,.084-.009.165-.017.242-.063.627.122,1.086-1.635,1.843S.62,16.714.079,17.931s-1.626,9.06-1.626,9.06H19.946S18.907,19.149,18.366,17.932Z" transform="translate(1.547 -1.362)" fill="#fc916c" stroke="#1e2629" stroke-width="1"/>
    </g>
    <g id="Group_913" data-name="Group 913" transform="translate(742.209 32756.047)">
      <path id="Path_9155-4" data-name="Path 9155" d="M18.366,17.932c-.542-1.218-3.185-2.024-4.941-2.78s-1.516-1.215-1.579-1.843c-.009-.086-.014-.177-.018-.271a5.194,5.194,0,0,0,1.415-2.056l.021-.055c.067-.179.127-.365.178-.555a1.094,1.094,0,0,0,.727-.9,1.781,1.781,0,0,0,.235-1,1.022,1.022,0,0,0-.561-.954c0-.035,0-.068,0-.1a14.717,14.717,0,0,0-.208-2.482,4.129,4.129,0,0,0-.131-.573,4.239,4.239,0,0,0-1.527-2.15,4.876,4.876,0,0,0-5.492,0,4.239,4.239,0,0,0-1.527,2.15,4.129,4.129,0,0,0-.131.573A14.713,14.713,0,0,0,4.62,7.414c0,.03,0,.06,0,.092-.276.106-.524.371-.581.962a1.781,1.781,0,0,0,.235,1,1.08,1.08,0,0,0,.748.906c.052.191.112.379.18.559l.014.035.006.016a5.176,5.176,0,0,0,1.449,2.082c0,.084-.009.165-.017.242-.063.627.122,1.086-1.635,1.843S.62,16.714.079,17.931s-1.626,9.06-1.626,9.06H19.946S18.907,19.149,18.366,17.932Z" transform="translate(1.547 -1.362)" fill="#fc916c" stroke="#1e2629" stroke-width="1"/>
    </g>
    <g id="Group_914" data-name="Group 914" transform="translate(781.209 32756.047)">
      <path id="Path_9155-5" data-name="Path 9155" d="M18.366,17.932c-.542-1.218-3.185-2.024-4.941-2.78s-1.516-1.215-1.579-1.843c-.009-.086-.014-.177-.018-.271a5.194,5.194,0,0,0,1.415-2.056l.021-.055c.067-.179.127-.365.178-.555a1.094,1.094,0,0,0,.727-.9,1.781,1.781,0,0,0,.235-1,1.022,1.022,0,0,0-.561-.954c0-.035,0-.068,0-.1a14.717,14.717,0,0,0-.208-2.482,4.129,4.129,0,0,0-.131-.573,4.239,4.239,0,0,0-1.527-2.15,4.876,4.876,0,0,0-5.492,0,4.239,4.239,0,0,0-1.527,2.15,4.129,4.129,0,0,0-.131.573A14.713,14.713,0,0,0,4.62,7.414c0,.03,0,.06,0,.092-.276.106-.524.371-.581.962a1.781,1.781,0,0,0,.235,1,1.08,1.08,0,0,0,.748.906c.052.191.112.379.18.559l.014.035.006.016a5.176,5.176,0,0,0,1.449,2.082c0,.084-.009.165-.017.242-.063.627.122,1.086-1.635,1.843S.62,16.714.079,17.931s-1.626,9.06-1.626,9.06H19.946S18.907,19.149,18.366,17.932Z" transform="translate(1.547 -1.362)" fill="#fc916c" stroke="#1e2629" stroke-width="1"/>
    </g>
    <g id="Group_915" data-name="Group 915" transform="translate(859.209 32756.047)">
      <path id="Path_9155-6" data-name="Path 9155" d="M18.366,17.932c-.542-1.218-3.185-2.024-4.941-2.78s-1.516-1.215-1.579-1.843c-.009-.086-.014-.177-.018-.271a5.194,5.194,0,0,0,1.415-2.056l.021-.055c.067-.179.127-.365.178-.555a1.094,1.094,0,0,0,.727-.9,1.781,1.781,0,0,0,.235-1,1.022,1.022,0,0,0-.561-.954c0-.035,0-.068,0-.1a14.717,14.717,0,0,0-.208-2.482,4.129,4.129,0,0,0-.131-.573,4.239,4.239,0,0,0-1.527-2.15,4.876,4.876,0,0,0-5.492,0,4.239,4.239,0,0,0-1.527,2.15,4.129,4.129,0,0,0-.131.573A14.713,14.713,0,0,0,4.62,7.414c0,.03,0,.06,0,.092-.276.106-.524.371-.581.962a1.781,1.781,0,0,0,.235,1,1.08,1.08,0,0,0,.748.906c.052.191.112.379.18.559l.014.035.006.016a5.176,5.176,0,0,0,1.449,2.082c0,.084-.009.165-.017.242-.063.627.122,1.086-1.635,1.843S.62,16.714.079,17.931s-1.626,9.06-1.626,9.06H19.946S18.907,19.149,18.366,17.932Z" transform="translate(1.547 -1.362)" fill="#fc916c" stroke="#1e2629" stroke-width="1"/>
    </g>
    <g id="Group_916" data-name="Group 916" transform="translate(898.209 32756.047)">
      <path id="Path_9155-7" data-name="Path 9155" d="M18.366,17.932c-.542-1.218-3.185-2.024-4.941-2.78s-1.516-1.215-1.579-1.843c-.009-.086-.014-.177-.018-.271a5.194,5.194,0,0,0,1.415-2.056l.021-.055c.067-.179.127-.365.178-.555a1.094,1.094,0,0,0,.727-.9,1.781,1.781,0,0,0,.235-1,1.022,1.022,0,0,0-.561-.954c0-.035,0-.068,0-.1a14.717,14.717,0,0,0-.208-2.482,4.129,4.129,0,0,0-.131-.573,4.239,4.239,0,0,0-1.527-2.15,4.876,4.876,0,0,0-5.492,0,4.239,4.239,0,0,0-1.527,2.15,4.129,4.129,0,0,0-.131.573A14.713,14.713,0,0,0,4.62,7.414c0,.03,0,.06,0,.092-.276.106-.524.371-.581.962a1.781,1.781,0,0,0,.235,1,1.08,1.08,0,0,0,.748.906c.052.191.112.379.18.559l.014.035.006.016a5.176,5.176,0,0,0,1.449,2.082c0,.084-.009.165-.017.242-.063.627.122,1.086-1.635,1.843S.62,16.714.079,17.931s-1.626,9.06-1.626,9.06H19.946S18.907,19.149,18.366,17.932Z" transform="translate(1.547 -1.362)" fill="#fc916c" stroke="#1e2629" stroke-width="1"/>
    </g>
    <g id="Group_909" data-name="Group 909" transform="translate(664.209 32756.047)">
      <path id="Path_9155-8" data-name="Path 9155" d="M18.366,17.932c-.542-1.218-3.185-2.024-4.941-2.78s-1.516-1.215-1.579-1.843c-.009-.086-.014-.177-.018-.271a5.194,5.194,0,0,0,1.415-2.056l.021-.055c.067-.179.127-.365.178-.555a1.094,1.094,0,0,0,.727-.9,1.781,1.781,0,0,0,.235-1,1.022,1.022,0,0,0-.561-.954c0-.035,0-.068,0-.1a14.717,14.717,0,0,0-.208-2.482,4.129,4.129,0,0,0-.131-.573,4.239,4.239,0,0,0-1.527-2.15,4.876,4.876,0,0,0-5.492,0,4.239,4.239,0,0,0-1.527,2.15,4.129,4.129,0,0,0-.131.573A14.713,14.713,0,0,0,4.62,7.414c0,.03,0,.06,0,.092-.276.106-.524.371-.581.962a1.781,1.781,0,0,0,.235,1,1.08,1.08,0,0,0,.748.906c.052.191.112.379.18.559l.014.035.006.016a5.176,5.176,0,0,0,1.449,2.082c0,.084-.009.165-.017.242-.063.627.122,1.086-1.635,1.843S.62,16.714.079,17.931s-1.626,9.06-1.626,9.06H19.946S18.907,19.149,18.366,17.932Z" transform="translate(1.547 -1.362)" fill="#fc916c" stroke="#1e2629" stroke-width="1"/>
    </g>
  </g>
</svg>
