<svg xmlns="http://www.w3.org/2000/svg" width="1158" height="476" viewBox="0 0 1158 476">
  <g id="Group_917" data-name="Group 917" transform="translate(-452 -32646)">
    <g id="Group_908" data-name="Group 908" transform="translate(14 -143)">
      <g id="Group_772" data-name="Group 772" transform="translate(39 26249)">
        <path id="Path_9197" data-name="Path 9197" d="M-438.431-7686.437-283.9-7809.643l155.838,186,247.246-124.877L88.291-7873.58l94.838,63.937H493.06l-63.026,247.635" transform="translate(907 14479)" fill="none" stroke="#707070" stroke-width="1"/>
        <path id="Path_9198" data-name="Path 9198" d="M-284.391-7810.056l405.771,61.609,58.276-61.609,248.535,247.633-557.234-59.927-310.05-65.357,555.111-60.74,373.993-58.51" transform="translate(907 14479)" fill="none" stroke="#707070" stroke-width="1"/>
        <path id="Path_9199" data-name="Path 9199" d="M121.626-7746.073,428.6-7563.3l-712.5-244.154" transform="translate(907 14479)" fill="none" stroke="#707070" stroke-width="1"/>
        <path id="Path_9200" data-name="Path 9200" d="M85-7873.58l-369.518,61.247" transform="translate(907 14479)" fill="none" stroke="#707070" stroke-width="1"/>
      </g>
      <g id="Group_769" data-name="Group 769" transform="translate(25 26854)">
        <circle id="Ellipse_12065" data-name="Ellipse 12065" cx="5.5" cy="5.5" r="5.5" transform="translate(1002 5997)" fill="#fd906c"/>
        <circle id="Ellipse_11971" data-name="Ellipse 11971" cx="5.5" cy="5.5" r="5.5" transform="translate(630 6059)" fill="#fd906c"/>
        <circle id="Ellipse_11986" data-name="Ellipse 11986" cx="5.5" cy="5.5" r="5.5" transform="translate(1095 6059)" fill="#fd906c"/>
        <circle id="Ellipse_11996" data-name="Ellipse 11996" cx="5.5" cy="5.5" r="5.5" transform="translate(1405 6059)" fill="#fd906c"/>
        <circle id="Ellipse_11886" data-name="Ellipse 11886" cx="5.5" cy="5.5" r="5.5" transform="translate(1033 6121)" fill="#fd906c"/>
        <circle id="Ellipse_12132" data-name="Ellipse 12132" cx="5.5" cy="5.5" r="5.5" transform="translate(475 6183)" fill="#fd906c"/>
        <circle id="Ellipse_11911" data-name="Ellipse 11911" cx="5.5" cy="5.5" r="5.5" transform="translate(785 6245)" fill="#fd906c"/>
        <circle id="Ellipse_11822" data-name="Ellipse 11822" cx="5.5" cy="5.5" r="5.5" transform="translate(1343 6307)" fill="#fd906c"/>
      </g>
      <g id="Rectangle_225" data-name="Rectangle 225" transform="translate(438 32789)" fill="none" stroke="rgba(112,112,112,0)" stroke-width="1">
        <rect width="1158" height="476" stroke="none"/>
        <rect x="0.5" y="0.5" width="1157" height="475" fill="none"/>
      </g>
    </g>
    <g id="Group_910" data-name="Group 910">
      <g id="Group_907" data-name="Group 907" transform="translate(509.209 32880.047)">
        <path id="Path_9155" data-name="Path 9155" d="M18.366,17.932c-.542-1.218-3.185-2.024-4.941-2.78s-1.516-1.215-1.579-1.843c-.009-.086-.014-.177-.018-.271a5.194,5.194,0,0,0,1.415-2.056l.021-.055c.067-.179.127-.365.178-.555a1.094,1.094,0,0,0,.727-.9,1.781,1.781,0,0,0,.235-1,1.022,1.022,0,0,0-.561-.954c0-.035,0-.068,0-.1a14.717,14.717,0,0,0-.208-2.482,4.129,4.129,0,0,0-.131-.573,4.239,4.239,0,0,0-1.527-2.15,4.876,4.876,0,0,0-5.492,0,4.239,4.239,0,0,0-1.527,2.15,4.129,4.129,0,0,0-.131.573A14.713,14.713,0,0,0,4.62,7.414c0,.03,0,.06,0,.092-.276.106-.524.371-.581.962a1.781,1.781,0,0,0,.235,1,1.08,1.08,0,0,0,.748.906c.052.191.112.379.18.559l.014.035.006.016a5.176,5.176,0,0,0,1.449,2.082c0,.084-.009.165-.017.242-.063.627.122,1.086-1.635,1.843S.62,16.714.079,17.931s-1.626,9.06-1.626,9.06H19.946S18.907,19.149,18.366,17.932Z" transform="translate(1.547 -1.362)" fill="#fc916c" stroke="#1e2629" stroke-width="1"/>
      </g>
      <g id="Group_911" data-name="Group 911" transform="translate(819.209 32941.047)">
        <path id="Path_9155-2" data-name="Path 9155" d="M18.366,17.932c-.542-1.218-3.185-2.024-4.941-2.78s-1.516-1.215-1.579-1.843c-.009-.086-.014-.177-.018-.271a5.194,5.194,0,0,0,1.415-2.056l.021-.055c.067-.179.127-.365.178-.555a1.094,1.094,0,0,0,.727-.9,1.781,1.781,0,0,0,.235-1,1.022,1.022,0,0,0-.561-.954c0-.035,0-.068,0-.1a14.717,14.717,0,0,0-.208-2.482,4.129,4.129,0,0,0-.131-.573,4.239,4.239,0,0,0-1.527-2.15,4.876,4.876,0,0,0-5.492,0,4.239,4.239,0,0,0-1.527,2.15,4.129,4.129,0,0,0-.131.573A14.713,14.713,0,0,0,4.62,7.414c0,.03,0,.06,0,.092-.276.106-.524.371-.581.962a1.781,1.781,0,0,0,.235,1,1.08,1.08,0,0,0,.748.906c.052.191.112.379.18.559l.014.035.006.016a5.176,5.176,0,0,0,1.449,2.082c0,.084-.009.165-.017.242-.063.627.122,1.086-1.635,1.843S.62,16.714.079,17.931s-1.626,9.06-1.626,9.06H19.946S18.907,19.149,18.366,17.932Z" transform="translate(1.547 -1.362)" fill="#fc916c" stroke="#1e2629" stroke-width="1"/>
      </g>
      <g id="Group_912" data-name="Group 912" transform="translate(1067.209 32818.047)">
        <path id="Path_9155-3" data-name="Path 9155" d="M18.366,17.932c-.542-1.218-3.185-2.024-4.941-2.78s-1.516-1.215-1.579-1.843c-.009-.086-.014-.177-.018-.271a5.194,5.194,0,0,0,1.415-2.056l.021-.055c.067-.179.127-.365.178-.555a1.094,1.094,0,0,0,.727-.9,1.781,1.781,0,0,0,.235-1,1.022,1.022,0,0,0-.561-.954c0-.035,0-.068,0-.1a14.717,14.717,0,0,0-.208-2.482,4.129,4.129,0,0,0-.131-.573,4.239,4.239,0,0,0-1.527-2.15,4.876,4.876,0,0,0-5.492,0,4.239,4.239,0,0,0-1.527,2.15,4.129,4.129,0,0,0-.131.573A14.713,14.713,0,0,0,4.62,7.414c0,.03,0,.06,0,.092-.276.106-.524.371-.581.962a1.781,1.781,0,0,0,.235,1,1.08,1.08,0,0,0,.748.906c.052.191.112.379.18.559l.014.035.006.016a5.176,5.176,0,0,0,1.449,2.082c0,.084-.009.165-.017.242-.063.627.122,1.086-1.635,1.843S.62,16.714.079,17.931s-1.626,9.06-1.626,9.06H19.946S18.907,19.149,18.366,17.932Z" transform="translate(1.547 -1.362)" fill="#fc916c" stroke="#1e2629" stroke-width="1"/>
      </g>
      <g id="Group_913" data-name="Group 913" transform="translate(1036.209 32694.047)">
        <path id="Path_9155-4" data-name="Path 9155" d="M18.366,17.932c-.542-1.218-3.185-2.024-4.941-2.78s-1.516-1.215-1.579-1.843c-.009-.086-.014-.177-.018-.271a5.194,5.194,0,0,0,1.415-2.056l.021-.055c.067-.179.127-.365.178-.555a1.094,1.094,0,0,0,.727-.9,1.781,1.781,0,0,0,.235-1,1.022,1.022,0,0,0-.561-.954c0-.035,0-.068,0-.1a14.717,14.717,0,0,0-.208-2.482,4.129,4.129,0,0,0-.131-.573,4.239,4.239,0,0,0-1.527-2.15,4.876,4.876,0,0,0-5.492,0,4.239,4.239,0,0,0-1.527,2.15,4.129,4.129,0,0,0-.131.573A14.713,14.713,0,0,0,4.62,7.414c0,.03,0,.06,0,.092-.276.106-.524.371-.581.962a1.781,1.781,0,0,0,.235,1,1.08,1.08,0,0,0,.748.906c.052.191.112.379.18.559l.014.035.006.016a5.176,5.176,0,0,0,1.449,2.082c0,.084-.009.165-.017.242-.063.627.122,1.086-1.635,1.843S.62,16.714.079,17.931s-1.626,9.06-1.626,9.06H19.946S18.907,19.149,18.366,17.932Z" transform="translate(1.547 -1.362)" fill="#fc916c" stroke="#1e2629" stroke-width="1"/>
      </g>
      <g id="Group_914" data-name="Group 914" transform="translate(1128.209 32756.047)">
        <path id="Path_9155-5" data-name="Path 9155" d="M18.366,17.932c-.542-1.218-3.185-2.024-4.941-2.78s-1.516-1.215-1.579-1.843c-.009-.086-.014-.177-.018-.271a5.194,5.194,0,0,0,1.415-2.056l.021-.055c.067-.179.127-.365.178-.555a1.094,1.094,0,0,0,.727-.9,1.781,1.781,0,0,0,.235-1,1.022,1.022,0,0,0-.561-.954c0-.035,0-.068,0-.1a14.717,14.717,0,0,0-.208-2.482,4.129,4.129,0,0,0-.131-.573,4.239,4.239,0,0,0-1.527-2.15,4.876,4.876,0,0,0-5.492,0,4.239,4.239,0,0,0-1.527,2.15,4.129,4.129,0,0,0-.131.573A14.713,14.713,0,0,0,4.62,7.414c0,.03,0,.06,0,.092-.276.106-.524.371-.581.962a1.781,1.781,0,0,0,.235,1,1.08,1.08,0,0,0,.748.906c.052.191.112.379.18.559l.014.035.006.016a5.176,5.176,0,0,0,1.449,2.082c0,.084-.009.165-.017.242-.063.627.122,1.086-1.635,1.843S.62,16.714.079,17.931s-1.626,9.06-1.626,9.06H19.946S18.907,19.149,18.366,17.932Z" transform="translate(1.547 -1.362)" fill="#fc916c" stroke="#1e2629" stroke-width="1"/>
      </g>
      <g id="Group_915" data-name="Group 915" transform="translate(1377.209 33005.047)">
        <path id="Path_9155-6" data-name="Path 9155" d="M18.366,17.932c-.542-1.218-3.185-2.024-4.941-2.78s-1.516-1.215-1.579-1.843c-.009-.086-.014-.177-.018-.271a5.194,5.194,0,0,0,1.415-2.056l.021-.055c.067-.179.127-.365.178-.555a1.094,1.094,0,0,0,.727-.9,1.781,1.781,0,0,0,.235-1,1.022,1.022,0,0,0-.561-.954c0-.035,0-.068,0-.1a14.717,14.717,0,0,0-.208-2.482,4.129,4.129,0,0,0-.131-.573,4.239,4.239,0,0,0-1.527-2.15,4.876,4.876,0,0,0-5.492,0,4.239,4.239,0,0,0-1.527,2.15,4.129,4.129,0,0,0-.131.573A14.713,14.713,0,0,0,4.62,7.414c0,.03,0,.06,0,.092-.276.106-.524.371-.581.962a1.781,1.781,0,0,0,.235,1,1.08,1.08,0,0,0,.748.906c.052.191.112.379.18.559l.014.035.006.016a5.176,5.176,0,0,0,1.449,2.082c0,.084-.009.165-.017.242-.063.627.122,1.086-1.635,1.843S.62,16.714.079,17.931s-1.626,9.06-1.626,9.06H19.946S18.907,19.149,18.366,17.932Z" transform="translate(1.547 -1.362)" fill="#fc916c" stroke="#1e2629" stroke-width="1"/>
      </g>
      <g id="Group_916" data-name="Group 916" transform="translate(1438.209 32756.047)">
        <path id="Path_9155-7" data-name="Path 9155" d="M18.366,17.932c-.542-1.218-3.185-2.024-4.941-2.78s-1.516-1.215-1.579-1.843c-.009-.086-.014-.177-.018-.271a5.194,5.194,0,0,0,1.415-2.056l.021-.055c.067-.179.127-.365.178-.555a1.094,1.094,0,0,0,.727-.9,1.781,1.781,0,0,0,.235-1,1.022,1.022,0,0,0-.561-.954c0-.035,0-.068,0-.1a14.717,14.717,0,0,0-.208-2.482,4.129,4.129,0,0,0-.131-.573,4.239,4.239,0,0,0-1.527-2.15,4.876,4.876,0,0,0-5.492,0,4.239,4.239,0,0,0-1.527,2.15,4.129,4.129,0,0,0-.131.573A14.713,14.713,0,0,0,4.62,7.414c0,.03,0,.06,0,.092-.276.106-.524.371-.581.962a1.781,1.781,0,0,0,.235,1,1.08,1.08,0,0,0,.748.906c.052.191.112.379.18.559l.014.035.006.016a5.176,5.176,0,0,0,1.449,2.082c0,.084-.009.165-.017.242-.063.627.122,1.086-1.635,1.843S.62,16.714.079,17.931s-1.626,9.06-1.626,9.06H19.946S18.907,19.149,18.366,17.932Z" transform="translate(1.547 -1.362)" fill="#fc916c" stroke="#1e2629" stroke-width="1"/>
      </g>
      <g id="Group_909" data-name="Group 909" transform="translate(664.209 32756.047)">
        <path id="Path_9155-8" data-name="Path 9155" d="M18.366,17.932c-.542-1.218-3.185-2.024-4.941-2.78s-1.516-1.215-1.579-1.843c-.009-.086-.014-.177-.018-.271a5.194,5.194,0,0,0,1.415-2.056l.021-.055c.067-.179.127-.365.178-.555a1.094,1.094,0,0,0,.727-.9,1.781,1.781,0,0,0,.235-1,1.022,1.022,0,0,0-.561-.954c0-.035,0-.068,0-.1a14.717,14.717,0,0,0-.208-2.482,4.129,4.129,0,0,0-.131-.573,4.239,4.239,0,0,0-1.527-2.15,4.876,4.876,0,0,0-5.492,0,4.239,4.239,0,0,0-1.527,2.15,4.129,4.129,0,0,0-.131.573A14.713,14.713,0,0,0,4.62,7.414c0,.03,0,.06,0,.092-.276.106-.524.371-.581.962a1.781,1.781,0,0,0,.235,1,1.08,1.08,0,0,0,.748.906c.052.191.112.379.18.559l.014.035.006.016a5.176,5.176,0,0,0,1.449,2.082c0,.084-.009.165-.017.242-.063.627.122,1.086-1.635,1.843S.62,16.714.079,17.931s-1.626,9.06-1.626,9.06H19.946S18.907,19.149,18.366,17.932Z" transform="translate(1.547 -1.362)" fill="#fc916c" stroke="#1e2629" stroke-width="1"/>
      </g>
    </g>
  </g>
</svg>
