<svg id="Group_802" data-name="Group 802" xmlns="http://www.w3.org/2000/svg" width="594" height="554.073" viewBox="0 0 594 554.073">
  <ellipse id="Ellipse_268" data-name="Ellipse 268" cx="276" cy="277" rx="276" ry="277" transform="translate(42 0.073)" fill="#bf7046"/>
  <path id="Path_2573" data-name="Path 2573" d="M276.1,0c152.487,0,276.1,123.615,276.1,276.1s-123.616,276.1-276.1,276.1S0,428.59,0,276.1,123.615,0,276.1,0Z" transform="translate(0 0)" fill="#f89460"/>
  <path id="Subtraction_4" data-name="Subtraction 4" d="M276.1,552.206a278.145,278.145,0,0,1-55.644-5.609,274.593,274.593,0,0,1-98.727-41.545A276.912,276.912,0,0,1,21.7,383.574,274.721,274.721,0,0,1,5.609,331.747a278.8,278.8,0,0,1,0-111.289,274.59,274.59,0,0,1,41.545-98.727A276.909,276.909,0,0,1,168.631,21.7,274.711,274.711,0,0,1,220.459,5.609a278.8,278.8,0,0,1,111.289,0,274.59,274.59,0,0,1,98.727,41.545A276.908,276.908,0,0,1,530.508,168.631,274.712,274.712,0,0,1,546.6,220.458a278.8,278.8,0,0,1,0,111.289,274.59,274.59,0,0,1-41.545,98.727A276.909,276.909,0,0,1,383.575,530.508,274.723,274.723,0,0,1,331.747,546.6,278.146,278.146,0,0,1,276.1,552.206Zm-105.662-360a6.567,6.567,0,0,0-4.1,1.333,5.782,5.782,0,0,0,.775,7.752c.549.687,1.165,1.365,1.816,2.084a26.053,26.053,0,0,1,4.257,5.706,14.1,14.1,0,0,1,1.29,8.487,22.205,22.205,0,0,0-1.55,5.426c-.769,7.308-1.543,26.547-1.551,26.741-.1.043-10.1,4.3-13.177,8.139a5.309,5.309,0,0,0-1.187,2.968,6.765,6.765,0,0,0,.412,2.749,10.194,10.194,0,0,0,1.55,2.81l9.689,5.814a51.256,51.256,0,0,1,7.848,5.233,36.344,36.344,0,0,1,5.886,5.886,18.837,18.837,0,0,1,3.706,7.484,27.005,27.005,0,0,1,.1,12.207,13.1,13.1,0,0,1-1.647,4.069L164.02,357.864c-.016.046-1.572,4.648-3.1,11.578a126.462,126.462,0,0,0-3.1,26.4,30.949,30.949,0,0,0,2.24,12.093,22.577,22.577,0,0,0,4.929,7.334,19.293,19.293,0,0,0,7.169,4.6H248.5a23.593,23.593,0,0,0,4.263-2.519,10.294,10.294,0,0,0,2.6-2.713,3.825,3.825,0,0,0,.5-3.294c-.758-2.655-1.542-5.4-2.326-7.752-1.534-6.52-.015-14.262,0-14.34l19.379-62.784a87.983,87.983,0,0,0,11.966,3.1c4.528.9,9.358,1.617,14.358,2.132a190.487,190.487,0,0,0,19.408.969c.376,0,.755.007,1.128.007a75.063,75.063,0,0,0,19.813-2.484,52.631,52.631,0,0,0,13.066-5.465c6.584-3.931,9.372-7.909,9.4-7.949.011-.127,1.163-12.889,1.163-26.353a15.825,15.825,0,0,1,3.028-9.053,29.516,29.516,0,0,1,6.661-6.691,48.213,48.213,0,0,1,9.689-5.571h92.238v-3.1h25.191V260.2h13.566v-6.589h10.464V206.33H513.592v-5.813H502.74a104.567,104.567,0,0,0-9.3-10.464,6.552,6.552,0,0,0-4.32-1.955,4.9,4.9,0,0,0-3.819,1.955c-1.143,1.523-6.535,10.375-6.589,10.464H304.7l-23.254-6.2h-58.9l-4.263-6.589h-3.492l-5.037,8.526h-6.2l-10.463,4.263c-.023.012-2.368,1.188-5.426,3.1a44.347,44.347,0,0,1-7.994-3.585c-2.7-1.653-4.269-3.4-4.8-5.329C174.282,193.139,172.627,192.206,170.441,192.206ZM320.2,326.858a78.03,78.03,0,0,1-17.621-1.847,45.869,45.869,0,0,1-12.026-4.5c-6.43-3.61-9.321-7.9-9.883-10.706a56.626,56.626,0,0,1,0-18.215,19.877,19.877,0,0,1,4.651-9.3c1.014-1.267,3.638-2.349,5.953-3.3a25.953,25.953,0,0,0,2.96-1.347h36.43a30.821,30.821,0,0,1,11.724,2.18,26.281,26.281,0,0,1,7.654,4.8,23.382,23.382,0,0,1,5.426,6.976v23.639c-.02.03-2.027,2.955-7.316,5.814a44.324,44.324,0,0,1-10.834,4A74.668,74.668,0,0,1,320.2,326.858ZM301.6,280.743h0c1.525,1.525,3.468,3.085,3.488,3.1a34.746,34.746,0,0,0,.242,6.152,56.112,56.112,0,0,0,4.02,15.163c3.969,9.524,8.811,12.544,14.728,15.5a21.281,21.281,0,0,0,6.82,2.15c.333.061.645.119.931.176a6.807,6.807,0,0,0,1.088.105c.733,0,.891-.2.919-.323.042-.179-.137-.4-.458-.558a32.767,32.767,0,0,1-15.889-18.99,21.171,21.171,0,0,1,.242-11.384,26.4,26.4,0,0,1,2.428-5.892,23.946,23.946,0,0,1,3.918-5.2Z" transform="translate(0.337 0.336)" fill="#475e64"/>
</svg>
