<svg xmlns="http://www.w3.org/2000/svg" width="685" height="639" viewBox="0 0 685 639">
  <g id="Group_744" data-name="Group 744" transform="translate(160 -1182)">
    <ellipse id="Ellipse_268" data-name="Ellipse 268" cx="318.5" cy="319.5" rx="318.5" ry="319.5" transform="translate(-112 1182)" fill="#c4ad62"/>
    <path id="Path_2573" data-name="Path 2573" d="M318.54,0c175.925,0,318.54,142.615,318.54,318.54s-142.615,318.54-318.54,318.54S0,494.465,0,318.54,142.615,0,318.54,0Z" transform="translate(-160 1182)" fill="#efd474"/>
    <path id="Subtraction_2" data-name="Subtraction 2" d="M229.176,624.375h0a317.18,317.18,0,0,1-91.676-43.7A319.906,319.906,0,0,1,37.6,468.8,316.947,316.947,0,0,1,0,318.541a320.9,320.9,0,0,1,6.472-64.2,316.8,316.8,0,0,1,47.93-113.9A319.471,319.471,0,0,1,194.55,25.033,316.937,316.937,0,0,1,254.344,6.472a321.647,321.647,0,0,1,128.394,0A316.8,316.8,0,0,1,496.64,54.4,319.47,319.47,0,0,1,612.049,194.55a316.94,316.94,0,0,1,18.561,59.793,320.9,320.9,0,0,1-8.064,159.607A319.426,319.426,0,0,1,439.9,613.147L435.526,565.1v-.01l-1.166-19.7,1.094-7.485,1.248-.934.01-.011a2.015,2.015,0,0,0,.743-1.129l1.62-6.345.928-1.017,12.754-7.156V521.3a1.97,1.97,0,0,0,.795-.8l3.745-6.941a.55.55,0,0,0,.04-.284.732.732,0,0,1,.012-.209.783.783,0,0,1,.1-.192.54.54,0,0,0,.109-.291v-5.955a.926.926,0,0,0-.167-.461,1.777,1.777,0,0,1-.122-.238,1.235,1.235,0,0,1-.061-.243.773.773,0,0,0-.145-.383l-4.427-5.206,2.281-10.966a.086.086,0,0,0-.01-.057.088.088,0,0,1-.01-.056l.051-.1,2.8-28.215a.147.147,0,0,0-.021-.067.148.148,0,0,1-.021-.067.124.124,0,0,1,.026-.067.124.124,0,0,0,.026-.067l-.526-17.927v-.021l-1.031-27.158-.723-39.623a.1.1,0,0,0-.025-.061.1.1,0,0,1-.026-.062.14.14,0,0,1,.016-.054.106.106,0,0,0,.014-.068l-4.251-30.64-.062-.1a.085.085,0,0,1,.01-.057.086.086,0,0,0,.011-.056l-6.47-25.875-.237-12.362-.032-.061.021-.062-1.269-16.2a.433.433,0,0,0-.1-.221.569.569,0,0,1-.094-.169.483.483,0,0,1-.01-.175.391.391,0,0,0-.03-.225l-6.666-12.691-.082-.072-.021-.1-10.948-16.664a.247.247,0,0,0-.112-.083.291.291,0,0,1-.116-.082.275.275,0,0,1-.049-.11.228.228,0,0,0-.074-.136l-14.549-12.9-.072-.02-.031-.062-16.561-12.937a.138.138,0,0,0-.072-.02.141.141,0,0,1-.072-.02.148.148,0,0,1-.051-.066.151.151,0,0,0-.053-.068l-18.315-10.453-5.478-4.025-.619-23.461a.61.61,0,0,0-.115-.3.583.583,0,0,1-.118-.408.581.581,0,0,0-.055-.3l-2.941-4.919a.292.292,0,0,0-.129-.1.293.293,0,0,1-.119-.091.32.32,0,0,1-.06-.13.234.234,0,0,0-.074-.136l-1.589-1.448,2.455-3.491a.151.151,0,0,0,.025-.095.164.164,0,0,1,.016-.08.373.373,0,0,1,.081-.1.381.381,0,0,0,.094-.118l4.127-9.826a.192.192,0,0,0,0-.114.221.221,0,0,1,0-.1.359.359,0,0,1,.056-.082.248.248,0,0,0,.067-.123l.609-3.214.155.01a2.107,2.107,0,0,0,1.084-.308l1.588-.986a.244.244,0,0,0,.083-.108.246.246,0,0,1,.083-.108.24.24,0,0,1,.112-.045.171.171,0,0,0,.115-.057l2.115-2.187a.22.22,0,0,0,.041-.1.22.22,0,0,1,.042-.1,1.207,1.207,0,0,1,.118-.12.679.679,0,0,0,.16-.188l1.249-2.506a.182.182,0,0,0,.008-.105.2.2,0,0,1,0-.09.407.407,0,0,1,.066-.089.278.278,0,0,0,.078-.127l2.827-11.058,2.641-5.535a.251.251,0,0,0,.013-.166.34.34,0,0,1,0-.121.487.487,0,0,1,.085-.135.342.342,0,0,0,.081-.142l.588-3.83a.252.252,0,0,0-.035-.158.29.29,0,0,1-.037-.12.352.352,0,0,1,.044-.149.287.287,0,0,0,.039-.148l-.444-3.286a.6.6,0,0,0-.153-.284.8.8,0,0,1-.136-.209,1.16,1.16,0,0,1-.071-.248.714.714,0,0,0-.146-.358l-.351-.39.568-5.966,1.2-4.281,1.847-2.7,2.239-2.782a.576.576,0,0,0,.108-.311.837.837,0,0,1,.057-.234,1.647,1.647,0,0,1,.121-.217.868.868,0,0,0,.168-.419l.165-3.286a.22.22,0,0,0-.038-.109.2.2,0,0,1-.034-.1.252.252,0,0,1,.027-.1.209.209,0,0,0,.025-.115l-.536-3.522.351-1.868a.335.335,0,0,0-.036-.187.351.351,0,0,1-.036-.132.437.437,0,0,1,.05-.151.291.291,0,0,0,.043-.178l-.206-1.52a.736.736,0,0,0-.184-.35,1.315,1.315,0,0,1-.146-.215,1.566,1.566,0,0,1-.093-.253.827.827,0,0,0-.217-.415l-5.438-5.01-.113-.041a.11.11,0,0,1-.036-.056.112.112,0,0,0-.036-.056l-1.733-1.263L379.54,95.6l-1.548-4.651a.451.451,0,0,0-.155-.2.546.546,0,0,1-.124-.132.54.54,0,0,1-.055-.172.424.424,0,0,0-.089-.219l-4.6-5.041a.87.87,0,0,0-.418-.226,1.481,1.481,0,0,1-.243-.093,1.466,1.466,0,0,1-.2-.136.786.786,0,0,0-.4-.2l-.165-.021h-.021l-2.25-.288-1.991-1.437-4.014-3.86a.7.7,0,0,0-.372-.165,1.274,1.274,0,0,1-.217-.061,1.228,1.228,0,0,1-.21-.143.719.719,0,0,0-.357-.186l-5.789-.78h-.017a.232.232,0,0,0-.109.034.2.2,0,0,1-.089.029.265.265,0,0,1-.12-.04.236.236,0,0,0-.1-.035.1.1,0,0,0-.025,0l-4.013.38a.338.338,0,0,0-.177.089.4.4,0,0,1-.123.075.216.216,0,0,1-.06.008.65.65,0,0,1-.089-.008.632.632,0,0,0-.09-.009.2.2,0,0,0-.092.019l-2.177.955-1.486-1.222a.328.328,0,0,0-.163-.056.32.32,0,0,1-.126-.036.409.409,0,0,1-.1-.107.258.258,0,0,0-.118-.109L343.5,76.049l-.753-1.242a.464.464,0,0,0-.209-.161.754.754,0,0,1-.142-.085,1.719,1.719,0,0,0-.589-.431,1.673,1.673,0,0,0-.763-.185.553.553,0,0,1-.178-.053.49.49,0,0,0-.189-.052l-.036,0-1.651.277a.211.211,0,0,0-.112.067.3.3,0,0,1-.1.067,1.6,1.6,0,0,0-.615.38l-.024.02a1.034,1.034,0,0,1-.123.069.592.592,0,0,0-.187.125l-2.075-.79h-.051l-.051-.041-4.839-1.54a.377.377,0,0,0-.133-.023.885.885,0,0,0-.2.032.932.932,0,0,1-.213.033h-.02a.787.787,0,0,1-.206-.049.7.7,0,0,0-.225-.049.4.4,0,0,0-.064.005l-3.344.688-3.694-.42H322.7a.25.25,0,0,0-.114.037.235.235,0,0,1-.107.035.262.262,0,0,1-.112-.036.256.256,0,0,0-.109-.036h-.015l-3,.359a.692.692,0,0,0-.319.162,1.046,1.046,0,0,1-.217.136,1.17,1.17,0,0,1-.244.07.712.712,0,0,0-.354.145l-2.817,2.526-4.56,2.351-2.838-.534a.4.4,0,0,0-.093-.011.681.681,0,0,0-.251.063.82.82,0,0,1-.214.062h-.024a.981.981,0,0,1-.2-.026.964.964,0,0,0-.191-.026.391.391,0,0,0-.126.02l-1.61.586a.4.4,0,0,0-.167.144.511.511,0,0,1-.122.122,2.137,2.137,0,0,0-.9,1.222.466.466,0,0,1-.085.161.4.4,0,0,0-.091.2l-.051,1.366-.217.257-3.539.472-.083.051-.093-.021-2.539.564a.392.392,0,0,0-.18.118.479.479,0,0,1-.128.1.438.438,0,0,1-.167.024.327.327,0,0,0-.205.048l-3.168,2.064-3.5,1.1-3.189.462a.186.186,0,0,0-.1.056.224.224,0,0,1-.094.057,1.614,1.614,0,0,0-.612.361l-.049.039c-.044.034-.088.066-.132.1a1.326,1.326,0,0,0-.425.417.342.342,0,0,1-.08.063.223.223,0,0,0-.1.091L283.126,92.6l-1.031.236a.991.991,0,0,0-.437.28,2.066,2.066,0,0,1-.2.172,1.678,1.678,0,0,1-.238.13.919.919,0,0,0-.371.26L277.3,98.792a.4.4,0,0,0-.055.215.486.486,0,0,1-.028.165.562.562,0,0,1-.116.165.389.389,0,0,0-.122.214l-.278,1.427a.688.688,0,0,0,.064.4,1.176,1.176,0,0,1,.07.237,1.153,1.153,0,0,1-.009.24.673.673,0,0,0,.03.376l.939,2.033-.536.657a.349.349,0,0,0-.062.187.335.335,0,0,1-.16.285.3.3,0,0,0-.12.144l-.361,1.057-1.6.872a1,1,0,0,0-.339.379,2.222,2.222,0,0,1-.156.227,1.173,1.173,0,0,1-.189.17.737.737,0,0,0-.266.3l-.814,2.084-.578.093-.073.041-.093-.011a.874.874,0,0,0-.385.257,1.7,1.7,0,0,1-.2.175,2.282,2.282,0,0,1-.219.132,1,1,0,0,0-.4.32,1.13,1.13,0,0,0-.153.537c-.009.077-.018.156-.033.233a1.567,1.567,0,0,1-.078.23.8.8,0,0,0-.086.437l.041.083-.011.082.929,3.758-2.146,1.324a.562.562,0,0,0-.193.241.812.812,0,0,1-.117.18.786.786,0,0,1-.186.135.559.559,0,0,0-.217.183l-1.31,2.33a.805.805,0,0,0-.077.463,1.514,1.514,0,0,1,0,.246,1.534,1.534,0,0,1-.073.247.824.824,0,0,0-.072.45l1.31,6.336a.7.7,0,0,0,.168.3.994.994,0,0,1,.131.192.518.518,0,0,1,.041.167.392.392,0,0,0,.072.213l1.527,1.91-1.208,2.023a.823.823,0,0,0-.088.456,1.641,1.641,0,0,1-.015.262c-.015.074-.036.149-.057.222a1.185,1.185,0,0,0-.067.548,1.138,1.138,0,0,0,.279.445c.053.062.107.125.155.191a1.741,1.741,0,0,1,.137.242.907.907,0,0,0,.275.374l1.321.883-.289,4.025a.394.394,0,0,0,.065.219.533.533,0,0,1,.069.181.607.607,0,0,1-.017.2.476.476,0,0,0,0,.253l1.609,4.436a.782.782,0,0,0,.2.27,1.381,1.381,0,0,1,.134.15.34.34,0,0,1,.046.136.245.245,0,0,0,.058.141l3.446,3.676.661,4.014a.4.4,0,0,0,.1.179.491.491,0,0,1,.078.119.3.3,0,0,1,0,.128.219.219,0,0,0,.016.149l2.373,4.765a.154.154,0,0,0-.014.091.223.223,0,0,1-.007.084,1.68,1.68,0,0,0-.082.744v.006a1.837,1.837,0,0,0,.134.749.2.2,0,0,1,.011.069.171.171,0,0,0,.019.086.21.21,0,0,1-.1.056.215.215,0,0,0-.1.056l-.146-.008h-.005c-.075,0-.146-.009-.218-.009a.992.992,0,0,0-.363.059.13.13,0,0,1-.052.01.326.326,0,0,1-.052-.006.3.3,0,0,0-.049-.005.134.134,0,0,0-.054.01.6.6,0,0,0-.256.255.974.974,0,0,1-.146.187,1.136,1.136,0,0,1-.207.134.661.661,0,0,0-.278.225.176.176,0,0,0-.019.11.192.192,0,0,1-.012.1,1.367,1.367,0,0,0-.115.588c0,.058-.005.115-.01.172s-.007.12-.011.178v.005a1.321,1.321,0,0,0,.042.578.19.19,0,0,1,.006.108.194.194,0,0,0,.005.107l1.527,3.265a2.043,2.043,0,0,0,.939.914l.072.083,5.026,2.31.8,3.357a.258.258,0,0,0,.066.106.244.244,0,0,1,.058.089l-.061.113a1.858,1.858,0,0,0-.392.657,1.687,1.687,0,0,0-.145.739.38.38,0,0,1-.035.168.291.291,0,0,0-.027.181.67.67,0,0,0,.147.265.906.906,0,0,1,.122.187.494.494,0,0,1,.041.165.381.381,0,0,0,.061.194l1.31,1.725a.26.26,0,0,0,.163.089.345.345,0,0,1,.146.065l.031.051-3.023.811a.348.348,0,0,0-.163.118.421.421,0,0,1-.116.1.416.416,0,0,1-.159.028.362.362,0,0,0-.192.044l-5.5,3.768a.655.655,0,0,0-.208.294,1.025,1.025,0,0,1-.1.189.931.931,0,0,1-.19.164.594.594,0,0,0-.233.246l-1.754,4.128v.1l-.062.072-3.064,9.364a.3.3,0,0,0,.01.187.394.394,0,0,1,.021.142.373.373,0,0,1-.067.138.288.288,0,0,0-.067.16v5.247l-3.807,4.23a.414.414,0,0,0-.079.2.524.524,0,0,1-.055.17.4.4,0,0,1-.119.12.323.323,0,0,0-.129.147l-1.836,4.805-12.475,5.524-.041.04-.072.011-9.514,4.918a.24.24,0,0,0-.1.112.33.33,0,0,1-.082.1.3.3,0,0,1-.129.046.243.243,0,0,0-.139.057l-29.015,26.573a.3.3,0,0,0-.067.132.264.264,0,0,1-.056.115.287.287,0,0,1-.111.08.209.209,0,0,0-.106.085l-8.348,13.112a.153.153,0,0,0-.015.082.153.153,0,0,1-.015.082.155.155,0,0,1-.064.06.122.122,0,0,0-.06.063l-12.98,29.479v.041l-.021.02L187,311.828a.114.114,0,0,0,0,.071.113.113,0,0,1,0,.072.17.17,0,0,1-.046.058.129.129,0,0,0-.046.065l-10.38,40.753.01.072-.031.051-7.037,37.056a.108.108,0,0,0,.015.069.141.141,0,0,1,.016.054.134.134,0,0,1-.031.058.1.1,0,0,0-.03.065l-2.363,35.075a.185.185,0,0,0,.029.087.27.27,0,0,1,.033.088.166.166,0,0,1-.03.08.166.166,0,0,0-.032.1l4.375,41.41v.01l1.671,18.647a.357.357,0,0,0,.089.185.41.41,0,0,1,.077.133.379.379,0,0,1,0,.154.321.321,0,0,0,.011.185l16.179,35.793L187.5,541.917a.641.641,0,0,0,.089.344,1.017,1.017,0,0,1,.086.231.856.856,0,0,1,.006.236.575.575,0,0,0,.046.338l3.322,6.439a2.087,2.087,0,0,0,.97.872l.093.093,14.322,5.8,2.992,8.625,2.332,13.872a.21.21,0,0,0,.047.089.273.273,0,0,1,.045.076.132.132,0,0,1-.007.066.113.113,0,0,0,0,.077l6.934,20.9a2.117,2.117,0,0,0,.763,1.037l7.337,5.165,1.96,16.048.021.031-.01.041.333,2.081Zm34.779-12.268h0l-4.416-2.71a.535.535,0,0,0-.3-.061.751.751,0,0,1-.217-.022.738.738,0,0,1-.173-.1.45.45,0,0,0-.271-.114l-7.677-.482-8.512-1.294L229.8,603.133l-7.275-5.124-6.665-20.074-2.208-13.173,2.929-4.8,10.814-9.241,13.022-6.818,9.565-2.732,3.631.431,4.086,5.463a.126.126,0,0,0,.067.036.123.123,0,0,1,.067.036.178.178,0,0,1,.042.093.178.178,0,0,0,.041.092l4.437,4.281.34,1.828,1.372,7.136a.468.468,0,0,0,.117.208.571.571,0,0,1,.1.151.367.367,0,0,1,.023.159.288.288,0,0,0,.038.18l3.292,5.288,3.012,6.449a2.113,2.113,0,0,0,.785.883l.01.01,3.085,1.89v.769l-.227.37H271.57l-4.458-1.365-4.726-3.676-3.467-3.419-2.827-7.023V557.1a2.064,2.064,0,0,0-4.127,0V575.41a.385.385,0,0,0,.084.214.49.49,0,0,1,.081.167.457.457,0,0,1-.008.183.371.371,0,0,0,.008.227l7.842,18.77a.267.267,0,0,0,.072.087.268.268,0,0,1,.072.087.14.14,0,0,1,.015.077.14.14,0,0,0,.015.077l7.192,11.14-2.115,4.127-1.268,1.54Zm-51.962-52.571v0l-1.919-5.512-.051-.061a1.4,1.4,0,0,0-.438-.5c-.054-.045-.108-.09-.16-.138a1.629,1.629,0,0,1-.16-.183.844.844,0,0,0-.3-.279l-.072-.072L194.4,546.927l-2.693-5.226,1.971-19.632,2.032-20.33a2.027,2.027,0,0,0-.453-1.5,2.063,2.063,0,0,0-1.4-.752,2.241,2.241,0,0,0-2.26,1.849l-1.269,12.67-13.094-28.966-1.641-18.337-.01-.011.01-.02L171.226,425.4l2.342-34.735,7-36.82v-.011l10.36-40.65,6.346-15.833.01-.01L210.2,268l8.1-12.742,28.633-26.213,9.245-4.774,13.156-5.833a.109.109,0,0,0,.053-.055.145.145,0,0,1,.05-.058,2.008,2.008,0,0,0,.96-1l.031-.051,1.992-5.216,4.086-4.539a1,1,0,0,0,.2-.5,2.141,2.141,0,0,1,.05-.218,1.8,1.8,0,0,1,.114-.219.843.843,0,0,0,.155-.428v-5.719l.929-2.844.134.421a.458.458,0,0,0,.124.181.5.5,0,0,1,.093.117.324.324,0,0,1,.021.127.222.222,0,0,0,.03.129l8.327,12.034a.191.191,0,0,0,.115.062.194.194,0,0,1,.1.05.366.366,0,0,1,.069.14.274.274,0,0,0,.086.148l7.15,6.078a.415.415,0,0,0,.183.074.48.48,0,0,1,.146.049.408.408,0,0,1,.1.108.257.257,0,0,0,.117.108l3.838,1.551a.663.663,0,0,0,.162.036.674.674,0,0,1,.127.025l.083.051,9.09,1.828a.964.964,0,0,0,.238.021l.01.01,9.771.76.166.011.155-.011,7.521-.544,2.177,15.719v.011l.445,3.46.061.113a.085.085,0,0,1-.01.057.087.087,0,0,0-.01.056l4.943,20.536,4.065,20.946,1.527,20.176.34,20.176-3.013,13.441a.2.2,0,0,0,.02.125.2.2,0,0,1,.021.1.283.283,0,0,1-.046.1.239.239,0,0,0-.047.114.6.6,0,0,0,.114.316.849.849,0,0,1,.1.218c.018.055.033.108.049.161a1.455,1.455,0,0,0,.24.537,1.657,1.657,0,0,0,.56.405l.069.037a.9.9,0,0,1,.19.146.652.652,0,0,0,.285.182,2.26,2.26,0,0,0,.454.051h1.435l1.217,36.224-.206,34.017v.021l.279,40.444.01.032-.01.04,1.507,37.94.02.041-.01.031,5.128,68-10.092.883-21.626-1.931-.021.011-.011-.011-38.951-2.885-.062.021-.061-.031-10.566-.175-.155-.822a.943.943,0,0,0-.218-.39,1.782,1.782,0,0,1-.154-.216.859.859,0,0,1-.075-.206.543.543,0,0,0-.142-.286l-.227-.216-.031-.031-4.54-4.4-3.044-4.066a.713.713,0,0,1,.1-.173.454.454,0,0,0,.1-.227l.031-.062a1,1,0,0,0-.134-.5,1.827,1.827,0,0,1-.1-.252,1.322,1.322,0,0,1-.05-.247.794.794,0,0,0-.137-.411l-5.21-6.755v-8.276a.534.534,0,0,0-.107-.288.813.813,0,0,1-.1-.2.673.673,0,0,1-.016-.222.49.49,0,0,0-.045-.281l-3.406-6.161a.179.179,0,0,0-.081-.068.224.224,0,0,1-.083-.065.2.2,0,0,1-.027-.1.19.19,0,0,0-.035-.109l-9.122-10.781L238.067,490.2l.144-16.973,3.065-23.554a.12.12,0,0,0-.019-.078.152.152,0,0,1-.021-.066.166.166,0,0,1,.029-.059.149.149,0,0,0,.033-.085l-.257-27.034-.041-.1.031-.1-1.279-11.633,4.819-20.556a.206.206,0,0,0-.02-.126.2.2,0,0,1-.021-.1.248.248,0,0,1,.054-.116.2.2,0,0,0,.048-.11V358.6a.162.162,0,0,0-.036-.088.208.208,0,0,1-.036-.076.179.179,0,0,1,.023-.078.122.122,0,0,0,.018-.076l-11.525-74.256a2.094,2.094,0,0,0-1.945-1.766,1.648,1.648,0,0,0-.408.051,2.065,2.065,0,0,0-1.367.831,2,2,0,0,0-.356,1.51l11.495,74.072v30.587l-4.839,20.659a.309.309,0,0,0,.023.183.338.338,0,0,1,.028.146.443.443,0,0,1-.053.162.351.351,0,0,0-.05.188l1.3,11.869.258,26.788-3.064,23.544a.092.092,0,0,0,.013.061.144.144,0,0,1,.018.062.1.1,0,0,1-.023.055.123.123,0,0,0-.028.069l-.144,17.147.04.1-.031.1,1.414,15.781a.858.858,0,0,0,.178.4,1.468,1.468,0,0,1,.132.225.9.9,0,0,1,.05.21.574.574,0,0,0,.115.314l9.42,11.14L248.282,524v8.439a.819.819,0,0,0,.153.416,1.484,1.484,0,0,1,.115.221,1.181,1.181,0,0,1,.046.246.679.679,0,0,0,.118.37l2.714,3.512-1.4-.164h-.018a.426.426,0,0,0-.179.054.512.512,0,0,1-.184.059h-.017a.614.614,0,0,1-.168-.031.631.631,0,0,0-.165-.031.257.257,0,0,0-.073.01l-10.132,2.885a.19.19,0,0,0-.1.071.227.227,0,0,1-.089.072.147.147,0,0,1-.058.01.427.427,0,0,1-.046,0,.385.385,0,0,0-.045,0,.133.133,0,0,0-.069.017l-13.424,7.044a.233.233,0,0,0-.091.1.279.279,0,0,1-.073.092.252.252,0,0,1-.1.027.186.186,0,0,0-.119.045l-11.267,9.632a.273.273,0,0,0-.084.152.283.283,0,0,1-.061.125.4.4,0,0,1-.128.085.3.3,0,0,0-.15.12l-1.2,1.959Zm139.945-4.744-5.107-67.87v-.01l-1.527-37.94-.279-40.372.207-34.079-.021-.041.021-.041-1.218-36.1h1.228a2.008,2.008,0,0,0,.547-.072.557.557,0,0,0,.259-.181.765.765,0,0,1,.174-.148l.112-.069.007,0a1.567,1.567,0,0,0,.479-.389,1.7,1.7,0,0,0,.277-.653l.012-.045a.84.84,0,0,1,.1-.194.569.569,0,0,0,.111-.3.267.267,0,0,0-.059-.147.332.332,0,0,1-.054-.109.3.3,0,0,1,.024-.133.215.215,0,0,0,.016-.144l-3.622-13.277,2.93-19.18-.021-.093a.1.1,0,0,1,.026-.056.1.1,0,0,0,.026-.056l.444-8.4a.128.128,0,0,0-.024-.065.148.148,0,0,1-.028-.079l.041-.113-1.052-14.744-.032-.051.021-.072-2.6-19.91-.01-.02.01-.032-2.146-14.169.35-9.036.073-1.694,2.064-7.527,5.427-7.763,6.6-1.016.011-.011.134-.01,1.352-.3a.269.269,0,0,0,.137-.091.342.342,0,0,1,.09-.073,1.252,1.252,0,0,1,.19-.05.773.773,0,0,0,.3-.1l4.921-3.347a.7.7,0,0,0,.23-.317,1.125,1.125,0,0,1,.121-.217.255.255,0,0,1,.131-.076.229.229,0,0,0,.148-.1l1.805-3.235.247,9.416a.126.126,0,0,0,.031.072.172.172,0,0,1,.031.061,1.067,1.067,0,0,0,.171.444c.037.064.075.131.107.2s.065.131.093.189a1.336,1.336,0,0,0,.341.509.114.114,0,0,1,.036.061.115.115,0,0,0,.036.062l6.429,4.712a.149.149,0,0,0,.071.026.188.188,0,0,1,.053.015.1.1,0,0,1,.03.041.1.1,0,0,0,.043.051l18.283,10.442,16.323,12.742,14.342,12.712,10.731,16.347,6.429,12.218,1.228,15.668.238,12.6a.225.225,0,0,0,.05.127.226.226,0,0,1,.042.088.2.2,0,0,1-.016.119.177.177,0,0,0-.015.107l6.5,25.987,4.22,30.4.723,39.561.01.021-.01.021,1.031,27.158.526,17.783L450.859,488.4l-1.754,8.43-2.414-2.065a1.99,1.99,0,0,0-1.333-.506,2.078,2.078,0,0,0-1.577.722,2.049,2.049,0,0,0-.485,1.508,2.007,2.007,0,0,0,.712,1.378l4.942,4.22,4.488,5.278v4.712l-3.218,5.945-12.527,7.034a.148.148,0,0,0-.051.062.152.152,0,0,1-.051.062l-4.726-7.506a.248.248,0,0,0-.124-.1.3.3,0,0,1-.1-.067.28.28,0,0,1-.04-.1.189.189,0,0,0-.063-.122l-4.458-4.23,4.85-5.667a.251.251,0,0,0,.046-.136.259.259,0,0,1,.037-.121.858.858,0,0,1,.12-.136.562.562,0,0,0,.148-.193l2.177-5.576a.575.575,0,0,0,.009-.34.89.89,0,0,1-.02-.245.96.96,0,0,1,.06-.222.626.626,0,0,0,.053-.343L433.1,487.847l-.041-.062.01-.061-5.861-22.24-.072-.1a.086.086,0,0,1,0-.062.11.11,0,0,0,0-.072L414,431.816l-6.573-22.024,8.822-25.269a.073.073,0,0,0,0-.045.1.1,0,0,1-.006-.057l.073-.1,10.576-44.223a2.056,2.056,0,0,0-4-.944L412.331,383.28l-9.007,25.782a.707.707,0,0,0,0,.373,1.071,1.071,0,0,1,.027.254,1.014,1.014,0,0,1-.042.248.678.678,0,0,0-.02.388l6.81,22.825.051.072a.132.132,0,0,1,0,.057.1.1,0,0,0,0,.045l13.115,33.36,5.8,21.983L431.4,500.3l-1.826,4.682-5.881,6.88-.01.051-.021.01-6.8,8.4-8.956,8.564-25.63,14.806-28.251,10.915-2.083.184ZM401.1,404.321a2.057,2.057,0,0,0-1.995,1.723l-2.239,13.091a.317.317,0,0,0,.039.182.3.3,0,0,1,0,.313.32.32,0,0,0-.039.183l3.384,20.258a2.063,2.063,0,0,0,2.033,1.714,1.955,1.955,0,0,0,.34-.031,2.085,2.085,0,0,0,1.337-.835,2,2,0,0,0,.355-1.527l-3.322-19.909,2.177-12.763a2.005,2.005,0,0,0-.345-1.519,2.046,2.046,0,0,0-1.347-.843A1.875,1.875,0,0,0,401.1,404.321Zm-58.57-70.079h-1.507l.671-3.05.836,3.049Zm.259-37.893h0l-1.124-14.73a.1.1,0,0,0-.031-.061.149.149,0,0,1-.031-.052.145.145,0,0,1,.017-.061.114.114,0,0,0,.015-.072l-4.086-21.08-.031-.041.011-.051-4.932-20.484-.114-.862,2.363.194.176.011a1.573,1.573,0,0,0,.31-.031l1.991-.3-.257,6.756a.2.2,0,0,0,.036.1.2.2,0,0,1,.036.1.248.248,0,0,1-.026.095.207.207,0,0,0-.025.111l2.177,14.354.01.01,2.59,19.827,1.031,14.457Zm-7.863-61.406h0l-3.013-.247-2.218-16a1.76,1.76,0,0,0-.515-.927l-.042-.048a.613.613,0,0,1-.082-.15.44.44,0,0,0-.1-.168.837.837,0,0,0-.38-.139,1.683,1.683,0,0,1-.23-.056c-.061-.027-.122-.057-.181-.086a1.4,1.4,0,0,0-.607-.194.591.591,0,0,0-.068,0l-9.287.668-9.451-.739-8.812-1.767-3.323-1.355L291,208.965l.412-.75,3.034-4.918a.546.546,0,0,0,.062-.293.725.725,0,0,1,.03-.231.847.847,0,0,1,.1-.218.594.594,0,0,0,.114-.315l.165-21.4v-.01l.041-6.633.021-5.391a.377.377,0,0,0-.081-.21.41.41,0,0,1-.074-.159.51.51,0,0,1,.005-.189.433.433,0,0,0-.005-.222.414.414,0,0,0-.161-.169.451.451,0,0,1-.128-.118.6.6,0,0,1-.058-.165.454.454,0,0,0-.1-.215l-4.21-4.251a.313.313,0,0,0-.16-.074.346.346,0,0,1-.128-.05.379.379,0,0,1-.09-.114.25.25,0,0,0-.116-.122l-3.57-1.91h-.01l-1.939-1.119-2.7-5.4-.712-4.334-.733-4.528-.083-8.583.33-.607.815,1.6a1.854,1.854,0,0,0,.5.541l.041.034a.2.2,0,0,1,.04.07.189.189,0,0,0,.053.084l2.57,1.879,3.167,7.413,1.28,10.1a.584.584,0,0,0,.138.293.884.884,0,0,1,.119.2.557.557,0,0,1,.034.193.458.458,0,0,0,.069.259l4.633,6.458.113.051a.188.188,0,0,1,.015.056.159.159,0,0,0,.026.077,2.042,2.042,0,0,0,1.526.678,2.149,2.149,0,0,0,1.2-.38.114.114,0,0,0,.037-.056.118.118,0,0,1,.036-.057l.113-.041,2.9-2.608a.575.575,0,0,0,.162-.3.963.963,0,0,1,.076-.2,1.944,1.944,0,0,0,.319-.678,1.677,1.677,0,0,0-.062-.727l-.01-.043a.811.811,0,0,1-.009-.226.548.548,0,0,0-.043-.308l-2.322-4.4L295.7,144.751l.134-5.8.868-9.887.784-4.436,1.558-2.341,5.221.247h.1a2.068,2.068,0,0,0,.846-.185l6.686-2.987.072-.072a.2.2,0,0,1,.06-.016.227.227,0,0,0,.085-.026l3.931-2.331a.1.1,0,0,0,.029-.04.1.1,0,0,1,.043-.052,1.991,1.991,0,0,0,.877-1.171l1.166-4.63,2.579-3,1.424,2.485.011.011,2.187,3.768-1.31,2.269a.7.7,0,0,0-.068.382,1.241,1.241,0,0,1-.014.245c-.01.039-.02.078-.03.117a1.3,1.3,0,0,0-.062.612,1.382,1.382,0,0,0,.253.545c.034.051.066.1.1.153a.957.957,0,0,1,.1.223.639.639,0,0,0,.16.29l2.321,2a2.051,2.051,0,0,0,1.373.534l.258-.021,7.821-.985a1.606,1.606,0,0,0,.8-.428l.132-.106a.574.574,0,0,1,.169-.068.413.413,0,0,0,.212-.107l1.9-2.208a.417.417,0,0,0,.079-.209.559.559,0,0,1,.045-.161,1.51,1.51,0,0,0,.227-.729,1.585,1.585,0,0,0-.041-.729.522.522,0,0,1-.009-.192.411.411,0,0,0-.022-.218l-.361-.719,1.145-.349a.172.172,0,0,0,.076-.061.223.223,0,0,1,.069-.061,2.008,2.008,0,0,0,.99-.812l.094-.1.031-.031,2.362-4.775,2.1-1.642,1.6,1.211,4.447,7.474a.148.148,0,0,0,.088.052.147.147,0,0,1,.087.051.292.292,0,0,1,.046.127.208.208,0,0,0,.058.131l4.354,4.61a.461.461,0,0,0,.219.106.582.582,0,0,1,.173.068.7.7,0,0,1,.149.157.46.46,0,0,0,.192.171l6.768,2.711a2.05,2.05,0,0,0,.764.154,2.113,2.113,0,0,0,.351-.031l2.827-.493,1.877,4.949,1.342,10.925.206,10.668-2.817,15.341a2.017,2.017,0,0,0,.247,1.2,1.958,1.958,0,0,0-.361.606.5.5,0,0,1-.107.145.352.352,0,0,0-.11.173v.021l-.01.011v.01l-.918,4.918-3.973,9.446-2.579,3.666-3.137,2.71a.358.358,0,0,0-.095.176.431.431,0,0,1-.07.152.448.448,0,0,1-.128.09.333.333,0,0,0-.151.126l-5.8,10.124L344.9,205.35l-5.613,2.762-7.388.617-7.419-.862-7.243-5.545-8.822-11.5-8.4-15.761a2.078,2.078,0,0,0-2.8-.852,2.049,2.049,0,0,0-.857,2.783l8.482,15.9a.227.227,0,0,0,.084.088.281.281,0,0,1,.071.066.148.148,0,0,1,.011.059.125.125,0,0,0,.019.074l9.091,11.849a.224.224,0,0,0,.12.062.228.228,0,0,1,.107.05.369.369,0,0,1,.062.121.264.264,0,0,0,.093.146l7.924,6.058a1.18,1.18,0,0,0,.543.208c.059.012.119.024.178.039a.369.369,0,0,1,.136.082.286.286,0,0,0,.153.082l8.2.966.238.021.175-.011,7.977-.657a.082.082,0,0,0,.051-.025.084.084,0,0,1,.052-.026l.076-.01a1.69,1.69,0,0,0,.564-.144l6.284-3.091a.423.423,0,0,0,.17-.178.622.622,0,0,1,.109-.141.387.387,0,0,1,.144-.06.362.362,0,0,0,.176-.084l6.325-6.92a.279.279,0,0,0,.056-.143.254.254,0,0,1,.046-.124.148.148,0,0,1,.087-.051.147.147,0,0,0,.088-.052l3.684-6.448-4.282,19.888-6.067.934-.01.011a1.594,1.594,0,0,0-.719.405l-.108.087a1.325,1.325,0,0,1-.228.132.767.767,0,0,0-.3.208l-.021.01-6.15,8.779a.349.349,0,0,0-.046.176.369.369,0,0,1-.037.162.389.389,0,0,1-.109.134.276.276,0,0,0-.107.154l-2.218,8.08a.232.232,0,0,0,.014.126.274.274,0,0,1,.017.111.2.2,0,0,1-.05.1.191.191,0,0,0-.053.119l-.01.247Zm-5.087-35.721h0a2.011,2.011,0,0,0,1.505.728h2.075a2.117,2.117,0,0,0,.7-.123l1.816-.647,3.168.093h.062a2.049,2.049,0,0,0,1.454-.607l.113-.1.64.257a1.933,1.933,0,0,0,.784.164,2,2,0,0,0,1.176-.4l.062-.021.857-.636.031-.021.021-.021.051-.092a1.9,1.9,0,0,0,.671-.924l.588-1.828a.309.309,0,0,0-.011-.188.368.368,0,0,1-.019-.161.435.435,0,0,1,.068-.157.318.318,0,0,0,.066-.192l-.062-1.54a.4.4,0,0,0-.072-.18.4.4,0,0,1-.062-.137.324.324,0,0,1,.01-.136.234.234,0,0,0,0-.152l-1.011-2.783a.309.309,0,0,0-.124-.138.343.343,0,0,1-.093-.088.289.289,0,0,1-.031-.135.275.275,0,0,0-.041-.152l-1.414-1.931a.737.737,0,0,0-.35-.234,1.422,1.422,0,0,1-.2-.094l-.123-.1a1.406,1.406,0,0,0-.557-.324.764.764,0,0,0-.172-.019,1.666,1.666,0,0,0-.4.066c-.065.016-.132.033-.2.046a.845.845,0,0,1-.159.012h-.169a.6.6,0,0,0-.323.072l-1.074.6-.877.133-2.983.165-3.188-.442-2.734-.811a.14.14,0,0,0-.036,0,.31.31,0,0,0-.078.013.3.3,0,0,1-.081.016.115.115,0,0,1-.031,0,1.114,1.114,0,0,0-.2-.017,2.184,2.184,0,0,0-.54.09l-.078.019-.144.034a1.484,1.484,0,0,0-.548.2.242.242,0,0,1-.108.036.163.163,0,0,0-.109.046l-.547.482a.455.455,0,0,0-.129.239.623.623,0,0,1-.077.183.746.746,0,0,1-.162.152.492.492,0,0,0-.179.2l-1.393,3.47a.227.227,0,0,0,0,.125.22.22,0,0,1,0,.1.26.26,0,0,1-.055.087.251.251,0,0,0-.069.129l-.382,2.4v.011a.854.854,0,0,0,.085.411,1.49,1.49,0,0,1,.081.256c.017.079.029.163.039.245a1.214,1.214,0,0,0,.188.6l.588.78a.1.1,0,0,0,.062.031.1.1,0,0,1,.062.031,1.417,1.417,0,0,0,.2.2l.046.039a.949.949,0,0,0,.167.37,1.88,1.88,0,0,1,.112.194l.027.055a1.739,1.739,0,0,0,.4.582.353.353,0,0,1,.067.108.245.245,0,0,0,.088.118l1.392.935.011.01h.01a2.048,2.048,0,0,0,1.146.349,1.872,1.872,0,0,0,.7-.133Zm28.519,13.3v0L362.7,192.29l2.167,3.624-.227,4.107-1.858,6.521-2.662,4.774-1.762,1.2Zm-70.113-6.931h0l-6.262-9.065-1.723-5.637,1.228-2.906,4.705-3.224,4.612-1.232-.145,18.143-2.414,3.921Zm44.823-9.765h-.557l-.124-.194a.7.7,0,0,0-.308-.237,1.12,1.12,0,0,1-.208-.123c-.044-.037-.085-.073-.124-.109a1.462,1.462,0,0,0-.474-.322,1.054,1.054,0,0,0-.365-.059c-.095,0-.189.009-.289.018h-.009l-.111.01h-.027a1.238,1.238,0,0,1-.211-.024,1.247,1.247,0,0,0-.2-.023.44.44,0,0,0-.156.026l-.134.051a.949.949,0,0,0-.117-.291,1.6,1.6,0,0,1-.079-.161,2.024,2.024,0,0,1-.086-.259.959.959,0,0,0-.192-.419,1.058,1.058,0,0,0-.426-.233c-.074-.027-.147-.053-.214-.086l.134-.913.846-2.094,1.4.421a.629.629,0,0,0,.149.025.674.674,0,0,1,.109.015l.051.031,3.488.483.279.02.113-.01,3.209-.175h.01l.1-.01h.01l.206-.021,1.331-.205a.166.166,0,0,0,.078-.047.161.161,0,0,1,.077-.046,1.211,1.211,0,0,0,.289-.082l.207.266.794,2.219.041.893-.093.267-.433-.185a.3.3,0,0,0-.119-.024.717.717,0,0,0-.121.014.777.777,0,0,1-.124.013.365.365,0,0,1-.049,0,1.785,1.785,0,0,0-.37-.04,2.129,2.129,0,0,0-.341.03,1.8,1.8,0,0,0-.743.3.466.466,0,0,1-.154.055.363.363,0,0,0-.2.089l-.454.452-2.7-.083h-.062a.373.373,0,0,0-.2.075.509.509,0,0,1-.144.069.267.267,0,0,1-.042,0,.581.581,0,0,1-.122-.017.581.581,0,0,0-.123-.018.233.233,0,0,0-.075.012l-1.847.657Zm-43.781-27.815h-2.4l-1.176-.544.1-.037a1.615,1.615,0,0,0,.429-.21l.134-.051a.308.308,0,0,0,.084-.157.325.325,0,0,1,.06-.13c.04-.045.083-.088.124-.13a1.072,1.072,0,0,0,.279-.374.32.32,0,0,0,0-.179.349.349,0,0,1-.009-.139.207.207,0,0,1,.033-.067.135.135,0,0,0,.029-.067l.527.278,1.793,1.8ZM372.2,165.1v0l2.5-13.571.268-.134a.239.239,0,0,0,.1-.107.276.276,0,0,1,.083-.1,1.892,1.892,0,0,0,.568-.636c.023-.037.046-.071.068-.1l.006-.008a1.272,1.272,0,0,0,.215-.442.3.3,0,0,1,.064-.115.233.233,0,0,0,.059-.111l.362-3.235,2.29-4.744,1.269-1.9.258-.093.237,1.858-.485,3.2-2.6,5.432a.22.22,0,0,0-.008.115.254.254,0,0,1,0,.1.194.194,0,0,1-.058.075.209.209,0,0,0-.066.09L374.5,161.743l-1.012,2.023-1.287,1.332Z" transform="translate(-159.612 1182.389)" fill="#475e64"/>
  </g>
</svg>
