<svg xmlns="http://www.w3.org/2000/svg" width="464.284" height="535.702" viewBox="0 0 464.284 535.702">
  <g id="Group_418" data-name="Group 418" transform="translate(0.524 0.524)">
    <rect id="Rectangle_98" data-name="Rectangle 98" width="321.049" height="361.748" transform="matrix(-0.948, -0.319, 0.319, -0.948, 338.058, 456.372)" fill="#fff" stroke="#000" stroke-miterlimit="10" stroke-width="1"/>
    <path id="Path_1578" data-name="Path 1578" d="M-157.27,1154.092l305.782,102.948a8.972,8.972,0,0,1,5.8,11.288l-.075.225L15.039,1682a8.959,8.959,0,0,1-11.262,5.812l-.247-.083-305.782-102.944a8.975,8.975,0,0,1-5.8-11.288l.075-.225,139.2-413.448a8.979,8.979,0,0,1,11.288-5.807Zm-102.662,335.24a8.966,8.966,0,0,0,5.494,11.43l.234.08,270.247,90.985a8.973,8.973,0,0,0,11.438-5.495l.075-.233L130.5,1280.317a8.966,8.966,0,0,0-5.494-11.434l-.234-.079L-144.929,1178a8.972,8.972,0,0,0-11.434,5.5l-.079.225L-259.39,1489.51Z" transform="translate(308.487 -1153.588)" fill="#fff" stroke="#000" stroke-miterlimit="10" stroke-width="1"/>
  </g>
</svg>
