<svg xmlns="http://www.w3.org/2000/svg" xmlns:xlink="http://www.w3.org/1999/xlink" width="898.524" height="564.957" viewBox="0 0 898.524 564.957">
  <defs>
    <filter id="Path_65" x="33.765" y="0" width="864.759" height="564.957" filterUnits="userSpaceOnUse">
      <feOffset dx="30" dy="30" input="SourceAlpha"/>
      <feGaussianBlur stdDeviation="15" result="blur"/>
      <feFlood flood-opacity="0.161"/>
      <feComposite operator="in" in2="blur"/>
      <feComposite in="SourceGraphic"/>
    </filter>
  </defs>
  <g id="Group_951" data-name="Group 951" transform="translate(-413.218 -47765.703)">
    <g transform="matrix(1, 0, 0, 1, 413.22, 47765.7)" filter="url(#Path_65)">
      <path id="Path_65-2" data-name="Path 65" d="M373.94,496.934c-35.447.076-35.718-33.236-49.014-52.836-15.533-22.88-24.8-25.956-48.506-5.288-12.237-16.194-23.363-33-36.778-47.726-5.9-6.474-18.219-14.126-24.583-12.025C173.027,392.922,142.427,369,109.9,350.569c-.788-.441-1.508-1.3-2.313-1.373-36.49-3.068-47.845-39.4-73.886-56.539-7.2-4.737-10.059-17.347-13.109-26.922C2.672,209.534-6.022,154.121,24.154,97.98c11.11-20.668,13.711-45.9,22.143-76C162.079,35.17,281.022,67.626,403.846,64.1c22.583-.644,45.506,10.83,70.183,17.194L454.317,99.879h99.071l-.788,6.449c-13,7.076-34.363,11.745-37.252,21.753-5.873,20.321-1.754,43.523-1.754,65.539l14.177,1.28c1.034-10.576,1.678-21.219,3.22-31.719,1.585-10.8,2.415-22.2,6.72-31.947,2.584-5.864,11.9-13.245,16.872-12.381,5.661.983,11.694,9.66,14.33,16.287a197.576,197.576,0,0,1,12.618,49.311c11.432,7.856,40-5.051,49.913-23.024.78-1.424.313-4.7.975-4.864,31.091-7.593,33.261-50.76,67.522-54.6,21.847-2.449,33.413-13.669,34.252-37.362.28-7.991,10.406-15.626,17.643-25.651l27.21,46.328c-13.533,19.38-53.378,30.134-27.261,68.742-31.761,16.075-46.955,42.5-48.472,77.792-.136,3.254-9.076,6.127-15.8,10.355-.034-.169-.509,6.254,2.432,9.991,24.889,31.668,2.347,51.294-17.4,71.861-3.618,3.763-6.3,8.542-10.271,11.838-42.82,35.668-24.617,71.428-2.263,109.028,7.3,12.262,7.271,28.871,10.6,43.489l-12.542,6.034c-12.711-17.906-28.837-34.38-37.159-54.141-8.237-19.55-12.338-32.871-38.888-25.99-15.525,4.025-33.871-3.237-51.006-4.8-5.161-.474-14.228-.441-15.22,1.958-16.1,38.964-46.125,13.948-69.666,14.965C407.489,428.073,374.186,458.724,373.94,496.934Z" transform="translate(44.48 -6.98)" fill="#5b6467"/>
    </g>
    <g id="Group_757" data-name="Group 757" transform="translate(413.218 48107.797)">
      <g id="Group_428" data-name="Group 428" transform="translate(174.118 0)">
        <g id="Group_427" data-name="Group 427" transform="translate(0 0)">
          <g id="Group_392" data-name="Group 392" transform="translate(205.638 41.005)">
            <path id="Path_1440" data-name="Path 1440" d="M678,717.566v60.5s-15.566,8.81-32.6,0V717.272S659.788,710.517,678,717.566Z" transform="translate(-645.397 -713.373)" fill="#ece5e2" fill-rule="evenodd"/>
            <path id="Path_1441" data-name="Path 1441" d="M678,717.214a35.526,35.526,0,0,1-32.6-.293A46.793,46.793,0,0,1,678,717.214Z" transform="translate(-645.397 -713.315)" fill="#ded9d5" fill-rule="evenodd"/>
            <path id="Path_1442" data-name="Path 1442" d="M675.807,720.133s-13.2-2.734-23.419,0A34.207,34.207,0,0,0,675.807,720.133Z" transform="translate(-647.232 -714.57)" fill="#fff" fill-rule="evenodd"/>
            <path id="Path_1443" data-name="Path 1443" d="M667.423,720.122s2.084,0,0-3.908-1.563-3.127-1.563-3.127S662.994,721.946,667.423,720.122Z" transform="translate(-650.527 -713.023)" fill="#fbb03b" fill-rule="evenodd"/>
            <path id="Path_1444" data-name="Path 1444" d="M645.46,730.037a30.869,30.869,0,0,0,16.179,3.8l-.128,39.746a19.671,19.671,0,0,1-16.051-3.567Z" transform="translate(-645.413 -717.488)" fill="#ded9d5" fill-rule="evenodd"/>
          </g>
          <g id="Group_393" data-name="Group 393" transform="translate(246.507 41.319)">
            <path id="Path_1445" data-name="Path 1445" d="M733.407,717.992v60.5s-15.566,8.811-32.6,0V717.7S715.2,710.943,733.407,717.992Z" transform="translate(-700.807 -713.799)" fill="#ece5e2" fill-rule="evenodd"/>
            <path id="Path_1446" data-name="Path 1446" d="M733.407,717.64a35.524,35.524,0,0,1-32.6-.294A46.793,46.793,0,0,1,733.407,717.64Z" transform="translate(-700.807 -713.741)" fill="#ded9d5" fill-rule="evenodd"/>
            <path id="Path_1447" data-name="Path 1447" d="M731.217,720.559s-13.2-2.734-23.419,0A34.207,34.207,0,0,0,731.217,720.559Z" transform="translate(-702.641 -714.996)" fill="#fff" fill-rule="evenodd"/>
            <path id="Path_1448" data-name="Path 1448" d="M722.833,720.548s2.084,0,0-3.908-1.563-3.127-1.563-3.127S718.4,722.372,722.833,720.548Z" transform="translate(-705.938 -713.449)" fill="#fbb03b" fill-rule="evenodd"/>
            <path id="Path_1449" data-name="Path 1449" d="M700.87,730.463a30.873,30.873,0,0,0,16.179,3.8l-.128,39.746a19.674,19.674,0,0,1-16.051-3.567Z" transform="translate(-700.823 -717.914)" fill="#ded9d5" fill-rule="evenodd"/>
          </g>
          <g id="Group_394" data-name="Group 394" transform="translate(403.724 56.103)">
            <path id="Path_1450" data-name="Path 1450" d="M913.957,739.076v74.355s19.13,10.828,40.065,0V738.715S936.335,730.413,913.957,739.076Z" transform="translate(-913.957 -733.922)" fill="#ece5e2" fill-rule="evenodd"/>
            <path id="Path_1451" data-name="Path 1451" d="M913.957,738.644a43.661,43.661,0,0,0,40.065-.361A57.507,57.507,0,0,0,913.957,738.644Z" transform="translate(-913.957 -733.851)" fill="#ded9d5" fill-rule="evenodd"/>
            <path id="Path_1452" data-name="Path 1452" d="M920.662,742.231s16.217-3.361,28.782,0A42.042,42.042,0,0,1,920.662,742.231Z" transform="translate(-915.716 -735.394)" fill="#fff" fill-rule="evenodd"/>
            <path id="Path_1453" data-name="Path 1453" d="M939.718,742.217s-2.562,0,0-4.8,1.922-3.843,1.922-3.843S945.161,744.458,939.718,742.217Z" transform="translate(-920.418 -733.493)" fill="#fbb03b" fill-rule="evenodd"/>
            <path id="Path_1454" data-name="Path 1454" d="M961.124,754.4s-7.828,4.979-19.883,4.666l.156,48.848a24.175,24.175,0,0,0,19.727-4.383Z" transform="translate(-921.117 -738.98)" fill="#ded9d5" fill-rule="evenodd"/>
          </g>
          <g id="Group_395" data-name="Group 395" transform="translate(460.429 64.361)">
            <path id="Path_1455" data-name="Path 1455" d="M990.836,750.272v74.355s19.131,10.828,40.066,0V749.911S1013.215,741.609,990.836,750.272Z" transform="translate(-990.836 -745.118)" fill="#ece5e2" fill-rule="evenodd"/>
            <path id="Path_1456" data-name="Path 1456" d="M990.836,749.84a43.663,43.663,0,0,0,40.066-.361A57.508,57.508,0,0,0,990.836,749.84Z" transform="translate(-990.836 -745.047)" fill="#ded9d5" fill-rule="evenodd"/>
            <path id="Path_1457" data-name="Path 1457" d="M997.542,753.426s16.217-3.36,28.781,0A42.039,42.039,0,0,1,997.542,753.426Z" transform="translate(-992.596 -746.59)" fill="#fff" fill-rule="evenodd"/>
            <path id="Path_1458" data-name="Path 1458" d="M1016.6,753.413s-2.562,0,0-4.8,1.921-3.843,1.921-3.843S1022.041,755.655,1016.6,753.413Z" transform="translate(-997.297 -744.689)" fill="#fbb03b" fill-rule="evenodd"/>
            <path id="Path_1459" data-name="Path 1459" d="M1038,765.6s-7.828,4.979-19.884,4.666l.156,48.848A24.176,24.176,0,0,0,1038,814.729Z" transform="translate(-997.996 -750.176)" fill="#ded9d5" fill-rule="evenodd"/>
          </g>
          <g id="Group_396" data-name="Group 396" transform="translate(510.946 57.393)">
            <path id="Path_1460" data-name="Path 1460" d="M1059.326,740.825V815.18s19.13,10.828,40.065,0V740.464S1081.7,732.162,1059.326,740.825Z" transform="translate(-1059.326 -735.671)" fill="#ece5e2" fill-rule="evenodd"/>
            <path id="Path_1461" data-name="Path 1461" d="M1059.326,740.393a43.659,43.659,0,0,0,40.065-.361A57.506,57.506,0,0,0,1059.326,740.393Z" transform="translate(-1059.326 -735.6)" fill="#ded9d5" fill-rule="evenodd"/>
            <path id="Path_1462" data-name="Path 1462" d="M1066.031,743.979s16.217-3.36,28.782,0A42.041,42.041,0,0,1,1066.031,743.979Z" transform="translate(-1061.086 -737.143)" fill="#fff" fill-rule="evenodd"/>
            <path id="Path_1463" data-name="Path 1463" d="M1085.087,743.966s-2.562,0,0-4.8,1.922-3.843,1.922-3.843S1090.53,746.208,1085.087,743.966Z" transform="translate(-1065.787 -735.242)" fill="#fbb03b" fill-rule="evenodd"/>
            <path id="Path_1464" data-name="Path 1464" d="M1106.493,756.152s-7.828,4.979-19.883,4.666l.156,48.849a24.177,24.177,0,0,0,19.727-4.384Z" transform="translate(-1066.486 -740.729)" fill="#ded9d5" fill-rule="evenodd"/>
          </g>
          <g id="Group_397" data-name="Group 397" transform="translate(568.43 62.619)">
            <path id="Path_1465" data-name="Path 1465" d="M1137.262,747.591V817.7s18.038,10.21,37.778,0V747.251S1158.364,739.423,1137.262,747.591Z" transform="translate(-1137.262 -742.732)" fill="#ece5e2" fill-rule="evenodd"/>
            <path id="Path_1466" data-name="Path 1466" d="M1137.262,747.184a41.168,41.168,0,0,0,37.778-.34A54.225,54.225,0,0,0,1137.262,747.184Z" transform="translate(-1137.262 -742.664)" fill="#ded9d5" fill-rule="evenodd"/>
            <path id="Path_1467" data-name="Path 1467" d="M1143.585,750.566s15.292-3.168,27.139,0A39.636,39.636,0,0,1,1143.585,750.566Z" transform="translate(-1138.921 -744.119)" fill="#fff" fill-rule="evenodd"/>
            <path id="Path_1468" data-name="Path 1468" d="M1161.553,750.553s-2.416,0,0-4.529,1.812-3.624,1.812-3.624S1166.686,752.667,1161.553,750.553Z" transform="translate(-1143.354 -742.327)" fill="#fbb03b" fill-rule="evenodd"/>
            <path id="Path_1469" data-name="Path 1469" d="M1181.737,762.044s-7.382,4.695-18.749,4.4l.148,46.06a22.8,22.8,0,0,0,18.6-4.133Z" transform="translate(-1144.013 -747.501)" fill="#ded9d5" fill-rule="evenodd"/>
          </g>
          <g id="Group_398" data-name="Group 398" transform="translate(617.551 64.626)">
            <path id="Path_1470" data-name="Path 1470" d="M1215.354,749.816v63.5s16.338,9.248,34.218,0V749.508S1234.467,742.417,1215.354,749.816Z" transform="translate(-1215.354 -745.415)" fill="#ece5e2" fill-rule="evenodd"/>
            <path id="Path_1471" data-name="Path 1471" d="M1215.354,749.447a37.287,37.287,0,0,0,34.218-.308A49.115,49.115,0,0,0,1215.354,749.447Z" transform="translate(-1215.354 -745.354)" fill="#ded9d5" fill-rule="evenodd"/>
            <path id="Path_1472" data-name="Path 1472" d="M1221.081,752.51s13.85-2.87,24.581,0A35.9,35.9,0,0,1,1221.081,752.51Z" transform="translate(-1216.857 -746.671)" fill="#fff" fill-rule="evenodd"/>
            <path id="Path_1473" data-name="Path 1473" d="M1237.356,752.5s-2.188,0,0-4.1,1.641-3.282,1.641-3.282S1242,754.414,1237.356,752.5Z" transform="translate(-1220.872 -745.048)" fill="#fbb03b" fill-rule="evenodd"/>
            <path id="Path_1474" data-name="Path 1474" d="M1255.638,762.907a32.407,32.407,0,0,1-16.982,3.985l.134,41.719a20.648,20.648,0,0,0,16.848-3.744Z" transform="translate(-1221.468 -749.734)" fill="#ded9d5" fill-rule="evenodd"/>
          </g>
          <g id="Group_399" data-name="Group 399" transform="translate(556.167 79.658)">
            <path id="Path_1475" data-name="Path 1475" d="M1141.985,764.862v79.955s20.571,11.643,43.083,0V764.474S1166.049,755.547,1141.985,764.862Z" transform="translate(-1141.985 -759.321)" fill="#ece5e2" fill-rule="evenodd"/>
            <path id="Path_1476" data-name="Path 1476" d="M1141.985,764.4a46.948,46.948,0,0,0,43.083-.388A61.839,61.839,0,0,0,1141.985,764.4Z" transform="translate(-1141.985 -759.244)" fill="#ded9d5" fill-rule="evenodd"/>
            <path id="Path_1477" data-name="Path 1477" d="M1149.2,768.255s17.438-3.613,30.949,0A45.206,45.206,0,0,1,1149.2,768.255Z" transform="translate(-1143.877 -760.903)" fill="#fff" fill-rule="evenodd"/>
            <path id="Path_1478" data-name="Path 1478" d="M1169.686,768.24s-2.755,0,0-5.165,2.066-4.133,2.066-4.133S1175.54,770.651,1169.686,768.24Z" transform="translate(-1148.933 -758.859)" fill="#fbb03b" fill-rule="evenodd"/>
            <path id="Path_1479" data-name="Path 1479" d="M1192.7,781.344s-8.418,5.354-21.381,5.018l.168,52.526a26,26,0,0,0,21.213-4.714Z" transform="translate(-1149.684 -764.759)" fill="#ded9d5" fill-rule="evenodd"/>
          </g>
          <g id="Group_400" data-name="Group 400" transform="translate(272.806 14.234)">
            <path id="Path_1480" data-name="Path 1480" d="M804.085,776.4c-26.091-12.528-35.431,12.364-35.15,10.246,1.071-9.691,14.139-20.354,29.846-17.538-29.929-29.194-52.692-.444-51.379-3.03,8.945-17,35.639-20.668,55.467-3.305L764.188,729.1c-.862-1.35-.581-3.468,1.331-3.093,7.667,1,36.227,31.556,41.943,38.662-3.972-7.649-20.177-48.8-17.644-56.914.469-1.705,2.475-1.124,3.337.227.206-.094,1.628,10.7,4.718,22.982,3.127,11.266,7.717,24.108,9.946,29.563-9.325-43.529,18.625-48.265,14.387-43.354-12.113,14.955-9.979,28.415-7.4,43.411,1.451-33.5,22.145-31.205,18.4-28.507-13.237,9.744-12.47,21.835-13.786,35.369,6.269-34.94,34.484-46.761,51.82-35.978.787.637-22.567-6.416-35.768,13.263-5.25,7.61-5.777,13.57-7.99,21.293a84.943,84.943,0,0,0-8.117,2.942c.112-.3.112-.3.018-.506l-.018.506a27.382,27.382,0,0,0-4.012,1.573C809.578,773.159,805.735,775.651,804.085,776.4Z" transform="translate(-734.473 -677.325)" fill="#009245" fill-rule="evenodd"/>
            <path id="Path_1481" data-name="Path 1481" d="M851.011,787.663l3.636,5.812c8.545,10.049,30.419,18.771,19.111,39.332-1.519,2.68-1.276,4.31-.49,7.685,1.18,3.693-30.052,17.632-31.963,14.52-1.93-2.606-2.586-4.049-6.11-4.688-22.417-4.991-15.964-28.571-17.049-40.268-.392-5.792-6.072-5.7,4.2-12.108a132.135,132.135,0,0,1,22.984-10.192c2.662-.712,4.686-.637,5.679-.093Z" transform="translate(-752.548 -698.459)" fill="gray" fill-rule="evenodd"/>
            <path id="Path_1482" data-name="Path 1482" d="M760.542,736.049c-12.525,15.143-15.691,7.626-18.166,8.75-.206.094-8.811,5.246-2.419,5.079,4.161-.149,13.891-2.827,17.022-5.244,4.181-3.392,4.969-8.228,3.563-8.585Z" transform="translate(-731.915 -685.026)" fill="#c06ed1" fill-rule="evenodd"/>
            <path id="Path_1483" data-name="Path 1483" d="M758.745,733.9c-.487-.525-6.6,3-12.934-1.09-5.36-3.038-6.522-4.5-15.053,1.364-5.512,3.748,16.831,8.027,23.431,2.292,1.875-1.349-2.57,6.392-22.363,1.7-3.112-.825,10.421,5.963,13.776,5.683,3.449-.075,8.268-4.254,10.911-7.2.113-.3,2.231-2.755,2.231-2.755Z" transform="translate(-729.893 -683.48)" fill="#c06ed1" fill-rule="evenodd"/>
            <path id="Path_1484" data-name="Path 1484" d="M760.728,728.459c-4.443,2.267-11.716,1.591-15.089-3.1-1.837-2.4-1.836-5.137-5.021-9.411-4.048-5.625-2.792-3.956,8.661-3.935,9.128-.166,12.894,7.577,12.818,15.074L749.146,718.3l12.538,8.982c.094.206-.131.806-.957,1.181Z" transform="translate(-732.156 -678.655)" fill="#c06ed1" fill-rule="evenodd"/>
            <path id="Path_1485" data-name="Path 1485" d="M750.973,706.459c-3.13-3.057-.9-11.285.846-9.092,3.111,3.563,1.124,2.475,6.934,7.05,5.716,4.369,6.653,6.431,7.289,13.854.448,7.011,1.031-3.2-1.516-8.267a7.518,7.518,0,0,0-2.811-3.45c-2.362-1.913-5.229-3.844-6.485-5.513a44.2,44.2,0,0,1-3.092-4.068c-2.024-2.812,5.379,2.531,5.773,2.85,2.361,1.913,5.061,2.926,6.615,4.707,9.707,11.512,1.42,21.745.783,17.058-.336-1.837-.374-3.561-1.03-5-1.442-4.818-4.01-6.637-6-7.725-2.08-1.294-5.042-.695-7.31-2.4Z" transform="translate(-735.013 -674.558)" fill="#c06ed1" fill-rule="evenodd"/>
            <path id="Path_1486" data-name="Path 1486" d="M802.219,697.219c-14.187-13.706-6.389-16.254-7.307-18.822-.094-.206-4.628-9.092-4.76-2.812-.357,4.142,1.4,14.04,4.007,17.584,2.885,4.161,7.609,5.25,8.06,4.051Z" transform="translate(-745.693 -668.571)" fill="#c06ed1" fill-rule="evenodd"/>
            <path id="Path_1487" data-name="Path 1487" d="M804.165,695.747c.618-.281-2.585-6.786,1.9-12.8,3.731-4.928,5.193-6.09-.147-15.108-3.129-5.793-9.32,16.175-4.111,23.261,1.349,1.875-6.072-2.963.23-22.494.919-2.9-6.657,9.99-6.789,13.532-.226,3.337,3.635,8.549,6.371,11.286A19.074,19.074,0,0,1,804.165,695.747Z" transform="translate(-747.04 -666.874)" fill="#c06ed1" fill-rule="evenodd"/>
            <path id="Path_1488" data-name="Path 1488" d="M807.891,698.212c-1.854-4.631-.578-11.678,4.3-14.639,2.493-1.631,5.23-1.63,9.692-4.4,5.812-3.635,4.35-2.473,3.41,9.149-.639,9-8.663,12.144-16.236,11.355l9.675-12.107-9.563,11.807c-.506-.019-.806-.131-1.275-1.162Z" transform="translate(-750.148 -669.62)" fill="#c06ed1" fill-rule="evenodd"/>
            <path id="Path_1489" data-name="Path 1489" d="M827.448,689.955c3.45-2.811,11.247.115,9.054,1.858-3.75,2.7-2.662.711-7.425,6.109-4.968,5.491-7.031,6.428-14.529,6.351-6.992-.057,3.3,1.238,8.548-.9a9.512,9.512,0,0,0,3.543-2.605c2.213-2.249,4.237-4.91,5.907-6.165a27.686,27.686,0,0,1,4.255-2.68c2.906-1.817-2.832,5.267-3.244,5.454-1.913,2.361-3.226,4.948-5.1,6.3-12.3,9.07-21.895-.005-17.114-.435a29.032,29.032,0,0,0,4.986-.524c4.911-1.236,7.03-3.691,8.212-5.471,1.5-2.174,1.107-5.23,2.907-7.291Z" transform="translate(-750.938 -672.624)" fill="#c06ed1" fill-rule="evenodd"/>
          </g>
          <g id="Group_401" data-name="Group 401" transform="translate(361.677 40.732)">
            <path id="Path_1490" data-name="Path 1490" d="M1050.07,741.1l-2.25-2.55-25,16.407c-14.387,9.013-33.619,10.891-51.942,14.011,2.168-1.207,3.907-2.481,5.828-3.506l16.887-12.372-2.25-2.55-25,16.407A69.454,69.454,0,0,1,956.313,772a41.08,41.08,0,0,0-5.744,1.536c-1.854.6-3.459,1.008-4.634,1.488-9.634,2.478-19.747,3.781-29.927,5.514,9.784-4.878,12.961-2.626,22.4-9.54,12.417-9.1,26.57-13.741,30.783-32.474,4.146-18.3,10.074-25.318,10.074-25.318-14.8,7.408-17.4,14.275-25.749,28.406-13.366,22.387-28.5,26.22-42.934,39.851-5.677,1.106-11.6,2.394-16.917,4-8.591,2.859-7.863,3.852-1.259,2.449,8.64-1.75,22.94-3.068,38.367-5.974-.381,1.042,3.442.531,4.3.664l29.211,3.406c14.828.967,46.476-4.282,51.848,10.865,2.149,6.059,6.116-18.22-31.155-22.209-4.981-.549-19.464.521-32.225,1.855,2.1-.777,4.139-1.123,6.058-2.149,20.475-2.787,53.148-6.116,74.372-20.9Z" transform="translate(-887.333 -699.474)" fill="#007437" fill-rule="evenodd"/>
            <g id="Group_440" data-name="Group 440" transform="translate(100.388)">
              <path id="Path_1491" data-name="Path 1491" d="M1117.835,694.838c-3.71,6.916,5.3-.064-11.213,16.993-7.285,7.245-6.661,17.474-2.21,21.465h0c.066-.431.5-.364.678-.116,6.734,3.462,10.941-3.818,13.89-8.65l.249-.182c.266-1.721,2.784-6.618,3.346-7.413a19.957,19.957,0,0,1,2.5-3.359c1.308-1.34,4.669-4.566,7.135-4.846.745-.546.811-.976.811-.976h0l-.182-.249h0c-.43-.066-.43-.066-.612-.315h0c-.248.182-.679.116-1.472-.448h0l-.248.182-.612-.315h0a28.125,28.125,0,0,1-2.7-1.077c-5.5,1.355-17.141,24.008-17.638,24.371l7.736-14.446c1.756-2.812,6.425-7.378,9.108-10.488.066-.431.811-.977,1.756-2.813.828-2.515-3.74-1.458-5.843-.681-1.49,1.092-1.209,3.557-6.624,8.67-6.541,6.7-7.236,8.355-9.359,16.4-.9,2.945-1.421-5.065,6.56-13.966,5.3-5.79,7.684-9.828,8.513-12.343h0a18.319,18.319,0,0,0-.015-4.187C1120.55,694.376,1117.9,694.407,1117.835,694.838Z" transform="translate(-1043.816 -694.588)" fill="#e34242" fill-rule="evenodd"/>
              <path id="Path_1492" data-name="Path 1492" d="M1149.965,734.136a4.456,4.456,0,0,0-2.25-2.55c-4.617-.052-11.286-3.945-21.3-.424-.926.3-4.221,3.093-5.513,2.894-3.2,5.013-7.469,12.724-14.568,8.765-2.267-1.01,11.347,14.967,27.954.129,3.113-3.044,9.405-9.562,14.751-8.517C1149.469,734.5,1150.081,734.815,1149.965,734.136Z" transform="translate(-1045.126 -703.799)" fill="#e34242" fill-rule="evenodd"/>
              <path id="Path_1493" data-name="Path 1493" d="M1129.375,701.075c2.532-.71,8.028-2.065,6.636,1.244a9.078,9.078,0,0,1-1.689,2.382c.364.5,3.491,1.64,3.922,1.707a10.829,10.829,0,0,1,2.7,1.077l.181.249h0c2.7-4.65-3.867-12.051-7.74-12.648-5.842-.682-3.278,1.256-3.875,5.128Z" transform="translate(-1051.237 -694.684)" fill="#e34242" fill-rule="evenodd"/>
              <path id="Path_1494" data-name="Path 1494" d="M1156.485,724.662c-4.421,4.384-10.425-3.812-24.826,1.014a55.974,55.974,0,0,0-5.149,3.391,26.082,26.082,0,0,1,3.346-7.413c.134-.861,1.193-2.019,2.252-3.177,2.368-2.5,6.093-5.227,7.748-4.532.431.066.116.679.3.927,2.348,4.768-.647,2.764,11.349,9.24l-8.438-5.267c-4.814-4.487-1.6-11.04,5.414-5.111,4.814,4.487-1.525,4.17-1.094,4.237,1.885,2.053,4.239-4.633,9.365,4.969A1.128,1.128,0,0,1,1156.485,724.662Z" transform="translate(-1050.485 -698.992)" fill="#e34242" fill-rule="evenodd"/>
              <path id="Path_1495" data-name="Path 1495" d="M1064.221,741.087a99.4,99.4,0,0,1,10.228-.625c5.66.433-16.713,29.8-39.88,20.058-4.352-1.773-3.789-2.567-2.862-2.865l.431.066a8.258,8.258,0,0,0,4.138-1.123,37.276,37.276,0,0,0,5.149-3.391,74.984,74.984,0,0,1,6.7-4.912,65.144,65.144,0,0,1,6.821-4.234c2.1-.777,3.774-1.62,5.38-2.034l3.393-.577Z" transform="translate(-1025.437 -706.626)" fill="#e34242" fill-rule="evenodd"/>
              <path id="Path_1496" data-name="Path 1496" d="M1044.87,709.619a19.7,19.7,0,0,1,1.718,5.992,23.12,23.12,0,0,1-1.244,6.636,18.744,18.744,0,0,1-5.333,8.869c-2.55,2.25-2.186,2.747-3.512,5.625a29.5,29.5,0,0,1-5.763,8.8c-1.309,1.34-1.458,3.74-1.707,3.922s-1.109.049-1.837-.944c-1.522-1.556-3.174-7.979-3.521-10.015a24.3,24.3,0,0,1,2.754-14.994c2.27-4.716,7.618-9.4,12.27-12.424C1040.368,710.246,1043.663,707.45,1044.87,709.619Z" transform="translate(-1023.437 -698.321)" fill="#e34242" fill-rule="evenodd"/>
              <path id="Path_1497" data-name="Path 1497" d="M1064.112,723.7a103.328,103.328,0,0,0-8.628,11.664c-.249.182-.5.364-.861-.133-.612-.315,7.5-10.076,8.38-11.483a2.327,2.327,0,0,0,.63-1.224c-.612-.314-2.019-1.192-2.7-1.077-1.606.413-10.947,15.272-14.441,19.358a1.075,1.075,0,0,1-.679.116c-.794-.564,13.647-19.922,14.077-19.855a3.717,3.717,0,0,0-2.151-.332,24.466,24.466,0,0,0-6.556,2.513,4.512,4.512,0,0,0-2.368,2.5,21.57,21.57,0,0,1-5.582,9.05c-2.3,2.068-2.185,2.747-3.511,5.626-1.458,3.74-3.081,5.692-5.764,8.8-.5.364-.7,1.654-1.258,2.449a16.528,16.528,0,0,0,3.641-.76c3.592-1.869,8.013-6.253,11.672-8.552,6.325-3.87,11.34-6.4,16.025-6.778.629-1.224,1.129-7.315.9-8.672A16.771,16.771,0,0,0,1064.112,723.7Z" transform="translate(-1025.869 -701.439)" fill="#e34242" fill-rule="evenodd"/>
              <path id="Path_1498" data-name="Path 1498" d="M1068.561,717.072a6.118,6.118,0,0,1,1.986-1.456,5.791,5.791,0,0,1,5.678-1.106c1.291.2,1.654.7,2.945.9a5,5,0,0,1,2.879,1.326c1.886,2.053,2.631,1.507,3.457,4.718.71,2.533.329,3.575-.682,5.842-.811.976-1.508,2.63-2.07,3.425s-1.308,1.34-1.622,1.952c-.249.182-.133.861-.133.861s-5.363.493-5.793.427c-1.357.232-1.605.413-1.291-.2.066-.43.581-2.333.846-4.055.216-2.83.649-8.49-2.594-10.312-1.224-.629-2.764-.647-3.988-1.276a.3.3,0,0,1-.43-.066l.563-.794Z" transform="translate(-1035.066 -699.727)" fill="#e34242" fill-rule="evenodd"/>
              <path id="Path_1499" data-name="Path 1499" d="M1045.542,707.03c3.179-3.474,15.181-8.451,13.044-4.6-.63,1.224-5.729,5.724-5.366,6.221-.066.43,6.558-8.24,10.413-6.1.794.563,6.452,6.723,3.241,7.549-4.2,1.553-3.162,1.935-5.96,4.367-.563.794-1.242.909-2.169,1.207-5.744,1.536-6.688,3.373-6.821,4.234l-.248.181c.828-2.515,1.824-8.969-.474-12.628-1.39-2.417-4.485-.912-6.224.361A1.131,1.131,0,0,0,1045.542,707.03Z" transform="translate(-1029.09 -696.28)" fill="#e34242" fill-rule="evenodd"/>
            </g>
          </g>
          <g id="Group_402" data-name="Group 402" transform="translate(94.142 0.22)">
            <g id="Group_438" data-name="Group 438" transform="translate(56.91)">
              <g id="Group_436" data-name="Group 436">
                <path id="Path_1500" data-name="Path 1500" d="M575.654,694.234c-15.448-10.623,15.96-40.811,17.284-35.988a8.142,8.142,0,0,1-.744,4.722c-8.971,5.435-19.029,16.357-17.849,26.817A12.246,12.246,0,0,0,575.654,694.234Z" transform="translate(-571.392 -657.729)" fill="#f5d266" fill-rule="evenodd"/>
                <path id="Path_1501" data-name="Path 1501" d="M578.6,695.486c-12.282-20.323,44.345-53.237,20.569-19.986-5.671,8.114,2.607-.482,6.312-10.767,2.36-6.477,2.848.821.806,10.474-4.039,6.733-4.66,14.452-10.228,20.5-3.233,3.511-8.011,5.959-12.63,3.146Z" transform="translate(-572.818 -658.667)" fill="#f5d266" fill-rule="evenodd"/>
                <path id="Path_1502" data-name="Path 1502" d="M624.145,686.926c-8.1,22.1-29.72,25.616-33.415,17.887-.211-.554,4.541.939,9.751-4.717,8.622-9.361,8.569-28.874,18.9-24.045,13.2,6.025-16.813,15.515-9.186,13.888C611.874,689.682,626.834,679.31,624.145,686.926Z" transform="translate(-576.465 -662.338)" fill="#f5d266" fill-rule="evenodd"/>
              </g>
              <g id="Group_437" data-name="Group 437" transform="translate(51.817 5.073)">
                <path id="Path_1503" data-name="Path 1503" d="M643.82,700.749c-4.875-4.491-1.489-17.953,9.443-25.908,3.1-2.191,18.373-14.078,21.96-8.972.016.375.21.555.046,1.124-.375.016-.36.39-.719.78-7.272,10.244-15.144,19.574-25.147,27.3C647.772,696.458,644.867,698.829,643.82,700.749Z" transform="translate(-641.644 -664.607)" fill="#f5d266" fill-rule="evenodd"/>
                <path id="Path_1504" data-name="Path 1504" d="M647.712,711.361c-6.467-6.677,3.305-6.328,15.8-21.853l3.592-3.9c4.676-.38,10.881-.072,15.109,2.381-7.026,2.54-21.893,15.161-28.755,17.132,5.66-3.8,14.436-9.413,20.472-13.226,4.927-3.392,8.432-4.85,9.156-.939.015.375-.472,6.774-.636,7.344-3.521,1.083-2.874,3.12-2.767,5.743-.882,1.35-15.745,4.963-17.228,5.4Z" transform="translate(-642.697 -670.082)" fill="#f5d266" fill-rule="evenodd"/>
                <path id="Path_1505" data-name="Path 1505" d="M650.537,717.393l13.442-1.679c27.477-7.135,14.262-4.527,19.424-11.307l16.608,2.32C696.973,724.115,667.479,736.961,650.537,717.393Z" transform="translate(-643.978 -675.051)" fill="#f5d266" fill-rule="evenodd"/>
                <path id="Path_1506" data-name="Path 1506" d="M684.584,668.812c.18-.2,12.543-.7,4.507,9.2-4.819,6.015.883-1.35,3.731-.529,9.7,3.166,2.977,8.509-.194,13.518l6.958-8.73c2.458.462,1.54,10.07-2.489,12.487l-5.845-.7c-2.043-4.043,4.844-9.956-4.84-12.748-5.7-1.643-9.982-.9-10.716-.5-.749.031,2.859-3.495,4.28-5.43Z" transform="translate(-650.553 -665.691)" fill="#f5d266" fill-rule="evenodd"/>
              </g>
            </g>
            <path id="Path_1507" data-name="Path 1507" d="M561.407,703.266l-3.09-2.125c-8.447,18.173-15.636,34.982-26.947,51.959,6.995-16.988,17.007-29.034,10.391-48.464-6.812-19.609-5.339-29.427-5.339-29.427-9.515,15.028-7.872,23.028-7.686,41.222.452,29.253-12.183,41.407-17.479,63.2-4.295,5.055-26.707,25.867-12.193,18.328,4.223-2.238,10.166-8.3,16.6-16.07l37.568-17.307c19.44-10.932,55.7-41.7,73.958-26.684,7.186,5.9-6.58-27.688-56.638-3.863-3.49,1.832-10.618,6.441-18.645,12.025,17.951-15.186,35.206-24.528,55.38-35.865l-2.192-3.1c-27.2,13.879-47.641,27.854-70.982,48.892C546.653,736.9,553.052,723.687,561.407,703.266Z" transform="translate(-494.234 -662.316)" fill="#006837" fill-rule="evenodd"/>
          </g>
          <g id="Group_403" data-name="Group 403" transform="translate(77.175)">
            <path id="Path_1508" data-name="Path 1508" d="M501.7,771.17c-9.572,12.769-34.153-14.994-30-15.952a6.934,6.934,0,0,1,3.99.8c4.311,7.818,13.249,16.753,22.185,16.113A10.419,10.419,0,0,0,501.7,771.17Z" transform="translate(-471.231 -683.08)" fill="#ff6889" fill-rule="evenodd"/>
            <path id="Path_1509" data-name="Path 1509" d="M502.93,765.981c-17.711,9.738-43.733-39.567-16.281-18.189,6.7,5.106-.319-2.234-8.938-5.743-5.426-2.233.8-2.394,8.937-.321,5.586,3.669,12.13,4.465,17.077,9.412,2.873,2.872,4.789,7.02,2.236,10.851Z" transform="translate(-472.14 -679.168)" fill="#ff6889" fill-rule="evenodd"/>
            <path id="Path_1510" data-name="Path 1510" d="M497.233,726.118c18.513,7.656,20.751,26.167,14.05,29.041-.479.16.957-3.83-3.672-8.457-7.661-7.658-24.258-8.293-19.792-16.911,5.584-11.012,12.611,14.839,11.492,8.3C499.151,736.65,490.85,723.566,497.233,726.118Z" transform="translate(-475.387 -675.368)" fill="#ff6889" fill-rule="evenodd"/>
            <g id="Group_435" data-name="Group 435" transform="translate(6.461)">
              <path id="Path_1511" data-name="Path 1511" d="M509.738,709.781c-3.989,3.99-15.32.642-21.7-8.931-1.756-2.713-11.334-16.115-6.866-18.989.319,0,.479-.159.957,0,0,.319.319.319.639.638,8.459,6.541,16.121,13.561,22.346,22.337C506.226,706.272,508.142,708.825,509.738,709.781Z" transform="translate(-479.991 -663.822)" fill="#f4d366" fill-rule="evenodd"/>
              <path id="Path_1512" data-name="Path 1512" d="M518.816,705.754c-5.9,5.268-5.266-3.031-18.035-14.2l-3.192-3.191c-.16-3.99.317-9.256,2.551-12.767,1.916,6.064,12.133,19.147,13.57,25.052-3.034-4.946-7.5-12.605-10.536-17.871-2.714-4.308-3.832-7.34-.48-7.819.319,0,5.745.637,6.224.8.8,3.031,2.554,2.553,4.788,2.552,1.117.8,3.673,13.564,3.993,14.84Z" transform="translate(-484.601 -662.029)" fill="#f4d366" fill-rule="evenodd"/>
              <path id="Path_1513" data-name="Path 1513" d="M524.154,699.877l-.96-11.49c-5.112-23.617-3.354-12.287-8.94-16.914L516.8,657.43C531.487,660.619,541.386,686.149,524.154,699.877Z" transform="translate(-488.982 -657.43)" fill="#f4d366" fill-rule="evenodd"/>
              <path id="Path_1514" data-name="Path 1514" d="M483.736,676.71c-.16-.159-.162-10.692,7.979-3.512,4.948,4.308-1.117-.8-.32-3.192,3.031-8.139,7.34-2.236,11.49.636l-7.183-6.222c.479-2.075,8.617-.96,10.533,2.551l-.8,4.947c-3.51,1.6-8.3-4.467-11.011,3.672-1.595,4.788-1.115,8.459-.8,9.1,0,.638-2.873-2.553-4.469-3.829Z" transform="translate(-480.964 -658.991)" fill="#f4d366" fill-rule="evenodd"/>
            </g>
            <path id="Path_1515" data-name="Path 1515" d="M509.153,750.14l-1.915,2.554c15.162,7.817,29.206,14.516,43.252,24.726-14.2-6.539-24.1-15.474-40.856-10.524-16.914,5.111-25.213,3.516-25.213,3.516,12.449,8.615,19.311,7.5,34.791,7.972,24.895.634,34.791,11.8,53.145,17.065,4.15,3.829,21.07,23.614,15.163,11.008-1.756-3.67-6.7-8.935-13.089-14.679l-13.412-32.552C552.4,742.311,527.5,710.4,540.9,695.4c5.265-5.906-23.777,4.633-5.256,48.035,1.437,3.032,5.108,9.255,9.578,16.275-12.291-15.8-19.635-30.795-28.576-48.347l-2.712,1.756a261.958,261.958,0,0,0,39.11,62.069C537.242,763.858,526.23,757.956,509.153,750.14Z" transform="translate(-474.693 -666.998)" fill="#006837" fill-rule="evenodd"/>
          </g>
          <g id="Group_404" data-name="Group 404" transform="translate(0 52.847)">
            <path id="Path_1516" data-name="Path 1516" d="M408.346,734.9v77.475s-19.933,11.283-41.747,0V734.521S385.028,725.87,408.346,734.9Z" transform="translate(-366.599 -729.527)" fill="#ece5e2" fill-rule="evenodd"/>
            <path id="Path_1517" data-name="Path 1517" d="M408.346,734.447a45.493,45.493,0,0,1-41.747-.376A59.921,59.921,0,0,1,408.346,734.447Z" transform="translate(-366.599 -729.453)" fill="#ded9d5" fill-rule="evenodd"/>
            <path id="Path_1518" data-name="Path 1518" d="M405.541,738.184s-16.9-3.5-29.989,0A43.806,43.806,0,0,0,405.541,738.184Z" transform="translate(-368.948 -731.06)" fill="#fff" fill-rule="evenodd"/>
            <path id="Path_1519" data-name="Path 1519" d="M394.806,738.17s2.669,0,0-5-2-4-2-4S389.133,740.506,394.806,738.17Z" transform="translate(-373.169 -729.079)" fill="#fbb03b" fill-rule="evenodd"/>
            <path id="Path_1520" data-name="Path 1520" d="M366.68,750.867s8.157,5.188,20.718,4.862l-.163,50.9a25.191,25.191,0,0,1-20.555-4.568Z" transform="translate(-366.62 -734.797)" fill="#ded9d5" fill-rule="evenodd"/>
          </g>
          <g id="Group_405" data-name="Group 405" transform="translate(210.863 77.586)">
            <path id="Path_1521" data-name="Path 1521" d="M694.229,768.436v77.475s-19.933,11.283-41.747,0V768.06S670.911,759.41,694.229,768.436Z" transform="translate(-652.482 -763.067)" fill="#ece5e2" fill-rule="evenodd"/>
            <path id="Path_1522" data-name="Path 1522" d="M694.229,767.986a45.493,45.493,0,0,1-41.747-.376A59.926,59.926,0,0,1,694.229,767.986Z" transform="translate(-652.482 -762.992)" fill="#ded9d5" fill-rule="evenodd"/>
            <path id="Path_1523" data-name="Path 1523" d="M691.424,771.723s-16.9-3.5-29.99,0A43.806,43.806,0,0,0,691.424,771.723Z" transform="translate(-654.831 -764.6)" fill="#fff" fill-rule="evenodd"/>
            <path id="Path_1524" data-name="Path 1524" d="M680.689,771.71s2.669,0,0-5.005-2-4-2-4S675.016,774.045,680.689,771.71Z" transform="translate(-659.052 -762.619)" fill="#fbb03b" fill-rule="evenodd"/>
            <path id="Path_1525" data-name="Path 1525" d="M652.563,784.407s8.157,5.188,20.718,4.861l-.163,50.9a25.191,25.191,0,0,1-20.555-4.568Z" transform="translate(-652.503 -768.336)" fill="#ded9d5" fill-rule="evenodd"/>
          </g>
          <g id="Group_406" data-name="Group 406" transform="translate(78.751 40.494)">
            <path id="Path_1526" data-name="Path 1526" d="M515.115,718.149v77.475s-19.933,11.283-41.747,0V717.773S491.8,709.123,515.115,718.149Z" transform="translate(-473.368 -712.779)" fill="#ece5e2" fill-rule="evenodd"/>
            <path id="Path_1527" data-name="Path 1527" d="M515.115,717.7a45.493,45.493,0,0,1-41.747-.376A59.921,59.921,0,0,1,515.115,717.7Z" transform="translate(-473.368 -712.705)" fill="#ded9d5" fill-rule="evenodd"/>
            <path id="Path_1528" data-name="Path 1528" d="M512.31,721.436s-16.9-3.5-29.99,0A43.807,43.807,0,0,0,512.31,721.436Z" transform="translate(-475.717 -714.312)" fill="#fff" fill-rule="evenodd"/>
            <path id="Path_1529" data-name="Path 1529" d="M501.575,721.422s2.669,0,0-5-2-4-2-4S495.9,723.758,501.575,721.422Z" transform="translate(-479.938 -712.331)" fill="#fbb03b" fill-rule="evenodd"/>
            <path id="Path_1530" data-name="Path 1530" d="M473.449,734.119s8.157,5.188,20.718,4.862l-.163,50.9a25.191,25.191,0,0,1-20.555-4.568Z" transform="translate(-473.389 -718.049)" fill="#ded9d5" fill-rule="evenodd"/>
          </g>
          <g id="Group_407" data-name="Group 407" transform="translate(38.871 51.978)">
            <path id="Path_1531" data-name="Path 1531" d="M419.3,735.336V834.37s25.479,14.422,53.362,0V734.855S449.1,723.8,419.3,735.336Z" transform="translate(-419.299 -728.472)" fill="#ece5e2" fill-rule="evenodd"/>
            <path id="Path_1532" data-name="Path 1532" d="M419.3,734.76a58.149,58.149,0,0,0,53.362-.48A76.591,76.591,0,0,0,419.3,734.76Z" transform="translate(-419.299 -728.377)" fill="#ded9d5" fill-rule="evenodd"/>
            <path id="Path_1533" data-name="Path 1533" d="M428.23,739.538s21.6-4.476,38.334,0A55.992,55.992,0,0,1,428.23,739.538Z" transform="translate(-421.643 -730.432)" fill="#fff" fill-rule="evenodd"/>
            <path id="Path_1534" data-name="Path 1534" d="M453.61,739.52s-3.412,0,0-6.4S456.169,728,456.169,728,460.861,742.506,453.61,739.52Z" transform="translate(-427.905 -727.9)" fill="#fbb03b" fill-rule="evenodd"/>
            <path id="Path_1535" data-name="Path 1535" d="M482.121,755.75s-10.427,6.632-26.483,6.215l.209,65.061s13.971,3.754,26.274-5.839Z" transform="translate(-428.835 -735.208)" fill="#ded9d5" fill-rule="evenodd"/>
          </g>
          <g id="Group_408" data-name="Group 408" transform="translate(97.029 58.984)">
            <path id="Path_1536" data-name="Path 1536" d="M498.149,744.834v99.033s25.48,14.422,53.363,0V744.354S527.956,733.3,498.149,744.834Z" transform="translate(-498.149 -737.97)" fill="#ece5e2" fill-rule="evenodd"/>
            <path id="Path_1537" data-name="Path 1537" d="M498.149,744.259a58.152,58.152,0,0,0,53.363-.481A76.6,76.6,0,0,0,498.149,744.259Z" transform="translate(-498.149 -737.876)" fill="#ded9d5" fill-rule="evenodd"/>
            <path id="Path_1538" data-name="Path 1538" d="M507.08,749.036s21.6-4.476,38.335,0A56,56,0,0,1,507.08,749.036Z" transform="translate(-500.493 -739.93)" fill="#fff" fill-rule="evenodd"/>
            <path id="Path_1539" data-name="Path 1539" d="M532.46,749.019s-3.412,0,0-6.4,2.559-5.118,2.559-5.118S539.711,752,532.46,749.019Z" transform="translate(-506.755 -737.398)" fill="#fbb03b" fill-rule="evenodd"/>
            <path id="Path_1540" data-name="Path 1540" d="M558.236,765.249a62.62,62.62,0,0,1-34.17,5.12l.209,65.06s19.085,7.448,33.961-4.743Z" transform="translate(-504.95 -744.707)" fill="#ded9d5" fill-rule="evenodd"/>
          </g>
          <g id="Group_409" data-name="Group 409" transform="translate(151.564 75.476)">
            <path id="Path_1541" data-name="Path 1541" d="M572.085,767.194v99.034s25.479,14.422,53.362,0V766.713S601.891,755.656,572.085,767.194Z" transform="translate(-572.085 -760.33)" fill="#ece5e2" fill-rule="evenodd"/>
            <path id="Path_1542" data-name="Path 1542" d="M572.085,766.618a58.148,58.148,0,0,0,53.362-.481A76.6,76.6,0,0,0,572.085,766.618Z" transform="translate(-572.085 -760.235)" fill="#ded9d5" fill-rule="evenodd"/>
            <path id="Path_1543" data-name="Path 1543" d="M581.015,771.4s21.6-4.476,38.335,0A56,56,0,0,1,581.015,771.4Z" transform="translate(-574.428 -762.29)" fill="#fff" fill-rule="evenodd"/>
            <path id="Path_1544" data-name="Path 1544" d="M606.4,771.378s-3.412,0,0-6.4,2.559-5.118,2.559-5.118S613.646,774.364,606.4,771.378Z" transform="translate(-580.69 -759.758)" fill="#fbb03b" fill-rule="evenodd"/>
            <path id="Path_1545" data-name="Path 1545" d="M634.907,787.608s-10.426,6.632-26.483,6.215l.208,65.061s13.971,3.753,26.275-5.839Z" transform="translate(-581.621 -767.066)" fill="#ded9d5" fill-rule="evenodd"/>
          </g>
          <g id="Group_410" data-name="Group 410" transform="translate(263.049 70.25)">
            <path id="Path_1546" data-name="Path 1546" d="M723.234,760.109v99.033s25.479,14.423,53.362,0V759.628S753.04,748.571,723.234,760.109Z" transform="translate(-723.234 -753.245)" fill="#ece5e2" fill-rule="evenodd"/>
            <path id="Path_1547" data-name="Path 1547" d="M723.234,759.533a58.148,58.148,0,0,0,53.362-.481A76.594,76.594,0,0,0,723.234,759.533Z" transform="translate(-723.234 -753.15)" fill="#ded9d5" fill-rule="evenodd"/>
            <path id="Path_1548" data-name="Path 1548" d="M732.164,764.311s21.6-4.476,38.335,0A56,56,0,0,1,732.164,764.311Z" transform="translate(-725.577 -755.205)" fill="#fff" fill-rule="evenodd"/>
            <path id="Path_1549" data-name="Path 1549" d="M757.544,764.293s-3.412,0,0-6.4,2.559-5.117,2.559-5.117S764.795,767.279,757.544,764.293Z" transform="translate(-731.84 -752.673)" fill="#fbb03b" fill-rule="evenodd"/>
            <path id="Path_1550" data-name="Path 1550" d="M786.056,780.523s-10.427,6.632-26.483,6.215l.209,65.06s13.971,3.754,26.274-5.839Z" transform="translate(-732.77 -759.982)" fill="#ded9d5" fill-rule="evenodd"/>
          </g>
          <g id="Group_411" data-name="Group 411" transform="translate(330.985 58.056)">
            <path id="Path_1551" data-name="Path 1551" d="M815.34,743.577v99.034s25.479,14.422,53.363,0V743.1S845.146,732.039,815.34,743.577Z" transform="translate(-815.34 -736.713)" fill="#ece5e2" fill-rule="evenodd"/>
            <path id="Path_1552" data-name="Path 1552" d="M815.34,743a58.149,58.149,0,0,0,53.363-.481A76.6,76.6,0,0,0,815.34,743Z" transform="translate(-815.34 -736.618)" fill="#ded9d5" fill-rule="evenodd"/>
            <path id="Path_1553" data-name="Path 1553" d="M824.271,747.779s21.6-4.476,38.334,0A56,56,0,0,1,824.271,747.779Z" transform="translate(-817.684 -738.673)" fill="#fff" fill-rule="evenodd"/>
            <path id="Path_1554" data-name="Path 1554" d="M849.651,747.761s-3.412,0,0-6.4,2.559-5.117,2.559-5.117S856.9,750.747,849.651,747.761Z" transform="translate(-823.946 -736.141)" fill="#fbb03b" fill-rule="evenodd"/>
            <path id="Path_1555" data-name="Path 1555" d="M878.162,763.991s-10.426,6.632-26.483,6.215l.209,65.061s13.971,3.753,26.274-5.839Z" transform="translate(-824.876 -743.449)" fill="#ded9d5" fill-rule="evenodd"/>
          </g>
          <g id="Group_412" data-name="Group 412" transform="translate(310.082 96.379)">
            <path id="Path_1556" data-name="Path 1556" d="M787,795.535v99.033s25.479,14.422,53.362,0V795.054S816.806,784,787,795.535Z" transform="translate(-787 -788.671)" fill="#ece5e2" fill-rule="evenodd"/>
            <path id="Path_1557" data-name="Path 1557" d="M787,794.959a58.15,58.15,0,0,0,53.362-.481A76.594,76.594,0,0,0,787,794.959Z" transform="translate(-787 -788.576)" fill="#ded9d5" fill-rule="evenodd"/>
            <path id="Path_1558" data-name="Path 1558" d="M795.93,799.736s21.6-4.476,38.335,0A56,56,0,0,1,795.93,799.736Z" transform="translate(-789.343 -790.63)" fill="#fff" fill-rule="evenodd"/>
            <path id="Path_1559" data-name="Path 1559" d="M821.31,799.719s-3.412,0,0-6.4,2.559-5.118,2.559-5.118S828.561,802.7,821.31,799.719Z" transform="translate(-795.606 -788.098)" fill="#fbb03b" fill-rule="evenodd"/>
            <path id="Path_1560" data-name="Path 1560" d="M849.822,815.949s-10.427,6.632-26.483,6.215l.209,65.06s13.971,3.754,26.274-5.839Z" transform="translate(-796.536 -795.407)" fill="#ded9d5" fill-rule="evenodd"/>
          </g>
          <g id="Group_413" data-name="Group 413" transform="translate(377.594 90.942)">
            <path id="Path_1561" data-name="Path 1561" d="M878.531,788.163V887.2s25.479,14.422,53.363,0V787.682S908.337,776.625,878.531,788.163Z" transform="translate(-878.531 -781.299)" fill="#ece5e2" fill-rule="evenodd"/>
            <path id="Path_1562" data-name="Path 1562" d="M878.531,787.587a58.149,58.149,0,0,0,53.363-.481A76.6,76.6,0,0,0,878.531,787.587Z" transform="translate(-878.531 -781.204)" fill="#ded9d5" fill-rule="evenodd"/>
            <path id="Path_1563" data-name="Path 1563" d="M887.462,792.365s21.6-4.476,38.335,0A56,56,0,0,1,887.462,792.365Z" transform="translate(-880.875 -783.259)" fill="#fff" fill-rule="evenodd"/>
            <path id="Path_1564" data-name="Path 1564" d="M912.843,792.347s-3.412,0,0-6.4,2.559-5.117,2.559-5.117S920.093,795.333,912.843,792.347Z" transform="translate(-887.137 -780.727)" fill="#fbb03b" fill-rule="evenodd"/>
            <path id="Path_1565" data-name="Path 1565" d="M941.353,808.577s-10.427,6.632-26.483,6.215l.209,65.061s13.971,3.753,26.274-5.839Z" transform="translate(-888.067 -788.035)" fill="#ded9d5" fill-rule="evenodd"/>
          </g>
          <g id="Group_414" data-name="Group 414" transform="translate(438.568 96.168)">
            <path id="Path_1566" data-name="Path 1566" d="M980.084,795.248v99.033s25.48,14.422,53.363,0V794.767S1009.891,783.71,980.084,795.248Z" transform="translate(-980.084 -788.384)" fill="#ece5e2" fill-rule="evenodd"/>
            <path id="Path_1567" data-name="Path 1567" d="M980.084,794.672a58.151,58.151,0,0,0,53.363-.48A76.594,76.594,0,0,0,980.084,794.672Z" transform="translate(-980.084 -788.289)" fill="#ded9d5" fill-rule="evenodd"/>
            <path id="Path_1568" data-name="Path 1568" d="M989.015,799.45s21.6-4.476,38.335,0A56,56,0,0,1,989.015,799.45Z" transform="translate(-982.427 -790.344)" fill="#fff" fill-rule="evenodd"/>
            <path id="Path_1569" data-name="Path 1569" d="M1014.4,799.432s-3.412,0,0-6.4,2.559-5.118,2.559-5.118S1021.646,802.418,1014.4,799.432Z" transform="translate(-988.69 -787.812)" fill="#fbb03b" fill-rule="evenodd"/>
            <path id="Path_1570" data-name="Path 1570" d="M1042.907,815.662s-10.426,6.632-26.483,6.215l.208,65.061s13.971,3.754,26.275-5.839Z" transform="translate(-989.62 -795.12)" fill="#ded9d5" fill-rule="evenodd"/>
          </g>
          <g id="Group_415" data-name="Group 415" transform="translate(500.373 99.346)">
            <path id="Path_1571" data-name="Path 1571" d="M1074.553,790.677V891.738s26,14.718,54.455,0V790.186S1104.969,778.9,1074.553,790.677Z" transform="translate(-1074.553 -783.672)" fill="#ece5e2" fill-rule="evenodd"/>
            <path id="Path_1572" data-name="Path 1572" d="M1074.553,790.089a59.341,59.341,0,0,0,54.455-.49S1103.5,778.806,1074.553,790.089Z" transform="translate(-1074.553 -783.575)" fill="#ded9d5" fill-rule="evenodd"/>
            <path id="Path_1573" data-name="Path 1573" d="M1083.666,794.965s22.042-4.567,39.119,0A57.139,57.139,0,0,1,1083.666,794.965Z" transform="translate(-1076.944 -785.672)" fill="#fff" fill-rule="evenodd"/>
            <path id="Path_1574" data-name="Path 1574" d="M1109.566,794.946s-3.482,0,0-6.528,2.611-5.223,2.611-5.223S1116.965,797.993,1109.566,794.946Z" transform="translate(-1083.334 -783.089)" fill="#fbb03b" fill-rule="evenodd"/>
            <path id="Path_1575" data-name="Path 1575" d="M1138.661,811.509s-10.64,6.768-27.025,6.342l.213,66.392s14.257,3.831,26.812-5.958Z" transform="translate(-1084.284 -790.546)" fill="#ded9d5" fill-rule="evenodd"/>
          </g>
          <g id="Group_417" data-name="Group 417" transform="translate(578.937 132.372)">
            <g id="Group_416" data-name="Group 416">
              <path id="Path_1576" data-name="Path 1576" d="M1151.506,900.194l18.361-.611,1.275,6.9.373,2.021,2.046-.2,80.45-7.7,2.437-.234-.445-2.407-10.911-59.049-.373-2.021-2.046.2-80.448,7.7-2.437.233.443,2.408,3.524,19.071Zm15.418-49.387,73.008-6.987,9.38,50.773L1176.3,901.58Z" transform="translate(-1151.506 -836.897)" fill="#603813"/>
            </g>
            <path id="Path_1577" data-name="Path 1577" d="M1172.409,853.27l9.379,50.773,73.009-6.987-9.381-50.773Z" transform="translate(-1156.991 -839.36)" fill="#e6e6e6"/>
            <line id="Line_28" data-name="Line 28" x1="16.874" y2="14.098" transform="translate(59.532 28.071)" stroke="#603813" stroke-miterlimit="10" stroke-width="1"/>
            <line id="Line_29" data-name="Line 29" x1="12.266" y2="10.684" transform="translate(69.283 37.172)" stroke="#603813" stroke-miterlimit="10" stroke-width="1"/>
          </g>
          <g id="Group_419" data-name="Group 419" transform="translate(196.749 141.727)">
            <g id="Group_418" data-name="Group 418">
              <rect id="Rectangle_98" data-name="Rectangle 98" width="41.688" height="46.973" transform="translate(1.262 14.742) rotate(-18.608)" fill="#f2f2f2"/>
              <path id="Path_1578" data-name="Path 1578" d="M673.858,849.644l-39.705,13.368a1.165,1.165,0,0,0-.742,1.495l18.075,53.686a1.164,1.164,0,0,0,1.494.741l39.7-13.367a1.165,1.165,0,0,0,.742-1.5l-18.075-53.686A1.165,1.165,0,0,0,673.858,849.644Zm13.333,43.531a1.164,1.164,0,0,1-.742,1.494l-35.091,11.815a1.165,1.165,0,0,1-1.5-.741l-13.368-39.7a1.165,1.165,0,0,1,.742-1.5l35.021-11.791a1.165,1.165,0,0,1,1.5.742l13.368,39.7Z" transform="translate(-633.346 -849.579)" fill="#333"/>
            </g>
            <line id="Line_30" data-name="Line 30" x1="5.952" y2="6.613" transform="translate(20.373 25.024)" fill="#333" stroke="#000" stroke-miterlimit="10" stroke-width="0.5"/>
            <line id="Line_31" data-name="Line 31" x1="8.156" y2="9.699" transform="translate(23.238 26.126)" fill="#333" stroke="#000" stroke-miterlimit="10" stroke-width="0.5"/>
          </g>
          <g id="Group_422" data-name="Group 422" transform="translate(250.096 131.83)">
            <g id="Group_420" data-name="Group 420" transform="translate(0)">
              <rect id="Rectangle_99" data-name="Rectangle 99" width="41.688" height="46.973" transform="matrix(1, 0.012, -0.012, 1, 1.867, 1.386)" fill="#f2f2f2"/>
              <path id="Path_1579" data-name="Path 1579" d="M708.517,878.457s9.568,1.23,11.869-1.49,5.229-17.361,12.342-17.78,12.341,8.786,14.433,13.806l1.581.3-.123,16.976-40.471-.246Z" transform="translate(-706.322 -842.2)" fill="#ece5e2" opacity="0.47"/>
              <path id="Path_1580" data-name="Path 1580" d="M749.435,836.662l-41.892-.5a1.166,1.166,0,0,0-1.194,1.166l-.676,56.643a1.165,1.165,0,0,0,1.166,1.194l41.892.5a1.165,1.165,0,0,0,1.194-1.166l.676-56.642A1.166,1.166,0,0,0,749.435,836.662Zm-1.8,45.491a1.165,1.165,0,0,1-1.194,1.166l-37.024-.442a1.165,1.165,0,0,1-1.166-1.194l.5-41.892a1.164,1.164,0,0,1,1.194-1.165l36.951.44a1.166,1.166,0,0,1,1.166,1.194l-.5,41.892Z" transform="translate(-705.673 -836.162)" fill="#333"/>
            </g>
            <g id="Group_421" data-name="Group 421" transform="translate(9.944 7.982)">
              <line id="Line_32" data-name="Line 32" x1="11.259" y2="5.816" fill="#333" stroke="#000" stroke-miterlimit="10" stroke-width="0.5"/>
              <line id="Line_33" data-name="Line 33" x1="7.463" y2="3.855" transform="translate(1.167 6.726)" fill="#333" stroke="#000" stroke-miterlimit="10" stroke-width="0.5"/>
            </g>
          </g>
        </g>
      </g>
      <g id="Group_431" data-name="Group 431" transform="translate(0 62.296)">
        <g id="Group_433" data-name="Group 433" transform="translate(162.096 0.051)">
          <path id="Path_1490-2" data-name="Path 1490" d="M887.333,734.8l1.741-1.974,19.352,12.7c11.137,6.977,26.025,8.431,40.208,10.846-1.679-.935-3.024-1.92-4.511-2.714l-13.072-9.577,1.741-1.974,19.352,12.7a53.759,53.759,0,0,0,7.766,3.917,31.808,31.808,0,0,1,4.447,1.189c1.435.461,2.678.781,3.587,1.152,7.458,1.918,15.287,2.927,23.166,4.268-7.574-3.776-10.033-2.033-17.338-7.385-9.612-7.042-20.568-10.637-23.829-25.138-3.209-14.168-7.8-19.6-7.8-19.6,11.456,5.735,13.47,11.05,19.932,21.989,10.347,17.33,22.059,20.3,33.235,30.849,4.395.856,8.982,1.853,13.095,3.095,6.651,2.213,6.087,2.982.975,1.9-6.688-1.355-17.758-2.375-29.7-4.624.3.807-2.665.411-3.331.514l-22.612,2.637c-11.479.749-35.977-3.314-40.135,8.41-1.664,4.69-4.734-14.1,24.117-17.192,3.856-.425,15.067.4,24.945,1.436a36.137,36.137,0,0,1-4.69-1.663c-15.849-2.158-41.141-4.734-57.571-16.181Z" transform="translate(-853.116 -702.577)" fill="#007437" fill-rule="evenodd"/>
          <g id="Group_439" data-name="Group 439">
            <path id="Path_1491-2" data-name="Path 1491" d="M1112.853,694.782c2.872,5.354-4.1-.05,8.68,13.154,5.639,5.609,5.156,13.527,1.711,16.616h0c-.051-.333-.384-.282-.525-.09-5.213,2.68-8.47-2.956-10.752-6.7l-.193-.141a26.153,26.153,0,0,0-2.591-5.738,15.444,15.444,0,0,0-1.936-2.6c-1.012-1.037-3.614-3.534-5.523-3.751-.577-.423-.628-.755-.628-.755h0l.141-.193h0c.333-.051.333-.051.474-.244h0c.192.141.525.09,1.14-.347h0l.192.141.474-.244h0a21.789,21.789,0,0,0,2.088-.834c4.254,1.049,13.269,18.584,13.653,18.866l-5.988-11.182c-1.359-2.177-4.974-5.711-7.05-8.119-.051-.333-.628-.756-1.359-2.178-.641-1.947,2.9-1.129,4.523-.527,1.153.845.936,2.754,5.128,6.711,5.063,5.186,5.6,6.467,7.245,12.693.693,2.28,1.1-3.921-5.078-10.811-4.1-4.482-5.948-7.607-6.59-9.555h0a14.18,14.18,0,0,1,.011-3.241C1110.752,694.424,1112.8,694.448,1112.853,694.782Z" transform="translate(-1087.671 -694.588)" fill="#ad5077" fill-rule="evenodd"/>
            <path id="Path_1492-2" data-name="Path 1492" d="M1106.1,733.132a3.45,3.45,0,0,1,1.741-1.974c3.574-.041,8.736-3.053,16.489-.328.717.231,3.268,2.395,4.267,2.24,2.474,3.881,5.782,9.85,11.277,6.785,1.755-.782-8.784,11.586-21.639.1-2.41-2.356-7.28-7.4-11.419-6.593C1106.482,733.413,1106.008,733.657,1106.1,733.132Z" transform="translate(-1104.773 -709.648)" fill="#ad5077" fill-rule="evenodd"/>
            <path id="Path_1493-2" data-name="Path 1493" d="M1138.959,699.692c-1.96-.55-6.214-1.6-5.137.963a7.028,7.028,0,0,0,1.307,1.844,11.246,11.246,0,0,1-3.036,1.321,8.38,8.38,0,0,0-2.088.834l-.141.192h0c-2.09-3.6,2.994-9.328,5.991-9.791,4.523-.528,2.537.972,3,3.97Z" transform="translate(-1116.965 -694.744)" fill="#ad5077" fill-rule="evenodd"/>
            <path id="Path_1494-2" data-name="Path 1494" d="M1126.936,721.659c3.422,3.393,8.07-2.951,19.218.785a43.333,43.333,0,0,1,3.986,2.625,20.187,20.187,0,0,0-2.59-5.738,6.643,6.643,0,0,0-1.744-2.459c-1.833-1.934-4.717-4.046-6-3.508-.333.051-.09.525-.231.718-1.817,3.691.5,2.139-8.785,7.153l6.532-4.077c3.727-3.474,1.239-8.546-4.191-3.957-3.727,3.474,1.18,3.228.847,3.28-1.459,1.589-3.281-3.586-7.25,3.847A.873.873,0,0,0,1126.936,721.659Z" transform="translate(-1126.51 -701.788)" fill="#ad5077" fill-rule="evenodd"/>
            <path id="Path_1495-2" data-name="Path 1495" d="M1039.663,740.945a76.967,76.967,0,0,0-7.917-.484c-4.382.335,12.937,23.069,30.871,15.527,3.369-1.373,2.933-1.987,2.215-2.218l-.333.051a6.393,6.393,0,0,1-3.2-.87,28.834,28.834,0,0,1-3.986-2.625,58.041,58.041,0,0,0-5.19-3.8,50.428,50.428,0,0,0-5.28-3.277c-1.627-.6-2.922-1.254-4.165-1.574l-2.626-.447Z" transform="translate(-987.205 -714.27)" fill="#ad5077" fill-rule="evenodd"/>
            <path id="Path_1496-2" data-name="Path 1496" d="M1024.767,709.436a15.253,15.253,0,0,0-1.33,4.638,17.9,17.9,0,0,0,.963,5.137,14.51,14.51,0,0,0,4.128,6.865c1.974,1.741,1.692,2.126,2.719,4.355a22.833,22.833,0,0,0,4.461,6.814c1.013,1.037,1.129,2.895,1.321,3.036s.858.038,1.422-.731c1.178-1.2,2.457-6.177,2.725-7.753a18.808,18.808,0,0,0-2.132-11.607c-1.757-3.651-5.9-7.275-9.5-9.617C1028.252,709.922,1025.7,707.758,1024.767,709.436Z" transform="translate(-958.878 -700.691)" fill="#ad5077" fill-rule="evenodd"/>
            <path id="Path_1497-2" data-name="Path 1497" d="M1033.387,723.022a79.95,79.95,0,0,1,6.679,9.029c.192.141.385.281.666-.1.474-.244-5.807-7.8-6.487-8.889a1.8,1.8,0,0,1-.488-.948c.474-.243,1.563-.923,2.088-.834,1.243.32,8.474,11.822,11.179,14.985a.831.831,0,0,0,.525.09c.615-.436-10.564-15.421-10.9-15.37a2.878,2.878,0,0,1,1.665-.257,18.939,18.939,0,0,1,5.075,1.945,3.493,3.493,0,0,1,1.833,1.934,16.7,16.7,0,0,0,4.321,7.006c1.781,1.6,1.692,2.126,2.718,4.355a21.054,21.054,0,0,0,4.462,6.814c.384.281.539,1.281.974,1.9a12.8,12.8,0,0,1-2.819-.588c-2.781-1.447-6.2-4.84-9.035-6.62-4.9-3-8.778-4.954-12.4-5.247a22.7,22.7,0,0,1-.7-6.713A12.987,12.987,0,0,1,1033.387,723.022Z" transform="translate(-980.51 -705.789)" fill="#ad5077" fill-rule="evenodd"/>
            <path id="Path_1498-2" data-name="Path 1498" d="M1081.15,716.417a4.736,4.736,0,0,0-1.538-1.127,4.482,4.482,0,0,0-4.4-.856c-1,.154-1.281.539-2.28.693a3.871,3.871,0,0,0-2.229,1.026c-1.46,1.589-2.037,1.167-2.676,3.652-.55,1.961-.255,2.768.528,4.523.628.755,1.167,2.036,1.6,2.651s1.012,1.037,1.256,1.511c.193.141.1.666.1.666s4.152.382,4.485.331c1.05.179,1.243.32,1-.154-.051-.333-.449-1.806-.655-3.139-.167-2.191-.5-6.572,2.008-7.983.948-.487,2.139-.5,3.087-.988a.233.233,0,0,0,.333-.051l-.436-.615Z" transform="translate(-1024.598 -702.99)" fill="#ad5077" fill-rule="evenodd"/>
            <path id="Path_1499-2" data-name="Path 1499" d="M1062.248,705.676c-2.461-2.689-11.752-6.542-10.1-3.557.488.948,4.435,4.431,4.154,4.815.051.333-5.076-6.378-8.061-4.724-.615.436-4.994,5.2-2.509,5.844,3.255,1.2,2.448,1.5,4.614,3.38.436.615.961.7,1.679.935,4.447,1.189,5.177,2.611,5.28,3.277l.192.14c-.641-1.947-1.412-6.943.367-9.775,1.076-1.871,3.472-.706,4.818.28A.876.876,0,0,1,1062.248,705.676Z" transform="translate(-992.503 -697.355)" fill="#ad5077" fill-rule="evenodd"/>
          </g>
        </g>
        <g id="Group_427-2" data-name="Group 427" transform="translate(0 0)">
          <g id="Group_392-2" data-name="Group 392" transform="translate(0 1.724)">
            <path id="Path_1440-2" data-name="Path 1440" d="M677.517,717.332v56.1s-15.337,8.17-32.12,0V717.06S659.576,710.8,677.517,717.332Z" transform="translate(-645.397 -713.373)" fill="#ece5e2" fill-rule="evenodd"/>
            <path id="Path_1441-2" data-name="Path 1441" d="M677.517,717.214a34.553,34.553,0,0,1-32.12-.293A45.474,45.474,0,0,1,677.517,717.214Z" transform="translate(-645.397 -713.315)" fill="#ded9d5" fill-rule="evenodd"/>
            <path id="Path_1442-2" data-name="Path 1442" d="M675.807,720.133s-13.2-2.734-23.419,0A34.207,34.207,0,0,0,675.807,720.133Z" transform="translate(-647.711 -714.57)" fill="#fff" fill-rule="evenodd"/>
            <path id="Path_1443-2" data-name="Path 1443" d="M667.423,720.122s2.084,0,0-3.908-1.563-3.127-1.563-3.127S662.994,721.946,667.423,720.122Z" transform="translate(-650.764 -713.023)" fill="#fbb03b" fill-rule="evenodd"/>
            <path id="Path_1444-2" data-name="Path 1444" d="M645.46,730.037a33.856,33.856,0,0,0,16.179,3.372l-.128,35.3a21.744,21.744,0,0,1-16.051-3.168Z" transform="translate(-645.413 -717.488)" fill="#ded9d5" fill-rule="evenodd"/>
          </g>
          <g id="Group_393-2" data-name="Group 393" transform="translate(24.517 23.843)">
            <path id="Path_1445-2" data-name="Path 1445" d="M733.407,717.992v60.5s-15.566,8.811-32.6,0V717.7S715.2,710.943,733.407,717.992Z" transform="translate(-700.807 -713.799)" fill="#ece5e2" fill-rule="evenodd"/>
            <path id="Path_1446-2" data-name="Path 1446" d="M733.407,717.64a35.524,35.524,0,0,1-32.6-.294A46.793,46.793,0,0,1,733.407,717.64Z" transform="translate(-700.807 -713.741)" fill="#ded9d5" fill-rule="evenodd"/>
            <path id="Path_1447-2" data-name="Path 1447" d="M731.217,720.559s-13.2-2.734-23.419,0A34.207,34.207,0,0,0,731.217,720.559Z" transform="translate(-702.641 -714.996)" fill="#fff" fill-rule="evenodd"/>
            <path id="Path_1448-2" data-name="Path 1448" d="M722.833,720.548s2.084,0,0-3.908-1.563-3.127-1.563-3.127S718.4,722.372,722.833,720.548Z" transform="translate(-705.938 -713.449)" fill="#fbb03b" fill-rule="evenodd"/>
            <path id="Path_1449-2" data-name="Path 1449" d="M700.87,730.463a30.873,30.873,0,0,0,16.179,3.8l-.128,39.746a19.674,19.674,0,0,1-16.051-3.567Z" transform="translate(-700.823 -717.914)" fill="#ded9d5" fill-rule="evenodd"/>
          </g>
          <g id="Group_410-2" data-name="Group 410" transform="translate(48.932 10.377)">
            <path id="Path_1546-2" data-name="Path 1546" d="M723.234,760.109v99.033s25.479,14.423,53.362,0V759.628S753.04,748.571,723.234,760.109Z" transform="translate(-723.234 -753.245)" fill="#ece5e2" fill-rule="evenodd"/>
            <path id="Path_1547-2" data-name="Path 1547" d="M723.234,759.533a58.148,58.148,0,0,0,53.362-.481A76.594,76.594,0,0,0,723.234,759.533Z" transform="translate(-723.234 -753.15)" fill="#ded9d5" fill-rule="evenodd"/>
            <path id="Path_1548-2" data-name="Path 1548" d="M732.164,764.311s21.6-4.476,38.335,0A56,56,0,0,1,732.164,764.311Z" transform="translate(-725.577 -755.205)" fill="#fff" fill-rule="evenodd"/>
            <path id="Path_1549-2" data-name="Path 1549" d="M757.544,764.293s-3.412,0,0-6.4,2.559-5.117,2.559-5.117S764.795,767.279,757.544,764.293Z" transform="translate(-731.84 -752.673)" fill="#fbb03b" fill-rule="evenodd"/>
            <path id="Path_1550-2" data-name="Path 1550" d="M786.056,780.523s-10.427,6.632-26.483,6.215l.209,65.06s13.971,3.754,26.274-5.839Z" transform="translate(-732.77 -759.982)" fill="#ded9d5" fill-rule="evenodd"/>
          </g>
          <g id="Group_411-2" data-name="Group 411" transform="translate(107.178 0)">
            <path id="Path_1551-2" data-name="Path 1551" d="M815.34,743.577v99.034s25.479,14.422,53.363,0V743.1S845.146,732.039,815.34,743.577Z" transform="translate(-815.34 -736.713)" fill="#ece5e2" fill-rule="evenodd"/>
            <path id="Path_1552-2" data-name="Path 1552" d="M815.34,743a58.149,58.149,0,0,0,53.363-.481A76.6,76.6,0,0,0,815.34,743Z" transform="translate(-815.34 -736.618)" fill="#ded9d5" fill-rule="evenodd"/>
            <path id="Path_1553-2" data-name="Path 1553" d="M824.271,747.779s21.6-4.476,38.334,0A56,56,0,0,1,824.271,747.779Z" transform="translate(-817.684 -738.673)" fill="#fff" fill-rule="evenodd"/>
            <path id="Path_1554-2" data-name="Path 1554" d="M849.651,747.761s-3.412,0,0-6.4,2.559-5.117,2.559-5.117S856.9,750.747,849.651,747.761Z" transform="translate(-823.946 -736.141)" fill="#fbb03b" fill-rule="evenodd"/>
            <path id="Path_1555-2" data-name="Path 1555" d="M878.162,763.991s-10.426,6.632-26.483,6.215l.209,65.061s13.971,3.753,26.274-5.839Z" transform="translate(-824.876 -743.449)" fill="#ded9d5" fill-rule="evenodd"/>
          </g>
          <g id="Group_412-2" data-name="Group 412" transform="translate(95.965 36.506)">
            <path id="Path_1556-2" data-name="Path 1556" d="M787,795.535v99.033s25.479,14.422,53.362,0V795.054S816.806,784,787,795.535Z" transform="translate(-787 -788.671)" fill="#ece5e2" fill-rule="evenodd"/>
            <path id="Path_1557-2" data-name="Path 1557" d="M787,794.959a58.15,58.15,0,0,0,53.362-.481A76.594,76.594,0,0,0,787,794.959Z" transform="translate(-787 -788.576)" fill="#ded9d5" fill-rule="evenodd"/>
            <path id="Path_1558-2" data-name="Path 1558" d="M795.93,799.736s21.6-4.476,38.335,0A56,56,0,0,1,795.93,799.736Z" transform="translate(-789.343 -790.63)" fill="#fff" fill-rule="evenodd"/>
            <path id="Path_1559-2" data-name="Path 1559" d="M821.31,799.719s-3.412,0,0-6.4,2.559-5.118,2.559-5.118S828.561,802.7,821.31,799.719Z" transform="translate(-795.606 -788.098)" fill="#fbb03b" fill-rule="evenodd"/>
            <path id="Path_1560-2" data-name="Path 1560" d="M849.822,815.949s-10.427,6.632-26.483,6.215l.209,65.06s13.971,3.754,26.274-5.839Z" transform="translate(-796.536 -795.407)" fill="#ded9d5" fill-rule="evenodd"/>
          </g>
          <g id="Group_413-2" data-name="Group 413" transform="translate(163.477 31.069)">
            <path id="Path_1561-2" data-name="Path 1561" d="M878.531,788.163V887.2s25.479,14.422,53.363,0V787.682S908.337,776.625,878.531,788.163Z" transform="translate(-878.531 -781.299)" fill="#ece5e2" fill-rule="evenodd"/>
            <path id="Path_1562-2" data-name="Path 1562" d="M878.531,787.587a58.149,58.149,0,0,0,53.363-.481A76.6,76.6,0,0,0,878.531,787.587Z" transform="translate(-878.531 -781.204)" fill="#ded9d5" fill-rule="evenodd"/>
            <path id="Path_1563-2" data-name="Path 1563" d="M887.462,792.365s21.6-4.476,38.335,0A56,56,0,0,1,887.462,792.365Z" transform="translate(-880.875 -783.259)" fill="#fff" fill-rule="evenodd"/>
            <path id="Path_1564-2" data-name="Path 1564" d="M912.843,792.347s-3.412,0,0-6.4,2.559-5.117,2.559-5.117S920.093,795.333,912.843,792.347Z" transform="translate(-887.137 -780.727)" fill="#fbb03b" fill-rule="evenodd"/>
            <path id="Path_1565-2" data-name="Path 1565" d="M941.353,808.577s-10.427,6.632-26.483,6.215l.209,65.061s13.971,3.753,26.274-5.839Z" transform="translate(-888.067 -788.035)" fill="#ded9d5" fill-rule="evenodd"/>
          </g>
          <g id="Group_414-2" data-name="Group 414" transform="translate(238.381 36.295)">
            <path id="Path_1566-2" data-name="Path 1566" d="M980.084,795.248v99.033s25.48,14.422,53.363,0V794.767S1009.891,783.71,980.084,795.248Z" transform="translate(-980.084 -788.384)" fill="#ece5e2" fill-rule="evenodd"/>
            <path id="Path_1567-2" data-name="Path 1567" d="M980.084,794.672a58.151,58.151,0,0,0,53.363-.48A76.594,76.594,0,0,0,980.084,794.672Z" transform="translate(-980.084 -788.289)" fill="#ded9d5" fill-rule="evenodd"/>
            <path id="Path_1568-2" data-name="Path 1568" d="M989.015,799.45s21.6-4.476,38.335,0A56,56,0,0,1,989.015,799.45Z" transform="translate(-982.427 -790.344)" fill="#fff" fill-rule="evenodd"/>
            <path id="Path_1569-2" data-name="Path 1569" d="M1014.4,799.432s-3.412,0,0-6.4,2.559-5.118,2.559-5.118S1021.646,802.418,1014.4,799.432Z" transform="translate(-988.69 -787.812)" fill="#fbb03b" fill-rule="evenodd"/>
            <path id="Path_1570-2" data-name="Path 1570" d="M1042.907,815.662s-10.426,6.632-26.483,6.215l.208,65.061s13.971,3.754,26.275-5.839Z" transform="translate(-989.62 -795.12)" fill="#ded9d5" fill-rule="evenodd"/>
          </g>
          <g id="Group_415-2" data-name="Group 415" transform="translate(308.06 32.811)">
            <path id="Path_1571-2" data-name="Path 1571" d="M1074.553,790.677V891.738s26,14.718,54.455,0V790.186S1104.969,778.9,1074.553,790.677Z" transform="translate(-1074.553 -783.672)" fill="#ece5e2" fill-rule="evenodd"/>
            <path id="Path_1572-2" data-name="Path 1572" d="M1074.553,790.089a59.341,59.341,0,0,0,54.455-.49S1103.5,778.806,1074.553,790.089Z" transform="translate(-1074.553 -783.575)" fill="#ded9d5" fill-rule="evenodd"/>
            <path id="Path_1573-2" data-name="Path 1573" d="M1083.666,794.965s22.042-4.567,39.119,0A57.139,57.139,0,0,1,1083.666,794.965Z" transform="translate(-1076.944 -785.672)" fill="#fff" fill-rule="evenodd"/>
            <path id="Path_1574-2" data-name="Path 1574" d="M1109.566,794.946s-3.482,0,0-6.528,2.611-5.223,2.611-5.223S1116.965,797.993,1109.566,794.946Z" transform="translate(-1083.334 -783.089)" fill="#fbb03b" fill-rule="evenodd"/>
            <path id="Path_1575-2" data-name="Path 1575" d="M1138.661,811.509s-10.64,6.768-27.025,6.342l.213,66.392s14.257,3.831,26.812-5.958Z" transform="translate(-1084.284 -790.546)" fill="#ded9d5" fill-rule="evenodd"/>
          </g>
        </g>
      </g>
    </g>
    <text id="Weapons_of_Mass_Injustice_" data-name="Weapons of  Mass Injustice " transform="translate(605.674 47919.641)" fill="#f5f5f5" font-size="50" font-family="Merriweather-Black, Merriweather" font-weight="800"><tspan x="68.318" y="59">Weapons</tspan><tspan y="59" font-size="60"> </tspan><tspan y="59" font-size="30" font-family="Merriweather-Italic, Merriweather" font-weight="400" font-style="italic">of </tspan><tspan y="59"> </tspan><tspan x="25.093" y="131">Mass Injustice </tspan></text>
  </g>
</svg>
