<svg id="Group_427" data-name="Group 427" xmlns="http://www.w3.org/2000/svg" width="245.366" height="283.2" viewBox="0 0 245.366 283.2">
  <g id="Group_418" data-name="Group 418" transform="translate(0)">
    <rect id="Rectangle_98" data-name="Rectangle 98" width="170.068" height="191.626" transform="translate(179.073 241.747) rotate(-161.392)" fill="#f2f2f2"/>
    <path id="Path_1578" data-name="Path 1578" d="M713.445,849.843l161.978,54.535a4.754,4.754,0,0,1,3.027,6.1l-73.738,219.013a4.748,4.748,0,0,1-6.1,3.024l-161.978-54.532a4.754,4.754,0,0,1-3.027-6.1L707.346,852.87A4.754,4.754,0,0,1,713.445,849.843Zm-54.391,177.585a4.75,4.75,0,0,0,3.027,6.1l143.156,48.2a4.751,4.751,0,0,0,6.1-3.024l54.535-161.978a4.753,4.753,0,0,0-3.027-6.1l-142.87-48.1a4.754,4.754,0,0,0-6.1,3.027L659.34,1027.521Z" transform="translate(-633.346 -849.579)" fill="#333"/>
  </g>
  <line id="Line_30" data-name="Line 30" x2="24.281" y2="26.979" transform="translate(137.975 102.086)" fill="#333" stroke="#000" stroke-miterlimit="10" stroke-width="0.5"/>
  <line id="Line_31" data-name="Line 31" x2="33.274" y2="39.569" transform="translate(117.291 106.582)" fill="#333" stroke="#000" stroke-miterlimit="10" stroke-width="0.5"/>
</svg>
