<svg xmlns="http://www.w3.org/2000/svg" width="464.283" height="535.703" viewBox="0 0 464.283 535.703">
  <g id="Group_418" data-name="Group 418" transform="translate(309.012 -1153.063)">
    <rect id="Rectangle_98" data-name="Rectangle 98" width="321.049" height="361.748" transform="matrix(0.948, -0.319, 0.319, 0.948, -298.742, 1267.122)" fill="#fff" stroke="#000" stroke-miterlimit="10" stroke-width="1"/>
    <path id="Path_1578" data-name="Path 1578" d="M3.53,1154.092l-305.782,102.948a8.972,8.972,0,0,0-5.8,11.288l.075.225L-168.778,1682a8.959,8.959,0,0,0,11.262,5.812l.247-.083,305.782-102.944a8.975,8.975,0,0,0,5.8-11.288l-.075-.225-139.2-413.449a8.979,8.979,0,0,0-11.288-5.807Zm102.662,335.241a8.966,8.966,0,0,1-5.494,11.43l-.234.08-270.247,90.985a8.973,8.973,0,0,1-11.438-5.495l-.075-.233-102.948-305.782a8.966,8.966,0,0,1,5.494-11.434l.234-.079,269.7-90.8a8.972,8.972,0,0,1,11.434,5.5l.079.225L105.65,1489.51Z" transform="translate(0 0)" fill="#fff" stroke="#000" stroke-miterlimit="10" stroke-width="1"/>
  </g>
</svg>
