<svg xmlns="http://www.w3.org/2000/svg" width="352.682" height="223.037" viewBox="0 0 352.682 223.037">
  <g id="Group_133" data-name="Group 133" transform="translate(-739.675 -253.48)">
    <g id="Group_255" data-name="Group 255" transform="translate(878.611 342.833)">
      <path id="Path_49-2" data-name="Path 49-2" d="M1135.259,519.669a31.482,31.482,0,0,0,15.267,18.247c.744.372.744,1.118-1.49.744a23.472,23.472,0,0,1-7.44-2.234,25.425,25.425,0,0,1-14.151-14.895,47.893,47.893,0,0,1-4.1-20.481s-1.87-1.49-3.359-2.979h21.6C1135.631,504.029,1133.4,513.338,1135.259,519.669Z" transform="translate(-1119.99 -498.071)" fill="#dbdbdb"/>
    </g>
    <g id="Group_256" data-name="Group 256" transform="translate(739.675 253.48)">
      <path id="Path_50-2" data-name="Path 50-2" d="M766.151,368.173s3.724-5.214,1.49-15.641-16.757-17.875-16.757-17.875l-9.309-5.578s-3.724-4.467-.744-8.193,12.667-7.819,12.667-7.819.744-18.619,1.49-25.694a21.337,21.337,0,0,1,1.49-5.213c1.118-8.193-4.1-11.917-7.075-15.641a5.553,5.553,0,0,1-.744-7.439c2.234-1.862,7.076-1.862,8.193,1.118,1.118,4.1,7.075,6.7,12.289,8.566,2.979-1.862,5.213-2.98,5.213-2.98l10.053-4.1h5.958l4.834-8.208h3.351l4.1,6.33h56.6l22.342,5.96h167.2s5.213-8.566,6.329-10.054,4.1-3.352,7.819,0a100.123,100.123,0,0,1,8.938,10.054H1082.3v5.585h10.053V316.8H1082.3v6.329h-13.033v5.586h-24.206v2.98H956.44s-18.619,7.44-18.619,20.481-1.118,25.322-1.118,25.322S925.9,393.133,895,392.759c-27.93-.008-43.933-5.974-43.933-5.974L832.446,447.1a37.8,37.8,0,0,0,0,13.779c.744,2.234,1.49,4.841,2.234,7.439,1.49,4.468-7.076,8.193-7.076,8.193H754.236s-13.779-4.078-13.779-23.068a128.165,128.165,0,0,1,5.957-36.493Zm92.353,2.608c1.118,5.586,11.543,16.385,37.983,16.385s33.888-11.171,33.888-11.171v-22.72s-5.958-13.4-23.832-13.4H871.537c-1.862,1.118-7.075,2.614-8.565,4.468a19.083,19.083,0,0,0-4.468,8.941A54.5,54.5,0,0,0,858.5,370.781Z" transform="translate(-739.675 -253.48)" fill="#dbdbdb"/>
    </g>
  </g>
</svg>
