<svg xmlns="http://www.w3.org/2000/svg" width="304.812" height="304.812" viewBox="0 0 304.812 304.812">
  <g id="Group_438" data-name="Group 438" transform="translate(-689.584 -2116.584)">
    <circle id="Ellipse_136" data-name="Ellipse 136" cx="152" cy="152" r="152" transform="translate(690 2117)" fill="#d85044"/>
    <g id="Group_437" data-name="Group 437" transform="translate(689.584 2116.584)">
      <g id="Group_436" data-name="Group 436" transform="translate(0 0)">
        <path id="Path_1582" data-name="Path 1582" d="M305.812,153.406A152.406,152.406,0,1,1,153.406,1,152.406,152.406,0,0,1,305.812,153.406ZM111.92,297.249l3.648-.261c1.627-.093,3.132-.044,3.179-.044a2.983,2.983,0,0,0,3.185-2.964,3.075,3.075,0,0,0-2.964-3.188s-1.807-.062-3.807.053l-3.679.264a3.08,3.08,0,0,0,.215,6.152C111.774,297.258,111.849,297.255,111.92,297.249ZM96.487,286.711l4.255-.588c2-.286,3.863-.46,3.888-.463a3.079,3.079,0,1,0-.575-6.13s-2.009.19-4.168.495l-4.242.588a3.078,3.078,0,0,0,.42,6.127A2.456,2.456,0,0,0,96.487,286.711Zm-11.378-2.3a1.828,1.828,0,0,0-.031-.345,33.618,33.618,0,0,1-.292-3.521c-.084-1.928-.04-3.661-.04-3.686.031-1.428-1.1-2.146-2.526-2.146h-.059c-1.4,0-2.554.625-2.585,2.034,0,0-.047,1.664.04,3.732.109,3.888.177,6.457,2.911,6.457A2.532,2.532,0,0,0,85.109,284.406Zm-1.627-10.712,8.5-1.266a2.764,2.764,0,0,0-.815-5.468l-8.5,1.266a2.765,2.765,0,0,0,.4,5.5A3.126,3.126,0,0,0,83.483,273.694Zm-10.3.737c0-.028.277-2.342.7-4.65.454-2.367,1.089-4.743,1.1-4.774a2.83,2.83,0,0,0-2.261-3.421A3.1,3.1,0,0,0,69,263.66s-.684,2.575-1.179,5.154c-.46,2.513-.756,5.008-.756,5.008a2.9,2.9,0,0,0,2.731,3.117,3.031,3.031,0,0,0,.333.019A2.993,2.993,0,0,0,73.187,274.431Zm-3.714-13.772,10.675-1.235a3.079,3.079,0,1,0-.706-6.118l-10.675,1.235a3.08,3.08,0,0,0,.348,6.14A2.792,2.792,0,0,0,69.474,260.659ZM58.668,246.715l6.028-.83a24.281,24.281,0,0,0,5.885-.992,3.044,3.044,0,1,0-.435-6.071s-2.771.283-5.586.355l-6.012.3a3.42,3.42,0,0,0-3.02,3.5c.034,1.683,1.409,3.745,3.079,3.745ZM42.781,243.4c.016-.025,1.515-2.544,3.151-4.917,1.614-2.376,3.4-4.662,3.421-4.684a2.812,2.812,0,0,0-.5-3.972,2.87,2.87,0,0,0-4.009.5c-.078.1-1.925,2.457-3.639,4.98-1.736,2.522-3.281,5.12-3.347,5.228a2.84,2.84,0,0,0,2.457,4.267A2.872,2.872,0,0,0,42.781,243.4ZM58.8,263.7c0-.028.442-2.905,1.054-5.689.591-2.784,1.375-5.543,1.384-5.571a2.877,2.877,0,0,0-1.9-3.524,2.722,2.722,0,0,0-3.434,1.879c-.037.118-.843,2.967-1.471,5.919-.65,2.961-1.1,5.925-1.117,6.05a2.863,2.863,0,0,0,2.32,3.25,2.673,2.673,0,0,0,1.449-.143A2.751,2.751,0,0,0,58.8,263.7Zm7.773-36.226c.078-1.7-1.235-3.885-2.933-3.963-.025,0-3-.112-6.1-.392-3.011-.3-6.183-.715-6.205-.719a3.165,3.165,0,0,0-3.493,2.7,3.268,3.268,0,0,0,2.6,3.683,49,49,0,0,0,6.516,1.188,38.512,38.512,0,0,1,6.4,1.2H63.5C65.141,231.164,66.5,229.127,66.575,227.472Zm-32.4-3.711,1.468-1.524c.862-.88,2-2.019,3.3-3.173,2.491-2.255,5.154-4.33,5.182-4.348a3.079,3.079,0,0,0-3.779-4.861c-.118.087-2.865,2.23-5.508,4.619-1.4,1.238-2.647,2.488-3.611,3.471l-1.49,1.549a3.079,3.079,0,0,0,4.438,4.267Zm28.509-12.087a3.077,3.077,0,0,0-2.37-3.652s-3.061-.653-6.255-1.536c-1.589-.435-3.213-.918-4.358-1.278l-2.019-.69A3.08,3.08,0,0,0,45.7,210.35l2.075.706c1.278.407,2.986.914,4.653,1.369,3.368.93,6.6,1.62,6.6,1.62a2.878,2.878,0,0,0,.647.068A3.074,3.074,0,0,0,62.687,211.675Zm-33.057-9.505c.031-.019,3.07-1.922,6.13-3.533,1.552-.815,3.051-1.583,4.255-2.118l2.127-.927a3.08,3.08,0,1,0-2.466-5.645l-2.137.933c-1.331.588-2.964,1.418-4.644,2.3-3.278,1.72-6.41,3.686-6.544,3.77a3.079,3.079,0,0,0,1.639,5.686A3.037,3.037,0,0,0,29.631,202.169Zm32.406-5.306a3.08,3.08,0,0,0-1.571-4.062l-1.925-.849c-1.12-.529-2.622-1.263-4.146-2.062-2.977-1.543-6.046-3.393-6.078-3.412a3.079,3.079,0,1,0-3.182,5.272c.131.078,3.266,1.969,6.413,3.6,1.6.837,3.179,1.614,4.432,2.2l1.994.88a3.045,3.045,0,0,0,1.244.264A3.076,3.076,0,0,0,62.037,196.863Zm-31.7-16.954,2.221-.694c1.294-.392,3.126-.843,4.911-1.26,3.58-.84,7.2-1.437,7.238-1.443a3.078,3.078,0,1,0-1-6.074c-.156.025-3.86.631-7.648,1.521-1.922.451-3.9.942-5.312,1.369l-2.246.7a3.079,3.079,0,0,0,.914,6.018A2.958,2.958,0,0,0,30.337,179.909ZM64.715,182.4a3.08,3.08,0,0,0-.694-4.3c-.028-.022-2.84-2.053-5.611-4.333-1.4-1.141-2.8-2.336-3.776-3.207l-1.692-1.568a3.079,3.079,0,1,0-4.19,4.513l1.742,1.617c1.082.961,2.554,2.221,4.015,3.412,2.908,2.395,5.788,4.473,5.906,4.563a3.057,3.057,0,0,0,1.8.585A3.087,3.087,0,0,0,64.715,182.4ZM36.063,158.631c.04,0,3.91-.264,7.676-.3,3.748-.072,7.505.084,7.543.09a3.079,3.079,0,1,0,.255-6.152c-.159-.006-3.963-.171-7.885-.1-3.931.044-7.844.308-8.012.32a3.08,3.08,0,0,0,.208,6.152Q35.955,158.64,36.063,158.631Zm34.319,9.742a3.074,3.074,0,0,0,.14-4.348c-.019-.022-2.5-2.669-4.924-5.549-2.364-2.778-4.56-5.751-4.585-5.779a3.082,3.082,0,0,0-4.569-.442c-2.37,2.187-.921,3.888,4.454,10.2,2.5,2.97,5.026,5.667,5.132,5.782a3.08,3.08,0,0,0,4.351.137ZM65.16,139.745A3.074,3.074,0,0,0,63,135.966l-2.442-.663c-1.465-.37-3.44-.83-5.446-1.229s-4.056-.75-5.645-.986l-2.5-.342a3.08,3.08,0,0,0-.834,6.1l2.466.336c1.465.218,3.4.544,5.309.93s3.763.812,5.095,1.148l2.383.647a3.053,3.053,0,0,0,.812.109A3.085,3.085,0,0,0,65.16,139.745Zm13.06,16.273a3.079,3.079,0,0,0,.914-4.258c-.019-.031-2.015-3.132-3.683-6.336-1.7-3.188-3.219-6.712-3.235-6.746a3.079,3.079,0,1,0-5.658,2.429c.065.152,1.633,3.791,3.443,7.185,1.779,3.431,3.869,6.672,3.956,6.808a3.075,3.075,0,0,0,2.591,1.409A3.044,3.044,0,0,0,78.22,156.018ZM79.632,127.5a3.083,3.083,0,0,0-.946-4.252c-.14-.087-3.48-2.208-7.176-4.112-2.252-1.185-4.27-2.087-5.3-2.529l-2.355-.992a3.079,3.079,0,1,0-2.395,5.673l2.336.983c1.568.675,3.331,1.518,4.865,2.327,3.462,1.785,6.684,3.826,6.715,3.847a3.081,3.081,0,0,0,4.255-.946Zm8.168,19.39a3.08,3.08,0,0,0,2-3.866c-.009-.034-1.11-3.512-1.86-7.123-.743-3.524-1.188-7.331-1.191-7.368a3.079,3.079,0,0,0-6.118.706c.019.165.479,4.121,1.281,7.928.812,3.907,1.969,7.571,2.019,7.723a3.073,3.073,0,0,0,3.866,2Zm9.235-26.976a3.078,3.078,0,0,0,.286-4.345c-.109-.124-2.715-3.092-5.679-5.981-2.973-2.942-6.2-5.536-6.329-5.645a3.08,3.08,0,0,0-3.857,4.8c.031.025,3.117,2.51,5.872,5.238,2.8,2.731,5.337,5.617,5.362,5.645a3.083,3.083,0,0,0,4.345.286Zm2.336,21.054a3.129,3.129,0,0,0,3.057-3.166c0-.037-.022-3.8.274-7.511.3-3.633.911-7.421.918-7.459a3.072,3.072,0,0,0-2.911-3.564c-3.269-.156-3.449,2.14-4.146,10.56-.317,3.994-.292,7.857-.292,8.018a3.138,3.138,0,0,0,3.079,3.123Zm16.416-24.089a3.079,3.079,0,0,0,1.232-4.177c-.078-.143-1.941-3.561-4.087-7.039-2.134-3.428-4.5-6.731-4.6-6.868a3.078,3.078,0,0,0-5,3.586c.022.034,2.345,3.275,4.367,6.525,2.053,3.322,3.894,6.706,3.913,6.74a3.082,3.082,0,0,0,2.709,1.608A3.124,3.124,0,0,0,115.786,116.875Zm1.194,18.488c.009-.037.946-3.655,2.106-7.235,1.135-3.546,2.529-7.06,2.544-7.095a3.08,3.08,0,0,0-5.723-2.277c-.059.152-1.487,3.742-2.684,7.483-1.216,3.757-2.165,7.431-2.205,7.586a3.079,3.079,0,0,0,2.211,3.751,3.143,3.143,0,0,0,.771.1A3.087,3.087,0,0,0,116.981,135.363Zm17.281-17.95a3.08,3.08,0,0,0,2.56-3.033c0-1.1-2.538-7.247-3.042-8.448-1.5-3.683-3.188-7.39-3.188-7.39a3.08,3.08,0,1,0-5.608,2.547c.006.016,1.639,3.6,3.1,7.191,1.462,3.508,2.734,7.085,2.746,7.12a3.084,3.084,0,0,0,2.905,2.056A3.321,3.321,0,0,0,134.262,117.413Zm-1.225,17.95c.215-.457,1.7-3.574,3.322-6.665,1.6-3.07,3.319-6.068,3.592-6.541a3.2,3.2,0,0,0,.034-3.141l-2.666,1.543-.009,0-2.7-1.474c-.283.491-2.068,3.6-3.714,6.759-3.76,7.157-3.76,7.623-3.76,8.267a3.082,3.082,0,0,0,5.9,1.25Zm20.618-15.346a3.082,3.082,0,0,0,2.159-3.782l-2.009-7.347c-1.051-3.76-2.249-7.505-2.249-7.505a3.079,3.079,0,0,0-5.866,1.872c0,.019,1.166,3.645,2.177,7.272l2.006,7.331a3.085,3.085,0,0,0,2.97,2.267A3.052,3.052,0,0,0,153.655,120.016ZM149.913,137.4c.009-.012,2.009-3.138,4.106-6.18,1.888-2.734,3.851-5.418,4.224-5.931a3.254,3.254,0,0,0,.323-3.3l-2.753,1.4-2.541-1.732c-.383.523-2.389,3.266-4.32,6.065-2.165,3.138-4.224,6.361-4.224,6.361a3.078,3.078,0,0,0,5.185,3.319Zm22.254-13.026a3.08,3.08,0,0,0,2.382-3.645l-3.135-14.519a3.081,3.081,0,0,0-6.015,1.337l3.123,14.447a3.079,3.079,0,0,0,3.011,2.448A3.389,3.389,0,0,0,172.167,124.371Zm-4.877,16.348c.009-.012,2.252-2.855,4.526-5.583l4.69-5.521a3.079,3.079,0,0,0-4.7-3.984l-4.706,5.543c-2.351,2.818-4.65,5.735-4.65,5.735a3.079,3.079,0,1,0,4.837,3.81Zm23.141-10.958a3.077,3.077,0,0,0,2.476-3.583l-2.541-13.944a3.078,3.078,0,1,0-6.056,1.107l2.541,13.944a3.076,3.076,0,0,0,3.026,2.526A2.819,2.819,0,0,0,190.431,129.761Zm-5.49,15.219,9.586-10.021a3.08,3.08,0,0,0-4.41-4.3l-9.664,10.109a3.078,3.078,0,0,0,4.488,4.214Zm23.561-9.191a3.082,3.082,0,0,0,2.491-3.571l-2.355-13.194a3.079,3.079,0,0,0-6.062,1.079l2.355,13.194a3.083,3.083,0,0,0,3.029,2.538A2.687,2.687,0,0,0,208.5,135.789Zm18.251,4.9a2.867,2.867,0,0,0,2.32-3.328l-2.193-12.289a2.867,2.867,0,1,0-5.645,1.008l2.193,12.289a2.872,2.872,0,0,0,2.821,2.364A2.546,2.546,0,0,0,226.753,140.688Zm-23.894,9.045,9.6-8.936a3.078,3.078,0,1,0-4.155-4.541l-9.679,9.007a3.078,3.078,0,1,0,4.233,4.47Zm18.662,6.221,9.6-8.936a3.078,3.078,0,0,0-4.155-4.541l-9.679,9.008a3.078,3.078,0,1,0,4.233,4.47Zm23.187-7.717a3.078,3.078,0,0,0,2.025-3.854c-.006-.019-.806-2.591-1.527-5.269l-1.456-5.6a3.078,3.078,0,1,0-5.959,1.546l1.462,5.639c.762,2.827,1.6,5.521,1.6,5.521a3.078,3.078,0,0,0,2.939,2.165A3.115,3.115,0,0,0,244.709,148.236ZM239.655,162.5l8.861-6.892a3.08,3.08,0,1,0-3.742-4.893l-8.933,6.945a3.081,3.081,0,0,0,1.91,5.5A3.039,3.039,0,0,0,239.655,162.5Zm19.265.743,8.146-6.118a3.08,3.08,0,1,0-3.7-4.924l-8.146,6.115a3.081,3.081,0,1,0,3.7,4.927Zm24.425-12.395-.016-1.291-.9-.9a30.057,30.057,0,0,1-2.585-2.98,36.479,36.479,0,0,1-2.3-3.372,3.112,3.112,0,0,0-3.471-1.384,3.09,3.09,0,0,0-1.792,4.578,44.579,44.579,0,0,0,2.681,3.922,35.151,35.151,0,0,0,3.12,3.589,3.081,3.081,0,0,0,5.269-2.162Zm-18.662-3.11-.016-1.291-.9-.9a30.052,30.052,0,0,1-2.585-2.98,36.487,36.487,0,0,1-2.3-3.372,3.112,3.112,0,0,0-3.471-1.384,3.09,3.09,0,0,0-1.792,4.578,44.6,44.6,0,0,0,2.681,3.922,35.168,35.168,0,0,0,3.12,3.589,3.081,3.081,0,0,0,5.269-2.162Zm14.852,16.929,3.639-3.11c.905-.765,1.785-1.6,2.417-2.2l.977-.933a3.079,3.079,0,0,0-4.246-4.46l-.97.924c-.563.535-1.353,1.281-2.183,1.991l-3.564,3.045a3.079,3.079,0,1,0,3.931,4.74Zm22.528-5.549.622-1.658c.249-.908.535-2.068.8-3.288.137-.824.208-1.633.268-2.314l.056-.588a8.676,8.676,0,0,0,.044-1.894,3.038,3.038,0,0,0-3.328-2.709,3.1,3.1,0,0,0-2.8,3.309,2.967,2.967,0,0,1-.031.575l-.072.778c-.047.535-.1,1.173-.177,1.664-.2.908-.445,1.894-.659,2.7l-.467,1.219a3.076,3.076,0,1,0,5.742,2.208Zm-14.979-14.143a26.657,26.657,0,0,0,3.306,2.249,28.83,28.83,0,0,0,3.446,1.4,3.08,3.08,0,0,0,1.888-5.863,22.314,22.314,0,0,1-2.432-.97,20.585,20.585,0,0,1-2.327-1.6,3.078,3.078,0,1,0-3.882,4.777Z" transform="translate(-1 -1)" fill="#edede7"/>
      </g>
    </g>
  </g>
</svg>
